<?xml version="1.0" encoding="UTF-8" standalone="no"?>
<!-- Created with Inkscape (http://www.inkscape.org/) -->

<svg
   width="87.722557mm"
   height="37.504581mm"
   viewBox="0 0 87.722557 37.504581"
   version="1.1"
   id="svg1"
   sodipodi:docname="kancelaria_bylica_wzor_2.svg"
   inkscape:version="1.4.2 (f4327f4, 2025-05-13)"
   xmlns:inkscape="http://www.inkscape.org/namespaces/inkscape"
   xmlns:sodipodi="http://sodipodi.sourceforge.net/DTD/sodipodi-0.dtd"
   xmlns="http://www.w3.org/2000/svg"
   xmlns:svg="http://www.w3.org/2000/svg">
  <sodipodi:namedview
     id="namedview1"
     pagecolor="#ffffff"
     bordercolor="#000000"
     borderopacity="0.25"
     inkscape:showpageshadow="2"
     inkscape:pageopacity="0.0"
     inkscape:pagecheckerboard="0"
     inkscape:deskcolor="#d1d1d1"
     inkscape:document-units="mm"
     inkscape:zoom="0.30178447"
     inkscape:cx="-298.22608"
     inkscape:cy="91.124636"
     inkscape:window-width="2560"
     inkscape:window-height="1369"
     inkscape:window-x="2552"
     inkscape:window-y="-8"
     inkscape:window-maximized="1"
     inkscape:current-layer="layer1" />
  <defs
     id="defs1">
    <clipPath
       clipPathUnits="userSpaceOnUse"
       id="clipPath213">
      <path
         d="M -0.015,-0.2021 H 841.8748 V 595.0735 H -0.015 Z"
         transform="translate(-2.5e-5)"
         clip-rule="evenodd"
         id="path213" />
    </clipPath>
  </defs>
  <g
     inkscape:label="Warstwa 1"
     inkscape:groupmode="layer"
     id="layer1"
     transform="translate(-14.022885,-64.558339)">
    <path
       id="path212"
       d="m 537.3952,412.3451 h -3.6924 l -0.0116,-2e-4 h -10.9956 c -5.0363,0 -10.1985,2.9383 -10.1985,8.8613 0,5.5554 5.0783,8.4941 9.779,8.4022 l -0.1678,0.1378 c -3.6516,0.5507 -7.4288,3.3055 -7.4288,7.2082 0,5.0964 4.8266,7.2085 8.9394,7.2544 h 3.6887 l 0.0147,3e-4 h 10.0729 c 0.2518,0 0.2098,-0.3214 0,-0.3214 h -1.9726 c -0.21,0 -0.2939,-0.0919 -0.2939,-0.3215 v -17.4886 c -0.5638,0.2021 -1.2028,0.197 -1.7626,-0.0165 v 17.5051 c 0,0.2225 -0.0788,0.3155 -0.2747,0.3212 h -1.3725 c -0.2098,0 -0.2937,-0.0919 -0.2937,-0.3215 v -30.5782 c 0,-0.2259 0.1219,-0.3186 0.2857,-0.3214 h 0.008 1.3532 0.01 c 0.2029,0.003 0.2843,0.0955 0.2843,0.3214 v 14.5313 c 0.5598,-0.2098 1.1988,-0.2293 1.7626,-0.0403 v -14.491 c 0,-0.2296 0.1261,-0.3214 0.2939,-0.3214 h 1.9726 c 0.2518,0 0.2518,-0.3212 0,-0.3212 z m 172.4845,-56.2671 -2.2906,2.2907 -2.2907,-2.2907 2.2907,-2.2907 z m -24.7594,-18.1811 h 10.9958 c 5.0363,0 10.1985,2.9383 10.1985,8.8613 0,5.5554 -5.0783,8.4941 -9.7789,8.4022 l 0.1678,0.1378 c 3.6516,0.5507 7.4287,3.3055 7.4287,7.2082 0,5.0964 -4.8265,7.2085 -8.9393,7.2544 h -3.6887 l -0.0148,3e-4 h -10.0729 c -0.2517,0 -0.2098,-0.3214 0,-0.3214 h 1.9726 c 0.2101,0 0.294,-0.0919 0.294,-0.3215 v -17.4886 c 0.5638,0.2021 1.2027,0.197 1.7626,-0.0165 v 17.5051 c 0,0.2225 0.0788,0.3155 0.2744,0.3212 h 1.3728 c 0.2097,0 0.2937,-0.0919 0.2937,-0.3215 v -30.5782 c 0,-0.2259 -0.1219,-0.3186 -0.2858,-0.3214 h -0.008 -1.3536 -0.01 c -0.2027,0.003 -0.284,0.0955 -0.284,0.3214 v 14.5313 c -0.5599,-0.2098 -1.1988,-0.2293 -1.7626,-0.0403 v -14.491 c 0,-0.2296 -0.1262,-0.3214 -0.294,-0.3214 h -1.9726 c -0.2517,0 -0.2517,-0.3212 0,-0.3212 h 3.6921 l 0.0117,-2e-4 z m 9.6902,17.1255 c 5.5624,-0.008 9.5734,-1.7592 9.5734,-8.2642 0,-6.1064 -3.7352,-8.5399 -8.2678,-8.5399 h -0.845 c 3.9592,0.9085 7.34,3.7468 7.34,8.5399 0,4.779 -3.7578,7.6213 -7.8006,8.2642 z m -5.3771,-16.8041 c -0.2026,0.003 -0.2843,0.0955 -0.2843,0.3214 v 16.1615 c 0,0.2296 0.0842,0.3214 0.294,0.3214 h 1.6787 c 5.555,-0.011 9.5587,-1.7651 9.5587,-8.2644 0,-6.1064 -3.7352,-8.5399 -8.2678,-8.5399 h -2.9696 -0.01 z m 12.936,24.2881 c 0,-5.0961 -3.1057,-7.1623 -8.0161,-7.1623 h -1.0803 c 3.5645,0.6435 7.1555,3.3571 7.1555,7.1626 0,4.0076 -2.9843,6.1696 -6.2595,6.9327 h 0.8977 c 3.7355,0 7.3027,-1.6988 7.3027,-6.933 z m -12.9456,-7.162 c -0.1956,0.006 -0.2747,0.0986 -0.2747,0.3211 v 13.4524 c 0,0.2296 0.0842,0.3215 0.294,0.3215 h 1.9638 c 3.7197,-0.0134 7.259,-1.719 7.259,-6.9327 0,-5.0964 -3.1056,-7.1623 -8.0161,-7.1623 z m 40.4201,-17.4475 h -10.9956 c -5.0363,0 -10.1985,2.9383 -10.1985,8.8613 0,5.5554 5.0783,8.4941 9.7787,8.4022 l -0.1678,0.1378 c -3.6513,0.5507 -7.4285,3.3055 -7.4285,7.2082 0,5.0964 4.8263,7.2085 8.9393,7.2544 h 3.6888 l 0.0147,3e-4 h 10.0726 c 0.252,0 0.2098,-0.3214 0,-0.3214 h -1.9726 c -0.2098,0 -0.2937,-0.0919 -0.2937,-0.3215 v -17.4886 c -0.5641,0.2021 -1.203,0.197 -1.7628,-0.0165 v 17.5051 c 0,0.2225 -0.0786,0.3155 -0.2744,0.3212 h -1.3726 c -0.21,0 -0.2936,-0.0919 -0.2936,-0.3215 v -30.5782 c 0,-0.2259 0.1218,-0.3186 0.2857,-0.3214 h 0.008 1.3533 0.01 c 0.203,0.003 0.2841,0.0955 0.2841,0.3214 v 14.5313 c 0.5598,-0.2098 1.1987,-0.2293 1.7628,-0.0403 v -14.491 c 0,-0.2296 0.1259,-0.3214 0.2937,-0.3214 h 1.9726 c 0.252,0 0.252,-0.3212 0,-0.3212 h -3.6921 l -0.0116,-2e-4 z m -9.6903,17.1255 c -5.5621,-0.008 -9.5731,-1.7592 -9.5731,-8.2642 0,-6.1064 3.7352,-8.5399 8.2678,-8.5399 h 0.845 c -3.9592,0.9085 -7.34,3.7468 -7.34,8.5399 0,4.779 3.7578,7.6213 7.8003,8.2642 z m 5.3771,-16.8041 c 0.2029,0.003 0.2843,0.0955 0.2843,0.3214 v 16.1615 c 0,0.2296 -0.0839,0.3214 -0.294,0.3214 h -1.6784 c -5.555,-0.011 -9.5587,-1.7651 -9.5587,-8.2644 0,-6.1064 3.7352,-8.5399 8.2678,-8.5399 h 2.9693 0.01 z m -12.9359,24.2881 c 0,-5.0961 3.1056,-7.1623 8.0161,-7.1623 h 1.0805 c -3.5643,0.6435 -7.1555,3.3571 -7.1555,7.1626 0,4.0076 2.9841,6.1696 6.2592,6.9327 h -0.8977 c -3.7352,0 -7.3026,-1.6988 -7.3026,-6.933 z m 12.9455,-7.162 c 0.1959,0.006 0.2747,0.0986 0.2747,0.3211 v 13.4524 c 0,0.2296 -0.0839,0.3215 -0.294,0.3215 h -1.9638 c -3.7193,-0.0134 -7.2587,-1.719 -7.2587,-6.9327 0,-5.0964 3.1057,-7.1623 8.0158,-7.1623 z m -47.4009,0.9374 -4.1485,4.1485 c -0.0556,0.0556 -0.1304,0.0848 -0.2038,0.0848 -0.0749,0 -0.1446,-0.0284 -0.1999,-0.0814 l -4.1527,-4.1519 c -0.0576,-0.0575 -0.0848,-0.131 -0.0848,-0.2041 0,-0.0728 0.0266,-0.146 0.0848,-0.2041 l 4.1524,-4.1516 c 0.0553,-0.053 0.1267,-0.0814 0.2002,-0.0814 0.0731,0 0.1437,0.0275 0.1998,0.0814 0.5672,0.4413 3.7066,3.5841 4.1559,4.1559 0.0538,0.0561 0.0813,0.1267 0.0813,0.1998 0,0.0765 -0.0283,0.1446 -0.0813,0.1998 l -0.003,0.004 z m -4.3526,3.5875 3.7916,-3.7916 -3.7916,-3.7913 -3.7917,3.7913 z m 5.5377,-3.556 -5.3022,5.3024 c -0.0652,0.065 -0.1505,0.0973 -0.2355,0.0973 -0.0851,0 -0.1695,-0.0326 -0.2345,-0.0973 l -5.303,-5.3024 c -0.0649,-0.0652 -0.0978,-0.1508 -0.0978,-0.2353 0,-0.0853 0.0326,-0.1704 0.0978,-0.2353 l 5.3022,-5.3025 c 0.0646,-0.0646 0.1502,-0.0972 0.2353,-0.0972 0.085,0 0.1703,0.0323 0.2352,0.0972 l 5.3025,5.3025 c 0.0649,0.0649 0.0973,0.1502 0.0973,0.2353 0,0.0853 -0.0324,0.1703 -0.0973,0.2353 z m -5.519,5.0856 5.3022,-5.3025 c 0.005,-0.005 0.007,-0.0116 0.007,-0.0184 0,-0.007 -0.003,-0.0136 -0.007,-0.0184 l -5.3025,-5.3025 c -0.005,-0.005 -0.0119,-0.007 -0.0187,-0.007 -0.006,0 -0.0136,0.003 -0.0182,0.007 l -5.3025,5.3025 c -0.005,0.005 -0.008,0.0119 -0.008,0.0184 0,0.007 0.002,0.0139 0.007,0.0184 l 5.303,5.3025 c 0.005,0.005 0.0117,0.007 0.0185,0.007 0.007,0 0.0136,-0.003 0.0187,-0.007 z m -29.31,-5.3209 -2.2906,2.2907 -2.2907,-2.2907 2.2907,-2.2907 z m -24.7592,-18.1811 h 10.9956 c 5.0363,0 10.1985,2.9383 10.1985,8.8613 0,5.5554 -5.0783,8.4941 -9.779,8.4022 l 0.1678,0.1378 c 3.6516,0.5507 7.4288,3.3055 7.4288,7.2082 0,5.0964 -4.8266,7.2085 -8.9393,7.2544 h -3.6888 l -0.0147,3e-4 h -10.0729 c -0.2517,0 -0.2098,-0.3214 0,-0.3214 h 1.9726 c 0.2101,0 0.294,-0.0919 0.294,-0.3215 v -17.4886 c 0.5638,0.2021 1.2027,0.197 1.7625,-0.0165 v 17.5051 c 0,0.2225 0.0789,0.3155 0.2744,0.3212 h 1.3729 c 0.2097,0 0.2936,-0.0919 0.2936,-0.3215 v -30.5782 c 0,-0.2259 -0.1219,-0.3186 -0.2857,-0.3214 h -0.008 -1.3536 -0.01 c -0.2027,0.003 -0.2841,0.0955 -0.2841,0.3214 v 14.5313 c -0.5598,-0.2098 -1.1987,-0.2293 -1.7625,-0.0403 v -14.491 c 0,-0.2296 -0.1262,-0.3214 -0.294,-0.3214 h -1.9726 c -0.2517,0 -0.2517,-0.3212 0,-0.3212 h 3.6924 l 0.0116,-2e-4 z m 9.69,17.1255 c 5.5624,-0.008 9.5734,-1.7592 9.5734,-8.2642 0,-6.1064 -3.7352,-8.5399 -8.2678,-8.5399 h -0.845 c 3.9591,0.9085 7.34,3.7468 7.34,8.5399 0,4.779 -3.7579,7.6213 -7.8006,8.2642 z m -5.3771,-16.8041 c -0.2026,0.003 -0.284,0.0955 -0.284,0.3214 v 16.1615 c 0,0.2296 0.0839,0.3214 0.2937,0.3214 h 1.6786 c 5.5551,-0.011 9.5588,-1.7651 9.5588,-8.2644 0,-6.1064 -3.7353,-8.5399 -8.2679,-8.5399 h -2.9695 -0.01 z m 12.9359,24.2881 c 0,-5.0961 -3.1056,-7.1623 -8.0161,-7.1623 h -1.0802 c 3.5645,0.6435 7.1555,3.3571 7.1555,7.1626 0,4.0076 -2.9844,6.1696 -6.2595,6.9327 h 0.898 c 3.7352,0 7.3023,-1.6988 7.3023,-6.933 z m -12.9455,-7.162 c -0.1956,0.006 -0.2744,0.0986 -0.2744,0.3211 v 13.4524 c 0,0.2296 0.0839,0.3215 0.2937,0.3215 h 1.9638 c 3.7196,-0.0134 7.259,-1.719 7.259,-6.9327 0,-5.0964 -3.1057,-7.1623 -8.0161,-7.1623 z m 40.4201,-17.4475 h -10.9956 c -5.0364,0 -10.1985,2.9383 -10.1985,8.8613 0,5.5554 5.0782,8.4941 9.7789,8.4022 l -0.1681,0.1378 c -3.6513,0.5507 -7.4284,3.3055 -7.4284,7.2082 0,5.0964 4.8262,7.2085 8.9393,7.2544 h 3.6887 l 0.0148,3e-4 h 10.0729 c 0.2517,0 0.2095,-0.3214 0,-0.3214 h -1.9729 c -0.2098,0 -0.2937,-0.0919 -0.2937,-0.3215 v -17.4886 c -0.5638,0.2021 -1.203,0.197 -1.7626,-0.0165 v 17.5051 c 0,0.2225 -0.0788,0.3155 -0.2747,0.3212 h -1.3725 c -0.2098,0 -0.2937,-0.0919 -0.2937,-0.3215 v -30.5782 c 0,-0.2259 0.1219,-0.3186 0.2858,-0.3214 h 0.008 1.3533 0.01 c 0.203,0.003 0.2843,0.0955 0.2843,0.3214 v 14.5313 c 0.5596,-0.2098 1.1988,-0.2293 1.7626,-0.0403 v -14.491 c 0,-0.2296 0.1259,-0.3214 0.2937,-0.3214 h 1.9729 c 0.2517,0 0.2517,-0.3212 0,-0.3212 h -3.6924 l -0.0116,-2e-4 z m -9.69,17.1255 c -5.5624,-0.008 -9.5734,-1.7592 -9.5734,-8.2642 0,-6.1064 3.7352,-8.5399 8.2678,-8.5399 h 0.845 c -3.9592,0.9085 -7.3401,3.7468 -7.3401,8.5399 0,4.779 3.7582,7.6213 7.8007,8.2642 z m 5.377,-16.8041 c 0.2027,0.003 0.2841,0.0955 0.2841,0.3214 v 16.1615 c 0,0.2296 -0.0839,0.3214 -0.2937,0.3214 h -1.6787 c -5.555,-0.011 -9.5587,-1.7651 -9.5587,-8.2644 0,-6.1064 3.7352,-8.5399 8.2678,-8.5399 h 2.9696 0.01 z m -12.9361,24.2881 c 0,-5.0961 3.1059,-7.1623 8.016,-7.1623 h 1.0806 c -3.5643,0.6435 -7.1555,3.3571 -7.1555,7.1626 0,4.0076 2.984,6.1696 6.2592,6.9327 h -0.8977 c -3.7352,0 -7.3026,-1.6988 -7.3026,-6.933 z m 12.9458,-7.162 c 0.1956,0.006 0.2744,0.0986 0.2744,0.3211 v 13.4524 c 0,0.2296 -0.0839,0.3215 -0.2937,0.3215 h -1.9641 c -3.7194,-0.0134 -7.2587,-1.719 -7.2587,-6.9327 0,-5.0964 3.1056,-7.1623 8.0161,-7.1623 z m -47.4013,0.9374 -4.1485,4.1485 c -0.0555,0.0556 -0.1303,0.0848 -0.2038,0.0848 -0.0748,0 -0.1445,-0.0284 -0.1998,-0.0814 l -4.1528,-4.1519 c -0.0575,-0.0575 -0.0847,-0.131 -0.0847,-0.2041 0,-0.0728 0.0266,-0.146 0.0847,-0.2041 l 4.1525,-4.1516 c 0.0553,-0.053 0.1267,-0.0814 0.2001,-0.0814 0.0732,0 0.1438,0.0275 0.1999,0.0814 0.5672,0.4413 3.7066,3.5841 4.1559,4.1559 0.0538,0.0561 0.0813,0.1267 0.0813,0.1998 0,0.0765 -0.0283,0.1446 -0.0813,0.1998 l -0.004,0.004 z m -4.3525,3.5875 3.7916,-3.7916 -3.7916,-3.7913 -3.7914,3.7913 z m 5.5377,-3.556 -5.3022,5.3024 c -0.0652,0.065 -0.1505,0.0973 -0.2355,0.0973 -0.0851,0 -0.1696,-0.0326 -0.2345,-0.0973 l -5.303,-5.3024 c -0.0649,-0.0652 -0.0978,-0.1508 -0.0978,-0.2353 0,-0.0853 0.0326,-0.1704 0.0978,-0.2353 l 5.3022,-5.3025 c 0.0646,-0.0646 0.1502,-0.0972 0.2353,-0.0972 0.085,0 0.1703,0.0323 0.2352,0.0972 l 5.3025,5.3025 c 0.0649,0.0649 0.0972,0.1502 0.0972,0.2353 0,0.0853 -0.0323,0.1703 -0.0972,0.2353 z m -5.519,5.0856 5.3022,-5.3025 c 0.005,-0.005 0.007,-0.0116 0.007,-0.0184 0,-0.007 -0.003,-0.0136 -0.007,-0.0184 l -5.3024,-5.3025 c -0.005,-0.005 -0.0119,-0.007 -0.0187,-0.007 -0.007,0 -0.0134,0.003 -0.0182,0.007 l -5.3025,5.3025 c -0.005,0.005 -0.008,0.0119 -0.008,0.0184 0,0.007 0.002,0.0139 0.007,0.0184 l 5.3027,5.3025 c 0.005,0.005 0.0116,0.007 0.0185,0.007 0.007,0 0.0136,-0.003 0.0187,-0.007 z m -29.31,-5.3209 -2.2907,2.2907 -2.2906,-2.2907 2.2906,-2.2907 z m -24.7592,-18.1811 h 10.9956 c 5.0363,0 10.1985,2.9383 10.1985,8.8613 0,5.5554 -5.0783,8.4941 -9.779,8.4022 l 0.1681,0.1378 c 3.6513,0.5507 7.4285,3.3055 7.4285,7.2082 0,5.0964 -4.8263,7.2085 -8.9394,7.2544 h -3.6887 l -0.0147,3e-4 h -10.0729 c -0.2518,0 -0.2098,-0.3214 0,-0.3214 h 1.9726 c 0.21,0 0.2939,-0.0919 0.2939,-0.3215 v -17.4886 c 0.5639,0.2021 1.2028,0.197 1.7626,-0.0165 v 17.5051 c 0,0.2225 0.0788,0.3155 0.2747,0.3212 h 1.3725 c 0.2098,0 0.2937,-0.0919 0.2937,-0.3215 v -30.5782 c 0,-0.2259 -0.1219,-0.3186 -0.2857,-0.3214 h -0.008 -1.3532 -0.01 c -0.2029,0.003 -0.2843,0.0955 -0.2843,0.3214 v 14.5313 c -0.5598,-0.2098 -1.1987,-0.2293 -1.7626,-0.0403 v -14.491 c 0,-0.2296 -0.1258,-0.3214 -0.2939,-0.3214 h -1.9726 c -0.2518,0 -0.2518,-0.3212 0,-0.3212 h 3.6924 l 0.0116,-2e-4 z m 9.6899,17.1255 c 5.5625,-0.008 9.5735,-1.7592 9.5735,-8.2642 0,-6.1064 -3.7352,-8.5399 -8.2678,-8.5399 h -0.845 c 3.9591,0.9085 7.34,3.7468 7.34,8.5399 0,4.779 -3.7582,7.6213 -7.8007,8.2642 z m -5.377,-16.8041 c -0.2027,0.003 -0.284,0.0955 -0.284,0.3214 v 16.1615 c 0,0.2296 0.0839,0.3214 0.2936,0.3214 h 1.6787 c 5.5551,-0.011 9.5587,-1.7651 9.5587,-8.2644 0,-6.1064 -3.7352,-8.5399 -8.2678,-8.5399 h -2.9696 -0.01 z m 12.9359,24.2881 c 0,-5.0961 -3.1056,-7.1623 -8.0158,-7.1623 h -1.0806 c 3.5646,0.6435 7.1555,3.3571 7.1555,7.1626 0,4.0076 -2.9843,6.1696 -6.2594,6.9327 h 0.898 c 3.7352,0 7.3023,-1.6988 7.3023,-6.933 z m -12.9455,-7.162 c -0.1956,0.006 -0.2744,0.0986 -0.2744,0.3211 v 13.4524 c 0,0.2296 0.0839,0.3215 0.2936,0.3215 h 1.9642 c 3.7193,-0.0134 7.2586,-1.719 7.2586,-6.9327 0,-5.0964 -3.1056,-7.1623 -8.016,-7.1623 z m 40.42,-17.4475 h -10.9956 c -5.0363,0 -10.1984,2.9383 -10.1984,8.8613 0,5.5554 5.0782,8.4941 9.7789,8.4022 l -0.1681,0.1378 c -3.6513,0.5507 -7.4285,3.3055 -7.4285,7.2082 0,5.0964 4.8263,7.2085 8.9394,7.2544 h 3.6887 l 0.0148,3e-4 h 10.0729 c 0.2517,0 0.2097,-0.3214 0,-0.3214 h -1.9729 c -0.2098,0 -0.2937,-0.0919 -0.2937,-0.3215 v -17.4886 c -0.5638,0.2021 -1.2028,0.197 -1.7626,-0.0165 v 17.5051 c 0,0.2225 -0.0788,0.3155 -0.2747,0.3212 h -1.3725 c -0.2098,0 -0.2937,-0.0919 -0.2937,-0.3215 v -30.5782 c 0,-0.2259 0.1219,-0.3186 0.2857,-0.3214 h 0.008 1.3532 0.01 c 0.2029,0.003 0.2843,0.0955 0.2843,0.3214 v 14.5313 c 0.5598,-0.2098 1.1988,-0.2293 1.7626,-0.0403 v -14.491 c 0,-0.2296 0.1258,-0.3214 0.2937,-0.3214 h 1.9729 c 0.2517,0 0.2517,-0.3212 0,-0.3212 h -3.6924 l -0.0117,-2e-4 z m -9.6899,17.1255 c -5.5624,-0.008 -9.5735,-1.7592 -9.5735,-8.2642 0,-6.1064 3.7352,-8.5399 8.2678,-8.5399 h 0.8451 c -3.9592,0.9085 -7.3401,3.7468 -7.3401,8.5399 0,4.779 3.7582,7.6213 7.8007,8.2642 z m 5.377,-16.8041 c 0.2027,0.003 0.2841,0.0955 0.2841,0.3214 v 16.1615 c 0,0.2296 -0.084,0.3214 -0.2937,0.3214 h -1.6787 c -5.5551,-0.011 -9.5587,-1.7651 -9.5587,-8.2644 0,-6.1064 3.7352,-8.5399 8.2678,-8.5399 h 2.9696 0.01 z m -12.9359,24.2881 c 0,-5.0961 3.1057,-7.1623 8.0158,-7.1623 h 1.0806 c -3.5646,0.6435 -7.1555,3.3571 -7.1555,7.1626 0,4.0076 2.9843,6.1696 6.2595,6.9327 h -0.8981 c -3.7352,0 -7.3023,-1.6988 -7.3023,-6.933 z m 12.9456,-7.162 c 0.1955,0.006 0.2744,0.0986 0.2744,0.3211 v 13.4524 c 0,0.2296 -0.084,0.3215 -0.2937,0.3215 h -1.9641 c -3.7194,-0.0134 -7.2587,-1.719 -7.2587,-6.9327 0,-5.0964 3.1056,-7.1623 8.0161,-7.1623 z m -47.4013,0.9374 -4.1485,4.1485 c -0.0555,0.0556 -0.1304,0.0848 -0.2038,0.0848 -0.0748,0 -0.1446,-0.0284 -0.1998,-0.0814 l -4.1528,-4.1519 c -0.0575,-0.0575 -0.0847,-0.131 -0.0847,-0.2041 0,-0.0728 0.0266,-0.146 0.0847,-0.2041 l 4.1525,-4.1516 c 0.0555,-0.053 0.1267,-0.0814 0.2001,-0.0814 0.0731,0 0.1437,0.0275 0.1999,0.0814 0.5672,0.4413 3.7065,3.5841 4.1558,4.1559 0.0539,0.0561 0.0814,0.1267 0.0814,0.1998 0,0.0765 -0.0284,0.1446 -0.0814,0.1998 l -0.003,0.004 z m -4.3526,3.5875 3.7917,-3.7916 -3.7917,-3.7913 -3.7913,3.7913 z m 5.5378,-3.556 -5.3022,5.3024 c -0.0652,0.065 -0.1502,0.0973 -0.2356,0.0973 -0.085,0 -0.1695,-0.0326 -0.2344,-0.0973 l -5.303,-5.3024 c -0.065,-0.0652 -0.0976,-0.1508 -0.0976,-0.2353 0,-0.0853 0.0324,-0.1704 0.0976,-0.2353 l 5.3022,-5.3025 c 0.0649,-0.0646 0.1502,-0.0972 0.2352,-0.0972 0.0854,0 0.1704,0.0323 0.2353,0.0972 l 5.3025,5.3025 c 0.0649,0.0649 0.0972,0.1502 0.0972,0.2353 0,0.0853 -0.0323,0.1703 -0.0972,0.2353 z m -5.5191,5.0856 5.3022,-5.3025 c 0.005,-0.005 0.007,-0.0116 0.007,-0.0184 0,-0.007 -0.002,-0.0136 -0.007,-0.0184 l -5.3025,-5.3025 c -0.005,-0.005 -0.0119,-0.007 -0.0187,-0.007 -0.006,0 -0.0133,0.003 -0.0181,0.007 l -5.3025,5.3025 c -0.005,0.005 -0.008,0.0119 -0.008,0.0184 0,0.007 0.002,0.0139 0.007,0.0184 l 5.3028,5.3025 c 0.005,0.005 0.0116,0.007 0.0184,0.007 0.007,0 0.0136,-0.003 0.0187,-0.007 z m -29.3099,-5.3209 -2.2907,2.2907 -2.2907,-2.2907 2.2907,-2.2907 z m -24.7592,-18.1811 h 10.9956 c 5.0363,0 10.1985,2.9383 10.1985,8.8613 0,5.5554 -5.0783,8.4941 -9.779,8.4022 l 0.1681,0.1378 c 3.6513,0.5507 7.4285,3.3055 7.4285,7.2082 0,5.0964 -4.8263,7.2085 -8.9394,7.2544 h -3.6887 l -0.0147,3e-4 h -10.073 c -0.2517,0 -0.2094,-0.3214 0,-0.3214 h 1.973 c 0.2097,0 0.2936,-0.0919 0.2936,-0.3215 v -17.4886 c 0.5638,0.2021 1.203,0.197 1.7626,-0.0165 v 17.5051 c 0,0.2225 0.0788,0.3155 0.2747,0.3212 h 1.3725 c 0.2098,0 0.2937,-0.0919 0.2937,-0.3215 v -30.5782 c 0,-0.2259 -0.1219,-0.3186 -0.2857,-0.3214 h -0.008 -1.3532 -0.01 c -0.2029,0.003 -0.2843,0.0955 -0.2843,0.3214 v 14.5313 c -0.5596,-0.2098 -1.1988,-0.2293 -1.7626,-0.0403 v -14.491 c 0,-0.2296 -0.1258,-0.3214 -0.2936,-0.3214 h -1.973 c -0.2517,0 -0.2517,-0.3212 0,-0.3212 h 3.6925 l 0.0116,-2e-4 z m 9.6899,17.1255 c 5.5625,-0.008 9.5735,-1.7592 9.5735,-8.2642 0,-6.1064 -3.7352,-8.5399 -8.2678,-8.5399 h -0.845 c 3.9591,0.9085 7.34,3.7468 7.34,8.5399 0,4.779 -3.7582,7.6213 -7.8007,8.2642 z m -5.377,-16.8041 c -0.2027,0.003 -0.284,0.0955 -0.284,0.3214 v 16.1615 c 0,0.2296 0.0839,0.3214 0.2936,0.3214 h 1.6787 c 5.5551,-0.011 9.5587,-1.7651 9.5587,-8.2644 0,-6.1064 -3.7352,-8.5399 -8.2678,-8.5399 h -2.9696 -0.01 z m 12.9362,24.2881 c 0,-5.0961 -3.1059,-7.1623 -8.0161,-7.1623 h -1.0806 c 3.5646,0.6435 7.1555,3.3571 7.1555,7.1626 0,4.0076 -2.984,6.1696 -6.2592,6.9327 h 0.8978 c 3.7352,0 7.3026,-1.6988 7.3026,-6.933 z m -12.9459,-7.162 c -0.1955,0.006 -0.2743,0.0986 -0.2743,0.3211 v 13.4524 c 0,0.2296 0.0839,0.3215 0.2936,0.3215 h 1.9642 c 3.7193,-0.0134 7.2586,-1.719 7.2586,-6.9327 0,-5.0964 -3.1056,-7.1623 -8.0161,-7.1623 z m 40.4201,-17.4475 h -10.9956 c -5.0363,0 -10.1985,2.9383 -10.1985,8.8613 0,5.5554 5.0783,8.4941 9.779,8.4022 l -0.1678,0.1378 c -3.6516,0.5507 -7.4288,3.3055 -7.4288,7.2082 0,5.0964 4.8266,7.2085 8.9394,7.2544 h 3.6887 l 0.0147,3e-4 h 10.0729 c 0.2518,0 0.2098,-0.3214 0,-0.3214 h -1.9726 c -0.21,0 -0.2939,-0.0919 -0.2939,-0.3215 v -17.4886 c -0.5638,0.2021 -1.2028,0.197 -1.7626,-0.0165 v 17.5051 c 0,0.2225 -0.0788,0.3155 -0.2747,0.3212 h -1.3725 c -0.2098,0 -0.2937,-0.0919 -0.2937,-0.3215 v -30.5782 c 0,-0.2259 0.1219,-0.3186 0.2857,-0.3214 h 0.008 1.3532 0.01 c 0.2029,0.003 0.2843,0.0955 0.2843,0.3214 v 14.5313 c 0.5598,-0.2098 1.1988,-0.2293 1.7626,-0.0403 v -14.491 c 0,-0.2296 0.1261,-0.3214 0.2939,-0.3214 h 1.9726 c 0.2518,0 0.2518,-0.3212 0,-0.3212 h -3.6924 l -0.0116,-2e-4 z m -9.6899,17.1255 c -5.5625,-0.008 -9.5735,-1.7592 -9.5735,-8.2642 0,-6.1064 3.7352,-8.5399 8.2678,-8.5399 h 0.845 c -3.9591,0.9085 -7.34,3.7468 -7.34,8.5399 0,4.779 3.7579,7.6213 7.8007,8.2642 z m 5.377,-16.8041 c 0.2027,0.003 0.284,0.0955 0.284,0.3214 v 16.1615 c 0,0.2296 -0.0839,0.3214 -0.2936,0.3214 H 527.69 c -5.5551,-0.011 -9.5587,-1.7651 -9.5587,-8.2644 0,-6.1064 3.7352,-8.5399 8.2678,-8.5399 h 2.9696 0.01 z m -12.9359,24.2881 c 0,-5.0961 3.1056,-7.1623 8.0158,-7.1623 h 1.0806 c -3.5646,0.6435 -7.1555,3.3571 -7.1555,7.1626 0,4.0076 2.9843,6.1696 6.2594,6.9327 h -0.898 c -3.7352,0 -7.3023,-1.6988 -7.3023,-6.933 z m 12.9455,-7.162 c 0.1956,0.006 0.2744,0.0986 0.2744,0.3211 v 13.4524 c 0,0.2296 -0.0839,0.3215 -0.2936,0.3215 h -1.9639 c -3.7196,-0.0134 -7.2589,-1.719 -7.2589,-6.9327 0,-5.0964 3.1056,-7.1623 8.0161,-7.1623 z m 180.4918,37.9576 -2.2906,2.2907 -2.2907,-2.2907 2.2907,-2.2907 z m -24.7594,-18.1811 h 10.9958 c 5.0363,0 10.1985,2.9383 10.1985,8.8613 0,5.5554 -5.0783,8.4941 -9.7789,8.4022 l 0.1678,0.1378 c 3.6516,0.5507 7.4287,3.3055 7.4287,7.2082 0,5.0964 -4.8265,7.2085 -8.9393,7.2544 h -3.6887 l -0.0148,3e-4 h -10.0729 c -0.2517,0 -0.2098,-0.3214 0,-0.3214 h 1.9726 c 0.2101,0 0.294,-0.0919 0.294,-0.3215 v -17.4886 c 0.5638,0.2021 1.2027,0.197 1.7626,-0.0165 v 17.5051 c 0,0.2225 0.0788,0.3155 0.2744,0.3212 h 1.3728 c 0.2097,0 0.2937,-0.0919 0.2937,-0.3215 v -30.5782 c 0,-0.2259 -0.1219,-0.3186 -0.2858,-0.3214 h -0.008 -1.3536 -0.01 c -0.2027,0.003 -0.284,0.0955 -0.284,0.3214 v 14.5313 c -0.5599,-0.2098 -1.1988,-0.2293 -1.7626,-0.0403 v -14.491 c 0,-0.2296 -0.1262,-0.3214 -0.294,-0.3214 h -1.9726 c -0.2517,0 -0.2517,-0.3212 0,-0.3212 h 3.6921 l 0.0117,-2e-4 z m 9.6902,17.1255 c 5.5624,-0.008 9.5734,-1.7592 9.5734,-8.2642 0,-6.1064 -3.7352,-8.5399 -8.2678,-8.5399 h -0.845 c 3.9592,0.9085 7.34,3.7468 7.34,8.5399 0,4.779 -3.7578,7.6213 -7.8006,8.2642 z m -5.3771,-16.8041 c -0.2026,0.003 -0.2843,0.0955 -0.2843,0.3214 v 16.1615 c 0,0.2296 0.0842,0.3214 0.294,0.3214 h 1.6787 c 5.555,-0.011 9.5587,-1.7651 9.5587,-8.2644 0,-6.1064 -3.7352,-8.5399 -8.2678,-8.5399 h -2.9696 -0.01 z m 12.936,24.2881 c 0,-5.0961 -3.1057,-7.1623 -8.0161,-7.1623 h -1.0803 c 3.5645,0.6435 7.1555,3.3571 7.1555,7.1626 0,4.0076 -2.9843,6.1696 -6.2595,6.9327 h 0.8977 c 3.7355,0 7.3027,-1.6988 7.3027,-6.933 z m -12.9456,-7.162 c -0.1956,0.006 -0.2747,0.0986 -0.2747,0.3211 v 13.4524 c 0,0.2296 0.0842,0.3215 0.294,0.3215 h 1.9638 c 3.7197,-0.0134 7.259,-1.719 7.259,-6.9327 0,-5.0964 -3.1056,-7.1623 -8.0161,-7.1623 z m 40.4201,-17.4475 h -10.9956 c -5.0363,0 -10.1985,2.9383 -10.1985,8.8613 0,5.5554 5.0783,8.4941 9.7787,8.4022 l -0.1678,0.1378 c -3.6513,0.5507 -7.4285,3.3055 -7.4285,7.2082 0,5.0964 4.8263,7.2085 8.9393,7.2544 h 3.6888 l 0.0147,3e-4 h 10.0726 c 0.252,0 0.2098,-0.3214 0,-0.3214 h -1.9726 c -0.2098,0 -0.2937,-0.0919 -0.2937,-0.3215 v -17.4886 c -0.5641,0.2021 -1.203,0.197 -1.7628,-0.0165 v 17.5051 c 0,0.2225 -0.0786,0.3155 -0.2744,0.3212 h -1.3726 c -0.21,0 -0.2936,-0.0919 -0.2936,-0.3215 v -30.5782 c 0,-0.2259 0.1218,-0.3186 0.2857,-0.3214 h 0.008 1.3533 0.01 c 0.203,0.003 0.2841,0.0955 0.2841,0.3214 v 14.5313 c 0.5598,-0.2098 1.1987,-0.2293 1.7628,-0.0403 v -14.491 c 0,-0.2296 0.1259,-0.3214 0.2937,-0.3214 h 1.9726 c 0.252,0 0.252,-0.3212 0,-0.3212 h -3.6921 l -0.0116,-2e-4 z m -9.6903,17.1255 c -5.5621,-0.008 -9.5731,-1.7592 -9.5731,-8.2642 0,-6.1064 3.7352,-8.5399 8.2678,-8.5399 h 0.845 c -3.9592,0.9085 -7.34,3.7468 -7.34,8.5399 0,4.779 3.7578,7.6213 7.8003,8.2642 z m 5.3771,-16.8041 c 0.2029,0.003 0.2843,0.0955 0.2843,0.3214 v 16.1615 c 0,0.2296 -0.0839,0.3214 -0.294,0.3214 h -1.6784 c -5.555,-0.011 -9.5587,-1.7651 -9.5587,-8.2644 0,-6.1064 3.7352,-8.5399 8.2678,-8.5399 h 2.9693 0.01 z m -12.9359,24.2881 c 0,-5.0961 3.1056,-7.1623 8.0161,-7.1623 h 1.0805 c -3.5643,0.6435 -7.1555,3.3571 -7.1555,7.1626 0,4.0076 2.9841,6.1696 6.2592,6.9327 h -0.8977 c -3.7352,0 -7.3026,-1.6988 -7.3026,-6.933 z m 12.9455,-7.162 c 0.1959,0.006 0.2747,0.0986 0.2747,0.3211 v 13.4524 c 0,0.2296 -0.0839,0.3215 -0.294,0.3215 h -1.9638 c -3.7193,-0.0134 -7.2587,-1.719 -7.2587,-6.9327 0,-5.0964 3.1057,-7.1623 8.0158,-7.1623 z m -47.4009,0.9374 -4.1485,4.1485 c -0.0556,0.0556 -0.1304,0.0848 -0.2038,0.0848 -0.0749,0 -0.1446,-0.0284 -0.1999,-0.0814 l -4.1527,-4.1519 c -0.0576,-0.0575 -0.0848,-0.131 -0.0848,-0.2041 0,-0.0728 0.0266,-0.146 0.0848,-0.2041 l 4.1524,-4.1516 c 0.0553,-0.053 0.1267,-0.0814 0.2002,-0.0814 0.0731,0 0.1437,0.0275 0.1998,0.0814 0.5672,0.4413 3.7066,3.5841 4.1559,4.1559 0.0538,0.0561 0.0813,0.1267 0.0813,0.1998 0,0.0765 -0.0283,0.1446 -0.0813,0.1998 l -0.003,0.004 z m -4.3526,3.5875 3.7916,-3.7916 -3.7916,-3.7913 -3.7917,3.7913 z m 5.5377,-3.556 -5.3022,5.3024 c -0.0652,0.065 -0.1505,0.0973 -0.2355,0.0973 -0.0851,0 -0.1695,-0.0326 -0.2345,-0.0973 l -5.303,-5.3024 c -0.0649,-0.0652 -0.0978,-0.1508 -0.0978,-0.2353 0,-0.0853 0.0326,-0.1704 0.0978,-0.2353 l 5.3022,-5.3025 c 0.0646,-0.0646 0.1502,-0.0972 0.2353,-0.0972 0.085,0 0.1703,0.0323 0.2352,0.0972 l 5.3025,5.3025 c 0.0649,0.0649 0.0973,0.1502 0.0973,0.2353 0,0.0853 -0.0324,0.1703 -0.0973,0.2353 z m -5.519,5.0856 5.3022,-5.3025 c 0.005,-0.005 0.007,-0.0116 0.007,-0.0184 0,-0.007 -0.003,-0.0136 -0.007,-0.0184 l -5.3025,-5.3025 c -0.005,-0.005 -0.0119,-0.007 -0.0187,-0.007 -0.006,0 -0.0136,0.003 -0.0182,0.007 l -5.3025,5.3025 c -0.005,0.005 -0.008,0.0119 -0.008,0.0184 0,0.007 0.002,0.0139 0.007,0.0184 l 5.303,5.3025 c 0.005,0.005 0.0117,0.007 0.0185,0.007 0.007,0 0.0136,-0.003 0.0187,-0.007 z m -29.31,-5.3209 -2.2906,2.2907 -2.2907,-2.2907 2.2907,-2.2907 z m -24.7592,-18.1811 h 10.9956 c 5.0363,0 10.1985,2.9383 10.1985,8.8613 0,5.5554 -5.0783,8.4941 -9.779,8.4022 l 0.1678,0.1378 c 3.6516,0.5507 7.4288,3.3055 7.4288,7.2082 0,5.0964 -4.8266,7.2085 -8.9393,7.2544 h -3.6888 l -0.0147,3e-4 h -10.0729 c -0.2517,0 -0.2098,-0.3214 0,-0.3214 h 1.9726 c 0.2101,0 0.294,-0.0919 0.294,-0.3215 v -17.4886 c 0.5638,0.2021 1.2027,0.197 1.7625,-0.0165 v 17.5051 c 0,0.2225 0.0789,0.3155 0.2744,0.3212 h 1.3729 c 0.2097,0 0.2936,-0.0919 0.2936,-0.3215 v -30.5782 c 0,-0.2259 -0.1219,-0.3186 -0.2857,-0.3214 h -0.008 -1.3536 -0.01 c -0.2027,0.003 -0.2841,0.0955 -0.2841,0.3214 v 14.5313 c -0.5598,-0.2098 -1.1987,-0.2293 -1.7625,-0.0403 v -14.491 c 0,-0.2296 -0.1262,-0.3214 -0.294,-0.3214 h -1.9726 c -0.2517,0 -0.2517,-0.3212 0,-0.3212 h 3.6924 l 0.0116,-2e-4 z m 9.69,17.1255 c 5.5624,-0.008 9.5734,-1.7592 9.5734,-8.2642 0,-6.1064 -3.7352,-8.5399 -8.2678,-8.5399 h -0.845 c 3.9591,0.9085 7.34,3.7468 7.34,8.5399 0,4.779 -3.7579,7.6213 -7.8006,8.2642 z m -5.3771,-16.8041 c -0.2026,0.003 -0.284,0.0955 -0.284,0.3214 v 16.1615 c 0,0.2296 0.0839,0.3214 0.2937,0.3214 h 1.6786 c 5.5551,-0.011 9.5588,-1.7651 9.5588,-8.2644 0,-6.1064 -3.7353,-8.5399 -8.2679,-8.5399 h -2.9695 -0.01 z m 12.9359,24.2881 c 0,-5.0961 -3.1056,-7.1623 -8.0161,-7.1623 h -1.0802 c 3.5645,0.6435 7.1555,3.3571 7.1555,7.1626 0,4.0076 -2.9844,6.1696 -6.2595,6.9327 h 0.898 c 3.7352,0 7.3023,-1.6988 7.3023,-6.933 z m -12.9455,-7.162 c -0.1956,0.006 -0.2744,0.0986 -0.2744,0.3211 v 13.4524 c 0,0.2296 0.0839,0.3215 0.2937,0.3215 h 1.9638 c 3.7196,-0.0134 7.259,-1.719 7.259,-6.9327 0,-5.0964 -3.1057,-7.1623 -8.0161,-7.1623 z m 40.4201,-17.4475 h -10.9956 c -5.0364,0 -10.1985,2.9383 -10.1985,8.8613 0,5.5554 5.0782,8.4941 9.7789,8.4022 l -0.1681,0.1378 c -3.6513,0.5507 -7.4284,3.3055 -7.4284,7.2082 0,5.0964 4.8262,7.2085 8.9393,7.2544 h 3.6887 l 0.0148,3e-4 h 10.0729 c 0.2517,0 0.2095,-0.3214 0,-0.3214 h -1.9729 c -0.2098,0 -0.2937,-0.0919 -0.2937,-0.3215 v -17.4886 c -0.5638,0.2021 -1.203,0.197 -1.7626,-0.0165 v 17.5051 c 0,0.2225 -0.0788,0.3155 -0.2747,0.3212 h -1.3725 c -0.2098,0 -0.2937,-0.0919 -0.2937,-0.3215 v -30.5782 c 0,-0.2259 0.1219,-0.3186 0.2858,-0.3214 h 0.008 1.3533 0.01 c 0.203,0.003 0.2843,0.0955 0.2843,0.3214 v 14.5313 c 0.5596,-0.2098 1.1988,-0.2293 1.7626,-0.0403 v -14.491 c 0,-0.2296 0.1259,-0.3214 0.2937,-0.3214 h 1.9729 c 0.2517,0 0.2517,-0.3212 0,-0.3212 h -3.6924 l -0.0116,-2e-4 z m -9.69,17.1255 c -5.5624,-0.008 -9.5734,-1.7592 -9.5734,-8.2642 0,-6.1064 3.7352,-8.5399 8.2678,-8.5399 h 0.845 c -3.9592,0.9085 -7.3401,3.7468 -7.3401,8.5399 0,4.779 3.7582,7.6213 7.8007,8.2642 z m 5.377,-16.8041 c 0.2027,0.003 0.2841,0.0955 0.2841,0.3214 v 16.1615 c 0,0.2296 -0.0839,0.3214 -0.2937,0.3214 h -1.6787 c -5.555,-0.011 -9.5587,-1.7651 -9.5587,-8.2644 0,-6.1064 3.7352,-8.5399 8.2678,-8.5399 h 2.9696 0.01 z m -12.9361,24.2881 c 0,-5.0961 3.1059,-7.1623 8.016,-7.1623 h 1.0806 c -3.5643,0.6435 -7.1555,3.3571 -7.1555,7.1626 0,4.0076 2.984,6.1696 6.2592,6.9327 h -0.8977 c -3.7352,0 -7.3026,-1.6988 -7.3026,-6.933 z m 12.9458,-7.162 c 0.1956,0.006 0.2744,0.0986 0.2744,0.3211 v 13.4524 c 0,0.2296 -0.0839,0.3215 -0.2937,0.3215 h -1.9641 c -3.7194,-0.0134 -7.2587,-1.719 -7.2587,-6.9327 0,-5.0964 3.1056,-7.1623 8.0161,-7.1623 z m -47.4013,0.9374 -4.1485,4.1485 c -0.0555,0.0556 -0.1303,0.0848 -0.2038,0.0848 -0.0748,0 -0.1445,-0.0284 -0.1998,-0.0814 l -4.1528,-4.1519 c -0.0575,-0.0575 -0.0847,-0.131 -0.0847,-0.2041 0,-0.0728 0.0266,-0.146 0.0847,-0.2041 l 4.1525,-4.1516 c 0.0553,-0.053 0.1267,-0.0814 0.2001,-0.0814 0.0732,0 0.1438,0.0275 0.1999,0.0814 0.5672,0.4413 3.7066,3.5841 4.1559,4.1559 0.0538,0.0561 0.0813,0.1267 0.0813,0.1998 0,0.0765 -0.0283,0.1446 -0.0813,0.1998 l -0.004,0.004 z m -4.3525,3.5875 3.7916,-3.7916 -3.7916,-3.7913 -3.7914,3.7913 z m 5.5377,-3.556 -5.3022,5.3024 c -0.0652,0.065 -0.1505,0.0973 -0.2355,0.0973 -0.0851,0 -0.1696,-0.0326 -0.2345,-0.0973 l -5.303,-5.3024 c -0.0649,-0.0652 -0.0978,-0.1508 -0.0978,-0.2353 0,-0.0853 0.0326,-0.1704 0.0978,-0.2353 l 5.3022,-5.3025 c 0.0646,-0.0646 0.1502,-0.0972 0.2353,-0.0972 0.085,0 0.1703,0.0323 0.2352,0.0972 l 5.3025,5.3025 c 0.0649,0.0649 0.0972,0.1502 0.0972,0.2353 0,0.0853 -0.0323,0.1703 -0.0972,0.2353 z m -5.519,5.0856 5.3022,-5.3025 c 0.005,-0.005 0.007,-0.0116 0.007,-0.0184 0,-0.007 -0.003,-0.0136 -0.007,-0.0184 l -5.3024,-5.3025 c -0.005,-0.005 -0.0119,-0.007 -0.0187,-0.007 -0.007,0 -0.0134,0.003 -0.0182,0.007 l -5.3025,5.3025 c -0.005,0.005 -0.008,0.0119 -0.008,0.0184 0,0.007 0.002,0.0139 0.007,0.0184 l 5.3027,5.3025 c 0.005,0.005 0.0116,0.007 0.0185,0.007 0.007,0 0.0136,-0.003 0.0187,-0.007 z m -29.31,-5.3209 -2.2907,2.2907 -2.2906,-2.2907 2.2906,-2.2907 z m -24.7592,-18.1811 h 10.9956 c 5.0363,0 10.1985,2.9383 10.1985,8.8613 0,5.5554 -5.0783,8.4941 -9.779,8.4022 l 0.1681,0.1378 c 3.6513,0.5507 7.4285,3.3055 7.4285,7.2082 0,5.0964 -4.8263,7.2085 -8.9394,7.2544 h -3.6887 l -0.0147,3e-4 h -10.0729 c -0.2518,0 -0.2098,-0.3214 0,-0.3214 h 1.9726 c 0.21,0 0.2939,-0.0919 0.2939,-0.3215 v -17.4886 c 0.5639,0.2021 1.2028,0.197 1.7626,-0.0165 v 17.5051 c 0,0.2225 0.0788,0.3155 0.2747,0.3212 h 1.3725 c 0.2098,0 0.2937,-0.0919 0.2937,-0.3215 v -30.5782 c 0,-0.2259 -0.1219,-0.3186 -0.2857,-0.3214 h -0.008 -1.3532 -0.01 c -0.2029,0.003 -0.2843,0.0955 -0.2843,0.3214 v 14.5313 c -0.5598,-0.2098 -1.1987,-0.2293 -1.7626,-0.0403 v -14.491 c 0,-0.2296 -0.1258,-0.3214 -0.2939,-0.3214 h -1.9726 c -0.2518,0 -0.2518,-0.3212 0,-0.3212 h 3.6924 l 0.0116,-2e-4 z m 9.6899,17.1255 c 5.5625,-0.008 9.5735,-1.7592 9.5735,-8.2642 0,-6.1064 -3.7352,-8.5399 -8.2678,-8.5399 h -0.845 c 3.9591,0.9085 7.34,3.7468 7.34,8.5399 0,4.779 -3.7582,7.6213 -7.8007,8.2642 z m -5.377,-16.8041 c -0.2027,0.003 -0.284,0.0955 -0.284,0.3214 v 16.1615 c 0,0.2296 0.0839,0.3214 0.2936,0.3214 h 1.6787 c 5.5551,-0.011 9.5587,-1.7651 9.5587,-8.2644 0,-6.1064 -3.7352,-8.5399 -8.2678,-8.5399 h -2.9696 -0.01 z m 12.9359,24.2881 c 0,-5.0961 -3.1056,-7.1623 -8.0158,-7.1623 h -1.0806 c 3.5646,0.6435 7.1555,3.3571 7.1555,7.1626 0,4.0076 -2.9843,6.1696 -6.2594,6.9327 h 0.898 c 3.7352,0 7.3023,-1.6988 7.3023,-6.933 z m -12.9455,-7.162 c -0.1956,0.006 -0.2744,0.0986 -0.2744,0.3211 v 13.4524 c 0,0.2296 0.0839,0.3215 0.2936,0.3215 h 1.9642 c 3.7193,-0.0134 7.2586,-1.719 7.2586,-6.9327 0,-5.0964 -3.1056,-7.1623 -8.016,-7.1623 z m 40.42,-17.4475 h -10.9956 c -5.0363,0 -10.1984,2.9383 -10.1984,8.8613 0,5.5554 5.0782,8.4941 9.7789,8.4022 l -0.1681,0.1378 c -3.6513,0.5507 -7.4285,3.3055 -7.4285,7.2082 0,5.0964 4.8263,7.2085 8.9394,7.2544 h 3.6887 l 0.0148,3e-4 h 10.0729 c 0.2517,0 0.2097,-0.3214 0,-0.3214 h -1.9729 c -0.2098,0 -0.2937,-0.0919 -0.2937,-0.3215 v -17.4886 c -0.5638,0.2021 -1.2028,0.197 -1.7626,-0.0165 v 17.5051 c 0,0.2225 -0.0788,0.3155 -0.2747,0.3212 h -1.3725 c -0.2098,0 -0.2937,-0.0919 -0.2937,-0.3215 v -30.5782 c 0,-0.2259 0.1219,-0.3186 0.2857,-0.3214 h 0.008 1.3532 0.01 c 0.2029,0.003 0.2843,0.0955 0.2843,0.3214 v 14.5313 c 0.5598,-0.2098 1.1988,-0.2293 1.7626,-0.0403 v -14.491 c 0,-0.2296 0.1258,-0.3214 0.2937,-0.3214 h 1.9729 c 0.2517,0 0.2517,-0.3212 0,-0.3212 h -3.6924 l -0.0117,-2e-4 z m -9.6899,17.1255 c -5.5624,-0.008 -9.5735,-1.7592 -9.5735,-8.2642 0,-6.1064 3.7352,-8.5399 8.2678,-8.5399 h 0.8451 c -3.9592,0.9085 -7.3401,3.7468 -7.3401,8.5399 0,4.779 3.7582,7.6213 7.8007,8.2642 z m 5.377,-16.8041 c 0.2027,0.003 0.2841,0.0955 0.2841,0.3214 v 16.1615 c 0,0.2296 -0.084,0.3214 -0.2937,0.3214 h -1.6787 c -5.5551,-0.011 -9.5587,-1.7651 -9.5587,-8.2644 0,-6.1064 3.7352,-8.5399 8.2678,-8.5399 h 2.9696 0.01 z m -12.9359,24.2881 c 0,-5.0961 3.1057,-7.1623 8.0158,-7.1623 h 1.0806 c -3.5646,0.6435 -7.1555,3.3571 -7.1555,7.1626 0,4.0076 2.9843,6.1696 6.2595,6.9327 h -0.8981 c -3.7352,0 -7.3023,-1.6988 -7.3023,-6.933 z m 12.9456,-7.162 c 0.1955,0.006 0.2744,0.0986 0.2744,0.3211 v 13.4524 c 0,0.2296 -0.084,0.3215 -0.2937,0.3215 h -1.9641 c -3.7194,-0.0134 -7.2587,-1.719 -7.2587,-6.9327 0,-5.0964 3.1056,-7.1623 8.0161,-7.1623 z m -47.4013,0.9374 -4.1485,4.1485 c -0.0555,0.0556 -0.1304,0.0848 -0.2038,0.0848 -0.0748,0 -0.1446,-0.0284 -0.1998,-0.0814 l -4.1528,-4.1519 c -0.0575,-0.0575 -0.0847,-0.131 -0.0847,-0.2041 0,-0.0728 0.0266,-0.146 0.0847,-0.2041 l 4.1525,-4.1516 c 0.0555,-0.053 0.1267,-0.0814 0.2001,-0.0814 0.0731,0 0.1437,0.0275 0.1999,0.0814 0.5672,0.4413 3.7065,3.5841 4.1558,4.1559 0.0539,0.0561 0.0814,0.1267 0.0814,0.1998 0,0.0765 -0.0284,0.1446 -0.0814,0.1998 l -0.003,0.004 z m -4.3526,3.5875 3.7917,-3.7916 -3.7917,-3.7913 -3.7913,3.7913 z m 5.5378,-3.556 -5.3022,5.3024 c -0.0652,0.065 -0.1502,0.0973 -0.2356,0.0973 -0.085,0 -0.1695,-0.0326 -0.2344,-0.0973 l -5.303,-5.3024 c -0.065,-0.0652 -0.0976,-0.1508 -0.0976,-0.2353 0,-0.0853 0.0324,-0.1704 0.0976,-0.2353 l 5.3022,-5.3025 c 0.0649,-0.0646 0.1502,-0.0972 0.2352,-0.0972 0.0854,0 0.1704,0.0323 0.2353,0.0972 l 5.3025,5.3025 c 0.0649,0.0649 0.0972,0.1502 0.0972,0.2353 0,0.0853 -0.0323,0.1703 -0.0972,0.2353 z m -5.5191,5.0856 5.3022,-5.3025 c 0.005,-0.005 0.007,-0.0116 0.007,-0.0184 0,-0.007 -0.002,-0.0136 -0.007,-0.0184 l -5.3025,-5.3025 c -0.005,-0.005 -0.0119,-0.007 -0.0187,-0.007 -0.006,0 -0.0133,0.003 -0.0181,0.007 l -5.3025,5.3025 c -0.005,0.005 -0.008,0.0119 -0.008,0.0184 0,0.007 0.002,0.0139 0.007,0.0184 l 5.3028,5.3025 c 0.005,0.005 0.0116,0.007 0.0184,0.007 0.007,0 0.0136,-0.003 0.0187,-0.007 z m -29.3099,-5.3209 -2.2907,2.2907 -2.2907,-2.2907 2.2907,-2.2907 z m -24.7592,-18.1811 h 10.9956 c 5.0363,0 10.1985,2.9383 10.1985,8.8613 0,5.5554 -5.0783,8.4941 -9.779,8.4022 l 0.1681,0.1378 c 3.6513,0.5507 7.4285,3.3055 7.4285,7.2082 0,5.0964 -4.8263,7.2085 -8.9394,7.2544 h -3.6887 l -0.0147,3e-4 h -10.073 c -0.2517,0 -0.2094,-0.3214 0,-0.3214 h 1.973 c 0.2097,0 0.2936,-0.0919 0.2936,-0.3215 v -17.4886 c 0.5638,0.2021 1.203,0.197 1.7626,-0.0165 v 17.5051 c 0,0.2225 0.0788,0.3155 0.2747,0.3212 h 1.3725 c 0.2098,0 0.2937,-0.0919 0.2937,-0.3215 v -30.5782 c 0,-0.2259 -0.1219,-0.3186 -0.2857,-0.3214 h -0.008 -1.3532 -0.01 c -0.2029,0.003 -0.2843,0.0955 -0.2843,0.3214 v 14.5313 c -0.5596,-0.2098 -1.1988,-0.2293 -1.7626,-0.0403 v -14.491 c 0,-0.2296 -0.1258,-0.3214 -0.2936,-0.3214 h -1.973 c -0.2517,0 -0.2517,-0.3212 0,-0.3212 h 3.6925 l 0.0116,-2e-4 z m 9.6899,17.1255 c 5.5625,-0.008 9.5735,-1.7592 9.5735,-8.2642 0,-6.1064 -3.7352,-8.5399 -8.2678,-8.5399 h -0.845 c 3.9591,0.9085 7.34,3.7468 7.34,8.5399 0,4.779 -3.7582,7.6213 -7.8007,8.2642 z m -5.377,-16.8041 c -0.2027,0.003 -0.284,0.0955 -0.284,0.3214 v 16.1615 c 0,0.2296 0.0839,0.3214 0.2936,0.3214 h 1.6787 c 5.5551,-0.011 9.5587,-1.7651 9.5587,-8.2644 0,-6.1064 -3.7352,-8.5399 -8.2678,-8.5399 h -2.9696 -0.01 z m 12.9362,24.2881 c 0,-5.0961 -3.1059,-7.1623 -8.0161,-7.1623 h -1.0806 c 3.5646,0.6435 7.1555,3.3571 7.1555,7.1626 0,4.0076 -2.984,6.1696 -6.2592,6.9327 h 0.8978 c 3.7352,0 7.3026,-1.6988 7.3026,-6.933 z m -12.9459,-7.162 c -0.1955,0.006 -0.2743,0.0986 -0.2743,0.3211 v 13.4524 c 0,0.2296 0.0839,0.3215 0.2936,0.3215 h 1.9642 c 3.7193,-0.0134 7.2586,-1.719 7.2586,-6.9327 0,-5.0964 -3.1056,-7.1623 -8.0161,-7.1623 z m 40.4201,-17.4475 h -10.9956 c -5.0363,0 -10.1985,2.9383 -10.1985,8.8613 0,5.5554 5.0783,8.4941 9.779,8.4022 l -0.1678,0.1378 c -3.6516,0.5507 -7.4288,3.3055 -7.4288,7.2082 0,5.0964 4.8266,7.2085 8.9394,7.2544 h 3.6887 l 0.0147,3e-4 h 10.0729 c 0.2518,0 0.2098,-0.3214 0,-0.3214 h -1.9726 c -0.21,0 -0.2939,-0.0919 -0.2939,-0.3215 v -17.4886 c -0.5638,0.2021 -1.2028,0.197 -1.7626,-0.0165 v 17.5051 c 0,0.2225 -0.0788,0.3155 -0.2747,0.3212 h -1.3725 c -0.2098,0 -0.2937,-0.0919 -0.2937,-0.3215 v -30.5782 c 0,-0.2259 0.1219,-0.3186 0.2857,-0.3214 h 0.008 1.3532 0.01 c 0.2029,0.003 0.2843,0.0955 0.2843,0.3214 v 14.5313 c 0.5598,-0.2098 1.1988,-0.2293 1.7626,-0.0403 v -14.491 c 0,-0.2296 0.1261,-0.3214 0.2939,-0.3214 h 1.9726 c 0.2518,0 0.2518,-0.3212 0,-0.3212 h -3.6924 l -0.0116,-2e-4 z m -9.6899,17.1255 c -5.5625,-0.008 -9.5735,-1.7592 -9.5735,-8.2642 0,-6.1064 3.7352,-8.5399 8.2678,-8.5399 h 0.845 c -3.9591,0.9085 -7.34,3.7468 -7.34,8.5399 0,4.779 3.7579,7.6213 7.8007,8.2642 z m 5.377,-16.8041 c 0.2027,0.003 0.284,0.0955 0.284,0.3214 v 16.1615 c 0,0.2296 -0.0839,0.3214 -0.2936,0.3214 H 527.69 c -5.5551,-0.011 -9.5587,-1.7651 -9.5587,-8.2644 0,-6.1064 3.7352,-8.5399 8.2678,-8.5399 h 2.9696 0.01 z m -12.9359,24.2881 c 0,-5.0961 3.1056,-7.1623 8.0158,-7.1623 h 1.0806 c -3.5646,0.6435 -7.1555,3.3571 -7.1555,7.1626 0,4.0076 2.9843,6.1696 6.2594,6.9327 h -0.898 c -3.7352,0 -7.3023,-1.6988 -7.3023,-6.933 z m 12.9455,-7.162 c 0.1956,0.006 0.2744,0.0986 0.2744,0.3211 v 13.4524 c 0,0.2296 -0.0839,0.3215 -0.2936,0.3215 h -1.9639 c -3.7196,-0.0134 -7.2589,-1.719 -7.2589,-6.9327 0,-5.0964 3.1056,-7.1623 8.0161,-7.1623 z m 180.4918,37.9576 -2.2906,2.2907 -2.2907,-2.2907 2.2907,-2.2907 z m -24.7594,-18.1811 h 10.9958 c 5.0363,0 10.1985,2.9383 10.1985,8.8613 0,5.5554 -5.0783,8.4941 -9.7789,8.4022 l 0.1678,0.1378 c 3.6516,0.5507 7.4287,3.3055 7.4287,7.2082 0,5.0964 -4.8265,7.2085 -8.9393,7.2544 h -3.6887 l -0.0148,3e-4 h -10.0729 c -0.2517,0 -0.2098,-0.3214 0,-0.3214 h 1.9726 c 0.2101,0 0.294,-0.0919 0.294,-0.3215 v -17.4886 c 0.5638,0.2021 1.2027,0.197 1.7626,-0.0165 v 17.5051 c 0,0.2225 0.0788,0.3155 0.2744,0.3212 h 1.3728 c 0.2097,0 0.2937,-0.0919 0.2937,-0.3215 v -30.5782 c 0,-0.2259 -0.1219,-0.3186 -0.2858,-0.3214 h -0.008 -1.3536 -0.01 c -0.2027,0.003 -0.284,0.0955 -0.284,0.3214 v 14.5313 c -0.5599,-0.2098 -1.1988,-0.2293 -1.7626,-0.0403 v -14.491 c 0,-0.2296 -0.1262,-0.3214 -0.294,-0.3214 h -1.9726 c -0.2517,0 -0.2517,-0.3212 0,-0.3212 h 3.6921 l 0.0117,-2e-4 z m 9.6902,17.1255 c 5.5624,-0.008 9.5734,-1.7592 9.5734,-8.2642 0,-6.1064 -3.7352,-8.5399 -8.2678,-8.5399 h -0.845 c 3.9592,0.9085 7.34,3.7468 7.34,8.5399 0,4.779 -3.7578,7.6213 -7.8006,8.2642 z m -5.3771,-16.8041 c -0.2026,0.003 -0.2843,0.0955 -0.2843,0.3214 v 16.1615 c 0,0.2296 0.0842,0.3214 0.294,0.3214 h 1.6787 c 5.555,-0.011 9.5587,-1.7651 9.5587,-8.2644 0,-6.1064 -3.7352,-8.5399 -8.2678,-8.5399 h -2.9696 -0.01 z m 12.936,24.2881 c 0,-5.0961 -3.1057,-7.1623 -8.0161,-7.1623 h -1.0803 c 3.5645,0.6435 7.1555,3.3571 7.1555,7.1626 0,4.0076 -2.9843,6.1696 -6.2595,6.9327 h 0.8977 c 3.7355,0 7.3027,-1.6988 7.3027,-6.933 z m -12.9456,-7.162 c -0.1956,0.006 -0.2747,0.0986 -0.2747,0.3211 v 13.4524 c 0,0.2296 0.0842,0.3215 0.294,0.3215 h 1.9638 c 3.7197,-0.0134 7.259,-1.719 7.259,-6.9327 0,-5.0964 -3.1056,-7.1623 -8.0161,-7.1623 z m 40.4201,-17.4475 h -10.9956 c -5.0363,0 -10.1985,2.9383 -10.1985,8.8613 0,5.5554 5.0783,8.4941 9.7787,8.4022 l -0.1678,0.1378 c -3.6513,0.5507 -7.4285,3.3055 -7.4285,7.2082 0,5.0964 4.8263,7.2085 8.9393,7.2544 h 3.6888 l 0.0147,3e-4 h 10.0726 c 0.252,0 0.2098,-0.3214 0,-0.3214 h -1.9726 c -0.2098,0 -0.2937,-0.0919 -0.2937,-0.3215 v -17.4886 c -0.5641,0.2021 -1.203,0.197 -1.7628,-0.0165 v 17.5051 c 0,0.2225 -0.0786,0.3155 -0.2744,0.3212 h -1.3726 c -0.21,0 -0.2936,-0.0919 -0.2936,-0.3215 v -30.5782 c 0,-0.2259 0.1218,-0.3186 0.2857,-0.3214 h 0.008 1.3533 0.01 c 0.203,0.003 0.2841,0.0955 0.2841,0.3214 v 14.5313 c 0.5598,-0.2098 1.1987,-0.2293 1.7628,-0.0403 v -14.491 c 0,-0.2296 0.1259,-0.3214 0.2937,-0.3214 h 1.9726 c 0.252,0 0.252,-0.3212 0,-0.3212 h -3.6921 l -0.0116,-2e-4 z m -9.6903,17.1255 c -5.5621,-0.008 -9.5731,-1.7592 -9.5731,-8.2642 0,-6.1064 3.7352,-8.5399 8.2678,-8.5399 h 0.845 c -3.9592,0.9085 -7.34,3.7468 -7.34,8.5399 0,4.779 3.7578,7.6213 7.8003,8.2642 z m 5.3771,-16.8041 c 0.2029,0.003 0.2843,0.0955 0.2843,0.3214 v 16.1615 c 0,0.2296 -0.0839,0.3214 -0.294,0.3214 h -1.6784 c -5.555,-0.011 -9.5587,-1.7651 -9.5587,-8.2644 0,-6.1064 3.7352,-8.5399 8.2678,-8.5399 h 2.9693 0.01 z m -12.9359,24.2881 c 0,-5.0961 3.1056,-7.1623 8.0161,-7.1623 h 1.0805 c -3.5643,0.6435 -7.1555,3.3571 -7.1555,7.1626 0,4.0076 2.9841,6.1696 6.2592,6.9327 h -0.8977 c -3.7352,0 -7.3026,-1.6988 -7.3026,-6.933 z m 12.9455,-7.162 c 0.1959,0.006 0.2747,0.0986 0.2747,0.3211 v 13.4524 c 0,0.2296 -0.0839,0.3215 -0.294,0.3215 h -1.9638 c -3.7193,-0.0134 -7.2587,-1.719 -7.2587,-6.9327 0,-5.0964 3.1057,-7.1623 8.0158,-7.1623 z m -47.4009,0.9374 -4.1485,4.1485 c -0.0556,0.0556 -0.1304,0.0848 -0.2038,0.0848 -0.0749,0 -0.1446,-0.0284 -0.1999,-0.0814 l -4.1527,-4.1519 c -0.0576,-0.0575 -0.0848,-0.131 -0.0848,-0.2041 0,-0.0728 0.0266,-0.146 0.0848,-0.2041 l 4.1524,-4.1516 c 0.0553,-0.053 0.1267,-0.0814 0.2002,-0.0814 0.0731,0 0.1437,0.0275 0.1998,0.0814 0.5672,0.4413 3.7066,3.5841 4.1559,4.1559 0.0538,0.0561 0.0813,0.1267 0.0813,0.1998 0,0.0765 -0.0283,0.1446 -0.0813,0.1998 l -0.003,0.004 z m -4.3526,3.5875 3.7916,-3.7916 -3.7916,-3.7913 -3.7917,3.7913 z m 5.5377,-3.556 -5.3022,5.3024 c -0.0652,0.065 -0.1505,0.0973 -0.2355,0.0973 -0.0851,0 -0.1695,-0.0326 -0.2345,-0.0973 l -5.303,-5.3024 c -0.0649,-0.0652 -0.0978,-0.1508 -0.0978,-0.2353 0,-0.0853 0.0326,-0.1704 0.0978,-0.2353 l 5.3022,-5.3025 c 0.0646,-0.0646 0.1502,-0.0972 0.2353,-0.0972 0.085,0 0.1703,0.0323 0.2352,0.0972 l 5.3025,5.3025 c 0.0649,0.0649 0.0973,0.1502 0.0973,0.2353 0,0.0853 -0.0324,0.1703 -0.0973,0.2353 z m -5.519,5.0856 5.3022,-5.3025 c 0.005,-0.005 0.007,-0.0116 0.007,-0.0184 0,-0.007 -0.003,-0.0136 -0.007,-0.0184 l -5.3025,-5.3025 c -0.005,-0.005 -0.0119,-0.007 -0.0187,-0.007 -0.006,0 -0.0136,0.003 -0.0182,0.007 l -5.3025,5.3025 c -0.005,0.005 -0.008,0.0119 -0.008,0.0184 0,0.007 0.002,0.0139 0.007,0.0184 l 5.303,5.3025 c 0.005,0.005 0.0117,0.007 0.0185,0.007 0.007,0 0.0136,-0.003 0.0187,-0.007 z m -29.31,-5.3209 -2.2906,2.2907 -2.2907,-2.2907 2.2907,-2.2907 z m -24.7592,-18.1811 h 10.9956 c 5.0363,0 10.1985,2.9383 10.1985,8.8613 0,5.5554 -5.0783,8.4941 -9.779,8.4022 l 0.1678,0.1378 c 3.6516,0.5507 7.4288,3.3055 7.4288,7.2082 0,5.0964 -4.8266,7.2085 -8.9393,7.2544 h -3.6888 l -0.0147,3e-4 h -10.0729 c -0.2517,0 -0.2098,-0.3214 0,-0.3214 h 1.9726 c 0.2101,0 0.294,-0.0919 0.294,-0.3215 v -17.4886 c 0.5638,0.2021 1.2027,0.197 1.7625,-0.0165 v 17.5051 c 0,0.2225 0.0789,0.3155 0.2744,0.3212 h 1.3729 c 0.2097,0 0.2936,-0.0919 0.2936,-0.3215 v -30.5782 c 0,-0.2259 -0.1219,-0.3186 -0.2857,-0.3214 h -0.008 -1.3536 -0.01 c -0.2027,0.003 -0.2841,0.0955 -0.2841,0.3214 v 14.5313 c -0.5598,-0.2098 -1.1987,-0.2293 -1.7625,-0.0403 v -14.491 c 0,-0.2296 -0.1262,-0.3214 -0.294,-0.3214 h -1.9726 c -0.2517,0 -0.2517,-0.3212 0,-0.3212 h 3.6924 l 0.0116,-2e-4 z m 9.69,17.1255 c 5.5624,-0.008 9.5734,-1.7592 9.5734,-8.2642 0,-6.1064 -3.7352,-8.5399 -8.2678,-8.5399 h -0.845 c 3.9591,0.9085 7.34,3.7468 7.34,8.5399 0,4.779 -3.7579,7.6213 -7.8006,8.2642 z m -5.3771,-16.8041 c -0.2026,0.003 -0.284,0.0955 -0.284,0.3214 v 16.1615 c 0,0.2296 0.0839,0.3214 0.2937,0.3214 h 1.6786 c 5.5551,-0.011 9.5588,-1.7651 9.5588,-8.2644 0,-6.1064 -3.7353,-8.5399 -8.2679,-8.5399 h -2.9695 -0.01 z m 12.9359,24.2881 c 0,-5.0961 -3.1056,-7.1623 -8.0161,-7.1623 h -1.0802 c 3.5645,0.6435 7.1555,3.3571 7.1555,7.1626 0,4.0076 -2.9844,6.1696 -6.2595,6.9327 h 0.898 c 3.7352,0 7.3023,-1.6988 7.3023,-6.933 z m -12.9455,-7.162 c -0.1956,0.006 -0.2744,0.0986 -0.2744,0.3211 v 13.4524 c 0,0.2296 0.0839,0.3215 0.2937,0.3215 h 1.9638 c 3.7196,-0.0134 7.259,-1.719 7.259,-6.9327 0,-5.0964 -3.1057,-7.1623 -8.0161,-7.1623 z m 40.4201,-17.4475 h -10.9956 c -5.0364,0 -10.1985,2.9383 -10.1985,8.8613 0,5.5554 5.0782,8.4941 9.7789,8.4022 l -0.1681,0.1378 c -3.6513,0.5507 -7.4284,3.3055 -7.4284,7.2082 0,5.0964 4.8262,7.2085 8.9393,7.2544 h 3.6887 l 0.0148,3e-4 h 10.0729 c 0.2517,0 0.2095,-0.3214 0,-0.3214 h -1.9729 c -0.2098,0 -0.2937,-0.0919 -0.2937,-0.3215 v -17.4886 c -0.5638,0.2021 -1.203,0.197 -1.7626,-0.0165 v 17.5051 c 0,0.2225 -0.0788,0.3155 -0.2747,0.3212 h -1.3725 c -0.2098,0 -0.2937,-0.0919 -0.2937,-0.3215 v -30.5782 c 0,-0.2259 0.1219,-0.3186 0.2858,-0.3214 h 0.008 1.3533 0.01 c 0.203,0.003 0.2843,0.0955 0.2843,0.3214 v 14.5313 c 0.5596,-0.2098 1.1988,-0.2293 1.7626,-0.0403 v -14.491 c 0,-0.2296 0.1259,-0.3214 0.2937,-0.3214 h 1.9729 c 0.2517,0 0.2517,-0.3212 0,-0.3212 h -3.6924 l -0.0116,-2e-4 z m -9.69,17.1255 c -5.5624,-0.008 -9.5734,-1.7592 -9.5734,-8.2642 0,-6.1064 3.7352,-8.5399 8.2678,-8.5399 h 0.845 c -3.9592,0.9085 -7.3401,3.7468 -7.3401,8.5399 0,4.779 3.7582,7.6213 7.8007,8.2642 z m 5.377,-16.8041 c 0.2027,0.003 0.2841,0.0955 0.2841,0.3214 v 16.1615 c 0,0.2296 -0.0839,0.3214 -0.2937,0.3214 h -1.6787 c -5.555,-0.011 -9.5587,-1.7651 -9.5587,-8.2644 0,-6.1064 3.7352,-8.5399 8.2678,-8.5399 h 2.9696 0.01 z m -12.9361,24.2881 c 0,-5.0961 3.1059,-7.1623 8.016,-7.1623 h 1.0806 c -3.5643,0.6435 -7.1555,3.3571 -7.1555,7.1626 0,4.0076 2.984,6.1696 6.2592,6.9327 h -0.8977 c -3.7352,0 -7.3026,-1.6988 -7.3026,-6.933 z m 12.9458,-7.162 c 0.1956,0.006 0.2744,0.0986 0.2744,0.3211 v 13.4524 c 0,0.2296 -0.0839,0.3215 -0.2937,0.3215 h -1.9641 c -3.7194,-0.0134 -7.2587,-1.719 -7.2587,-6.9327 0,-5.0964 3.1056,-7.1623 8.0161,-7.1623 z m -47.4013,0.9374 -4.1485,4.1485 c -0.0555,0.0556 -0.1303,0.0848 -0.2038,0.0848 -0.0748,0 -0.1445,-0.0284 -0.1998,-0.0814 l -4.1528,-4.1519 c -0.0575,-0.0575 -0.0847,-0.131 -0.0847,-0.2041 0,-0.0728 0.0266,-0.146 0.0847,-0.2041 l 4.1525,-4.1516 c 0.0553,-0.053 0.1267,-0.0814 0.2001,-0.0814 0.0732,0 0.1438,0.0275 0.1999,0.0814 0.5672,0.4413 3.7066,3.5841 4.1559,4.1559 0.0538,0.0561 0.0813,0.1267 0.0813,0.1998 0,0.0765 -0.0283,0.1446 -0.0813,0.1998 l -0.004,0.004 z m -4.3525,3.5875 3.7916,-3.7916 -3.7916,-3.7913 -3.7914,3.7913 z m 5.5377,-3.556 -5.3022,5.3024 c -0.0652,0.065 -0.1505,0.0973 -0.2355,0.0973 -0.0851,0 -0.1696,-0.0326 -0.2345,-0.0973 l -5.303,-5.3024 c -0.0649,-0.0652 -0.0978,-0.1508 -0.0978,-0.2353 0,-0.0853 0.0326,-0.1704 0.0978,-0.2353 l 5.3022,-5.3025 c 0.0646,-0.0646 0.1502,-0.0972 0.2353,-0.0972 0.085,0 0.1703,0.0323 0.2352,0.0972 l 5.3025,5.3025 c 0.0649,0.0649 0.0972,0.1502 0.0972,0.2353 0,0.0853 -0.0323,0.1703 -0.0972,0.2353 z m -5.519,5.0856 5.3022,-5.3025 c 0.005,-0.005 0.007,-0.0116 0.007,-0.0184 0,-0.007 -0.003,-0.0136 -0.007,-0.0184 l -5.3024,-5.3025 c -0.005,-0.005 -0.0119,-0.007 -0.0187,-0.007 -0.007,0 -0.0134,0.003 -0.0182,0.007 l -5.3025,5.3025 c -0.005,0.005 -0.008,0.0119 -0.008,0.0184 0,0.007 0.002,0.0139 0.007,0.0184 l 5.3027,5.3025 c 0.005,0.005 0.0116,0.007 0.0185,0.007 0.007,0 0.0136,-0.003 0.0187,-0.007 z m -29.31,-5.3209 -2.2907,2.2907 -2.2906,-2.2907 2.2906,-2.2907 z m -24.7592,-18.1811 h 10.9956 c 5.0363,0 10.1985,2.9383 10.1985,8.8613 0,5.5554 -5.0783,8.4941 -9.779,8.4022 l 0.1681,0.1378 c 3.6513,0.5507 7.4285,3.3055 7.4285,7.2082 0,5.0964 -4.8263,7.2085 -8.9394,7.2544 h -3.6887 l -0.0147,3e-4 h -10.0729 c -0.2518,0 -0.2098,-0.3214 0,-0.3214 h 1.9726 c 0.21,0 0.2939,-0.0919 0.2939,-0.3215 v -17.4886 c 0.5639,0.2021 1.2028,0.197 1.7626,-0.0165 v 17.5051 c 0,0.2225 0.0788,0.3155 0.2747,0.3212 h 1.3725 c 0.2098,0 0.2937,-0.0919 0.2937,-0.3215 v -30.5782 c 0,-0.2259 -0.1219,-0.3186 -0.2857,-0.3214 h -0.008 -1.3532 -0.01 c -0.2029,0.003 -0.2843,0.0955 -0.2843,0.3214 v 14.5313 c -0.5598,-0.2098 -1.1987,-0.2293 -1.7626,-0.0403 v -14.491 c 0,-0.2296 -0.1258,-0.3214 -0.2939,-0.3214 h -1.9726 c -0.2518,0 -0.2518,-0.3212 0,-0.3212 h 3.6924 l 0.0116,-2e-4 z m 9.6899,17.1255 c 5.5625,-0.008 9.5735,-1.7592 9.5735,-8.2642 0,-6.1064 -3.7352,-8.5399 -8.2678,-8.5399 h -0.845 c 3.9591,0.9085 7.34,3.7468 7.34,8.5399 0,4.779 -3.7582,7.6213 -7.8007,8.2642 z m -5.377,-16.8041 c -0.2027,0.003 -0.284,0.0955 -0.284,0.3214 v 16.1615 c 0,0.2296 0.0839,0.3214 0.2936,0.3214 h 1.6787 c 5.5551,-0.011 9.5587,-1.7651 9.5587,-8.2644 0,-6.1064 -3.7352,-8.5399 -8.2678,-8.5399 h -2.9696 -0.01 z m 12.9359,24.2881 c 0,-5.0961 -3.1056,-7.1623 -8.0158,-7.1623 h -1.0806 c 3.5646,0.6435 7.1555,3.3571 7.1555,7.1626 0,4.0076 -2.9843,6.1696 -6.2594,6.9327 h 0.898 c 3.7352,0 7.3023,-1.6988 7.3023,-6.933 z m -12.9455,-7.162 c -0.1956,0.006 -0.2744,0.0986 -0.2744,0.3211 v 13.4524 c 0,0.2296 0.0839,0.3215 0.2936,0.3215 h 1.9642 c 3.7193,-0.0134 7.2586,-1.719 7.2586,-6.9327 0,-5.0964 -3.1056,-7.1623 -8.016,-7.1623 z m 40.42,-17.4475 h -10.9956 c -5.0363,0 -10.1984,2.9383 -10.1984,8.8613 0,5.5554 5.0782,8.4941 9.7789,8.4022 l -0.1681,0.1378 c -3.6513,0.5507 -7.4285,3.3055 -7.4285,7.2082 0,5.0964 4.8263,7.2085 8.9394,7.2544 h 3.6887 l 0.0148,3e-4 h 10.0729 c 0.2517,0 0.2097,-0.3214 0,-0.3214 h -1.9729 c -0.2098,0 -0.2937,-0.0919 -0.2937,-0.3215 v -17.4886 c -0.5638,0.2021 -1.2028,0.197 -1.7626,-0.0165 v 17.5051 c 0,0.2225 -0.0788,0.3155 -0.2747,0.3212 h -1.3725 c -0.2098,0 -0.2937,-0.0919 -0.2937,-0.3215 v -30.5782 c 0,-0.2259 0.1219,-0.3186 0.2857,-0.3214 h 0.008 1.3532 0.01 c 0.2029,0.003 0.2843,0.0955 0.2843,0.3214 v 14.5313 c 0.5598,-0.2098 1.1988,-0.2293 1.7626,-0.0403 v -14.491 c 0,-0.2296 0.1258,-0.3214 0.2937,-0.3214 h 1.9729 c 0.2517,0 0.2517,-0.3212 0,-0.3212 h -3.6924 l -0.0117,-2e-4 z m -9.6899,17.1255 c -5.5624,-0.008 -9.5735,-1.7592 -9.5735,-8.2642 0,-6.1064 3.7352,-8.5399 8.2678,-8.5399 h 0.8451 c -3.9592,0.9085 -7.3401,3.7468 -7.3401,8.5399 0,4.779 3.7582,7.6213 7.8007,8.2642 z m 5.377,-16.8041 c 0.2027,0.003 0.2841,0.0955 0.2841,0.3214 v 16.1615 c 0,0.2296 -0.084,0.3214 -0.2937,0.3214 h -1.6787 c -5.5551,-0.011 -9.5587,-1.7651 -9.5587,-8.2644 0,-6.1064 3.7352,-8.5399 8.2678,-8.5399 h 2.9696 0.01 z m -12.9359,24.2881 c 0,-5.0961 3.1057,-7.1623 8.0158,-7.1623 h 1.0806 c -3.5646,0.6435 -7.1555,3.3571 -7.1555,7.1626 0,4.0076 2.9843,6.1696 6.2595,6.9327 h -0.8981 c -3.7352,0 -7.3023,-1.6988 -7.3023,-6.933 z m 12.9456,-7.162 c 0.1955,0.006 0.2744,0.0986 0.2744,0.3211 v 13.4524 c 0,0.2296 -0.084,0.3215 -0.2937,0.3215 h -1.9641 c -3.7194,-0.0134 -7.2587,-1.719 -7.2587,-6.9327 0,-5.0964 3.1056,-7.1623 8.0161,-7.1623 z m -47.4013,0.9374 -4.1485,4.1485 c -0.0555,0.0556 -0.1304,0.0848 -0.2038,0.0848 -0.0748,0 -0.1446,-0.0284 -0.1998,-0.0814 l -4.1528,-4.1519 c -0.0575,-0.0575 -0.0847,-0.131 -0.0847,-0.2041 0,-0.0728 0.0266,-0.146 0.0847,-0.2041 l 4.1525,-4.1516 c 0.0555,-0.053 0.1267,-0.0814 0.2001,-0.0814 0.0731,0 0.1437,0.0275 0.1999,0.0814 0.5672,0.4413 3.7065,3.5841 4.1558,4.1559 0.0539,0.0561 0.0814,0.1267 0.0814,0.1998 0,0.0765 -0.0284,0.1446 -0.0814,0.1998 l -0.003,0.004 z m -4.3526,3.5875 3.7917,-3.7916 -3.7917,-3.7913 -3.7913,3.7913 z m 5.5378,-3.556 -5.3022,5.3024 c -0.0652,0.065 -0.1502,0.0973 -0.2356,0.0973 -0.085,0 -0.1695,-0.0326 -0.2344,-0.0973 l -5.303,-5.3024 c -0.065,-0.0652 -0.0976,-0.1508 -0.0976,-0.2353 0,-0.0853 0.0324,-0.1704 0.0976,-0.2353 l 5.3022,-5.3025 c 0.0649,-0.0646 0.1502,-0.0972 0.2352,-0.0972 0.0854,0 0.1704,0.0323 0.2353,0.0972 l 5.3025,5.3025 c 0.0649,0.0649 0.0972,0.1502 0.0972,0.2353 0,0.0853 -0.0323,0.1703 -0.0972,0.2353 z m -5.5191,5.0856 5.3022,-5.3025 c 0.005,-0.005 0.007,-0.0116 0.007,-0.0184 0,-0.007 -0.002,-0.0136 -0.007,-0.0184 l -5.3025,-5.3025 c -0.005,-0.005 -0.0119,-0.007 -0.0187,-0.007 -0.006,0 -0.0133,0.003 -0.0181,0.007 l -5.3025,5.3025 c -0.005,0.005 -0.008,0.0119 -0.008,0.0184 0,0.007 0.002,0.0139 0.007,0.0184 l 5.3028,5.3025 c 0.005,0.005 0.0116,0.007 0.0184,0.007 0.007,0 0.0136,-0.003 0.0187,-0.007 z m -29.3099,-5.3209 -2.2907,2.2907 -2.2907,-2.2907 2.2907,-2.2907 z m -24.7592,-18.1811 h 10.9956 c 5.0363,0 10.1985,2.9383 10.1985,8.8613 0,5.5554 -5.0783,8.4941 -9.779,8.4022 l 0.1681,0.1378 c 3.6513,0.5507 7.4285,3.3055 7.4285,7.2082 0,5.0964 -4.8263,7.2085 -8.9394,7.2544 h -3.6887 l -0.0147,3e-4 h -10.073 c -0.2517,0 -0.2094,-0.3214 0,-0.3214 h 1.973 c 0.2097,0 0.2936,-0.0919 0.2936,-0.3215 v -17.4886 c 0.5638,0.2021 1.203,0.197 1.7626,-0.0165 v 17.5051 c 0,0.2225 0.0788,0.3155 0.2747,0.3212 h 1.3725 c 0.2098,0 0.2937,-0.0919 0.2937,-0.3215 v -30.5782 c 0,-0.2259 -0.1219,-0.3186 -0.2857,-0.3214 h -0.008 -1.3532 -0.01 c -0.2029,0.003 -0.2843,0.0955 -0.2843,0.3214 v 14.5313 c -0.5596,-0.2098 -1.1988,-0.2293 -1.7626,-0.0403 v -14.491 c 0,-0.2296 -0.1258,-0.3214 -0.2936,-0.3214 h -1.973 c -0.2517,0 -0.2517,-0.3212 0,-0.3212 h 3.6925 l 0.0116,-2e-4 z m 9.6899,17.1255 c 5.5625,-0.008 9.5735,-1.7592 9.5735,-8.2642 0,-6.1064 -3.7352,-8.5399 -8.2678,-8.5399 h -0.845 c 3.9591,0.9085 7.34,3.7468 7.34,8.5399 0,4.779 -3.7582,7.6213 -7.8007,8.2642 z m -5.377,-16.8041 c -0.2027,0.003 -0.284,0.0955 -0.284,0.3214 v 16.1615 c 0,0.2296 0.0839,0.3214 0.2936,0.3214 h 1.6787 c 5.5551,-0.011 9.5587,-1.7651 9.5587,-8.2644 0,-6.1064 -3.7352,-8.5399 -8.2678,-8.5399 h -2.9696 -0.01 z m 12.9362,24.2881 c 0,-5.0961 -3.1059,-7.1623 -8.0161,-7.1623 h -1.0806 c 3.5646,0.6435 7.1555,3.3571 7.1555,7.1626 0,4.0076 -2.984,6.1696 -6.2592,6.9327 h 0.8978 c 3.7352,0 7.3026,-1.6988 7.3026,-6.933 z m -12.9459,-7.162 c -0.1955,0.006 -0.2743,0.0986 -0.2743,0.3211 v 13.4524 c 0,0.2296 0.0839,0.3215 0.2936,0.3215 h 1.9642 c 3.7193,-0.0134 7.2586,-1.719 7.2586,-6.9327 0,-5.0964 -3.1056,-7.1623 -8.0161,-7.1623 z m 30.2695,-17.1261 c -3.9591,0.9085 -7.34,3.7468 -7.34,8.5399 0,4.779 3.7579,7.6213 7.8007,8.2642 -5.5625,-0.008 -9.5735,-1.7592 -9.5735,-8.2642 0,-6.1064 3.7352,-8.5399 8.2678,-8.5399 z m 1.9982,17.1258 c -3.5646,0.6435 -7.1555,3.3571 -7.1555,7.1626 0,4.0076 2.9843,6.1696 6.2594,6.9327 h -0.898 c -3.7352,0 -7.3023,-1.6988 -7.3023,-6.933 0,-5.0961 3.1056,-7.1623 8.0158,-7.1623 z m 1.866,14.0953 c -3.7196,-0.0134 -7.2589,-1.719 -7.2589,-6.9327 0,-5.0964 3.1056,-7.1623 8.0161,-7.1623 h 1.2259 c 0.1956,0.006 0.2744,0.0986 0.2744,0.3211 v 13.4524 c 0,0.2296 -0.0839,0.3215 -0.2936,0.3215 z m 0.2852,-14.4168 c -5.5551,-0.011 -9.5587,-1.7651 -9.5587,-8.2644 0,-6.1064 3.7352,-8.5399 8.2678,-8.5399 h 2.9696 0.01 c 0.2027,0.003 0.284,0.0955 0.284,0.3214 v 16.1615 c 0,0.2296 -0.0839,0.3214 -0.2936,0.3214 h -1.6787 z"
       style="fill:#996633;fill-opacity:1;fill-rule:nonzero;stroke:none"
       transform="matrix(0.35277776,0,0,-0.35277776,-157.10069,221.26543)"
       clip-path="url(#clipPath213)" />
  </g>
</svg>
