<?xml version="1.0" encoding="UTF-8" standalone="no"?>
<!-- Created with Inkscape (http://www.inkscape.org/) -->

<svg
   width="52.508572mm"
   height="45.216972mm"
   viewBox="0 0 52.508572 45.216972"
   version="1.1"
   id="svg1"
   inkscape:version="1.4.2 (f4327f4, 2025-05-13)"
   sodipodi:docname="kancelaria_bylica_wzor_1.svg"
   xmlns:inkscape="http://www.inkscape.org/namespaces/inkscape"
   xmlns:sodipodi="http://sodipodi.sourceforge.net/DTD/sodipodi-0.dtd"
   xmlns="http://www.w3.org/2000/svg"
   xmlns:svg="http://www.w3.org/2000/svg">
  <sodipodi:namedview
     id="namedview1"
     pagecolor="#ffffff"
     bordercolor="#000000"
     borderopacity="0.25"
     inkscape:showpageshadow="2"
     inkscape:pageopacity="0.0"
     inkscape:pagecheckerboard="0"
     inkscape:deskcolor="#d1d1d1"
     inkscape:document-units="mm"
     inkscape:zoom="2.4142757"
     inkscape:cx="162.36753"
     inkscape:cy="117.42652"
     inkscape:window-width="2560"
     inkscape:window-height="1369"
     inkscape:window-x="2552"
     inkscape:window-y="-8"
     inkscape:window-maximized="1"
     inkscape:current-layer="layer1" />
  <defs
     id="defs1">
    <clipPath
       clipPathUnits="userSpaceOnUse"
       id="clipPath133">
      <path
         d="M -0.015,-0.2021 H 841.8748 V 595.0735 H -0.015 Z"
         transform="translate(-2.5e-5)"
         clip-rule="evenodd"
         id="path133" />
    </clipPath>
    <clipPath
       clipPathUnits="userSpaceOnUse"
       id="clipPath135">
      <path
         d="M -0.015,-0.2021 H 841.8748 V 595.0735 H -0.015 Z"
         transform="translate(-2.5e-5)"
         clip-rule="evenodd"
         id="path135" />
    </clipPath>
    <clipPath
       clipPathUnits="userSpaceOnUse"
       id="clipPath137">
      <path
         d="M -0.015,-0.2021 H 841.8748 V 595.0735 H -0.015 Z"
         transform="translate(-2.5e-5)"
         clip-rule="evenodd"
         id="path137" />
    </clipPath>
    <clipPath
       clipPathUnits="userSpaceOnUse"
       id="clipPath139">
      <path
         d="M -0.015,-0.2021 H 841.8748 V 595.0735 H -0.015 Z"
         transform="translate(-2.5e-5)"
         clip-rule="evenodd"
         id="path139" />
    </clipPath>
    <clipPath
       clipPathUnits="userSpaceOnUse"
       id="clipPath141">
      <path
         d="M -0.015,-0.2021 H 841.8748 V 595.0735 H -0.015 Z"
         transform="translate(-2.5e-5)"
         clip-rule="evenodd"
         id="path141" />
    </clipPath>
    <clipPath
       clipPathUnits="userSpaceOnUse"
       id="clipPath143">
      <path
         d="M -0.015,-0.2021 H 841.8748 V 595.0735 H -0.015 Z"
         transform="translate(-2.5e-5)"
         clip-rule="evenodd"
         id="path143" />
    </clipPath>
    <clipPath
       clipPathUnits="userSpaceOnUse"
       id="clipPath145">
      <path
         d="M -0.015,-0.2021 H 841.8748 V 595.0735 H -0.015 Z"
         transform="translate(-2.5e-5)"
         clip-rule="evenodd"
         id="path145" />
    </clipPath>
    <clipPath
       clipPathUnits="userSpaceOnUse"
       id="clipPath147">
      <path
         d="M -0.015,-0.2021 H 841.8748 V 595.0735 H -0.015 Z"
         transform="translate(-2.5e-5)"
         clip-rule="evenodd"
         id="path147" />
    </clipPath>
    <clipPath
       clipPathUnits="userSpaceOnUse"
       id="clipPath149">
      <path
         d="M -0.015,-0.2021 H 841.8748 V 595.0735 H -0.015 Z"
         transform="translate(-2.5e-5)"
         clip-rule="evenodd"
         id="path149" />
    </clipPath>
    <clipPath
       clipPathUnits="userSpaceOnUse"
       id="clipPath151">
      <path
         d="M -0.015,-0.2021 H 841.8748 V 595.0735 H -0.015 Z"
         transform="translate(-2.5e-5)"
         clip-rule="evenodd"
         id="path151" />
    </clipPath>
    <clipPath
       clipPathUnits="userSpaceOnUse"
       id="clipPath153">
      <path
         d="M -0.015,-0.2021 H 841.8748 V 595.0735 H -0.015 Z"
         transform="translate(-2.5e-5)"
         clip-rule="evenodd"
         id="path153" />
    </clipPath>
    <clipPath
       clipPathUnits="userSpaceOnUse"
       id="clipPath155">
      <path
         d="M -0.015,-0.2021 H 841.8748 V 595.0735 H -0.015 Z"
         transform="translate(-2.5e-5)"
         clip-rule="evenodd"
         id="path155" />
    </clipPath>
    <clipPath
       clipPathUnits="userSpaceOnUse"
       id="clipPath157">
      <path
         d="M -0.015,-0.2021 H 841.8748 V 595.0735 H -0.015 Z"
         transform="translate(-2.5e-5)"
         clip-rule="evenodd"
         id="path157" />
    </clipPath>
    <clipPath
       clipPathUnits="userSpaceOnUse"
       id="clipPath159">
      <path
         d="M -0.015,-0.2021 H 841.8748 V 595.0735 H -0.015 Z"
         transform="translate(-2.5e-5)"
         clip-rule="evenodd"
         id="path159" />
    </clipPath>
    <clipPath
       clipPathUnits="userSpaceOnUse"
       id="clipPath161">
      <path
         d="M -0.015,-0.2021 H 841.8748 V 595.0735 H -0.015 Z"
         transform="translate(-2.5e-5)"
         clip-rule="evenodd"
         id="path161" />
    </clipPath>
    <clipPath
       clipPathUnits="userSpaceOnUse"
       id="clipPath163">
      <path
         d="M -0.015,-0.2021 H 841.8748 V 595.0735 H -0.015 Z"
         transform="translate(-2.5e-5)"
         clip-rule="evenodd"
         id="path163" />
    </clipPath>
    <clipPath
       clipPathUnits="userSpaceOnUse"
       id="clipPath165">
      <path
         d="M -0.015,-0.2021 H 841.8748 V 595.0735 H -0.015 Z"
         transform="translate(-2.5e-5)"
         clip-rule="evenodd"
         id="path165" />
    </clipPath>
    <clipPath
       clipPathUnits="userSpaceOnUse"
       id="clipPath167">
      <path
         d="M -0.015,-0.2021 H 841.8748 V 595.0735 H -0.015 Z"
         transform="translate(-2.5e-5)"
         clip-rule="evenodd"
         id="path167" />
    </clipPath>
    <clipPath
       clipPathUnits="userSpaceOnUse"
       id="clipPath169">
      <path
         d="M -0.015,-0.2021 H 841.8748 V 595.0735 H -0.015 Z"
         transform="translate(-2.5e-5)"
         clip-rule="evenodd"
         id="path169" />
    </clipPath>
    <clipPath
       clipPathUnits="userSpaceOnUse"
       id="clipPath171">
      <path
         d="M -0.015,-0.2021 H 841.8748 V 595.0735 H -0.015 Z"
         transform="translate(-2.5e-5)"
         clip-rule="evenodd"
         id="path171" />
    </clipPath>
    <clipPath
       clipPathUnits="userSpaceOnUse"
       id="clipPath173">
      <path
         d="M -0.015,-0.2021 H 841.8748 V 595.0735 H -0.015 Z"
         transform="translate(-2.5e-5)"
         clip-rule="evenodd"
         id="path173" />
    </clipPath>
    <clipPath
       clipPathUnits="userSpaceOnUse"
       id="clipPath175">
      <path
         d="M -0.015,-0.2021 H 841.8748 V 595.0735 H -0.015 Z"
         transform="translate(-2.5e-5)"
         clip-rule="evenodd"
         id="path175" />
    </clipPath>
    <clipPath
       clipPathUnits="userSpaceOnUse"
       id="clipPath177">
      <path
         d="M -0.015,-0.2021 H 841.8748 V 595.0735 H -0.015 Z"
         transform="translate(-2.5e-5)"
         clip-rule="evenodd"
         id="path177" />
    </clipPath>
    <clipPath
       clipPathUnits="userSpaceOnUse"
       id="clipPath179">
      <path
         d="M -0.015,-0.2021 H 841.8748 V 595.0735 H -0.015 Z"
         transform="translate(-2.5e-5)"
         clip-rule="evenodd"
         id="path179" />
    </clipPath>
    <clipPath
       clipPathUnits="userSpaceOnUse"
       id="clipPath181">
      <path
         d="M -0.015,-0.2021 H 841.8748 V 595.0735 H -0.015 Z"
         transform="translate(-2.5e-5)"
         clip-rule="evenodd"
         id="path181" />
    </clipPath>
    <clipPath
       clipPathUnits="userSpaceOnUse"
       id="clipPath183">
      <path
         d="M -0.015,-0.2021 H 841.8748 V 595.0735 H -0.015 Z"
         transform="translate(-2.5e-5)"
         clip-rule="evenodd"
         id="path183" />
    </clipPath>
    <clipPath
       clipPathUnits="userSpaceOnUse"
       id="clipPath185">
      <path
         d="M -0.015,-0.2021 H 841.8748 V 595.0735 H -0.015 Z"
         transform="translate(-2.5e-5)"
         clip-rule="evenodd"
         id="path185" />
    </clipPath>
    <clipPath
       clipPathUnits="userSpaceOnUse"
       id="clipPath187">
      <path
         d="M -0.015,-0.2021 H 841.8748 V 595.0735 H -0.015 Z"
         transform="translate(-2.5e-5)"
         clip-rule="evenodd"
         id="path187" />
    </clipPath>
    <clipPath
       clipPathUnits="userSpaceOnUse"
       id="clipPath189">
      <path
         d="M -0.015,-0.2021 H 841.8748 V 595.0735 H -0.015 Z"
         transform="translate(-2.5e-5)"
         clip-rule="evenodd"
         id="path189" />
    </clipPath>
    <clipPath
       clipPathUnits="userSpaceOnUse"
       id="clipPath191">
      <path
         d="M -0.015,-0.2021 H 841.8748 V 595.0735 H -0.015 Z"
         transform="translate(-2.5e-5)"
         clip-rule="evenodd"
         id="path191" />
    </clipPath>
    <clipPath
       clipPathUnits="userSpaceOnUse"
       id="clipPath193">
      <path
         d="M -0.015,-0.2021 H 841.8748 V 595.0735 H -0.015 Z"
         transform="translate(-2.5e-5)"
         clip-rule="evenodd"
         id="path193" />
    </clipPath>
    <clipPath
       clipPathUnits="userSpaceOnUse"
       id="clipPath195">
      <path
         d="M -0.015,-0.2021 H 841.8748 V 595.0735 H -0.015 Z"
         transform="translate(-2.5e-5)"
         clip-rule="evenodd"
         id="path195" />
    </clipPath>
  </defs>
  <g
     inkscape:label="Warstwa 1"
     inkscape:groupmode="layer"
     id="layer1"
     transform="translate(-79.904127,-85.195829)">
    <path
       id="path132"
       d="m 245.9356,182.9024 h 14.9592 c 6.8517,0 13.8745,3.9974 13.8745,12.0552 0,7.558 -6.9089,11.5557 -13.3036,11.4307 l 0.2285,0.1874 c 4.9674,0.7494 10.1058,4.4971 10.1058,9.8064 0,6.9336 -6.5659,9.8068 -12.1612,9.8691 h -13.7032 c -0.3427,0 -0.2855,-0.4371 0,-0.4371 h 2.6835 c 0.2858,0 0.3997,-0.1253 0.3997,-0.4374 v -23.7923 c 0.7673,0.2753 1.6364,0.2682 2.3981,-0.0224 v 23.8147 c 0,0.3124 0.114,0.4374 0.3997,0.4374 h 7.651 c 5.0814,0 9.9346,-2.3111 9.9346,-9.432 0,-6.9332 -4.2253,-9.7441 -10.9055,-9.7441 h -3.3933 c 0.0105,-0.1502 0.013,-0.2962 0.006,-0.4371 h 3.958 c 7.594,0 13.0751,-2.3737 13.0751,-11.2433 0,-8.3075 -5.0814,-11.6181 -11.2479,-11.6181 h -9.0782 c -0.2857,0 -0.3997,0.125 -0.3997,0.4374 v 19.7685 c -0.7617,-0.2854 -1.6308,-0.3118 -2.3981,-0.0547 v -19.7138 c 0,-0.3124 -0.1712,-0.4374 -0.3997,-0.4374 h -2.6835 c -0.3427,0 -0.3427,-0.4371 0,-0.4371"
       style="fill:#996633;fill-opacity:1;fill-rule:nonzero;stroke:none"
       transform="matrix(0.35277776,0,0,-0.35277776,32.896314,171.77691)"
       clip-path="url(#clipPath133)" />
    <path
       id="path134"
       d="m 250.9744,182.9024 h 14.9587 c 6.8517,0 13.8745,3.9974 13.8745,12.0549 0,7.558 -6.9086,11.5557 -13.3036,11.4307 l 0.2285,0.1874 c 4.9674,0.7495 10.1061,4.4971 10.1061,9.8064 0,6.9333 -6.5659,9.8065 -12.1612,9.8688 h -13.703 c -0.3427,0 -0.2857,-0.4368 0,-0.4368 h 2.6833 c 0.2854,0 0.3997,-0.125 0.3997,-0.4374 v -41.5995 c 0,-0.3124 -0.1712,-0.4374 -0.3997,-0.4374 h -2.6833 c -0.3427,0 -0.3427,-0.4371 0,-0.4371 z m 13.1318,23.2982 c 7.5937,0 13.0748,-2.3737 13.0748,-11.2433 0,-8.3072 -5.0814,-11.6178 -11.2479,-11.6178 h -9.0779 c -0.2855,0 -0.4,0.125 -0.4,0.4374 v 21.9863 c 0,0.3124 0.1145,0.4374 0.4,0.4374 z m 10.3343,10.1812 c 0,-6.9332 -4.2251,-9.7441 -10.9052,-9.7441 h -6.6801 c -0.2855,0 -0.4,0.125 -0.4,0.4374 v 18.3013 c 0,0.3124 0.1145,0.4374 0.4,0.4374 h 7.6507 c 5.0817,0 9.9346,-2.3113 9.9346,-9.432"
       style="fill:#996633;fill-opacity:1;fill-rule:nonzero;stroke:none"
       transform="matrix(0.35277776,0,0,-0.35277776,32.896314,171.77691)"
       clip-path="url(#clipPath135)" />
    <path
       id="path136"
       d="m 249.5781,202.0779 h -14.9596 c -6.8513,0 -13.8742,3.9974 -13.8742,12.0552 0,7.558 6.9086,11.5557 13.3033,11.4307 l -0.2282,0.1874 c -4.9674,0.7495 -10.1058,4.4971 -10.1058,9.8067 0,6.9333 6.5656,9.8065 12.161,9.8688 h 13.7035 c 0.3424,0 0.2851,-0.4371 0,-0.4371 h -2.6839 c -0.2854,0 -0.3996,-0.1253 -0.3996,-0.4371 v -23.7923 c -0.7671,0.275 -1.6365,0.2679 -2.3982,-0.0227 v 23.815 c 0,0.3121 -0.1139,0.4371 -0.3994,0.4371 h -7.651 c -5.0816,0 -9.9345,-2.311 -9.9345,-9.4317 0,-6.9335 4.225,-9.7441 10.9051,-9.7441 h 3.3937 c -0.0108,-0.1505 -0.0134,-0.2962 -0.007,-0.4374 h -3.958 c -7.5937,0 -13.0751,-2.3737 -13.0751,-11.2433 0,-8.3075 5.0817,-11.6178 11.2479,-11.6178 h 9.0785 c 0.2855,0 0.3994,0.1247 0.3994,0.4371 v 19.7685 c 0.7617,-0.2851 1.6311,-0.3118 2.3982,-0.0547 v -19.7138 c 0,-0.3124 0.1714,-0.4371 0.3996,-0.4371 h 2.6839 c 0.3424,0 0.3424,-0.4374 0,-0.4374"
       style="fill:#996633;fill-opacity:1;fill-rule:nonzero;stroke:none"
       transform="matrix(0.35277776,0,0,-0.35277776,32.896314,171.77691)"
       clip-path="url(#clipPath137)" />
    <path
       id="path138"
       d="m 244.5392,202.0779 h -14.959 c -6.8513,0 -13.8744,3.9974 -13.8744,12.0549 0,7.558 6.9086,11.5557 13.3035,11.4307 l -0.2282,0.1874 c -4.9677,0.7495 -10.106,4.4972 -10.106,9.8065 0,6.9332 6.5658,9.8064 12.1612,9.8691 h 13.7029 c 0.3427,0 0.2855,-0.4371 0,-0.4371 h -2.6835 c -0.2855,0 -0.3994,-0.1251 -0.3994,-0.4374 v -41.5996 c 0,-0.3124 0.1712,-0.4374 0.3994,-0.4374 h 2.6835 c 0.3427,0 0.3427,-0.4371 0,-0.4371 z m -13.1321,23.2983 c -7.5937,0 -13.0748,-2.3738 -13.0748,-11.2434 0,-8.3072 5.0817,-11.6178 11.2479,-11.6178 h 9.0783 c 0.2854,0 0.3996,0.125 0.3996,0.4374 v 21.9864 c 0,0.3123 -0.1142,0.4374 -0.3996,0.4374 z m -10.3342,10.1812 c 0,-6.933 4.225,-9.7441 10.9054,-9.7441 h 6.6802 c 0.2854,0 0.3996,0.125 0.3996,0.4373 v 18.3014 c 0,0.3123 -0.1142,0.4374 -0.3996,0.4374 h -7.6508 c -5.0816,0 -9.9348,-2.3114 -9.9348,-9.432"
       style="fill:#996633;fill-opacity:1;fill-rule:nonzero;stroke:none"
       transform="matrix(0.35277776,0,0,-0.35277776,32.896314,171.77691)"
       clip-path="url(#clipPath139)" />
    <path
       id="path140"
       d="m 278.0855,207.4354 2.0041,2.0044 2.0041,-2.0044 -2.0041,-2.0041 z"
       style="fill:#996633;fill-opacity:1;fill-rule:evenodd;stroke:none"
       transform="matrix(0.35277776,0,0,-0.35277776,32.896314,171.77691)"
       clip-path="url(#clipPath141)" />
    <path
       id="path142"
       d="m 250.4415,236.1643 5.2421,5.2421 c 0.0641,0.0643 0.1486,0.0961 0.2327,0.0961 0.084,0 0.1676,-0.0324 0.2319,-0.0961 l 5.2427,-5.2421 c 0.0641,-0.0647 0.0964,-0.1492 0.0964,-0.2328 0,-0.0842 -0.0321,-0.1684 -0.0964,-0.2327 l -5.2421,-5.2418 c -0.0638,-0.0641 -0.1485,-0.0964 -0.2325,-0.0964 -0.0841,0 -0.1686,0.032 -0.2327,0.0961 l -5.2421,5.2421 c -0.0641,0.0643 -0.0961,0.1488 -0.0961,0.2327 0,0.0842 0.032,0.1687 0.0961,0.2328 z m 5.4564,5.0275 -5.2421,-5.2418 c -0.005,-0.005 -0.007,-0.0117 -0.007,-0.0185 0,-0.006 0.002,-0.0133 0.007,-0.0181 l 5.2421,-5.2421 c 0.005,-0.005 0.0116,-0.007 0.0184,-0.007 0.006,0 0.0134,0.003 0.0179,0.007 l 5.2424,5.2421 c 0.005,0.005 0.007,0.0116 0.007,0.0181 0,0.007 -0.002,0.0139 -0.007,0.0185 l -5.2427,5.2418 c -0.005,0.005 -0.0116,0.008 -0.0182,0.008 -0.007,0 -0.0136,-0.003 -0.0184,-0.008"
       style="fill:#996633;fill-opacity:1;fill-rule:nonzero;stroke:none"
       transform="matrix(0.35277776,0,0,-0.35277776,32.896314,171.77691)"
       clip-path="url(#clipPath143)" />
    <path
       id="path144"
       d="m 251.6134,236.1334 4.1011,4.1011 c 0.055,0.055 0.129,0.0839 0.2016,0.0839 0.0739,0 0.1428,-0.028 0.1975,-0.0805 l 4.1055,-4.1045 c 0.0569,-0.057 0.0839,-0.1293 0.0839,-0.2019 0,-0.072 -0.0264,-0.1443 -0.0839,-0.2018 l -4.1052,-4.1043 c -0.0547,-0.0524 -0.1253,-0.0805 -0.1978,-0.0805 -0.0723,0 -0.1421,0.0272 -0.1976,0.0805 -0.561,0.4363 -3.6644,3.5433 -4.1085,4.1086 -0.0533,0.0555 -0.0806,0.1252 -0.0806,0.1975 0,0.0757 0.0281,0.1429 0.0806,0.1976 l 0.003,0.004 z m 4.3029,3.5467 -3.7485,-3.7486 3.7485,-3.7482 3.7483,3.7482 z"
       style="fill:#996633;fill-opacity:1;fill-rule:nonzero;stroke:none"
       transform="matrix(0.35277776,0,0,-0.35277776,32.896314,171.77691)"
       clip-path="url(#clipPath145)" />
    <path
       id="path146"
       d="m 182.2995,182.9024 h -14.9593 c -6.8516,0 -13.8745,3.9974 -13.8745,12.0552 0,7.558 6.9089,11.5557 13.3036,11.4307 l -0.2285,0.1874 c -4.9674,0.7494 -10.1058,4.4971 -10.1058,9.8064 0,6.9336 6.5656,9.8068 12.1612,9.8691 h 13.7033 c 0.3424,0 0.2854,-0.4371 0,-0.4371 h -2.6839 c -0.2854,0 -0.3994,-0.1253 -0.3994,-0.4374 v -23.7923 c -0.7673,0.2753 -1.6367,0.2682 -2.3981,-0.0224 v 23.8147 c 0,0.3124 -0.1142,0.4374 -0.3997,0.4374 h -7.651 c -5.0816,0 -9.9345,-2.3111 -9.9345,-9.432 0,-6.9332 4.225,-9.7441 10.9054,-9.7441 h 3.3934 c -0.0108,-0.1502 -0.0134,-0.2962 -0.006,-0.4371 h -3.958 c -7.594,0 -13.0751,-2.3737 -13.0751,-11.2433 0,-8.3075 5.0814,-11.6181 11.2479,-11.6181 h 9.0782 c 0.2855,0 0.3997,0.125 0.3997,0.4374 v 19.7685 c 0.7614,-0.2854 1.6308,-0.3118 2.3981,-0.0547 v -19.7138 c 0,-0.3124 0.1712,-0.4374 0.3994,-0.4374 h 2.6839 c 0.3424,0 0.3424,-0.4371 0,-0.4371"
       style="fill:#996633;fill-opacity:1;fill-rule:nonzero;stroke:none"
       transform="matrix(0.35277776,0,0,-0.35277776,32.896314,171.77691)"
       clip-path="url(#clipPath147)" />
    <path
       id="path148"
       d="m 177.2606,182.9024 h -14.959 c -6.8513,0 -13.8742,3.9974 -13.8742,12.0549 0,7.558 6.9086,11.5557 13.3036,11.4307 l -0.2285,0.1874 c -4.9674,0.7495 -10.1061,4.4971 -10.1061,9.8064 0,6.9333 6.5659,9.8065 12.1612,9.8688 h 13.703 c 0.3427,0 0.2854,-0.4368 0,-0.4368 h -2.6833 c -0.2854,0 -0.3997,-0.125 -0.3997,-0.4374 v -41.5995 c 0,-0.3124 0.1713,-0.4374 0.3997,-0.4374 h 2.6833 c 0.3427,0 0.3427,-0.4371 0,-0.4371 z m -13.1318,23.2982 c -7.5937,0 -13.0748,-2.3737 -13.0748,-11.2433 0,-8.3072 5.0814,-11.6178 11.2476,-11.6178 h 9.0782 c 0.2855,0 0.3997,0.125 0.3997,0.4374 v 21.9863 c 0,0.3124 -0.1142,0.4374 -0.3997,0.4374 z m -10.3342,10.1812 c 0,-6.9332 4.225,-9.7441 10.9051,-9.7441 h 6.6801 c 0.2855,0 0.3997,0.125 0.3997,0.4374 v 18.3013 c 0,0.3124 -0.1142,0.4374 -0.3997,0.4374 h -7.6507 c -5.0816,0 -9.9345,-2.3113 -9.9345,-9.432"
       style="fill:#996633;fill-opacity:1;fill-rule:nonzero;stroke:none"
       transform="matrix(0.35277776,0,0,-0.35277776,32.896314,171.77691)"
       clip-path="url(#clipPath149)" />
    <path
       id="path150"
       d="m 178.6569,202.0779 h 14.9593 c 6.8516,0 13.8745,3.9974 13.8745,12.0552 0,7.558 -6.9089,11.5557 -13.3033,11.4307 l 0.2282,0.1874 c 4.9674,0.7495 10.1058,4.4971 10.1058,9.8067 0,6.9333 -6.5656,9.8065 -12.1612,9.8688 h -13.7033 c -0.3424,0 -0.2851,-0.4371 0,-0.4371 h 2.6839 c 0.2854,0 0.3994,-0.1253 0.3994,-0.4371 v -23.7923 c 0.7673,0.275 1.6367,0.2679 2.3981,-0.0227 v 23.815 c 0,0.3121 0.1142,0.4371 0.3997,0.4371 h 7.651 c 5.0816,0 9.9346,-2.311 9.9346,-9.4317 0,-6.9335 -4.2251,-9.7441 -10.9055,-9.7441 h -3.3933 c 0.0107,-0.1505 0.0133,-0.2962 0.006,-0.4374 h 3.9577 c 7.594,0 13.0754,-2.3737 13.0754,-11.2433 0,-8.3075 -5.0817,-11.6178 -11.2482,-11.6178 h -9.0782 c -0.2855,0 -0.3997,0.1247 -0.3997,0.4371 v 19.7685 c -0.7614,-0.2851 -1.6308,-0.3118 -2.3981,-0.0547 v -19.7138 c 0,-0.3124 -0.1712,-0.4371 -0.3994,-0.4371 h -2.6839 c -0.3424,0 -0.3424,-0.4374 0,-0.4374"
       style="fill:#996633;fill-opacity:1;fill-rule:nonzero;stroke:none"
       transform="matrix(0.35277776,0,0,-0.35277776,32.896314,171.77691)"
       clip-path="url(#clipPath151)" />
    <path
       id="path152"
       d="m 183.6958,202.0779 h 14.959 c 6.8513,0 13.8742,3.9974 13.8742,12.0549 0,7.558 -6.9086,11.5557 -13.3033,11.4307 l 0.2282,0.1874 c 4.9674,0.7495 10.1061,4.4972 10.1061,9.8065 0,6.9332 -6.5659,9.8064 -12.1612,9.8691 h -13.703 c -0.3427,0 -0.2854,-0.4371 0,-0.4371 h 2.6833 c 0.2857,0 0.3997,-0.1251 0.3997,-0.4374 v -41.5996 c 0,-0.3124 -0.1712,-0.4374 -0.3997,-0.4374 h -2.6833 c -0.3427,0 -0.3427,-0.4371 0,-0.4371 z m 13.1318,23.2983 c 7.5937,0 13.0748,-2.3738 13.0748,-11.2434 0,-8.3072 -5.0814,-11.6178 -11.2476,-11.6178 h -9.0782 c -0.2855,0 -0.3997,0.125 -0.3997,0.4374 v 21.9864 c 0,0.3123 0.1142,0.4374 0.3997,0.4374 z m 10.3343,10.1812 c 0,-6.933 -4.2251,-9.7441 -10.9052,-9.7441 h -6.6801 c -0.2855,0 -0.3997,0.125 -0.3997,0.4373 v 18.3014 c 0,0.3123 0.1142,0.4374 0.3997,0.4374 h 7.6507 c 5.0816,0 9.9346,-2.3114 9.9346,-9.432"
       style="fill:#996633;fill-opacity:1;fill-rule:nonzero;stroke:none"
       transform="matrix(0.35277776,0,0,-0.35277776,32.896314,171.77691)"
       clip-path="url(#clipPath153)" />
    <path
       id="path154"
       d="m 150.1495,207.4354 -2.0041,2.0044 -2.0041,-2.0044 2.0041,-2.0041 z"
       style="fill:#996633;fill-opacity:1;fill-rule:evenodd;stroke:none"
       transform="matrix(0.35277776,0,0,-0.35277776,32.896314,171.77691)"
       clip-path="url(#clipPath155)" />
    <path
       id="path156"
       d="m 215.3307,226.8116 -2.0041,2.0041 -2.004,-2.0041 2.004,-2.0041 z"
       style="fill:#996633;fill-opacity:1;fill-rule:evenodd;stroke:none"
       transform="matrix(0.35277776,0,0,-0.35277776,32.896314,171.77691)"
       clip-path="url(#clipPath157)" />
    <path
       id="path158"
       d="m 177.7935,236.1643 -5.2421,5.2421 c -0.0643,0.0643 -0.1485,0.0961 -0.2327,0.0961 -0.0839,0 -0.1678,-0.0324 -0.2319,-0.0961 l -5.2427,-5.2421 c -0.064,-0.0647 -0.0964,-0.1492 -0.0964,-0.2328 0,-0.0842 0.0321,-0.1684 0.0964,-0.2327 l 5.2419,-5.2418 c 0.064,-0.0641 0.1488,-0.0964 0.2327,-0.0964 0.0842,0 0.1684,0.032 0.2327,0.0961 l 5.2421,5.2421 c 0.0641,0.0643 0.0961,0.1488 0.0961,0.2327 0,0.0842 -0.032,0.1687 -0.0961,0.2328 z m -5.4564,5.0275 5.2418,-5.2418 c 0.005,-0.005 0.007,-0.0117 0.007,-0.0185 0,-0.006 -0.003,-0.0133 -0.007,-0.0181 l -5.2421,-5.2421 c -0.005,-0.005 -0.0116,-0.007 -0.0184,-0.007 -0.006,0 -0.0133,0.003 -0.0182,0.007 l -5.2421,5.2421 c -0.005,0.005 -0.008,0.0116 -0.008,0.0181 0,0.007 0.002,0.0139 0.007,0.0185 l 5.2426,5.2418 c 0.005,0.005 0.0114,0.008 0.0182,0.008 0.007,0 0.0136,-0.003 0.0184,-0.008"
       style="fill:#996633;fill-opacity:1;fill-rule:nonzero;stroke:none"
       transform="matrix(0.35277776,0,0,-0.35277776,32.896314,171.77691)"
       clip-path="url(#clipPath159)" />
    <path
       id="path160"
       d="m 176.6217,236.1334 -4.1012,4.1011 c -0.055,0.055 -0.129,0.0839 -0.2015,0.0839 -0.074,0 -0.1429,-0.028 -0.1976,-0.0805 l -4.1057,-4.1045 c -0.0567,-0.057 -0.0836,-0.1293 -0.0836,-0.2019 0,-0.072 0.0263,-0.1443 0.0836,-0.2018 l 4.1054,-4.1043 c 0.0547,-0.0524 0.1253,-0.0805 0.1979,-0.0805 0.0722,0 0.142,0.0272 0.1975,0.0805 0.5607,0.4363 3.6644,3.5433 4.1086,4.1086 0.0533,0.0555 0.0805,0.1252 0.0805,0.1975 0,0.0757 -0.0281,0.1429 -0.0805,0.1976 l -0.003,0.004 z m -4.303,3.5467 3.7482,-3.7486 -3.7482,-3.7482 -3.7483,3.7482 z"
       style="fill:#996633;fill-opacity:1;fill-rule:nonzero;stroke:none"
       transform="matrix(0.35277776,0,0,-0.35277776,32.896314,171.77691)"
       clip-path="url(#clipPath161)" />
    <path
       id="path162"
       d="m 245.9356,179.7772 h 14.9592 c 6.8517,0 13.8745,-3.9974 13.8745,-12.0552 0,-7.558 -6.9089,-11.5557 -13.3036,-11.4307 l 0.2285,-0.1874 c 4.9674,-0.7497 10.1058,-4.4971 10.1058,-9.8067 0,-6.9333 -6.5659,-9.8065 -12.1612,-9.8691 h -13.7032 c -0.3427,0 -0.2855,0.4374 0,0.4374 h 2.6835 c 0.2858,0 0.3997,0.125 0.3997,0.4371 v 23.7923 c 0.7673,-0.275 1.6364,-0.2679 2.3981,0.0227 v -23.815 c 0,-0.3121 0.114,-0.4371 0.3997,-0.4371 h 7.651 c 5.0814,0 9.9346,2.3111 9.9346,9.4317 0,6.9335 -4.2253,9.7441 -10.9055,9.7441 h -3.3933 c 0.0105,0.1505 0.013,0.2962 0.006,0.4374 h 3.958 c 7.594,0 13.0751,2.3737 13.0751,11.2433 0,8.3075 -5.0814,11.6178 -11.2479,11.6178 h -9.0782 c -0.2857,0 -0.3997,-0.1247 -0.3997,-0.4371 v -19.7685 c -0.7617,0.2851 -1.6308,0.3118 -2.3981,0.0547 v 19.7138 c 0,0.3124 -0.1712,0.4371 -0.3997,0.4371 h -2.6835 c -0.3427,0 -0.3427,0.4374 0,0.4374"
       style="fill:#996633;fill-opacity:1;fill-rule:nonzero;stroke:none"
       transform="matrix(0.35277776,0,0,-0.35277776,32.896314,171.77691)"
       clip-path="url(#clipPath163)" />
    <path
       id="path164"
       d="m 250.9744,179.7772 h 14.9587 c 6.8517,0 13.8745,-3.9974 13.8745,-12.0552 0,-7.5577 -6.9086,-11.5554 -13.3036,-11.4304 l 0.2285,-0.1874 c 4.9674,-0.7497 10.1061,-4.4971 10.1061,-9.8067 0,-6.9333 -6.5659,-9.8062 -12.1612,-9.8688 h -13.703 c -0.3427,0 -0.2857,0.4371 0,0.4371 h 2.6833 c 0.2854,0 0.3997,0.125 0.3997,0.4373 v 41.5996 c 0,0.3124 -0.1712,0.4371 -0.3997,0.4371 h -2.6833 c -0.3427,0 -0.3427,0.4374 0,0.4374 z m 13.1318,-23.2982 c 7.5937,0 13.0748,2.3734 13.0748,11.243 0,8.3075 -5.0814,11.6178 -11.2479,11.6178 h -9.0779 c -0.2855,0 -0.4,-0.1247 -0.4,-0.4371 v -21.9866 c 0,-0.3121 0.1145,-0.4371 0.4,-0.4371 z m 10.3343,-10.1815 c 0,6.9332 -4.2251,9.7441 -10.9052,9.7441 h -6.6801 c -0.2855,0 -0.4,-0.1247 -0.4,-0.4371 v -18.3014 c 0,-0.3123 0.1145,-0.4373 0.4,-0.4373 h 7.6507 c 5.0817,0 9.9346,2.3111 9.9346,9.4317"
       style="fill:#996633;fill-opacity:1;fill-rule:nonzero;stroke:none"
       transform="matrix(0.35277776,0,0,-0.35277776,32.896314,171.77691)"
       clip-path="url(#clipPath165)" />
    <path
       id="path166"
       d="m 249.5781,160.6017 h -14.9596 c -6.8513,0 -13.8742,-3.9977 -13.8742,-12.0552 0,-7.558 6.9086,-11.5557 13.3033,-11.431 l -0.2282,-0.1874 c -4.9674,-0.7495 -10.1058,-4.4971 -10.1058,-9.8064 0,-6.9333 6.5656,-9.8065 12.161,-9.8691 h 13.7035 c 0.3424,0 0.2851,0.4374 0,0.4374 h -2.6839 c -0.2854,0 -0.3996,0.125 -0.3996,0.4371 v 23.7923 c -0.7671,-0.2753 -1.6365,-0.2679 -2.3982,0.0224 v -23.8147 c 0,-0.3124 -0.1139,-0.4371 -0.3994,-0.4371 h -7.651 c -5.0816,0 -9.9345,2.311 -9.9345,9.4317 0,6.9332 4.225,9.7441 10.9051,9.7441 h 3.3937 c -0.0108,0.1505 -0.0134,0.2962 -0.007,0.4371 h -3.958 c -7.5937,0 -13.0751,2.374 -13.0751,11.2436 0,8.3075 5.0817,11.6178 11.2479,11.6178 h 9.0785 c 0.2855,0 0.3994,-0.125 0.3994,-0.4371 v -19.7686 c 0.7617,0.2852 1.6311,0.3119 2.3982,0.0545 v 19.7141 c 0,0.3121 0.1714,0.4371 0.3996,0.4371 h 2.6839 c 0.3424,0 0.3424,0.4374 0,0.4374"
       style="fill:#996633;fill-opacity:1;fill-rule:nonzero;stroke:none"
       transform="matrix(0.35277776,0,0,-0.35277776,32.896314,171.77691)"
       clip-path="url(#clipPath167)" />
    <path
       id="path168"
       d="m 244.5392,160.6017 h -14.959 c -6.8513,0 -13.8744,-3.9974 -13.8744,-12.0552 0,-7.5577 6.9086,-11.5554 13.3035,-11.4304 l -0.2282,-0.1874 c -4.9677,-0.7498 -10.106,-4.4972 -10.106,-9.8067 0,-6.9333 6.5658,-9.8062 12.1612,-9.8689 h 13.7029 c 0.3427,0 0.2855,0.4371 0,0.4371 h -2.6835 c -0.2855,0 -0.3994,0.125 -0.3994,0.4371 v 41.5999 c 0,0.3124 0.1712,0.4371 0.3994,0.4371 h 2.6835 c 0.3427,0 0.3427,0.4374 0,0.4374 z m -13.1321,-23.2983 c -7.5937,0 -13.0748,2.3735 -13.0748,11.2431 0,8.3072 5.0817,11.6178 11.2479,11.6178 h 9.0783 c 0.2854,0 0.3996,-0.1247 0.3996,-0.4371 v -21.9867 c 0,-0.3123 -0.1142,-0.4371 -0.3996,-0.4371 z M 221.0729,127.122 c 0,6.9332 4.225,9.744 10.9054,9.744 h 6.6802 c 0.2854,0 0.3996,-0.125 0.3996,-0.4371 v -18.3016 c 0,-0.3121 -0.1142,-0.4371 -0.3996,-0.4371 h -7.6508 c -5.0816,0 -9.9348,2.3111 -9.9348,9.4318"
       style="fill:#996633;fill-opacity:1;fill-rule:nonzero;stroke:none"
       transform="matrix(0.35277776,0,0,-0.35277776,32.896314,171.77691)"
       clip-path="url(#clipPath169)" />
    <path
       id="path170"
       d="m 278.0855,155.2439 2.0041,-2.0041 2.0041,2.0041 -2.0041,2.0041 z"
       style="fill:#996633;fill-opacity:1;fill-rule:evenodd;stroke:none"
       transform="matrix(0.35277776,0,0,-0.35277776,32.896314,171.77691)"
       clip-path="url(#clipPath171)" />
    <path
       id="path172"
       d="m 250.4415,126.5153 5.2421,-5.2421 c 0.0641,-0.0643 0.1486,-0.0963 0.2327,-0.0963 0.084,0 0.1676,0.0323 0.2319,0.096 l 5.2427,5.2424 c 0.0641,0.0644 0.0964,0.1489 0.0964,0.2325 0,0.0845 -0.0321,0.1686 -0.0964,0.2327 l -5.2421,5.2421 c -0.0638,0.0641 -0.1485,0.0964 -0.2325,0.0964 -0.0841,0 -0.1686,-0.032 -0.2327,-0.0964 l -5.2421,-5.2421 c -0.0641,-0.0641 -0.0961,-0.1485 -0.0961,-0.2327 0,-0.0842 0.032,-0.1684 0.0961,-0.2325 z m 5.4564,-5.0278 -5.2421,5.2421 c -0.005,0.005 -0.007,0.0117 -0.007,0.0182 0,0.007 0.002,0.0136 0.007,0.0181 l 5.2421,5.2424 c 0.005,0.005 0.0116,0.007 0.0184,0.007 0.006,0 0.0134,-0.003 0.0179,-0.007 l 5.2424,-5.2421 c 0.005,-0.005 0.007,-0.0119 0.007,-0.0184 0,-0.007 -0.002,-0.0136 -0.007,-0.0182 l -5.2427,-5.2421 c -0.005,-0.005 -0.0116,-0.007 -0.0182,-0.007 -0.007,0 -0.0136,0.002 -0.0184,0.007"
       style="fill:#996633;fill-opacity:1;fill-rule:nonzero;stroke:none"
       transform="matrix(0.35277776,0,0,-0.35277776,32.896314,171.77691)"
       clip-path="url(#clipPath173)" />
    <path
       id="path174"
       d="m 251.6134,126.5462 4.1011,-4.1011 c 0.055,-0.0553 0.129,-0.0839 0.2016,-0.0839 0.0739,0 0.1428,0.028 0.1975,0.0805 l 4.1055,4.1045 c 0.0569,0.057 0.0839,0.1293 0.0839,0.2016 0,0.0723 -0.0264,0.1445 -0.0839,0.2018 l -4.1052,4.1046 c -0.0547,0.0524 -0.1253,0.0805 -0.1978,0.0805 -0.0723,0 -0.1421,-0.0275 -0.1976,-0.0805 -0.561,-0.4363 -3.6644,-3.5433 -4.1085,-4.1088 -0.0533,-0.0556 -0.0806,-0.1251 -0.0806,-0.1976 0,-0.0754 0.0281,-0.1426 0.0806,-0.1973 l 0.003,-0.004 z m 4.3029,-3.5467 -3.7485,3.7483 3.7485,3.7485 3.7483,-3.7485 z"
       style="fill:#996633;fill-opacity:1;fill-rule:nonzero;stroke:none"
       transform="matrix(0.35277776,0,0,-0.35277776,32.896314,171.77691)"
       clip-path="url(#clipPath175)" />
    <path
       id="path176"
       d="m 182.2995,179.7772 h -14.9593 c -6.8516,0 -13.8745,-3.9974 -13.8745,-12.0552 0,-7.558 6.9089,-11.5557 13.3036,-11.4307 l -0.2285,-0.1874 c -4.9674,-0.7497 -10.1058,-4.4971 -10.1058,-9.8067 0,-6.9333 6.5656,-9.8065 12.1612,-9.8691 h 13.7033 c 0.3424,0 0.2854,0.4374 0,0.4374 h -2.6839 c -0.2854,0 -0.3994,0.125 -0.3994,0.4371 v 23.7923 c -0.7673,-0.275 -1.6367,-0.2679 -2.3981,0.0227 v -23.815 c 0,-0.3121 -0.1142,-0.4371 -0.3997,-0.4371 h -7.651 c -5.0816,0 -9.9345,2.3111 -9.9345,9.4317 0,6.9335 4.225,9.7441 10.9054,9.7441 h 3.3934 c -0.0108,0.1505 -0.0134,0.2962 -0.006,0.4374 h -3.958 c -7.594,0 -13.0751,2.3737 -13.0751,11.2433 0,8.3075 5.0814,11.6178 11.2479,11.6178 h 9.0782 c 0.2855,0 0.3997,-0.1247 0.3997,-0.4371 v -19.7685 c 0.7614,0.2851 1.6308,0.3118 2.3981,0.0547 v 19.7138 c 0,0.3124 0.1712,0.4371 0.3994,0.4371 h 2.6839 c 0.3424,0 0.3424,0.4374 0,0.4374"
       style="fill:#996633;fill-opacity:1;fill-rule:nonzero;stroke:none"
       transform="matrix(0.35277776,0,0,-0.35277776,32.896314,171.77691)"
       clip-path="url(#clipPath177)" />
    <path
       id="path178"
       d="m 177.2606,179.7772 h -14.959 c -6.8513,0 -13.8742,-3.9974 -13.8742,-12.0552 0,-7.5577 6.9086,-11.5554 13.3036,-11.4304 l -0.2285,-0.1874 c -4.9674,-0.7497 -10.1061,-4.4971 -10.1061,-9.8067 0,-6.9333 6.5659,-9.8062 12.1612,-9.8688 h 13.703 c 0.3427,0 0.2854,0.4371 0,0.4371 h -2.6833 c -0.2854,0 -0.3997,0.125 -0.3997,0.4373 v 41.5996 c 0,0.3124 0.1713,0.4371 0.3997,0.4371 h 2.6833 c 0.3427,0 0.3427,0.4374 0,0.4374 z M 164.1288,156.479 c -7.5937,0 -13.0748,2.3734 -13.0748,11.243 0,8.3075 5.0814,11.6178 11.2476,11.6178 h 9.0782 c 0.2855,0 0.3997,-0.1247 0.3997,-0.4371 v -21.9866 c 0,-0.3121 -0.1142,-0.4371 -0.3997,-0.4371 z m -10.3342,-10.1815 c 0,6.9332 4.225,9.7441 10.9051,9.7441 h 6.6801 c 0.2855,0 0.3997,-0.1247 0.3997,-0.4371 v -18.3014 c 0,-0.3123 -0.1142,-0.4373 -0.3997,-0.4373 h -7.6507 c -5.0816,0 -9.9345,2.3111 -9.9345,9.4317"
       style="fill:#996633;fill-opacity:1;fill-rule:nonzero;stroke:none"
       transform="matrix(0.35277776,0,0,-0.35277776,32.896314,171.77691)"
       clip-path="url(#clipPath179)" />
    <path
       id="path180"
       d="m 178.6569,160.6017 h 14.9593 c 6.8516,0 13.8745,-3.9977 13.8745,-12.0552 0,-7.558 -6.9089,-11.5557 -13.3033,-11.431 l 0.2282,-0.1874 c 4.9674,-0.7495 10.1058,-4.4971 10.1058,-9.8064 0,-6.9333 -6.5656,-9.8065 -12.1612,-9.8691 h -13.7033 c -0.3424,0 -0.2851,0.4374 0,0.4374 h 2.6839 c 0.2854,0 0.3994,0.125 0.3994,0.4371 v 23.7923 c 0.7673,-0.2753 1.6367,-0.2679 2.3981,0.0224 v -23.8147 c 0,-0.3124 0.1142,-0.4371 0.3997,-0.4371 h 7.651 c 5.0816,0 9.9346,2.311 9.9346,9.4317 0,6.9332 -4.2251,9.7441 -10.9055,9.7441 h -3.3933 c 0.0107,0.1505 0.0133,0.2962 0.006,0.4371 h 3.9577 c 7.594,0 13.0754,2.374 13.0754,11.2436 0,8.3075 -5.0817,11.6178 -11.2482,11.6178 h -9.0782 c -0.2855,0 -0.3997,-0.125 -0.3997,-0.4371 v -19.7686 c -0.7614,0.2852 -1.6308,0.3119 -2.3981,0.0545 v 19.7141 c 0,0.3121 -0.1712,0.4371 -0.3994,0.4371 h -2.6839 c -0.3424,0 -0.3424,0.4374 0,0.4374"
       style="fill:#996633;fill-opacity:1;fill-rule:nonzero;stroke:none"
       transform="matrix(0.35277776,0,0,-0.35277776,32.896314,171.77691)"
       clip-path="url(#clipPath181)" />
    <path
       id="path182"
       d="m 183.6958,160.6017 h 14.959 c 6.8513,0 13.8742,-3.9974 13.8742,-12.0552 0,-7.5577 -6.9086,-11.5554 -13.3033,-11.4304 l 0.2282,-0.1874 c 4.9674,-0.7498 10.1061,-4.4972 10.1061,-9.8067 0,-6.9333 -6.5659,-9.8062 -12.1612,-9.8689 h -13.703 c -0.3427,0 -0.2854,0.4371 0,0.4371 h 2.6833 c 0.2857,0 0.3997,0.125 0.3997,0.4371 v 41.5999 c 0,0.3124 -0.1712,0.4371 -0.3997,0.4371 h -2.6833 c -0.3427,0 -0.3427,0.4374 0,0.4374 z m 13.1318,-23.2983 c 7.5937,0 13.0748,2.3735 13.0748,11.2431 0,8.3072 -5.0814,11.6178 -11.2476,11.6178 h -9.0782 c -0.2855,0 -0.3997,-0.1247 -0.3997,-0.4371 v -21.9867 c 0,-0.3123 0.1142,-0.4371 0.3997,-0.4371 z m 10.3343,-10.1814 c 0,6.9332 -4.2251,9.744 -10.9052,9.744 h -6.6801 c -0.2855,0 -0.3997,-0.125 -0.3997,-0.4371 v -18.3016 c 0,-0.3121 0.1142,-0.4371 0.3997,-0.4371 h 7.6507 c 5.0816,0 9.9346,2.3111 9.9346,9.4318"
       style="fill:#996633;fill-opacity:1;fill-rule:nonzero;stroke:none"
       transform="matrix(0.35277776,0,0,-0.35277776,32.896314,171.77691)"
       clip-path="url(#clipPath183)" />
    <path
       id="path184"
       d="m 150.1495,155.2439 -2.0041,-2.0041 -2.0041,2.0041 2.0041,2.0041 z"
       style="fill:#996633;fill-opacity:1;fill-rule:evenodd;stroke:none"
       transform="matrix(0.35277776,0,0,-0.35277776,32.896314,171.77691)"
       clip-path="url(#clipPath185)" />
    <path
       id="path186"
       d="m 215.3307,135.868 -2.0041,-2.0044 -2.004,2.0044 2.004,2.0041 z"
       style="fill:#996633;fill-opacity:1;fill-rule:evenodd;stroke:none"
       transform="matrix(0.35277776,0,0,-0.35277776,32.896314,171.77691)"
       clip-path="url(#clipPath187)" />
    <path
       id="path188"
       d="m 177.7935,126.5153 -5.2421,-5.2421 c -0.0643,-0.0643 -0.1485,-0.0963 -0.2327,-0.0963 -0.0839,0 -0.1678,0.0323 -0.2319,0.096 l -5.2427,5.2424 c -0.064,0.0644 -0.0964,0.1489 -0.0964,0.2325 0,0.0845 0.0321,0.1686 0.0964,0.2327 l 5.2419,5.2421 c 0.064,0.0641 0.1488,0.0964 0.2327,0.0964 0.0842,0 0.1684,-0.032 0.2327,-0.0964 l 5.2421,-5.2421 c 0.0641,-0.0641 0.0961,-0.1485 0.0961,-0.2327 0,-0.0842 -0.032,-0.1684 -0.0961,-0.2325 z m -5.4564,-5.0278 5.2418,5.2421 c 0.005,0.005 0.007,0.0117 0.007,0.0182 0,0.007 -0.003,0.0136 -0.007,0.0181 l -5.2421,5.2424 c -0.005,0.005 -0.0116,0.007 -0.0184,0.007 -0.006,0 -0.0133,-0.003 -0.0182,-0.007 l -5.2421,-5.2421 c -0.005,-0.005 -0.008,-0.0119 -0.008,-0.0184 0,-0.007 0.002,-0.0136 0.007,-0.0182 l 5.2426,-5.2421 c 0.005,-0.005 0.0114,-0.007 0.0182,-0.007 0.007,0 0.0136,0.002 0.0184,0.007"
       style="fill:#996633;fill-opacity:1;fill-rule:nonzero;stroke:none"
       transform="matrix(0.35277776,0,0,-0.35277776,32.896314,171.77691)"
       clip-path="url(#clipPath189)" />
    <path
       id="path190"
       d="m 176.6217,126.5462 -4.1012,-4.1011 c -0.055,-0.0553 -0.129,-0.0839 -0.2015,-0.0839 -0.074,0 -0.1429,0.028 -0.1976,0.0805 l -4.1057,4.1045 c -0.0567,0.057 -0.0836,0.1293 -0.0836,0.2016 0,0.0723 0.0263,0.1445 0.0836,0.2018 l 4.1054,4.1046 c 0.0547,0.0524 0.1253,0.0805 0.1979,0.0805 0.0722,0 0.142,-0.0275 0.1975,-0.0805 0.5607,-0.4363 3.6644,-3.5433 4.1086,-4.1088 0.0533,-0.0556 0.0805,-0.1251 0.0805,-0.1976 0,-0.0754 -0.0281,-0.1426 -0.0805,-0.1973 l -0.003,-0.004 z m -4.303,-3.5467 3.7482,3.7483 -3.7482,3.7485 -3.7483,-3.7485 z"
       style="fill:#996633;fill-opacity:1;fill-rule:nonzero;stroke:none"
       transform="matrix(0.35277776,0,0,-0.35277776,32.896314,171.77691)"
       clip-path="url(#clipPath191)" />
    <path
       id="path192"
       d="m 150.0143,180.3546 -7.9557,-7.9554 c -0.0976,-0.0975 -0.2254,-0.1463 -0.3532,-0.1463 -0.1276,0 -0.2546,0.0491 -0.3518,0.146 l -7.9566,7.9557 c -0.0975,0.0981 -0.1465,0.2262 -0.1465,0.3532 0,0.1279 0.0487,0.2557 0.1465,0.3532 l 7.9554,7.9554 c 0.097,0.0973 0.2254,0.146 0.353,0.146 0.1278,0 0.2556,-0.0484 0.3532,-0.1457 l 7.9557,-7.9557 c 0.0972,-0.0975 0.1457,-0.2256 0.1457,-0.3532 0,-0.1278 -0.0485,-0.2557 -0.1457,-0.3532 z m -8.2812,-7.63 7.9558,7.9554 c 0.007,0.007 0.011,0.0176 0.011,0.0278 0,0.01 -0.004,0.0204 -0.011,0.0275 l -7.9558,7.9557 c -0.007,0.007 -0.0175,0.0114 -0.0277,0.0114 -0.01,0 -0.0202,-0.004 -0.0273,-0.0111 l -7.9557,-7.9557 c -0.008,-0.008 -0.0116,-0.0182 -0.0116,-0.0278 0,-0.0105 0.004,-0.021 0.0105,-0.0278 l 7.9566,-7.9554 c 0.007,-0.008 0.0172,-0.0113 0.0275,-0.0113 0.0102,0 0.0204,0.004 0.0277,0.0113"
       style="fill:#996633;fill-opacity:1;fill-rule:nonzero;stroke:none"
       transform="matrix(0.35277776,0,0,-0.35277776,32.896314,171.77691)"
       clip-path="url(#clipPath193)" />
    <path
       id="path194"
       d="m 148.2358,180.4017 -6.224,-6.2243 c -0.0836,-0.0834 -0.1959,-0.1273 -0.3062,-0.1273 -0.1119,0 -0.2168,0.0425 -0.2999,0.1222 l -6.2305,6.2294 c -0.0865,0.0864 -0.127,0.1961 -0.127,0.3061 0,0.1094 0.04,0.2191 0.127,0.3062 l 6.2302,6.2291 c 0.0831,0.0796 0.1903,0.1222 0.3002,0.1222 0.11,0 0.2158,-0.0414 0.2999,-0.1222 0.8513,-0.6622 5.5611,-5.3773 6.2354,-6.2357 0.0808,-0.0842 0.1222,-0.1896 0.1222,-0.2996 0,-0.1148 -0.0425,-0.2166 -0.1222,-0.2996 l -0.005,-0.006 z m -6.5304,-5.3827 5.6888,5.6888 -5.6888,5.6886 -5.6886,-5.6886 z"
       style="fill:#996633;fill-opacity:1;fill-rule:nonzero;stroke:none"
       transform="matrix(0.35277776,0,0,-0.35277776,32.896314,171.77691)"
       clip-path="url(#clipPath195)" />
  </g>
</svg>
