<?xml version="1.0" encoding="UTF-8" standalone="no"?>
<!-- Creator: CorelDRAW -->

<svg
   xml:space="preserve"
   width="101.42068mm"
   height="38.329014mm"
   version="1.1"
   style="clip-rule:evenodd;fill-rule:evenodd;image-rendering:optimizeQuality;shape-rendering:geometricPrecision;text-rendering:geometricPrecision"
   viewBox="0 0 10142.049 3832.9015"
   id="svg1"
   sodipodi:docname="(brązowe LOGO GŁÓWNE) Bylica KP.svg"
   inkscape:version="1.4.2 (f4327f4, 2025-05-13)"
   xmlns:inkscape="http://www.inkscape.org/namespaces/inkscape"
   xmlns:sodipodi="http://sodipodi.sourceforge.net/DTD/sodipodi-0.dtd"
   xmlns="http://www.w3.org/2000/svg"
   xmlns:svg="http://www.w3.org/2000/svg"><sodipodi:namedview
   id="namedview1"
   pagecolor="#ffffff"
   bordercolor="#000000"
   borderopacity="0.25"
   inkscape:showpageshadow="2"
   inkscape:pageopacity="0.0"
   inkscape:pagecheckerboard="0"
   inkscape:deskcolor="#d1d1d1"
   inkscape:document-units="mm"
   showgrid="false"
   inkscape:zoom="2.8652632"
   inkscape:cx="195.44452"
   inkscape:cy="5.7586333"
   inkscape:window-width="2560"
   inkscape:window-height="1369"
   inkscape:window-x="-8"
   inkscape:window-y="-8"
   inkscape:window-maximized="1"
   inkscape:current-layer="Warstwa_x0020_1" />
 <defs
   id="defs1">
  <style
   type="text/css"
   id="style1">
   <![CDATA[
    .fil0 {fill:#663300;fill-rule:nonzero}
   ]]>
  </style>
 </defs>
 <g
   id="Warstwa_x0020_1"
   inkscape:label="Warstwa 1"
   inkscape:groupmode="layer"
   transform="translate(-22.812277,-3803.402)">
  <metadata
   id="CorelCorpID_0Corel-Layer" />
  <path
   class="fil0"
   d="m 3627.2667,6513.8925 c 0,-10.2989 -1.0186,-17.8494 -3.0881,-22.6512 -2.0533,-4.8181 -6.0791,-8.1648 -12.0936,-10.0403 -6.0145,-1.8917 -15.5374,-2.8456 -28.5849,-2.8456 -0.6791,0 -1.0348,-1.0186 -1.0348,-3.0881 0,-2.0533 0.3557,-3.088 1.0348,-3.088 l 25.7555,0.5174 c 14.4056,0.679 25.9172,1.0347 34.5023,1.0347 9.9596,0 22.134,-0.3557 36.5557,-1.0347 l 24.2035,-0.5174 c 1.0348,0 1.5521,1.0347 1.5521,3.088 0,2.0695 -0.5173,3.0881 -1.5521,3.0881 -12.6918,0 -22.053,1.0348 -28.0675,3.1042 -5.9983,2.0534 -10.1212,5.5618 -12.3523,10.5577 -2.2312,4.9635 -3.3468,12.611 -3.3468,22.91 v 237.3939 c 0,10.6546 1.0185,18.3667 3.088,23.1847 2.0534,4.7858 6.0954,8.0517 12.0937,9.7817 6.0145,1.7138 15.5374,2.5706 28.5849,2.5706 1.0348,0 1.5521,1.0348 1.5521,3.0882 0,2.0533 -0.5173,3.0881 -1.5521,3.0881 -10.299,0 -18.5446,-0.1779 -24.7208,-0.5174 l -36.0384,-0.5174 -35.0197,0.5174 c -6.1923,0.3395 -14.7613,0.5174 -25.7555,0.5174 -0.6791,0 -1.0186,-1.0348 -1.0186,-3.0881 0,-2.0534 0.3395,-3.0882 1.0186,-3.0882 13.0475,0 22.5705,-0.8568 28.5849,-2.5706 6.0145,-1.73 10.1373,-5.0768 12.3523,-10.0403 2.2311,-4.9797 3.3468,-12.6272 3.3468,-22.9261 z M 1252.6489,3939.3421 c 307.0454,0 583.9537,201.3231 783.4176,526.8161 196.9094,321.3217 318.7024,764.6142 318.7024,1253.7106 0,489.0641 -121.793,932.3567 -318.7186,1253.6783 -199.4477,325.493 -476.356,526.8161 -783.4014,526.8161 -307.02918,0 -583.93754,-201.3231 -783.40142,-526.8161 -196.9093,-321.3216 -318.70245,-764.6142 -318.70245,-1253.6783 0,-489.0964 121.79315,-932.3889 318.70245,-1253.7106 199.46388,-325.493 476.37224,-526.8161 783.40142,-526.8161 z m -535.27205,1710.0183 73.09527,-73.0953 73.09528,73.0953 -73.09528,73.1115 z m 104.17009,864.4675 h 547.96386 c 250.975,0 508.2392,-146.433 508.2392,-441.595 0,-276.8598 -253.0767,-423.2928 -487.3179,-418.7335 l 8.3589,-6.8552 c 181.9701,-27.4531 370.1972,-164.7351 370.1972,-359.2355 0,-253.9821 -240.5142,-359.2193 -445.4914,-361.5151 h -183.8295 l -0.7275,-0.016 H 636.95756 c -12.54641,0 -10.44456,16.0225 0,16.0225 h 98.3011 c 10.46064,0 14.64813,4.5755 14.64813,16.0063 v 583.8566 c 28.09989,-10.0726 59.95074,-9.8301 87.85654,0.8246 v -584.6812 c 0,-11.0751 3.91266,-15.7154 13.66193,-15.9902 h 68.40658 c 10.46064,0 14.64814,4.5594 14.64814,16.0064 v 1523.8766 c 0,11.253 -6.07917,15.8609 -14.26018,16.0064 h -67.82441 -0.48512 c -10.10496,-0.1455 -14.14694,-4.7534 -14.14694,-16.0064 v -724.162 c -27.9058,10.4445 -59.75665,11.4146 -87.85654,2.0048 v 722.1572 c 0,11.4308 -6.27314,16.0064 -14.64813,16.0064 h -98.3011 c -12.54641,0 -12.54641,16.0224 0,16.0224 H 821.25591 Z M 1304.451,5660.3708 c 277.1994,0.4042 477.0836,87.6788 477.0836,411.8621 0,304.313 -186.1415,425.5726 -412.0238,425.5726 h -42.1013 c 197.2974,-45.2703 365.7835,-186.7075 365.7835,-425.5887 0,-238.1538 -187.2895,-379.8173 -388.742,-411.846 z m -267.9674,837.4347 c -10.1051,-0.1456 -14.1632,-4.7534 -14.1632,-16.0064 v -805.4059 c 0,-11.4469 4.1875,-16.0224 14.6482,-16.0224 h 83.9278 c 276.6819,0.5983 476.0811,88.0667 476.0811,411.846 0,304.3291 -186.1414,425.5887 -412.0237,425.5887 z m 644.6643,-1210.3968 c 0,253.9822 -154.7757,356.9397 -399.4776,356.9397 h -53.8069 c 177.6211,-32.0772 356.5516,-167.322 356.5516,-356.9397 0,-199.7225 -148.7126,-307.4656 -311.9442,-345.4927 h 44.7529 c 186.1415,0 363.9242,84.6554 363.9242,345.4927 z m -645.1495,356.9397 c -9.7492,-0.291 -13.678,-4.9312 -13.678,-16.0063 v -670.4198 c 0,-11.4469 4.1875,-16.0063 14.6482,-16.0063 h 97.622 c 185.4463,0.5821 361.9841,85.5446 361.9841,345.4927 0,253.9822 -154.7595,356.9397 -399.4776,356.9397 z M 1252.6489,3803.402 c 340.3352,0 648.1566,215.0336 870.7244,562.6767 221.8889,346.5921 359.1385,825.244 359.1385,1353.7901 0,528.53 -137.2496,1007.1818 -359.1546,1353.7578 -222.5517,347.6431 -530.3731,562.6767 -870.7083,562.6767 -340.30289,0 -648.15663,-215.0336 -870.70829,-562.6767 C 160.05174,6727.0345 22.802153,6248.3988 22.802153,5719.8688 c 0,-528.5461 137.249587,-1007.198 359.138457,-1353.7901 222.55166,-347.6431 530.4054,-562.6767 870.70829,-562.6767 z m 857.1111,571.4235 c -219.6092,-343.0513 -522.6773,-555.207 -857.1111,-555.207 -334.4177,0 -637.4857,212.1719 -857.09494,555.207 -220.28811,344.0699 -356.551493,819.6176 -356.551493,1345.0433 0,525.3934 136.263383,1000.9411 356.551493,1345.0271 219.60924,343.0191 522.67724,555.2071 857.09494,555.2071 334.45,0 637.5019,-212.188 857.1111,-555.2071 220.2881,-344.0698 356.5516,-819.6337 356.5516,-1345.0271 0,-525.4257 -136.2635,-1000.9734 -356.5516,-1345.0433 z m -121.9872,120.7907 c -189.1325,-308.646 -449.1454,-499.557 -735.1239,-499.557 -285.96239,0 -545.97525,190.911 -735.10781,499.557 -191.70322,312.8334 -310.27888,745.6492 -310.27888,1224.2526 0,478.5872 118.57566,911.3868 310.27888,1224.2203 189.13256,308.6459 449.14542,499.5571 735.10781,499.5571 285.9785,0 545.9752,-190.9112 735.1239,-499.5571 191.7033,-312.8335 310.2951,-745.6331 310.2951,-1224.2203 0,-478.6034 -118.5918,-911.4192 -310.2951,-1224.2526 z m 7305.6623,1988.4142 11.8501,1.0185 v 252.8504 c 0,17.8495 3.1859,30.6383 9.5232,38.3666 6.3546,7.7283 16.5727,11.5923 30.6543,11.5923 1.0187,0 1.5366,1.0348 1.5366,3.0882 0,2.0533 -0.5179,3.0881 -1.5366,3.0881 -8.601,0 -15.1164,-0.1779 -19.5794,-0.5174 l -25.7387,-0.5174 -26.2733,0.5174 c -4.8018,0.3395 -11.8349,0.5174 -21.1153,0.5174 -0.679,0 -1.0185,-1.0348 -1.0185,-3.0881 0,-2.0534 0.3395,-3.0882 1.0185,-3.0882 14.7613,0 25.2377,-3.864 31.4143,-11.5923 6.1765,-7.7283 9.2648,-20.5171 9.2648,-38.3666 z M 3992.0154,5229.1072 c 77.4607,0 145.9157,15.214 205.4137,45.6421 118.4464,60.6135 188.8092,169.052 188.8092,302.9387 0,228.2751 -172.7706,392.1534 -396.3086,392.1534 -47.0163,0 -96.8297,-2.0696 -149.3917,-6.2247 -52.6752,-3.7509 -104.8491,-6.2247 -157.686,-6.2247 l -136.9425,2.0857 c -24.8986,1.3905 -59.4818,2.0694 -103.7496,2.0694 -5.7881,0 -5.7881,-24.9147 0,-24.9147 55.3267,0 95.7789,-3.4438 121.3889,-10.3636 25.5939,-6.9037 43.217,-20.404 52.9016,-40.4684 9.6846,-20.0482 14.5349,-50.832 14.5349,-92.3189 v -960.6829 c 0,-41.4869 -4.5108,-71.9312 -13.5003,-91.2842 -8.9893,-19.3853 -26.2728,-32.8695 -51.8667,-40.4683 -25.5938,-7.6151 -65.3669,-11.4146 -119.3194,-11.4146 -4.139,0 -6.2084,-4.1552 -6.2084,-12.4493 0,-8.3104 2.0694,-12.4494 6.2084,-12.4494 l 99.6106,2.0696 c 68.6654,3.4437 138.7857,6.4024 207.4832,2.0694 57.4124,-3.5892 114.6792,-10.3636 172.221,-10.3636 114.8085,0 199.5286,25.9334 254.1762,77.8001 54.6476,51.883 81.9714,117.929 81.9714,198.1543 0,169.8443 -140.6449,274.7418 -292.5751,313.3185 z m 5100.3708,287.0941 624.1144,-1.536 -342.1615,-735.8191 39.4171,-35.2622 z m 638.8437,30.137 -652.0691,1.6168 -65.8682,158.3811 c -26.6609,64.7365 -57.2344,161.0975 20.7597,203.3443 33.1927,17.9787 85.0595,26.9519 155.6164,26.9519 6.9037,0 10.3637,4.1714 10.3637,12.4655 0,8.2941 -3.46,12.4492 -10.3637,12.4492 -24.8986,0 -60.8723,-1.3742 -107.9048,-4.1551 -52.562,-2.7647 -98.2041,-4.1552 -136.9425,-4.1552 -34.5832,0 -75.3911,1.3905 -122.4075,4.1552 -41.5031,2.7809 -75.3911,4.1551 -101.664,4.1551 -6.9198,0 -10.396,-4.1551 -10.396,-12.4492 0,-8.2941 3.4762,-12.4655 10.396,-12.4655 81.8906,0 129.8447,-27.8574 175.3091,-95.4232 24.2195,-35.9736 50.1528,-87.1452 77.8162,-153.5631 l 433.6562,-1043.6729 c 5.1418,-7.7282 21.827,-9.1834 24.8992,0 l 481.3845,1033.3093 c 32.0278,71.0257 89.5529,196.0847 158.7199,237.5717 24.22,14.5188 52.223,21.7782 84.041,21.7782 5.529,0 8.295,4.1714 8.295,12.4655 0,8.2941 -2.766,12.4492 -8.295,12.4492 -78.818,0 -157.7994,-8.3103 -236.5373,-8.3103 -29.0532,0 -67.0968,1.3905 -114.1124,4.1552 -44.2684,2.7809 -77.4769,4.1551 -99.6105,4.1551 -5.5299,0 -8.2943,-4.1551 -8.2943,-12.4492 0,-8.2941 2.7644,-12.4655 8.2943,-12.4655 56.7169,0 97.5249,-5.1576 122.4229,-15.5535 24.8992,-10.3637 37.3476,-28.0029 37.3476,-52.9016 0,-19.3691 -7.6145,-46.3373 -22.8285,-80.9205 z M 3877.886,4685.4763 c -38.7385,0 -67.0809,2.7648 -85.0757,8.3103 -17.9788,5.5295 -31.4629,18.6741 -40.4522,39.4175 -9.0057,20.7434 -13.5003,55.3267 -13.5003,103.7497 v 406.6721 l -62.2465,-16.5883 c 59.4818,4.1391 112.7551,6.2085 159.7877,6.2085 109.2791,0 188.8092,-25.9334 238.6064,-77.8 49.7972,-51.883 74.696,-120.6937 74.696,-206.4485 0,-77.4768 -21.7783,-140.7419 -65.367,-189.8602 -43.5727,-49.102 -112.3834,-73.6611 -206.4484,-73.6611 z m 82.9899,1251.1561 c 102.3755,0 178.7852,-26.6124 229.2937,-79.8697 50.4764,-53.2409 75.7308,-128.9878 75.7308,-227.2079 0,-105.1241 -32.1581,-190.5393 -96.4903,-256.2458 -64.3162,-65.6904 -151.1218,-99.255 -260.4008,-100.6293 -84.3644,-2.7647 -159.7717,0.6791 -226.1573,10.3798 l 56.0058,-22.829 v 533.251 c 0,37.3478 5.8851,66.046 17.6392,86.0942 11.7702,20.0645 33.5485,34.5994 65.367,43.5888 31.8185,8.9893 78.1558,13.4679 139.0119,13.4679 z M 5381.3751,4870.1465 c 30.428,-49.7972 45.6421,-87.8404 45.6421,-114.1133 0,-44.2678 -37.348,-66.4017 -112.0439,-66.4017 -5.7882,0 -5.7882,-24.8987 0,-24.8987 l 93.386,2.0696 c 52.5458,2.7647 98.8832,4.1551 138.9958,4.1551 23.5082,0 51.8829,-1.3904 85.0757,-4.1551 l 76.7654,-2.0696 c 5.8043,0 5.8043,24.8987 0,24.8987 -120.8069,0 -217.9439,91.268 -280.1096,186.7397 l -338.201,512.4913 -33.1927,-29.0376 z m -709.6271,-33.1927 c -35.9737,-53.9524 -71.236,-91.9956 -105.803,-114.1295 -34.5994,-22.1339 -77.4768,-33.1928 -128.6645,-33.1928 -4.139,0 -6.2085,-4.1552 -6.2085,-12.4493 0,-8.3104 2.0695,-12.4494 6.2085,-12.4494 l 76.7815,2.0696 c 33.209,2.7647 58.0914,4.1551 74.6959,4.1551 45.6421,0 101.664,-1.3904 168.0658,-4.1551 l 107.8886,-2.0696 c 5.7882,0 5.7882,24.8987 0,24.8987 -41.503,0 -71.5754,3.1204 -90.2494,9.345 -18.6902,6.2247 -28.019,16.2488 -28.019,30.0724 0,8.3104 6.9198,22.813 20.7434,43.5888 l 369.3404,531.1653 -76.7653,95.4555 z m 464.7797,462.7103 v 493.8174 c 0,42.8773 4.1553,74.0006 12.4494,93.3698 8.2941,19.3693 24.8986,32.5138 49.7972,39.4175 24.8986,6.9198 65.0113,10.3636 120.3542,10.3636 4.1551,0 6.2246,4.1714 6.2246,12.4655 0,8.2941 -2.0695,12.4492 -6.2246,12.4492 -41.5032,0 -74.0169,-0.6789 -97.5251,-2.0694 l -141.0976,-2.0857 -141.0975,2.0857 c -24.8988,1.3905 -58.0915,2.0694 -99.5946,2.0694 -4.139,0 -6.2246,-4.1551 -6.2246,-12.4492 0,-8.2941 2.0856,-12.4655 6.2246,-12.4655 53.9525,0 93.7094,-3.4438 119.3193,-10.3636 25.5939,-6.9037 43.217,-20.404 52.9016,-40.4684 9.6846,-20.0482 14.535,-50.832 14.535,-92.3189 v -475.1597 z m 885.1624,485.5231 c 0,40.1128 4.5109,69.5061 13.484,88.18 8.9895,18.674 25.5939,31.4629 49.7974,38.3827 24.2196,6.9199 62.6022,10.3798 115.1642,10.3798 h 265.5908 c 136.9424,0 217.863,-87.8403 242.7616,-263.5212 0,-8.6822 22.8129,-6.548 22.8129,2.0856 -12.4331,109.263 -18.6577,199.1891 -18.6577,269.7298 0,23.3789 -7.7283,31.1232 -31.1234,31.1232 h -954.4581 c -5.7882,0 -5.7882,-24.9147 0,-24.9147 53.9362,0 93.7093,-3.4438 119.287,-10.3636 25.61,-6.9037 42.8935,-20.404 51.883,-40.4684 8.9893,-20.0482 13.484,-50.832 13.484,-92.3189 v -960.6829 c 0,-41.4869 -4.4947,-71.9312 -13.484,-91.2842 -8.9895,-19.3853 -26.273,-32.8695 -51.883,-40.4683 -25.5777,-7.6151 -65.3508,-11.4146 -119.287,-11.4146 -5.7882,0 -5.7882,-24.8987 0,-24.8987 l 101.664,2.0696 c 58.0914,2.7647 103.7497,4.1551 136.9424,4.1551 37.348,0 85.0757,-1.3904 143.1671,-4.1551 l 97.525,-2.0696 c 5.7882,0 5.7882,24.8987 0,24.8987 -53.9524,0 -93.7093,3.7995 -119.3032,11.4146 -25.5939,7.5988 -42.8935,21.4225 -51.883,41.5031 -8.9731,20.0482 -13.484,50.8158 -13.484,92.335 z m 1080.1963,8.2943 c 0,42.8773 4.4946,74.0006 13.4841,93.3698 8.9893,19.3693 25.9334,32.5138 50.832,39.4175 24.9148,6.9198 65.0275,10.3636 120.338,10.3636 5.8042,0 5.8042,24.9147 0,24.9147 -41.487,0 -73.9846,-0.6789 -97.5089,-2.0694 l -145.2528,-2.0857 -139.0119,2.0857 c -24.8986,1.3905 -58.7867,2.0694 -101.664,2.0694 -4.1552,0 -6.2247,-4.1551 -6.2247,-12.4492 0,-8.2941 2.0695,-12.4655 6.2247,-12.4655 53.9524,0 93.7093,-3.4438 119.3032,-10.3636 25.5939,-6.9037 43.2168,-20.404 52.9015,-40.4684 9.7008,-20.0482 14.535,-50.832 14.535,-92.3189 v -960.6829 c 0,-41.4869 -4.8342,-71.9312 -14.535,-91.2842 -9.6847,-19.3853 -27.3076,-32.8695 -52.9015,-40.4683 -25.5939,-7.6151 -65.3508,-11.4146 -119.3032,-11.4146 -4.1552,0 -6.2247,-4.1552 -6.2247,-12.4493 0,-8.3104 2.0695,-12.4494 6.2247,-12.4494 l 101.664,2.0696 c 58.1076,2.7647 104.4449,4.1551 139.0119,4.1551 38.7384,0 87.1614,-1.3904 145.2528,-4.1551 l 97.5089,-2.0696 c 5.8042,0 5.8042,24.8987 0,24.8987 -53.9202,0 -93.7095,4.1551 -119.3033,12.4493 -25.5777,8.2941 -42.8774,22.4734 -51.8667,42.5378 -8.9895,20.0483 -13.4841,50.8159 -13.4841,92.3352 z M 8184.1521,4641.9038 c 91.3004,0 166.0125,6.5802 224.1039,19.7087 58.0914,13.1445 119.6589,36.3132 184.6702,69.5059 8.2941,5.5456 13.484,10.0403 15.5536,13.5002 2.0856,3.46 3.7994,14.1793 5.1899,32.1581 l 24.8986,236.537 c 0,8.6174 -22.0369,10.6708 -24.8986,2.0857 -59.207,-223.3925 -194.1285,-344.4419 -429.5176,-344.4419 -225.2032,0 -425.5886,91.6885 -534.2695,295.6793 -50.4925,94.7441 -75.7307,205.0581 -75.7307,330.9415 0,117.5895 27.9868,227.1919 84.0249,328.8722 107.1125,194.3871 303.8926,333.0272 530.1305,333.0272 229.6333,0 376.2604,-112.7391 439.8812,-338.2172 0,-6.2085 24.8986,-6.079 24.8986,2.0696 l -16.5883,219.9486 c -2.0856,25.0118 -1.9563,31.7215 -22.8291,45.6421 -71.9312,37.348 -139.3677,63.2975 -202.3095,77.8164 -62.9417,14.5188 -137.9772,21.7781 -225.1223,21.7781 -143.8624,0 -272.155,-28.6981 -384.8941,-86.0943 -112.739,-57.3961 -200.919,-138.3328 -264.5398,-242.7777 -63.637,-104.4288 -95.4555,-224.4272 -95.4555,-359.9792 0,-130.0388 31.8185,-244.8473 95.4555,-344.4419 63.6208,-99.5945 151.8008,-176.7155 264.5398,-231.347 112.7391,-54.6477 240.3364,-81.9714 382.8083,-81.9714 z M 9552.978,6800.2106 c 0,0.6952 -0.8568,1.2126 -2.5703,1.5521 -1.7135,0.3395 -2.9103,0.1617 -3.6051,-0.5174 l -236.8764,-286.8354 c -10.9944,-13.3871 -21.0345,-22.7483 -30.1374,-28.0675 -9.0864,-5.3193 -18.0919,-7.987 -27.0328,-7.987 -1.0185,0 -1.5359,-1.0186 -1.5359,-3.0881 0,-2.0533 0.5174,-3.088 1.5359,-3.088 l 19.0621,0.5174 c 4.1233,0.3395 9.7819,0.5173 16.9921,0.5173 7.5512,0 13.7267,-0.1778 18.5446,-0.5173 4.8018,-0.3396 8.5688,-0.5174 11.3183,-0.5174 2.4084,0 4.3815,0.5981 5.917,1.7946 1.5527,1.2126 3.3467,3.7025 5.4162,7.4857 4.1231,6.1601 8.407,12.0129 12.87,17.4938 l 205.9798,252.8504 z m 0,0 -11.834,-15.9578 v -255.4211 c 0,-17.8655 -3.0079,-30.7352 -9.0064,-38.6252 -6.0135,-7.89 -16.0547,-11.8511 -30.1363,-11.8511 -0.6799,0 -1.0348,-1.0186 -1.0348,-3.0881 0,-2.0533 0.3549,-3.088 1.0348,-3.088 l 20.0801,0.5174 c 10.3157,0.679 18.7227,1.0347 25.238,1.0347 6.1766,0 14.7615,-0.3557 25.7399,-1.0347 l 21.1149,-0.5174 c 1.0348,0 1.5528,1.0347 1.5528,3.088 0,2.0695 -0.518,3.0881 -1.5528,3.0881 -14.4055,0 -24.8819,3.9611 -31.4145,11.8511 -6.5154,7.89 -9.7817,20.7597 -9.7817,38.6252 z m 218.3651,-158.0902 h 136.4574 l 3.6051,10.2991 h -145.2204 z m 254.9029,145.7378 c 1.375,0 2.054,1.0348 2.054,3.0882 0,2.0533 -0.679,3.0881 -2.054,3.0881 -6.515,0 -16.653,-0.3395 -30.3796,-1.0348 -13.7428,-0.679 -23.6853,-1.0347 -29.8779,-1.0347 -7.5501,0 -17.1538,0.3557 -28.827,1.0347 -10.9945,0.6953 -19.4014,1.0348 -25.2391,1.0348 -1.3736,0 -2.0684,-1.0348 -2.0684,-3.0881 0,-2.0534 0.6948,-3.0882 2.0684,-3.0882 13.0479,0 22.3932,-1.1963 28.0678,-3.6054 5.6586,-2.409 8.4885,-6.6935 8.4885,-12.8696 0,-5.1576 -2.0535,-12.3685 -6.1766,-21.6328 l -114.3226,-241.5167 12.8688,-15.9577 -99.901,236.3592 c -4.8019,11.6732 -7.2114,21.2931 -7.2114,28.8273 0,20.2585 16.8311,30.3957 50.476,30.3957 1.7147,0 2.5714,1.0348 2.5714,3.0882 0,2.0533 -0.8567,3.0881 -2.5714,3.0881 -6.1754,0 -15.1164,-0.3395 -26.7896,-1.0348 -13.048,-0.679 -24.3651,-1.0347 -33.9849,-1.0347 -8.9248,0 -19.2245,0.3557 -30.8977,1.0347 -10.2984,0.6953 -18.8834,1.0348 -25.7387,1.0348 -1.7135,0 -2.5875,-1.0348 -2.5875,-3.0881 0,-2.0534 0.874,-3.0882 2.5875,-3.0882 9.6037,0 17.7682,-1.7946 24.4616,-5.4162 6.6934,-3.6055 13.048,-9.9433 19.0465,-19.0458 6.0146,-9.1026 12.6104,-22.2309 19.8217,-39.4012 l 108.664,-256.4397 c 0.6799,-1.0348 1.8927,-1.5522 3.6063,-1.5522 1.7135,0 2.7483,0.5174 3.0883,1.5522 l 121.5339,255.9223 c 11.6732,25.416 21.6329,42.4893 29.8618,51.2523 8.2459,8.7469 18.0279,13.1283 29.3609,13.1283 z m -6351.5911,-171.4933 25.7393,-20.5979 75.1972,95.7951 c 25.0603,32.6106 44.2031,55.6177 57.4123,69.0047 13.2092,13.3871 23.4274,21.277 30.6383,23.686 7.2109,2.4091 17.6877,3.6054 31.4143,3.6054 1.0347,0 1.5359,1.0348 1.5359,3.0882 0,2.0533 -0.5012,3.0881 -1.5359,3.0881 h -57.6872 c -2.7325,0 -7.6313,0.08 -14.6643,0.2586 -7.0331,0.1779 -16.9117,-8.5852 -29.6197,-26.2729 -12.6919,-17.6715 -24.8825,-33.888 -36.5557,-48.6493 z m 96.2962,-102.4724 c 11.3337,-11.3337 16.9926,-19.7411 16.9926,-25.2381 0,-6.8553 -10.1374,-10.299 -30.3796,-10.299 -0.6952,0 -1.0347,-1.0186 -1.0347,-3.0881 0,-2.0533 0.3395,-3.088 1.0347,-3.088 l 22.1339,0.5174 c 13.7428,0.679 26.2729,1.0347 37.6066,1.0347 11.3176,0 23.1687,-0.3557 35.5211,-1.0347 l 19.062,-0.5174 c 1.0184,0 1.5358,1.0347 1.5358,3.088 0,2.0695 -0.5174,3.0881 -1.5358,3.0881 -14.0823,0 -29.0054,3.1042 -44.8014,9.2643 -15.7961,6.1922 -30.5575,15.9739 -44.2841,29.3609 l -131.8495,129.2627 h -12.8697 z m 294.0464,128.2279 h 136.4736 l 3.6054,10.2991 h -145.2204 z m 254.9199,145.7378 c 1.3581,0 2.0533,1.0348 2.0533,3.0882 0,2.0533 -0.6952,3.0881 -2.0533,3.0881 -6.5319,0 -16.6692,-0.3395 -30.3957,-1.0348 -13.7266,-0.679 -23.686,-1.0347 -29.8622,-1.0347 -7.5504,0 -17.1703,0.3557 -28.8437,1.0347 -10.9941,0.6953 -19.4015,1.0348 -25.2381,1.0348 -1.358,0 -2.0533,-1.0348 -2.0533,-3.0881 0,-2.0534 0.6953,-3.0882 2.0533,-3.0882 13.0475,0 22.4088,-1.1963 28.0675,-3.6054 5.6751,-2.409 8.5045,-6.6935 8.5045,-12.8696 0,-5.1576 -2.0534,-12.3685 -6.1762,-21.6328 l -114.3236,-241.5167 12.8697,-15.9577 -99.9017,236.3592 c -4.8018,11.6732 -7.2109,21.2931 -7.2109,28.8273 0,20.2585 16.8147,30.3957 50.4601,30.3957 1.7139,0 2.5708,1.0348 2.5708,3.0882 0,2.0533 -0.8569,3.0881 -2.5708,3.0881 -6.1761,0 -15.1008,-0.3395 -26.7741,-1.0348 -13.0474,-0.679 -24.3651,-1.0347 -33.9849,-1.0347 -8.9248,0 -19.2237,0.3557 -30.8969,1.0347 -10.2991,0.6953 -18.8842,1.0348 -25.7556,1.0348 -1.7138,0 -2.5707,-1.0348 -2.5707,-3.0881 0,-2.0534 0.8569,-3.0882 2.5707,-3.0882 9.6199,0 17.7685,-1.7946 24.462,-5.4162 6.7098,-3.6055 13.0476,-9.9433 19.062,-19.0458 5.9983,-9.1026 12.6111,-22.2309 19.822,-39.4012 l 108.6647,-256.4397 c 0.6791,-1.0348 1.8754,-1.5522 3.5893,-1.5522 1.73,0 2.7486,0.5174 3.0881,1.5522 l 121.5506,255.9223 c 11.6732,25.416 21.6164,42.4893 29.8621,51.2523 8.2457,8.7469 18.0273,13.1283 29.361,13.1283 z m 123.5716,-303.8278 11.851,1.0185 v 252.8504 c 0,17.8495 3.1851,30.6383 9.523,38.3666 6.354,7.7283 16.5721,11.5923 30.6544,11.5923 1.0186,0 1.536,1.0348 1.536,3.0882 0,2.0533 -0.5174,3.0881 -1.536,3.0881 -8.5852,0 -15.1171,-0.1779 -19.5794,-0.5174 l -25.7393,-0.5174 -26.273,0.5174 c -4.8018,0.3395 -11.8349,0.5174 -21.0991,0.5174 -0.6952,0 -1.0347,-1.0348 -1.0347,-3.0881 0,-2.0534 0.3395,-3.0882 1.0347,-3.0882 14.7451,0 25.2219,-3.864 31.3982,-11.5923 6.1922,-7.7283 9.2642,-20.5171 9.2642,-38.3666 z m 259.544,316.1802 c 0,0.6952 -0.8569,1.2126 -2.5708,1.5521 -1.7138,0.3395 -2.9102,0.1617 -3.6055,-0.5174 l -236.8765,-286.8354 c -10.978,-13.3871 -21.0345,-22.7483 -30.1369,-28.0675 -9.0865,-5.3193 -18.092,-7.987 -27.0167,-7.987 -1.0347,0 -1.5521,-1.0186 -1.5521,-3.0881 0,-2.0533 0.5174,-3.088 1.5521,-3.088 l 19.0458,0.5174 c 4.1229,0.3395 9.7816,0.5173 16.9926,0.5173 7.5504,0 13.7266,-0.1778 18.5446,-0.5173 4.8018,-0.3396 8.569,-0.5174 11.3175,-0.5174 2.4091,0 4.3815,0.5981 5.9337,1.7946 1.536,1.2126 3.3306,3.7025 5.4,7.4857 4.1229,6.1601 8.4074,12.0129 12.8697,17.4938 l 205.9958,252.8504 z m 0,0 -11.835,-15.9578 v -255.4211 c 0,-17.8655 -3.0073,-30.7352 -9.0056,-38.6252 -6.0144,-7.89 -16.0547,-11.8511 -30.1369,-11.8511 -0.6791,0 -1.0186,-1.0186 -1.0186,-3.0881 0,-2.0533 0.3395,-3.088 1.0186,-3.088 l 20.0966,0.5174 c 10.2991,0.679 18.7063,1.0347 25.222,1.0347 6.1761,0 14.7614,-0.3557 25.7555,-1.0347 l 21.1154,-0.5174 c 1.0186,0 1.536,1.0347 1.536,3.088 0,2.0695 -0.5174,3.0881 -1.536,3.0881 -14.4218,0 -24.8986,3.9611 -31.4143,11.8511 -6.5319,7.89 -9.7977,20.7597 -9.7977,38.6252 z m 324.9432,-333.6901 c 21.6327,0 39.8217,1.536 54.5991,4.624 14.7614,3.0881 29.5226,8.4235 44.284,15.974 2.4091,1.3742 3.7834,2.5706 4.1229,3.6054 0.3394,1.0348 0.8568,3.6054 1.5359,7.7121 l 6.1761,61.2926 c 0,1.0348 -0.9377,1.633 -2.8294,1.7947 -1.8916,0.1778 -2.991,-0.2587 -3.3467,-1.2773 -15.7961,-57.3315 -51.1554,-86.0134 -106.0779,-86.0134 -28.8436,0 -54.3404,6.3701 -76.4744,19.062 -22.1338,12.708 -39.2234,30.8161 -51.2361,54.3243 -12.0128,23.5243 -18.0273,50.8966 -18.0273,82.1331 0,29.8784 6.7098,57.2507 20.0967,82.1493 13.3871,24.8825 31.3174,44.5426 53.807,58.9645 22.4896,14.4218 46.9517,21.6165 73.3701,21.6165 28.1483,0 50.9775,-6.8552 68.5036,-20.5818 17.4936,-13.7427 30.8969,-34.6802 40.1611,-62.8447 0,-0.6791 0.857,-1.0186 2.5707,-1.0186 2.4091,0 3.6055,0.5174 3.6055,1.5359 l -5.1577,56.6525 c -0.3394,4.1228 -0.8568,6.6935 -1.5358,7.7283 -0.6791,1.0348 -2.0534,2.2311 -4.1229,3.6054 -17.8494,8.5852 -34.5832,14.5835 -50.2014,18.0272 -15.6183,3.4277 -33.5646,5.1414 -53.8231,5.1414 -36.0384,0 -68.2287,-7.13 -96.5388,-21.374 -28.3262,-14.244 -50.3792,-34.2437 -66.1754,-59.983 -15.796,-25.7556 -23.686,-55.2782 -23.686,-88.5842 0,-32.2712 8.0679,-60.8561 24.2034,-85.7385 16.1356,-24.8987 38.3665,-44.2032 66.6766,-57.9297 28.3263,-13.7428 60.1609,-20.598 95.5202,-20.598 z m 224.023,327.514 c -0.6952,0 -1.0348,-1.0348 -1.0348,-3.0881 0,-2.0534 0.3396,-3.0882 1.0348,-3.0882 13.0314,0 22.5705,-0.8568 28.5849,-2.5706 5.9983,-1.73 10.1211,-5.0768 12.3523,-10.0403 2.2311,-4.9797 3.3468,-12.6272 3.3468,-22.9261 v -238.4287 c 0,-10.2989 -1.1157,-17.8494 -3.3468,-22.6512 -2.2312,-4.8181 -6.354,-8.1648 -12.3523,-10.0403 -6.0144,-1.8917 -15.5535,-2.8456 -28.5849,-2.8456 -0.6952,0 -1.0348,-1.0186 -1.0348,-3.0881 0,-2.0533 0.3396,-3.088 1.0348,-3.088 h 207.0143 c 3.0881,0 4.6241,1.5521 4.6241,4.6401 l 1.0346,63.346 c 0,1.0186 -0.9377,1.6169 -2.8294,1.7946 -1.8915,0.1779 -2.8293,-0.2586 -2.8293,-1.2934 -1.0348,-18.1889 -6.5319,-32.352 -16.4751,-42.4893 -9.9595,-10.1211 -23.1849,-15.1817 -39.66,-15.1817 h -31.4143 c -12.0128,0 -20.9375,0.9378 -26.7741,2.8294 -5.8367,1.8917 -9.8787,5.0606 -12.1099,9.5229 -2.2149,4.4624 -3.3306,11.5115 -3.3306,21.1153 v 233.8046 c 0,9.2643 1.1157,16.2164 3.3306,20.8567 2.2312,4.624 6.0954,7.8091 11.5925,9.5229 5.4971,1.7138 14.0661,2.5707 25.7393,2.5707 h 41.2122 c 16.4751,0 30.2016,-5.8366 41.1958,-17.5099 10.9781,-11.6732 18.3668,-27.8089 22.134,-48.4069 0,-0.6789 0.6952,-1.0184 2.0694,-1.0184 1.0186,0 1.9726,0.2586 2.8295,0.7598 0.8568,0.5174 1.2934,0.9539 1.2934,1.2934 -3.1043,21.6328 -4.6403,44.284 -4.6403,67.9701 0,2.7485 -0.5981,4.7211 -1.8108,5.9174 -1.1963,1.2126 -3.3306,1.8109 -6.4348,1.8109 z m 186.9337,-119.9824 c 0,-15.1169 -3.6863,-25.9172 -11.075,-32.449 -7.3888,-6.5157 -19.6603,-9.7816 -36.8306,-9.7816 h -77.2343 v -10.8163 h 78.7864 c 16.4751,0 28.2454,-2.7486 35.2785,-8.2457 7.0331,-5.4809 10.5576,-14.7452 10.5576,-27.7927 0,-0.6952 1.0186,-1.0348 3.0881,-1.0348 2.0534,0 3.088,0.3396 3.088,1.0348 l -0.5174,41.6972 c 0,9.9594 0.1779,17.526 0.5174,22.6674 l 0.5174,24.7207 c 0,0.6791 -1.0348,1.0186 -3.088,1.0186 -2.0695,0 -3.0881,-0.3395 -3.0881,-1.0186 z m 222.9882,76.2157 c 0,9.9595 1.0186,17.1542 3.0881,21.6327 2.0534,4.4624 5.8205,7.4534 11.3175,9.0056 5.4971,1.5359 14.4219,2.312 26.7903,2.312 h 56.1189 c 19.5794,0 35.1977,-5.9983 46.8709,-18.0273 11.6733,-12.0127 19.4016,-28.6657 23.1687,-49.9427 0,-1.0348 0.9538,-1.4551 2.8293,-1.2934 1.8917,0.1777 2.8294,0.776 2.8294,1.8108 -3.088,28.4878 -4.624,51.9961 -4.624,70.5407 0,2.7485 -0.5174,4.7211 -1.5521,5.9174 -1.0186,1.2126 -3.0881,1.8109 -6.1762,1.8109 h -237.9111 c -0.6953,0 -1.0348,-1.0348 -1.0348,-3.0881 0,-2.0534 0.3395,-3.0882 1.0348,-3.0882 13.0474,0 22.5703,-0.8568 28.5687,-2.5706 6.0145,-1.73 10.0403,-5.0768 12.1097,-10.0403 2.0696,-4.9797 3.0882,-12.6272 3.0882,-22.9261 v -238.4287 c 0,-10.2989 -1.0186,-17.8494 -3.0882,-22.6512 -2.0694,-4.8181 -6.0952,-8.1648 -12.1097,-10.0403 -5.9984,-1.8917 -15.5213,-2.8456 -28.5687,-2.8456 -0.6953,0 -1.0348,-1.0186 -1.0348,-3.0881 0,-2.0533 0.3395,-3.088 1.0348,-3.088 l 25.2219,0.5174 c 14.4218,0.679 26.0951,1.0347 35.0197,1.0347 9.62,0 21.6328,-0.3557 36.0545,-1.0347 l 24.7209,-0.5174 c 1.0185,0 1.5359,1.0347 1.5359,3.088 0,2.0695 -0.5174,3.0881 -1.5359,3.0881 -12.708,0 -22.1501,0.9539 -28.3263,2.8456 -6.1761,1.8755 -10.2989,5.303 -12.3523,10.2989 -2.0695,4.9636 -3.0881,12.6111 -3.0881,22.91 z m 344.5066,-108.1474 h 136.4735 l 3.5893,10.2991 h -145.2043 z m 254.9037,145.7378 c 1.3742,0 2.0694,1.0348 2.0694,3.0882 0,2.0533 -0.6952,3.0881 -2.0694,3.0881 -6.5157,0 -16.6531,-0.3395 -30.3796,-1.0348 -13.7265,-0.679 -23.6861,-1.0347 -29.8622,-1.0347 -7.5666,0 -17.1703,0.3557 -28.8436,1.0347 -10.9942,0.6953 -19.4015,1.0348 -25.2381,1.0348 -1.3743,0 -2.0534,-1.0348 -2.0534,-3.0881 0,-2.0534 0.6791,-3.0882 2.0534,-3.0882 13.0474,0 22.4088,-1.1963 28.0675,-3.6054 5.675,-2.409 8.5043,-6.6935 8.5043,-12.8696 0,-5.1576 -2.0695,-12.3685 -6.1761,-21.6328 l -114.3235,-241.5167 12.8697,-15.9577 -99.9018,236.3592 c -4.818,11.6732 -7.2109,21.2931 -7.2109,28.8273 0,20.2585 16.8147,30.3957 50.4601,30.3957 1.7139,0 2.5708,1.0348 2.5708,3.0882 0,2.0533 -0.8569,3.0881 -2.5708,3.0881 -6.1761,0 -15.1008,-0.3395 -26.774,-1.0348 -13.0475,-0.679 -24.3652,-1.0347 -33.985,-1.0347 -8.9248,0 -19.2237,0.3557 -30.897,1.0347 -10.299,0.6953 -18.8841,1.0348 -25.7555,1.0348 -1.7138,0 -2.5707,-1.0348 -2.5707,-3.0881 0,-2.0534 0.8569,-3.0882 2.5707,-3.0882 9.6199,0 17.7686,-1.7946 24.462,-5.4162 6.6937,-3.6055 13.0477,-9.9433 19.062,-19.0458 5.9984,-9.1026 12.6111,-22.2309 19.822,-39.4012 l 108.6647,-256.4397 c 0.6791,-1.0348 1.8755,-1.5522 3.5893,-1.5522 1.7138,0 2.7485,0.5174 3.0881,1.5522 l 121.5506,255.9223 c 11.657,25.416 21.6164,42.4893 29.8621,51.2523 8.2295,8.7469 18.0273,13.1283 29.3449,13.1283 z m 347.0933,6.1763 c -8.5851,0 -24.9794,-14.6806 -49.1828,-44.0253 -24.2035,-29.361 -53.2896,-69.7809 -87.2908,-121.2758 l 28.8436,-8.763 c 29.8621,42.9097 54.8417,76.3126 74.9223,100.1604 20.0805,23.8639 37.849,41.1151 53.3056,51.7697 15.4405,10.6385 30.5574,15.9577 45.3188,15.9577 1.0186,0 1.536,1.0348 1.536,3.0882 0,2.0533 -0.5174,3.0881 -1.536,3.0881 z m -129.78,-323.3912 c 27.1297,0 48.0672,6.1761 62.8286,18.5284 14.7612,12.3685 22.15,28.8437 22.15,49.4417 0,18.1889 -5.3192,34.7609 -15.9739,49.7002 -10.6386,14.923 -24.9633,26.7741 -42.9906,35.521 -18.0272,8.7629 -37.3318,13.1283 -57.9296,13.1283 -2.0696,0 -9.7817,-0.5012 -23.1688,-1.536 v 116.8943 c 0,10.6546 1.0186,18.3667 3.072,23.1847 2.0694,4.7858 6.0953,8.0517 12.1097,9.7817 6.0145,1.7138 15.5374,2.5706 28.5849,2.5706 1.0186,0 1.536,1.0348 1.536,3.0882 0,2.0533 -0.5174,3.0881 -1.536,3.0881 -10.6546,0 -19.062,-0.1779 -25.2381,-0.5174 l -35.5371,-0.5174 -35.0198,0.5174 c -6.1762,0.3395 -14.9229,0.5174 -26.2568,0.5174 -0.6789,0 -1.0346,-1.0348 -1.0346,-3.0881 0,-2.0534 0.3557,-3.0882 1.0346,-3.0882 13.0476,0 22.6514,-0.9377 28.8437,-2.8293 6.1762,-1.8916 10.4606,-5.2384 12.8697,-10.0402 2.4091,-4.8182 3.6054,-12.3686 3.6054,-22.6675 v -238.4287 c 0,-10.2989 -1.1156,-17.8494 -3.3468,-22.6512 -2.2311,-4.8181 -6.354,-8.1648 -12.3684,-10.0403 -5.9983,-1.8917 -15.5374,-2.8456 -28.5688,-2.8456 -1.0348,0 -1.552,-1.0186 -1.552,-3.0881 0,-2.0533 0.5172,-3.088 1.552,-3.088 l 25.222,0.5174 c 14.4218,0.679 26.0951,1.0347 35.0198,1.0347 7.5504,0 14.5997,-0.1778 21.1154,-0.5174 6.5318,-0.3395 12.0127,-0.6952 16.475,-1.0347 13.0476,-1.0348 24.5591,-1.536 34.5025,-1.536 z m 49.9589,82.9092 c 0,-26.7903 -5.9175,-46.014 -17.7686,-57.6872 -11.8511,-11.6733 -29.0861,-17.5099 -51.7535,-17.5099 -13.3871,0 -22.6514,2.4091 -27.8089,7.2109 -5.1414,4.8181 -7.7122,14.5996 -7.7122,29.361 v 108.1473 c 8.2295,1.3581 18.3506,2.0534 30.3635,2.0534 26.7902,0 45.9169,-5.8366 57.4285,-17.5099 11.4954,-11.6732 17.2512,-29.7005 17.2512,-54.0656 z m 303.8279,198.7687 c 0,10.6546 1.0347,18.3667 3.0881,23.1847 2.0694,4.7858 6.0953,8.0517 12.1097,9.7817 5.9983,1.7138 15.5212,2.5706 28.5688,2.5706 1.0347,0 1.5521,1.0348 1.5521,3.0882 0,2.0533 -0.5174,3.0881 -1.5521,3.0881 -10.299,0 -18.5285,-0.1779 -24.7208,-0.5174 l -36.5557,-0.5174 -35.5371,0.5174 c -6.1761,0.3395 -14.5835,0.5174 -25.2219,0.5174 -1.0348,0 -1.5522,-1.0348 -1.5522,-3.0881 0,-2.0534 0.5174,-3.0882 1.5522,-3.0882 13.0474,0 22.5703,-0.8568 28.5687,-2.5706 6.0145,-1.73 10.1373,-5.0768 12.3685,-10.0403 2.2311,-4.9797 3.3467,-12.6272 3.3467,-22.9261 v -238.4287 c 0,-10.2989 -1.1156,-17.8494 -3.3467,-22.6512 -2.2312,-4.8181 -6.354,-8.1648 -12.3685,-10.0403 -5.9984,-1.8917 -15.5213,-2.8456 -28.5687,-2.8456 -1.0348,0 -1.5522,-1.0186 -1.5522,-3.0881 0,-2.0533 0.5174,-3.088 1.5522,-3.088 l 25.2219,0.5174 c 14.4218,0.679 26.273,1.0347 35.5371,1.0347 10.299,0 22.6674,-0.3557 37.0731,-1.0347 l 24.2034,-0.5174 c 1.0347,0 1.5521,1.0347 1.5521,3.088 0,2.0695 -0.5174,3.0881 -1.5521,3.0881 -12.6918,0 -22.1339,1.0348 -28.31,3.1042 -6.1923,2.0534 -10.2991,5.5618 -12.3685,10.5577 -2.0534,4.9635 -3.0881,12.611 -3.0881,22.91 z m 233.8046,-110.2008 h 136.4574 l 3.6055,10.2991 h -145.2204 z m 254.9038,145.7378 c 1.3743,0 2.0532,1.0348 2.0532,3.0882 0,2.0533 -0.6789,3.0881 -2.0532,3.0881 -6.5157,0 -16.6531,-0.3395 -30.3797,-1.0348 -13.7426,-0.679 -23.686,-1.0347 -29.8783,-1.0347 -7.5504,0 -17.1541,0.3557 -28.8274,1.0347 -10.9943,0.6953 -19.4015,1.0348 -25.2381,1.0348 -1.3743,0 -2.0696,-1.0348 -2.0696,-3.0881 0,-2.0534 0.6953,-3.0882 2.0696,-3.0882 13.0475,0 22.3926,-1.1963 28.0675,-3.6054 5.6588,-2.409 8.4881,-6.6935 8.4881,-12.8696 0,-5.1576 -2.0533,-12.3685 -6.1761,-21.6328 l -114.3235,-241.5167 12.8697,-15.9577 -99.9018,236.3592 c -4.8018,11.6732 -7.2108,21.2931 -7.2108,28.8273 0,20.2585 16.8308,30.3957 50.4763,30.3957 1.7137,0 2.5706,1.0348 2.5706,3.0882 0,2.0533 -0.8569,3.0881 -2.5706,3.0881 -6.1923,0 -15.1171,-0.3395 -26.7903,-1.0348 -13.0475,-0.679 -24.3651,-1.0347 -33.985,-1.0347 -8.9247,0 -19.2237,0.3557 -30.897,1.0347 -10.2989,0.6953 -18.8841,1.0348 -25.7393,1.0348 -1.7138,0 -2.5868,-1.0348 -2.5868,-3.0881 0,-2.0534 0.873,-3.0882 2.5868,-3.0882 9.6038,0 17.7524,-1.7946 24.4621,-5.4162 6.6935,-3.6055 13.0475,-9.9433 19.0458,-19.0458 6.0145,-9.1026 12.611,-22.2309 19.8219,-39.4012 l 108.6647,-256.4397 c 0.6791,-1.0348 1.8917,-1.5522 3.6055,-1.5522 1.7138,0 2.7485,0.5174 3.0881,1.5522 l 121.5344,255.9223 c 11.6732,25.416 21.6327,42.4893 29.8621,51.2523 8.2457,8.7469 18.0274,13.1283 29.3611,13.1283 z m 341.4183,-37.5904 c 0,10.9781 1.4552,18.965 4.3654,23.9447 2.9264,4.9797 8.5852,8.4882 16.9925,10.5577 8.4073,2.0534 21.7136,3.088 39.9186,3.088 1.0186,0 1.536,1.0348 1.536,3.0882 0,2.0533 -0.5174,3.0881 -1.536,3.0881 -14.0823,0 -25.0602,-0.1779 -32.9664,-0.5174 l -44.8014,-0.5174 -34.5024,0.5174 c -6.5157,0.3395 -15.2786,0.5174 -26.2566,0.5174 -0.6953,0 -1.0348,-1.0348 -1.0348,-3.0881 0,-2.0534 0.3395,-3.0882 1.0348,-3.0882 13.0474,0 22.5703,-0.8568 28.5849,-2.5706 5.9983,-1.73 10.0402,-5.0768 12.0935,-10.0403 2.0696,-4.9797 3.0882,-12.6272 3.0882,-22.9261 v -238.4287 c 0,-10.2989 -1.0186,-17.8494 -3.0882,-22.6512 -2.0533,-4.8181 -6.0952,-8.1648 -12.0935,-10.0403 -6.0146,-1.8917 -15.5375,-2.8456 -28.5849,-2.8456 -0.6953,0 -1.0348,-1.0186 -1.0348,-3.0881 0,-2.0533 0.3395,-3.088 1.0348,-3.088 l 25.7392,0.5174 c 14.4219,0.679 25.9334,1.0347 34.5025,1.0347 8.5852,0 18.205,-0.5174 28.8436,-1.5521 4.1228,0 10.6547,-0.2588 19.5632,-0.7762 8.9247,-0.5012 16.653,-0.7598 23.1848,-0.7598 31.576,0 56.8949,7.0331 75.9569,21.1154 19.046,14.0661 28.5689,35.5209 28.5689,64.3645 0,22.6513 -5.5618,41.7133 -16.7338,57.1537 -11.156,15.4565 -25.4808,26.952 -42.9906,34.5023 -17.5099,7.5666 -35.5372,11.3338 -54.0657,11.3338 -9.9594,0 -18.205,-0.8569 -24.7207,-2.5707 -1.0348,0 -1.5522,-0.8569 -1.5522,-2.5708 0,-1.0346 0.2588,-2.0694 0.7762,-3.1042 0.5173,-1.0186 1.1155,-1.3743 1.7946,-1.0186 5.4971,1.3582 11.6732,2.0534 18.5446,2.0534 22.6513,0 41.7941,-7.3726 57.4124,-22.1501 15.6182,-14.7613 23.4272,-36.0383 23.4272,-63.8472 0,-27.1137 -7.3724,-48.4877 -22.1338,-64.1058 -14.7614,-15.6345 -33.6455,-23.4436 -56.6525,-23.4436 -12.3523,0 -21.277,0.6953 -26.7741,2.0694 -5.4971,1.3743 -9.442,4.5433 -11.8511,9.5231 -2.3929,4.9797 -3.5893,13.3061 -3.5893,24.9794 z m 526.2988,43.7667 c -8.5852,0 -24.9795,-14.6806 -49.1829,-44.0253 -24.2034,-29.361 -53.3057,-69.7809 -87.2907,-121.2758 l 28.8437,-8.763 c 29.8621,42.9097 54.8416,76.3126 74.9222,100.1604 20.0806,23.8639 37.8491,41.1151 53.3057,51.7697 15.4403,10.6385 30.5412,15.9577 45.3026,15.9577 1.0347,0 1.552,1.0348 1.552,3.0882 0,2.0533 -0.5173,3.0881 -1.552,3.0881 z m -129.7801,-323.3912 c 27.1137,0 48.0674,6.1761 62.8286,18.5284 14.7614,12.3685 22.134,28.8437 22.134,49.4417 0,18.1889 -5.3192,34.7609 -15.9577,49.7002 -10.6386,14.923 -24.9795,26.7741 -43.0068,35.521 -18.011,8.7629 -37.3318,13.1283 -57.9297,13.1283 -2.0533,0 -9.7816,-0.5012 -23.1687,-1.536 v 116.8943 c 0,10.6546 1.0348,18.3667 3.0882,23.1847 2.0532,4.7858 6.0952,8.0517 12.0935,9.7817 6.0145,1.7138 15.5536,2.5706 28.5849,2.5706 1.0348,0 1.5522,1.0348 1.5522,3.0882 0,2.0533 -0.5174,3.0881 -1.5522,3.0881 -10.6384,0 -19.0458,-0.1779 -25.2219,-0.5174 l -35.5371,-0.5174 -35.0198,0.5174 c -6.1762,0.3395 -14.9393,0.5174 -26.273,0.5174 -0.679,0 -1.0186,-1.0348 -1.0186,-3.0881 0,-2.0534 0.3396,-3.0882 1.0186,-3.0882 13.0476,0 22.6676,-0.9377 28.8437,-2.8293 6.1761,-1.8916 10.4768,-5.2384 12.8859,-10.0402 2.3927,-4.8182 3.5892,-12.3686 3.5892,-22.6675 v -238.4287 c 0,-10.2989 -1.1156,-17.8494 -3.3468,-22.6512 -2.215,-4.8181 -6.3378,-8.1648 -12.3523,-10.0403 -6.0144,-1.8917 -15.5374,-2.8456 -28.5849,-2.8456 -1.0348,0 -1.536,-1.0186 -1.536,-3.0881 0,-2.0533 0.5012,-3.088 1.536,-3.088 l 25.2382,0.5174 c 14.4218,0.679 26.095,1.0347 35.0198,1.0347 7.5503,0 14.5834,-0.1778 21.1152,-0.5174 6.5157,-0.3395 12.0128,-0.6952 16.4752,-1.0347 13.0475,-1.0348 24.5429,-1.536 34.5023,-1.536 z m 49.9591,82.9092 c 0,-26.7903 -5.9337,-46.014 -17.7686,-57.6872 -11.8511,-11.6733 -29.1023,-17.5099 -51.7537,-17.5099 -13.3869,0 -22.6674,2.4091 -27.8088,7.2109 -5.1575,4.8181 -7.7283,14.5996 -7.7283,29.361 v 108.1473 c 8.2457,1.3581 18.3668,2.0534 30.3796,2.0534 26.7741,0 45.917,-5.8366 57.4285,-17.5099 11.4954,-11.6732 17.2513,-29.7005 17.2513,-54.0656 z m 306.3986,88.5679 h 136.4735 l 3.5893,10.2991 h -145.2043 z m 254.9037,145.7378 c 1.3743,0 2.0695,1.0348 2.0695,3.0882 0,2.0533 -0.6952,3.0881 -2.0695,3.0881 -6.5157,0 -16.653,-0.3395 -30.3795,-1.0348 -13.7266,-0.679 -23.6861,-1.0347 -29.8623,-1.0347 -7.5666,0 -17.1703,0.3557 -28.8435,1.0347 -10.9943,0.6953 -19.4016,1.0348 -25.2382,1.0348 -1.3743,0 -2.0533,-1.0348 -2.0533,-3.0881 0,-2.0534 0.679,-3.0882 2.0533,-3.0882 13.0476,0 22.4088,-1.1963 28.0676,-3.6054 5.6587,-2.409 8.4881,-6.6935 8.4881,-12.8696 0,-5.1576 -2.0533,-12.3685 -6.16,-21.6328 l -114.3235,-241.5167 12.8697,-15.9577 -99.9017,236.3592 c -4.8181,11.6732 -7.211,21.2931 -7.211,28.8273 0,20.2585 16.8148,30.3957 50.4603,30.3957 1.7137,0 2.5706,1.0348 2.5706,3.0882 0,2.0533 -0.8569,3.0881 -2.5706,3.0881 -6.1762,0 -15.1009,-0.3395 -26.7742,-1.0348 -13.0475,-0.679 -24.3812,-1.0347 -33.985,-1.0347 -8.9408,0 -19.2237,0.3557 -30.8969,1.0347 -10.2991,0.6953 -18.8842,1.0348 -25.7556,1.0348 -1.7138,0 -2.5707,-1.0348 -2.5707,-3.0881 0,-2.0534 0.8569,-3.0882 2.5707,-3.0882 9.6199,0 17.7686,-1.7946 24.4622,-5.4162 6.6935,-3.6055 13.0475,-9.9433 19.062,-19.0458 5.9983,-9.1026 12.6109,-22.2309 19.8218,-39.4012 l 108.6486,-256.4397 c 0.6952,-1.0348 1.8917,-1.5522 3.6055,-1.5522 1.7137,0 2.7485,0.5174 3.088,1.5522 l 121.5344,255.9223 c 11.6733,25.416 21.6328,42.4893 29.8784,51.2523 8.2295,8.7469 18.0272,13.1283 29.3448,13.1283 z m 204.4436,5.6589 c -0.3557,1.3742 -2.2312,2.0694 -5.6749,2.0694 -2.7486,0 -4.6241,-0.6952 -5.6588,-2.0694 l -128.2279,-278.5898 c -6.1762,-13.7428 -12.3523,-23.2657 -18.5286,-28.5849 -6.1923,-5.3193 -14.5995,-7.987 -25.2381,-7.987 -1.0347,0 -1.5521,-1.0186 -1.5521,-3.0881 0,-2.0533 0.5174,-3.088 1.5521,-3.088 l 19.5632,0.5174 c 9.62,0.679 17.3483,1.0347 23.1687,1.0347 12.3685,0 25.7555,-0.3557 40.1774,-1.0347 l 21.1152,-0.5174 c 1.0348,0 1.5522,1.0347 1.5522,3.088 0,2.0695 -0.5174,3.0881 -1.5522,3.0881 -10.2989,0 -17.9463,1.2126 -22.9099,3.6054 -4.9797,2.4091 -7.4696,6.5319 -7.4696,12.3685 0,5.1415 1.7138,11.3338 5.1414,18.5284 l 114.3235,245.6396 -18.5446,24.7208 67.4688,-168.3892 7.7121,11.3177 z m 298.6704,-321.3378 c 0.679,0 1.0347,1.0347 1.0347,3.088 0,2.0695 -0.3557,3.0881 -1.0347,3.0881 -11.6733,0 -21.7945,3.1042 -30.3796,9.2643 -8.5852,6.1922 -15.974,16.6691 -22.1339,31.4305 l -109.6995,274.4669 c -0.3396,1.3742 -2.2311,2.0694 -5.6588,2.0694 -2.7485,0 -4.6402,-0.6952 -5.6749,-2.0694 L 8872.195,6514.9273 c -6.1761,-13.3871 -12.3523,-22.8291 -18.5284,-28.3262 -6.1924,-5.4972 -14.244,-8.2457 -24.2034,-8.2457 -1.0348,0 -1.5522,-1.0186 -1.5522,-3.0881 0,-2.0533 0.5174,-3.088 1.5522,-3.088 l 19.5632,0.5174 c 8.9246,0.679 16.3134,1.0347 22.1338,1.0347 9.62,0 19.5794,-0.3557 29.8785,-1.0347 l 13.9043,-0.5174 c 1.0186,0 1.536,1.0347 1.536,3.088 0,2.0695 -0.5174,3.0881 -1.536,3.0881 -6.1761,0 -10.6385,0.6144 -13.3869,1.8108 -2.7486,1.1965 -4.1229,3.3468 -4.1229,6.4349 0,4.1228 3.0881,12.8697 9.2642,26.2566 l 114.8409,245.6396 -18.5284,24.7208 106.5952,-266.2375 c 2.7486,-7.2109 4.1066,-12.8696 4.1066,-16.9924 0,-7.5505 -3.1689,-13.0476 -9.5229,-16.4752 -6.3379,-3.4276 -16.2165,-5.1576 -29.6034,-5.1576 -1.0348,0 -1.5522,-1.0186 -1.5522,-3.0881 0,-2.0533 0.5174,-3.088 1.5522,-3.088 l 21.6326,0.5174 c 11.6732,0.679 22.134,1.0347 31.3981,1.0347 6.8714,0 14.7614,-0.3557 23.6861,-1.0347 z m -198.2675,43.7827 c 4.1228,-9.2803 6.1923,-16.8308 6.1923,-22.6674 0,-9.9595 -7.3887,-14.9392 -22.15,-14.9392 -1.0186,0 -1.536,-1.0186 -1.536,-3.0881 0,-2.0533 0.5174,-3.088 1.536,-3.088 l 11.8511,0.5174 c 6.8552,0.679 14.0661,1.0347 21.6326,1.0347 6.8552,0 14.7614,-0.3557 23.6861,-1.0347 l 21.1153,-0.5174 c 0.6791,0 1.0186,1.0347 1.0186,3.088 0,2.0695 -0.3395,3.0881 -1.0186,3.0881 -11.6732,0 -21.5519,3.0073 -29.6197,9.0217 -8.0677,5.9983 -15.1817,16.556 -21.374,31.6731 l -42.7318,107.0964 -7.7283,-11.3177 z"
   id="path1"
   style="stroke-width:1.61679" />
 </g>
</svg>
