<?xml version="1.0" encoding="UTF-8" standalone="no"?><!DOCTYPE svg PUBLIC "-//W3C//DTD SVG 1.1//EN" "http://www.w3.org/Graphics/SVG/1.1/DTD/svg11.dtd"><svg width="100%" height="100%" viewBox="0 0 250 194" version="1.1" xmlns="http://www.w3.org/2000/svg" xmlns:xlink="http://www.w3.org/1999/xlink" xml:space="preserve" xmlns:serif="http://www.serif.com/" style="fill-rule:evenodd;clip-rule:evenodd;stroke-linejoin:round;stroke-miterlimit:2;"><g id="_1443354168656"><path d="M8.855,178.127l7.051,7.051l-7.051,7.051l-7.051,-7.051l7.051,-7.051Z" style="fill:#fff;"/><path d="M241.727,178.127l7.051,7.051l-7.051,7.051l-7.051,-7.051l7.051,-7.051Z" style="fill:#fff;"/><path d="M7.858,137.615c-0.551,-0.119 -0.968,-0.152 -1.249,-0.097c-0.281,0.054 -0.508,0.232 -0.678,0.532c-0.17,0.298 -0.332,0.798 -0.483,1.497c-0.008,0.037 -0.067,0.043 -0.178,0.019c-0.11,-0.024 -0.161,-0.054 -0.153,-0.091l0.327,-1.373c0.203,-0.763 0.355,-1.376 0.455,-1.835c0.115,-0.533 0.237,-1.189 0.369,-1.97l0.253,-1.302c0.012,-0.055 0.074,-0.07 0.183,-0.047c0.111,0.025 0.159,0.064 0.148,0.119c-0.148,0.681 -0.202,1.193 -0.16,1.539c0.04,0.345 0.181,0.607 0.422,0.784c0.24,0.177 0.636,0.326 1.187,0.445l12.712,2.754c0.569,0.123 0.995,0.159 1.277,0.104c0.28,-0.055 0.502,-0.233 0.664,-0.535c0.161,-0.302 0.318,-0.802 0.469,-1.5c0.012,-0.056 0.073,-0.071 0.183,-0.047c0.111,0.024 0.16,0.063 0.147,0.118c-0.119,0.552 -0.223,0.991 -0.313,1.318l-0.446,1.924l-0.379,1.881c-0.054,0.335 -0.144,0.796 -0.271,1.385c-0.008,0.036 -0.067,0.042 -0.178,0.019c-0.11,-0.024 -0.161,-0.054 -0.153,-0.091c0.152,-0.698 0.216,-1.219 0.194,-1.56c-0.022,-0.342 -0.154,-0.601 -0.395,-0.779c-0.24,-0.176 -0.637,-0.325 -1.188,-0.445l-12.766,-2.766Zm6.036,-1.347l-0.803,-1.618l6,-2.915c2.037,-0.963 3.491,-1.721 4.361,-2.273c0.87,-0.553 1.411,-1.008 1.624,-1.366c0.212,-0.358 0.398,-0.905 0.557,-1.64c0.013,-0.056 0.073,-0.071 0.183,-0.048c0.111,0.025 0.16,0.064 0.148,0.119l-0.669,3.088c-0.032,0.148 -0.084,0.411 -0.156,0.789c-0.073,0.379 -0.656,0.807 -1.75,1.281c-1.094,0.475 -2.104,0.94 -3.03,1.393l-6.465,3.19Zm-4.369,-6.346c-0.476,-0.737 -0.86,-1.139 -1.154,-1.202c-0.367,-0.08 -0.669,0.423 -0.904,1.508c-0.008,0.035 -0.067,0.043 -0.178,0.019c-0.11,-0.024 -0.161,-0.055 -0.153,-0.092l0.285,-1.179c0.195,-0.727 0.36,-1.394 0.491,-2.001c0.131,-0.606 0.25,-1.245 0.357,-1.914l0.193,-1.026c0.012,-0.056 0.074,-0.072 0.184,-0.047c0.11,0.024 0.159,0.063 0.148,0.118c-0.164,0.753 -0.172,1.589 -0.024,2.507c0.148,0.916 0.5,1.821 1.058,2.711l5.391,8.558l-0.15,0.689l-5.544,-8.649Zm10.88,-14.696l2.079,-7.182l0.597,-0.033l-2.212,7.643l-0.464,-0.428Zm11.553,-11.195c0.021,-0.072 0.086,-0.092 0.194,-0.06c0.108,0.031 0.152,0.082 0.131,0.154c-0.099,0.344 -0.272,0.872 -0.517,1.584c-0.246,0.711 -0.415,1.231 -0.509,1.556c-0.115,0.397 -0.244,0.909 -0.386,1.533c-0.131,0.589 -0.241,1.037 -0.329,1.344c-0.022,0.072 -0.086,0.093 -0.195,0.061c-0.108,-0.031 -0.151,-0.083 -0.131,-0.155c0.199,-0.687 0.278,-1.198 0.238,-1.532c-0.041,-0.335 -0.223,-0.549 -0.548,-0.643c-0.271,-0.079 -0.682,-0.08 -1.233,-0.005l-14.451,2.337l-0.644,-0.921l10.917,8.859c0.541,0.43 1.01,0.703 1.408,0.819c1.065,0.308 1.855,-0.423 2.368,-2.194c0.026,-0.09 0.093,-0.119 0.201,-0.088c0.109,0.032 0.15,0.093 0.124,0.183c-0.094,0.325 -0.248,0.789 -0.462,1.393c-0.235,0.676 -0.426,1.268 -0.572,1.773c-0.136,0.47 -0.275,1.017 -0.417,1.642c-0.12,0.552 -0.234,1.009 -0.338,1.371c-0.026,0.09 -0.093,0.119 -0.202,0.087c-0.108,-0.031 -0.149,-0.091 -0.123,-0.182c0.147,-0.506 0.175,-0.962 0.088,-1.37c-0.088,-0.407 -0.326,-0.838 -0.712,-1.292c-0.388,-0.455 -0.978,-1.003 -1.772,-1.643l-11.84,-9.626c-0.044,-0.051 -0.052,-0.122 -0.026,-0.213c0.026,-0.09 0.069,-0.137 0.128,-0.139l15.32,-2.496c1.515,-0.228 2.565,-0.492 3.152,-0.792c0.586,-0.3 0.965,-0.748 1.138,-1.345Zm-12.59,-13.256l0.322,-0.567l12.606,5.74c0.891,0.405 1.601,0.538 2.13,0.396c0.529,-0.141 0.953,-0.562 1.272,-1.264c0.024,-0.052 0.087,-0.054 0.19,-0.007c0.103,0.047 0.142,0.096 0.119,0.147c-0.195,0.428 -0.351,0.749 -0.47,0.964l-0.61,1.273l-0.571,1.321c-0.092,0.247 -0.243,0.601 -0.453,1.064c-0.016,0.034 -0.075,0.028 -0.178,-0.019c-0.102,-0.047 -0.146,-0.087 -0.13,-0.121c0.335,-0.737 0.38,-1.346 0.135,-1.83c-0.245,-0.484 -0.813,-0.928 -1.702,-1.333l-12.66,-5.764Zm21.658,-5.762c0.034,0.016 0.04,0.069 0.019,0.164c-0.022,0.092 -0.057,0.148 -0.107,0.168l-19.68,5.299c-0.918,0.243 -1.611,0.532 -2.083,0.864c-0.472,0.333 -0.81,0.722 -1.012,1.167c-0.023,0.052 -0.087,0.054 -0.19,0.007c-0.102,-0.047 -0.142,-0.096 -0.118,-0.147l0.458,-0.938c0.111,-0.198 0.248,-0.476 0.412,-0.836c0.171,-0.376 0.302,-0.688 0.395,-0.936c0.091,-0.247 0.169,-0.44 0.231,-0.576c0.055,-0.121 0.13,-0.205 0.224,-0.255c0.095,-0.05 0.26,-0.083 0.496,-0.101c0.401,-0.065 0.79,-0.146 1.164,-0.244l17.284,-4.53l2.507,0.894Zm-0,-0l-1.065,0.228l-12.735,-5.799c-0.89,-0.405 -1.6,-0.547 -2.13,-0.427c-0.53,0.119 -0.955,0.532 -1.274,1.233c-0.016,0.034 -0.075,0.028 -0.178,-0.018c-0.103,-0.048 -0.147,-0.088 -0.132,-0.122l0.483,-0.99c0.268,-0.498 0.476,-0.909 0.624,-1.235c0.141,-0.308 0.317,-0.744 0.533,-1.306l0.453,-1.065c0.024,-0.052 0.087,-0.054 0.19,-0.008c0.103,0.047 0.142,0.096 0.119,0.148c-0.327,0.718 -0.368,1.331 -0.122,1.835c0.245,0.504 0.813,0.96 1.703,1.365l13.531,6.161Zm-7.004,-25.057c0.617,-1.012 1.209,-1.818 1.774,-2.421c0.566,-0.602 1.236,-1.14 2.011,-1.615c0.133,-0.073 0.228,-0.103 0.286,-0.09c0.058,0.014 0.193,0.063 0.406,0.149l3.042,1.459c0.048,0.03 0.049,0.091 0.003,0.184c-0.046,0.094 -0.098,0.134 -0.156,0.121c-3.132,-0.899 -5.482,-0.063 -7.049,2.505c-0.823,1.348 -1.254,2.721 -1.292,4.12c-0.038,1.397 0.321,2.714 1.078,3.947c0.757,1.233 1.866,2.295 3.326,3.186c1.397,0.854 2.868,1.323 4.414,1.407c1.547,0.084 2.978,-0.194 4.293,-0.834c1.316,-0.64 2.352,-1.578 3.106,-2.814c0.804,-1.317 1.134,-2.58 0.993,-3.79c-0.143,-1.212 -0.74,-2.435 -1.792,-3.672c-0.032,-0.019 -0.024,-0.07 0.025,-0.151c0.069,-0.111 0.127,-0.153 0.176,-0.124l2.501,1.858c0.183,0.133 0.289,0.231 0.317,0.293c0.029,0.061 0.046,0.159 0.051,0.296c-0.108,1.079 -0.305,2.033 -0.59,2.862c-0.285,0.829 -0.717,1.716 -1.295,2.663c-1.029,1.686 -2.281,2.987 -3.756,3.905c-1.474,0.918 -3.039,1.378 -4.694,1.382c-1.655,0.004 -3.261,-0.469 -4.818,-1.42c-1.509,-0.921 -2.616,-2.114 -3.319,-3.58c-0.703,-1.464 -0.971,-3.055 -0.805,-4.771c0.166,-1.717 0.754,-3.402 1.764,-5.055Zm22.107,-0.878c-0.024,0.029 -0.079,0.008 -0.166,-0.063c-0.088,-0.072 -0.12,-0.122 -0.096,-0.151c0.451,-0.554 0.744,-0.988 0.879,-1.303c0.136,-0.315 0.136,-0.605 0.001,-0.873c-0.134,-0.266 -0.419,-0.579 -0.857,-0.934l-10.127,-8.251c-0.438,-0.356 -0.798,-0.57 -1.079,-0.641c-0.281,-0.072 -0.566,-0.013 -0.854,0.177c-0.288,0.19 -0.657,0.562 -1.11,1.116c-0.022,0.029 -0.078,0.008 -0.166,-0.063c-0.088,-0.071 -0.119,-0.122 -0.096,-0.151l7.163,-8.793c0.107,-0.131 0.226,-0.143 0.358,-0.036l2.726,2.147c0.044,0.036 0.036,0.097 -0.022,0.183c-0.058,0.086 -0.109,0.111 -0.152,0.076c-0.809,-0.586 -1.6,-0.843 -2.375,-0.77c-0.775,0.073 -1.447,0.458 -2.017,1.158l-1.087,1.334c-0.416,0.511 -0.685,0.923 -0.807,1.236c-0.121,0.313 -0.126,0.595 -0.014,0.844c0.112,0.249 0.373,0.54 0.781,0.873l9.93,8.089c0.395,0.321 0.729,0.514 1.002,0.58c0.275,0.065 0.543,0.011 0.806,-0.163c0.263,-0.174 0.597,-0.509 1,-1.005l1.426,-1.75c0.57,-0.699 0.797,-1.485 0.681,-2.355c-0.115,-0.871 -0.546,-1.742 -1.289,-2.616c-0.029,-0.023 -0.02,-0.065 0.027,-0.122c0.036,-0.045 0.08,-0.076 0.131,-0.094c0.052,-0.019 0.084,-0.022 0.099,-0.01c0.813,0.879 1.72,1.729 2.727,2.548c0.117,0.095 0.18,0.189 0.19,0.282c0.009,0.093 -0.04,0.204 -0.146,0.336l-7.467,9.165Zm1.372,-12.092c-0.641,-0.522 -1.229,-0.74 -1.761,-0.653c-0.533,0.089 -1.095,0.497 -1.689,1.226l-2.673,3.281l-0.46,-0.375l2.726,-3.346c0.571,-0.7 0.861,-1.295 0.871,-1.784c0.011,-0.488 -0.262,-0.958 -0.816,-1.41c-0.029,-0.023 -0.008,-0.079 0.063,-0.167c0.071,-0.087 0.122,-0.119 0.151,-0.095l1.754,1.465c0.423,0.344 0.75,0.599 0.98,0.762l1.068,0.834c0.029,0.023 0.008,0.079 -0.063,0.166c-0.072,0.087 -0.122,0.12 -0.151,0.096Zm11.993,-6.403c0.365,0.406 0.671,0.662 0.919,0.768c0.246,0.107 0.511,0.091 0.791,-0.046c0.28,-0.139 0.672,-0.435 1.176,-0.887l2.288,-2.055c0.798,-0.716 1.215,-1.532 1.251,-2.45c0.035,-0.917 -0.259,-1.878 -0.885,-2.884c-0.037,-0.041 -0.015,-0.094 0.069,-0.156c0.083,-0.063 0.144,-0.073 0.182,-0.031c0.916,1.275 1.715,2.29 2.393,3.046c0.1,0.112 0.152,0.212 0.154,0.298c0.002,0.086 -0.06,0.187 -0.186,0.299l-9.698,8.71c-0.027,0.025 -0.08,-0.004 -0.155,-0.089c-0.075,-0.083 -0.098,-0.138 -0.071,-0.163c0.532,-0.477 0.889,-0.861 1.071,-1.151c0.182,-0.29 0.224,-0.574 0.125,-0.853c-0.098,-0.278 -0.336,-0.627 -0.713,-1.047l-8.728,-9.718c-0.377,-0.42 -0.694,-0.69 -0.955,-0.81c-0.26,-0.121 -0.547,-0.11 -0.86,0.033c-0.315,0.143 -0.737,0.453 -1.269,0.93c-0.028,0.026 -0.08,-0.003 -0.155,-0.088c-0.075,-0.083 -0.099,-0.139 -0.072,-0.163l1.048,-0.903c0.613,-0.5 1.101,-0.913 1.465,-1.24c0.391,-0.352 0.869,-0.806 1.432,-1.361l0.988,-0.926c0.042,-0.039 0.101,-0.015 0.177,0.069c0.075,0.084 0.092,0.145 0.049,0.183c-0.517,0.465 -0.868,0.849 -1.05,1.152c-0.183,0.303 -0.225,0.594 -0.126,0.872c0.097,0.279 0.335,0.627 0.713,1.048l8.632,9.613Zm12.488,-17.324l6.61,-3.494l0.439,0.407l-7.034,3.718l-0.015,-0.631Zm16.079,0.533c0.066,-0.036 0.125,-0.004 0.178,0.096c0.053,0.1 0.046,0.168 -0.021,0.202c-0.316,0.167 -0.815,0.41 -1.498,0.728c-0.682,0.319 -1.173,0.557 -1.472,0.716c-0.366,0.193 -0.823,0.456 -1.371,0.787c-0.514,0.315 -0.913,0.547 -1.196,0.697c-0.066,0.035 -0.126,0.002 -0.178,-0.098c-0.053,-0.099 -0.047,-0.166 0.02,-0.201c0.632,-0.334 1.054,-0.633 1.267,-0.893c0.213,-0.262 0.24,-0.543 0.083,-0.842c-0.133,-0.249 -0.418,-0.546 -0.854,-0.889l-11.721,-8.771l0.214,-1.103l1.214,14.007c0.066,0.687 0.195,1.215 0.389,1.581c0.519,0.981 1.594,1.041 3.222,0.18c0.084,-0.045 0.152,-0.016 0.204,0.082c0.053,0.101 0.038,0.173 -0.045,0.217c-0.299,0.158 -0.741,0.37 -1.324,0.636c-0.649,0.3 -1.207,0.574 -1.672,0.82c-0.432,0.229 -0.923,0.509 -1.471,0.841c-0.48,0.297 -0.887,0.533 -1.22,0.709c-0.083,0.044 -0.151,0.016 -0.203,-0.084c-0.053,-0.1 -0.038,-0.172 0.045,-0.215c0.465,-0.246 0.814,-0.543 1.046,-0.888c0.232,-0.347 0.377,-0.817 0.435,-1.411c0.058,-0.595 0.042,-1.4 -0.049,-2.416l-1.303,-15.203c0.006,-0.068 0.052,-0.123 0.135,-0.167c0.083,-0.044 0.147,-0.045 0.189,-0.005l12.439,9.285c1.217,0.932 2.136,1.503 2.759,1.717c0.624,0.212 1.21,0.174 1.759,-0.115Zm18.576,-4.493c-0.462,0.092 -1.499,-0.523 -3.113,-1.842c-1.614,-1.319 -3.608,-3.18 -5.984,-5.586l1.456,-0.778c2.063,1.988 3.761,3.516 5.095,4.584c1.334,1.068 2.473,1.805 3.416,2.213c0.943,0.407 1.813,0.531 2.606,0.374c0.055,-0.011 0.094,0.038 0.115,0.149c0.023,0.111 0.006,0.172 -0.049,0.182l-3.542,0.704Zm-10.424,-15.994c1.457,-0.29 2.649,-0.18 3.574,0.326c0.925,0.507 1.498,1.313 1.718,2.42c0.193,0.978 0.084,1.925 -0.329,2.84c-0.412,0.917 -1.056,1.706 -1.931,2.369c-0.876,0.663 -1.866,1.104 -2.973,1.324c-0.111,0.022 -0.532,0.076 -1.262,0.164l1.247,6.282c0.113,0.572 0.251,0.976 0.413,1.212c0.162,0.235 0.414,0.369 0.755,0.397c0.341,0.027 0.863,-0.028 1.564,-0.167c0.055,-0.011 0.093,0.039 0.115,0.15c0.022,0.11 0.006,0.171 -0.049,0.182c-0.573,0.113 -1.026,0.194 -1.362,0.242l-1.915,0.351l-1.876,0.401c-0.329,0.084 -0.797,0.188 -1.406,0.308c-0.036,0.007 -0.066,-0.044 -0.088,-0.155c-0.022,-0.111 -0.015,-0.17 0.022,-0.177c0.701,-0.139 1.208,-0.293 1.519,-0.46c0.312,-0.168 0.507,-0.393 0.584,-0.677c0.078,-0.283 0.062,-0.703 -0.047,-1.256l-2.543,-12.812c-0.11,-0.554 -0.25,-0.948 -0.422,-1.182c-0.172,-0.235 -0.429,-0.371 -0.771,-0.408c-0.343,-0.037 -0.865,0.014 -1.566,0.153c-0.056,0.011 -0.094,-0.038 -0.117,-0.15c-0.021,-0.111 -0.004,-0.172 0.051,-0.183l1.362,-0.241c0.781,-0.117 1.412,-0.223 1.892,-0.319c0.406,-0.08 0.782,-0.165 1.129,-0.252c0.347,-0.088 0.639,-0.165 0.875,-0.232c0.689,-0.193 1.302,-0.344 1.837,-0.45Zm3.569,3.922c-0.286,-1.439 -0.809,-2.409 -1.57,-2.91c-0.762,-0.501 -1.751,-0.63 -2.968,-0.389c-0.719,0.143 -1.192,0.372 -1.417,0.685c-0.226,0.314 -0.26,0.866 -0.102,1.659l1.153,5.812c0.457,-0.015 1.009,-0.086 1.654,-0.214c1.44,-0.286 2.406,-0.804 2.899,-1.553c0.495,-0.75 0.611,-1.78 0.351,-3.09Zm19.207,9.394c-0.023,0.584 0.017,1.009 0.119,1.276c0.102,0.267 0.316,0.455 0.641,0.561c0.326,0.108 0.845,0.176 1.559,0.204c0.056,0.002 0.083,0.06 0.079,0.172c-0.005,0.113 -0.036,0.168 -0.092,0.165c-0.564,-0.022 -1.014,-0.049 -1.352,-0.081l-2.001,-0.108l-1.946,-0.048c-0.339,0.006 -0.799,-0.003 -1.383,-0.026c-0.055,-0.003 -0.082,-0.059 -0.077,-0.173c0.004,-0.112 0.035,-0.167 0.091,-0.165c0.714,0.028 1.238,0.001 1.571,-0.08c0.332,-0.081 0.565,-0.255 0.698,-0.522c0.133,-0.268 0.21,-0.684 0.232,-1.248l0.516,-13.052c0.021,-0.564 -0.022,-0.979 -0.135,-1.248c-0.111,-0.268 -0.33,-0.46 -0.654,-0.576c-0.325,-0.117 -0.845,-0.189 -1.559,-0.217c-0.056,-0.002 -0.083,-0.059 -0.078,-0.173c0.004,-0.112 0.036,-0.168 0.092,-0.165l1.38,0.083c0.787,0.068 1.435,0.112 1.942,0.133c0.565,0.022 1.242,0.03 2.032,0.023l1.327,0.024c0.055,0.002 0.082,0.061 0.078,0.173c-0.005,0.113 -0.035,0.168 -0.091,0.166c-0.696,-0.028 -1.214,0.009 -1.558,0.108c-0.343,0.099 -0.576,0.283 -0.699,0.551c-0.124,0.268 -0.196,0.684 -0.218,1.248l-0.514,12.995Zm14.828,-4.066l7.201,2.009l0.039,0.597l-7.664,-2.138l0.424,-0.468Zm11.307,11.443c0.072,0.02 0.093,0.085 0.063,0.193c-0.031,0.109 -0.082,0.153 -0.154,0.133c-0.344,-0.097 -0.874,-0.263 -1.589,-0.502c-0.714,-0.238 -1.234,-0.403 -1.561,-0.493c-0.398,-0.111 -0.911,-0.235 -1.536,-0.37c-0.591,-0.126 -1.039,-0.232 -1.348,-0.318c-0.072,-0.02 -0.093,-0.084 -0.062,-0.193c0.03,-0.108 0.081,-0.153 0.153,-0.133c0.689,0.193 1.201,0.267 1.534,0.223c0.335,-0.043 0.548,-0.229 0.639,-0.554c0.075,-0.272 0.073,-0.683 -0.008,-1.233l-2.479,-14.427l0.915,-0.653l-8.751,11.003c-0.425,0.545 -0.694,1.017 -0.805,1.416c-0.298,1.068 0.441,1.851 2.216,2.346c0.09,0.025 0.121,0.092 0.091,0.2c-0.031,0.11 -0.092,0.151 -0.182,0.126c-0.326,-0.091 -0.792,-0.24 -1.398,-0.449c-0.678,-0.228 -1.271,-0.413 -1.778,-0.554c-0.471,-0.131 -1.02,-0.266 -1.646,-0.4c-0.553,-0.115 -1.011,-0.224 -1.374,-0.325c-0.09,-0.026 -0.12,-0.092 -0.09,-0.201c0.03,-0.108 0.091,-0.15 0.181,-0.125c0.507,0.142 0.964,0.166 1.37,0.074c0.407,-0.091 0.835,-0.333 1.286,-0.724c0.451,-0.392 0.993,-0.988 1.626,-1.788l9.51,-11.934c0.05,-0.044 0.121,-0.054 0.212,-0.028c0.09,0.024 0.137,0.067 0.14,0.126l2.647,15.295c0.242,1.513 0.516,2.56 0.822,3.144c0.306,0.583 0.757,0.958 1.356,1.125Zm17.352,8.486c-0.377,0.47 -0.588,0.862 -0.632,1.175c-0.047,0.313 0.076,0.657 0.365,1.034c0.289,0.375 0.823,0.875 1.601,1.498c0.044,0.035 0.031,0.096 -0.039,0.185c-0.071,0.088 -0.128,0.114 -0.172,0.079c-0.602,-0.482 -1.066,-0.866 -1.393,-1.151l-1.899,-1.554l-1.493,-1.16c-0.291,-0.208 -0.671,-0.501 -1.141,-0.876c-0.03,-0.024 -0.009,-0.08 0.062,-0.168c0.07,-0.088 0.12,-0.12 0.149,-0.097c0.558,0.447 0.995,0.736 1.311,0.868c0.316,0.132 0.603,0.128 0.862,-0.016c0.258,-0.142 0.564,-0.433 0.916,-0.874l8.16,-10.199c0.353,-0.441 0.567,-0.799 0.643,-1.076c0.077,-0.275 0.019,-0.557 -0.173,-0.843c-0.193,-0.287 -0.569,-0.653 -1.126,-1.1c-0.03,-0.024 -0.009,-0.078 0.062,-0.167c0.07,-0.088 0.12,-0.121 0.149,-0.098l1.084,0.905c0.594,0.522 1.074,0.93 1.441,1.225c0.367,0.293 0.796,0.6 1.287,0.92c0.176,0.141 0.464,0.353 0.863,0.636c0.399,0.284 0.739,0.538 1.018,0.76c1.351,1.082 2.193,2.25 2.526,3.503c0.334,1.255 0.007,2.499 -0.98,3.733c-0.776,0.969 -1.666,1.593 -2.673,1.871c-1.005,0.28 -2.012,0.282 -3.02,0.006c-1.007,-0.276 -1.908,-0.732 -2.701,-1.366c-0.426,-0.341 -0.748,-0.66 -0.969,-0.956c-0.043,-0.036 -0.036,-0.091 0.022,-0.164c0.035,-0.044 0.081,-0.079 0.139,-0.105c0.058,-0.027 0.095,-0.021 0.113,0.017c0.188,0.247 0.428,0.488 0.722,0.723c0.97,0.775 2.041,1.115 3.214,1.018c1.174,-0.097 2.236,-0.74 3.188,-1.93c0.928,-1.161 1.345,-2.327 1.247,-3.5c-0.097,-1.174 -0.637,-2.154 -1.621,-2.942c-0.529,-0.423 -0.934,-0.699 -1.216,-0.828c-0.282,-0.129 -0.56,-0.129 -0.833,0.003c-0.273,0.13 -0.61,0.445 -1.009,0.944l-8.054,10.067Zm19.285,21.774c-0.315,-0.349 -0.318,-1.554 -0.01,-3.616c0.308,-2.062 0.886,-4.728 1.738,-7.999l1.413,0.853c-0.652,2.789 -1.096,5.029 -1.332,6.722c-0.234,1.693 -0.286,3.048 -0.153,4.067c0.133,1.019 0.47,1.83 1.011,2.431c0.038,0.042 0.015,0.1 -0.069,0.176c-0.084,0.075 -0.144,0.092 -0.182,0.05l-2.416,-2.684Zm8.409,-17.138c0.995,1.104 1.511,2.184 1.549,3.237c0.037,1.054 -0.363,1.959 -1.201,2.714c-0.742,0.668 -1.61,1.058 -2.609,1.171c-0.998,0.115 -2.006,-0.035 -3.022,-0.447c-1.018,-0.413 -1.904,-1.039 -2.659,-1.878c-0.075,-0.083 -0.338,-0.417 -0.786,-1l-4.76,4.285c-0.434,0.39 -0.711,0.715 -0.83,0.976c-0.12,0.259 -0.105,0.544 0.045,0.851c0.15,0.307 0.464,0.727 0.943,1.258c0.037,0.042 0.015,0.1 -0.069,0.176c-0.084,0.075 -0.145,0.092 -0.183,0.051c-0.39,-0.434 -0.691,-0.783 -0.903,-1.046l-1.283,-1.467l-1.304,-1.406c-0.241,-0.239 -0.568,-0.589 -0.984,-1.051c-0.025,-0.027 0.005,-0.079 0.088,-0.155c0.084,-0.076 0.139,-0.098 0.163,-0.071c0.478,0.531 0.87,0.888 1.173,1.07c0.304,0.183 0.597,0.234 0.881,0.156c0.284,-0.078 0.636,-0.307 1.055,-0.684l9.707,-8.74c0.42,-0.378 0.687,-0.699 0.8,-0.967c0.114,-0.267 0.099,-0.557 -0.044,-0.871c-0.143,-0.313 -0.454,-0.736 -0.932,-1.267c-0.038,-0.042 -0.015,-0.101 0.069,-0.177c0.084,-0.075 0.144,-0.092 0.183,-0.05l0.903,1.047c0.501,0.611 0.914,1.099 1.242,1.463c0.277,0.307 0.542,0.588 0.795,0.841c0.254,0.252 0.468,0.464 0.646,0.633c0.521,0.493 0.962,0.942 1.327,1.348Zm-1.545,5.073c1.091,-0.982 1.657,-1.928 1.698,-2.838c0.041,-0.91 -0.354,-1.826 -1.184,-2.749c-0.491,-0.545 -0.929,-0.834 -1.313,-0.867c-0.385,-0.033 -0.877,0.219 -1.479,0.761l-4.402,3.964c0.246,0.386 0.589,0.824 1.03,1.313c0.981,1.09 1.921,1.655 2.817,1.696c0.897,0.04 1.841,-0.387 2.833,-1.28Zm7.32,17.491l4.168,6.207l-0.359,0.478l-4.435,-6.605l0.626,-0.08Zm1.157,16.045c0.042,0.062 0.015,0.125 -0.078,0.187c-0.094,0.064 -0.162,0.064 -0.203,0.002c-0.199,-0.297 -0.493,-0.768 -0.882,-1.414c-0.387,-0.645 -0.676,-1.109 -0.865,-1.39c-0.231,-0.343 -0.54,-0.77 -0.928,-1.28c-0.366,-0.478 -0.639,-0.851 -0.817,-1.116c-0.042,-0.063 -0.016,-0.125 0.078,-0.189c0.094,-0.062 0.161,-0.063 0.203,-0c0.399,0.593 0.739,0.983 1.021,1.167c0.283,0.183 0.564,0.181 0.845,-0.007c0.235,-0.158 0.5,-0.471 0.795,-0.942l7.494,-12.576l1.119,0.098l-13.802,2.676c-0.677,0.137 -1.188,0.321 -1.532,0.552c-0.921,0.619 -0.868,1.694 0.16,3.223c0.052,0.078 0.031,0.149 -0.062,0.212c-0.094,0.063 -0.167,0.055 -0.219,-0.023c-0.189,-0.281 -0.446,-0.697 -0.772,-1.249c-0.367,-0.614 -0.698,-1.14 -0.991,-1.577c-0.273,-0.406 -0.603,-0.865 -0.99,-1.374c-0.346,-0.447 -0.624,-0.828 -0.833,-1.14c-0.053,-0.078 -0.032,-0.148 0.062,-0.211c0.093,-0.063 0.166,-0.055 0.218,0.023c0.294,0.437 0.626,0.752 0.994,0.947c0.368,0.194 0.851,0.289 1.448,0.285c0.598,-0.005 1.397,-0.106 2.397,-0.302l14.984,-2.89c0.067,-0 0.127,0.038 0.179,0.116c0.053,0.078 0.061,0.141 0.025,0.188l-7.929,13.344c-0.799,1.307 -1.272,2.282 -1.418,2.924c-0.147,0.642 -0.048,1.221 0.299,1.736Zm4.406,10.426c-0.077,0.014 -0.153,-0.065 -0.231,-0.236c-0.062,-0.137 -0.072,-0.247 -0.027,-0.33l10.981,-12.716c0.545,-0.62 0.88,-1.145 1.005,-1.574c0.125,-0.428 0.067,-0.908 -0.175,-1.439c-0.023,-0.051 0.017,-0.1 0.12,-0.147c0.102,-0.046 0.165,-0.044 0.189,0.007l0.417,0.987c0.185,0.495 0.343,0.888 0.476,1.179c0.28,0.616 0.601,1.276 0.963,1.979l0.504,1.041c0.024,0.051 -0.016,0.101 -0.118,0.147c-0.103,0.048 -0.166,0.045 -0.19,-0.006c-0.233,-0.514 -0.467,-0.867 -0.7,-1.061c-0.232,-0.194 -0.495,-0.224 -0.786,-0.091c-0.256,0.116 -0.525,0.343 -0.806,0.677l-9.654,11.276l-1.653,-0.363l9.927,-0.459l-0.39,0.643l-9.852,0.486Zm22.802,7.599c0.016,0.034 -0.028,0.075 -0.13,0.121c-0.104,0.047 -0.163,0.053 -0.178,0.019c-0.265,-0.582 -0.649,-1.017 -1.152,-1.305c-0.503,-0.287 -1.193,-0.418 -2.069,-0.391l-16.176,0.761c-0.077,0.014 -0.153,-0.065 -0.231,-0.235c-0.062,-0.138 -0.071,-0.247 -0.026,-0.33l10.993,-12.691c0.527,-0.612 0.858,-1.135 0.991,-1.567c0.134,-0.434 0.088,-0.898 -0.138,-1.394c-0.024,-0.052 0.016,-0.1 0.119,-0.148c0.102,-0.046 0.166,-0.044 0.189,0.007l0.419,0.989c0.168,0.46 0.318,0.835 0.45,1.127c0.219,0.478 0.462,0.967 0.73,1.465l0.342,0.681c0.023,0.052 -0.017,0.101 -0.12,0.148c-0.103,0.047 -0.165,0.044 -0.189,-0.007c-0.14,-0.308 -0.271,-0.517 -0.394,-0.627c-0.122,-0.109 -0.26,-0.129 -0.414,-0.06c-0.206,0.095 -0.572,0.447 -1.099,1.059l-9.641,11.302l-1.654,-0.364l15.695,-0.727c0.422,-0.027 0.735,-0.087 0.941,-0.181c0.376,-0.171 0.578,-0.455 0.605,-0.849c0.027,-0.394 -0.111,-0.926 -0.416,-1.593c-0.022,-0.051 0.017,-0.101 0.12,-0.147c0.102,-0.047 0.166,-0.045 0.189,0.006l0.464,1.091c0.232,0.597 0.452,1.127 0.662,1.589c0.156,0.343 0.353,0.729 0.589,1.159l0.529,1.092Zm-6.683,-8.892c0.556,-0.006 0.979,-0.074 1.27,-0.206c0.497,-0.227 0.577,-0.708 0.242,-1.444c-0.023,-0.051 0.016,-0.101 0.12,-0.147c0.102,-0.047 0.166,-0.045 0.188,0.006l0.243,0.604c0.122,0.357 0.269,0.724 0.44,1.101c0.157,0.343 0.352,0.728 0.589,1.158l0.505,1.041c0.016,0.034 -0.028,0.075 -0.131,0.121c-0.103,0.047 -0.162,0.054 -0.177,0.019c-0.265,-0.582 -0.639,-1.006 -1.121,-1.272c-0.483,-0.265 -1.171,-0.382 -2.065,-0.346l-6.311,0.3l0.39,-0.643l5.818,-0.292Z" style="fill:#fff;fill-rule:nonzero;"/><path d="M236.58,102.639l0.126,0.639l-13.306,3.85c-0.94,0.272 -1.564,0.634 -1.875,1.086c-0.31,0.452 -0.357,1.048 -0.143,1.789c0.016,0.054 -0.03,0.097 -0.138,0.129c-0.109,0.031 -0.172,0.019 -0.187,-0.035c-0.131,-0.451 -0.221,-0.798 -0.27,-1.038l-0.366,-1.363l-0.427,-1.374c-0.091,-0.248 -0.207,-0.616 -0.349,-1.103c-0.01,-0.036 0.039,-0.069 0.148,-0.101c0.108,-0.031 0.167,-0.029 0.178,0.007c0.225,0.777 0.587,1.269 1.088,1.476c0.5,0.208 1.221,0.176 2.16,-0.096l13.361,-3.866Zm-12.687,18.473c-0.036,0.011 -0.076,-0.026 -0.121,-0.111c-0.044,-0.085 -0.053,-0.151 -0.028,-0.198l11.487,-16.834c0.538,-0.783 0.877,-1.454 1.019,-2.013c0.141,-0.56 0.144,-1.075 0.008,-1.545c-0.016,-0.054 0.031,-0.097 0.139,-0.128c0.108,-0.031 0.17,-0.019 0.187,0.034l0.263,1.011c0.044,0.222 0.121,0.522 0.231,0.902c0.115,0.397 0.218,0.72 0.309,0.967c0.092,0.248 0.159,0.445 0.201,0.589c0.036,0.126 0.034,0.24 -0.006,0.339c-0.039,0.1 -0.143,0.232 -0.31,0.398c-0.262,0.311 -0.504,0.626 -0.725,0.945l-10.17,14.691l-2.484,0.953Zm-0,0l0.659,-0.865l13.442,-3.89c0.939,-0.273 1.572,-0.627 1.895,-1.064c0.325,-0.436 0.379,-1.024 0.165,-1.765c-0.011,-0.037 0.039,-0.07 0.147,-0.102c0.108,-0.03 0.168,-0.028 0.179,0.007l0.278,1.066c0.121,0.551 0.231,1 0.33,1.343c0.094,0.326 0.244,0.772 0.446,1.339l0.349,1.103c0.016,0.056 -0.031,0.099 -0.139,0.129c-0.108,0.032 -0.17,0.021 -0.186,-0.035c-0.22,-0.758 -0.587,-1.249 -1.102,-1.472c-0.515,-0.222 -1.242,-0.199 -2.182,0.073l-14.281,4.133Zm11.377,10.036l1.337,7.356l-0.52,0.295l-1.423,-7.828l0.606,0.177Zm-5.358,15.169c0.014,0.073 -0.035,0.12 -0.146,0.141c-0.111,0.02 -0.173,-0.007 -0.187,-0.081c-0.064,-0.351 -0.145,-0.901 -0.242,-1.648c-0.097,-0.747 -0.177,-1.286 -0.238,-1.62c-0.074,-0.407 -0.186,-0.922 -0.338,-1.544c-0.144,-0.585 -0.245,-1.036 -0.302,-1.35c-0.014,-0.075 0.035,-0.121 0.147,-0.141c0.11,-0.021 0.172,0.006 0.185,0.08c0.128,0.704 0.285,1.196 0.47,1.478c0.185,0.281 0.445,0.392 0.777,0.331c0.279,-0.05 0.646,-0.232 1.106,-0.544l11.898,-8.529l0.987,0.537l-13.72,-3.069c-0.676,-0.144 -1.218,-0.179 -1.626,-0.106c-1.092,0.199 -1.473,1.205 -1.143,3.018c0.017,0.093 -0.03,0.149 -0.141,0.17c-0.111,0.02 -0.175,-0.016 -0.192,-0.109c-0.06,-0.333 -0.129,-0.817 -0.207,-1.454c-0.09,-0.709 -0.183,-1.324 -0.277,-1.841c-0.088,-0.481 -0.207,-1.034 -0.359,-1.656c-0.138,-0.548 -0.24,-1.008 -0.307,-1.378c-0.017,-0.092 0.03,-0.148 0.141,-0.169c0.11,-0.02 0.175,0.016 0.191,0.109c0.095,0.518 0.272,0.939 0.532,1.265c0.26,0.325 0.665,0.606 1.214,0.841c0.549,0.234 1.321,0.462 2.318,0.681l14.888,3.345c0.062,0.026 0.101,0.086 0.118,0.178c0.016,0.093 -0.001,0.154 -0.052,0.182l-12.605,9.059c-1.255,0.879 -2.079,1.583 -2.469,2.113c-0.391,0.529 -0.532,1.1 -0.421,1.711Z" style="fill:#fff;fill-rule:nonzero;"/></g></svg>