<?xml version="1.0" encoding="UTF-8" standalone="no"?><!DOCTYPE svg PUBLIC "-//W3C//DTD SVG 1.1//EN" "http://www.w3.org/Graphics/SVG/1.1/DTD/svg11.dtd"><svg width="100%" height="100%" viewBox="0 0 51 71" version="1.1" xmlns="http://www.w3.org/2000/svg" xmlns:xlink="http://www.w3.org/1999/xlink" xml:space="preserve" xmlns:serif="http://www.serif.com/" style="fill-rule:evenodd;clip-rule:evenodd;stroke-linejoin:round;stroke-miterlimit:2;"><g id="_1443354168656"><path d="M0.491,70.723l3.164,0.008l24.316,0c11.137,0 22.552,-6.497 22.552,-19.595c0,-12.285 -11.23,-18.783 -21.624,-18.58l0.371,-0.305c8.074,-1.218 16.427,-7.31 16.427,-15.94c0,-11.27 -10.673,-15.94 -19.768,-16.042l-8.19,0c-0,0 -17.702,0.047 -17.239,0.047c-0,0 -0.023,0.867 -0.023,1.374l-0,38.674c1.247,-0.447 2.66,-0.436 3.898,0.036l-0,-38.71c-0,-0.492 0.174,-0.698 0.607,-0.71l3.035,0c0.464,0 0.65,0.203 0.65,0.711l-0,67.619c-0,0.507 -0.279,0.711 -0.65,0.711l-2.993,0c-0.464,0 -0.649,-0.204 -0.649,-0.711l-0,-32.133c-1.238,0.463 -2.651,0.506 -3.898,0.088l-0,32.045c-0,1.64 0.014,0.906 0.014,1.413Zm25.612,-0.702c8.754,-2.009 16.23,-8.286 16.23,-18.885c0,-10.568 -8.309,-16.853 -17.248,-18.275c12.299,0.017 21.169,3.89 21.169,18.275c0,13.503 -8.26,18.885 -18.283,18.885l-1.868,0Zm-4.419,-37.871c7.882,-1.423 15.823,-7.424 15.823,-15.84c0,-8.862 -6.6,-13.643 -13.842,-15.33l1.985,0c8.261,0 16.149,3.757 16.149,15.331c0,11.27 -6.868,15.839 -17.726,15.839l-2.389,0Zm-4.146,-31.17c8.232,0.023 16.071,3.792 16.071,15.33c-0,11.271 -6.868,15.839 -17.726,15.839l-2.711,0c-0.433,-0.012 -0.607,-0.218 -0.607,-0.71l-0,-29.748c-0,-0.508 0.185,-0.711 0.65,-0.711l4.323,0Zm-0.612,31.881c12.284,0.024 21.138,3.903 21.138,18.275c-0,13.504 -8.26,18.885 -18.283,18.885l-6.566,0c-0.465,0 -0.65,-0.204 -0.65,-0.711l-0,-35.739c-0,-0.507 0.185,-0.71 0.65,-0.71l3.711,0Z" style="fill:#e3d9cf;fill-rule:nonzero;"/></g></svg>