<?xml version="1.0" encoding="UTF-8"?>
<!DOCTYPE svg PUBLIC "-//W3C//DTD SVG 1.1//EN" "http://www.w3.org/Graphics/SVG/1.1/DTD/svg11.dtd">
<!-- Creator: CorelDRAW -->
<svg xmlns="http://www.w3.org/2000/svg" xml:space="preserve" width="91.4398mm" height="114.3mm" version="1.1" style="shape-rendering:geometricPrecision; text-rendering:geometricPrecision; image-rendering:optimizeQuality; fill-rule:evenodd; clip-rule:evenodd"
viewBox="0 0 9143.98 11429.98"
 xmlns:xlink="http://www.w3.org/1999/xlink"
 xmlns:xodm="http://www.corel.com/coreldraw/odm/2003">
 <defs>
  <style type="text/css">
   <![CDATA[
    .fil0 {fill:#351A11}
    .fil1 {fill:#351A11;fill-rule:nonzero}
   ]]>
  </style>
 </defs>
 <g id="Warstwa_x0020_1">
  <metadata id="CorelCorpID_0Corel-Layer"/>
  <g id="_1443389204928">
   <rect class="fil0" transform="matrix(0.66452 -0.66452 0.66452 0.66452 2559.3 5714.99)" width="172.94" height="172.94"/>
   <rect class="fil0" transform="matrix(0.66452 -0.66452 0.66452 0.66452 6354.83 5714.99)" width="172.94" height="172.94"/>
   <path class="fil1" d="M2657.98 4939.77c-8.99,-1.95 -15.78,-2.48 -20.36,-1.58 -4.59,0.88 -8.28,3.77 -11.05,8.66 -2.78,4.87 -5.42,13.02 -7.88,24.4 -0.13,0.6 -1.09,0.71 -2.9,0.31 -1.79,-0.38 -2.63,-0.88 -2.5,-1.48l5.33 -22.37c3.31,-12.45 5.79,-22.43 7.42,-29.92 1.88,-8.68 3.87,-19.38 6.01,-32.1l4.13 -21.23c0.19,-0.89 1.2,-1.14 2.99,-0.76 1.8,0.4 2.59,1.05 2.41,1.94 -2.41,11.09 -3.29,19.44 -2.62,25.08 0.66,5.63 2.96,9.9 6.88,12.78 3.92,2.89 10.37,5.31 19.36,7.26l207.18 44.88c9.28,2.01 16.22,2.59 20.81,1.69 4.57,-0.89 8.19,-3.79 10.83,-8.71 2.62,-4.92 5.18,-13.07 7.65,-24.46 0.19,-0.9 1.18,-1.15 2.98,-0.76 1.8,0.39 2.6,1.03 2.4,1.93 -1.95,8.99 -3.65,16.15 -5.11,21.47l-7.27 31.36 -6.18 30.66c-0.87,5.46 -2.34,12.98 -4.42,22.57 -0.12,0.6 -1.09,0.7 -2.89,0.32 -1.8,-0.39 -2.62,-0.89 -2.49,-1.48 2.47,-11.39 3.51,-19.87 3.15,-25.43 -0.36,-5.58 -2.51,-9.8 -6.44,-12.7 -3.91,-2.87 -10.37,-5.3 -19.35,-7.25l-208.07 -45.08zm98.38 -21.96l-13.1 -26.37 97.8 -47.51c33.2,-15.7 56.9,-28.05 71.07,-37.05 14.19,-9.01 23.01,-16.43 26.47,-22.26 3.46,-5.84 6.5,-14.75 9.09,-26.73 0.2,-0.91 1.19,-1.16 2.98,-0.78 1.81,0.4 2.61,1.04 2.41,1.94l-10.9 50.33c-0.52,2.4 -1.38,6.69 -2.55,12.86 -1.18,6.18 -10.69,13.14 -28.52,20.87 -17.83,7.74 -34.29,15.32 -49.38,22.71l-105.37 51.99zm-71.21 -103.43c-7.76,-12.02 -14.02,-18.56 -18.82,-19.6 -5.98,-1.29 -10.9,6.9 -14.73,24.58 -0.13,0.58 -1.09,0.7 -2.9,0.31 -1.79,-0.39 -2.62,-0.89 -2.5,-1.49l4.65 -19.22c3.18,-11.85 5.86,-22.72 8,-32.61 2.14,-9.88 4.08,-20.29 5.82,-31.2l3.15 -16.73c0.2,-0.9 1.2,-1.16 2.99,-0.76 1.8,0.39 2.6,1.03 2.41,1.93 -2.66,12.27 -2.79,25.9 -0.39,40.85 2.42,14.94 8.16,29.68 17.25,44.2l87.87 139.47 -2.44 11.24 -90.36 -140.97zm177.32 -239.53l33.89 -117.05 9.73 -0.54 -36.06 124.56 -7.56 -6.97zm188.3 -182.46c0.34,-1.17 1.4,-1.5 3.16,-0.99 1.77,0.51 2.48,1.35 2.14,2.52 -1.62,5.6 -4.43,14.21 -8.43,25.81 -4,11.6 -6.76,20.07 -8.29,25.37 -1.88,6.47 -3.97,14.81 -6.29,24.99 -2.13,9.59 -3.93,16.89 -5.37,21.9 -0.35,1.17 -1.4,1.51 -3.17,0.99 -1.76,-0.5 -2.47,-1.35 -2.14,-2.53 3.24,-11.19 4.53,-19.52 3.88,-24.97 -0.66,-5.45 -3.64,-8.95 -8.93,-10.48 -4.42,-1.28 -11.11,-1.3 -20.09,-0.07l-235.54 38.09 -10.5 -15.01 177.93 144.38c8.82,7.02 16.47,11.47 22.95,13.35 17.37,5.02 30.24,-6.89 38.6,-35.75 0.42,-1.47 1.51,-1.95 3.28,-1.44 1.77,0.52 2.44,1.51 2.01,2.98 -1.53,5.3 -4.04,12.86 -7.53,22.71 -3.83,11.02 -6.93,20.66 -9.32,28.89 -2.22,7.66 -4.48,16.58 -6.79,26.76 -1.96,9.01 -3.81,16.46 -5.51,22.35 -0.43,1.47 -1.52,1.94 -3.29,1.42 -1.77,-0.51 -2.44,-1.49 -2.01,-2.96 2.39,-8.25 2.86,-15.68 1.43,-22.33 -1.43,-6.64 -5.3,-13.66 -11.6,-21.07 -6.33,-7.41 -15.94,-16.34 -28.88,-26.78l-192.98 -156.89c-0.72,-0.83 -0.85,-1.99 -0.43,-3.47 0.43,-1.47 1.13,-2.23 2.09,-2.26l249.7 -40.69c24.69,-3.71 41.81,-8.01 51.37,-12.9 9.55,-4.9 15.74,-12.2 18.55,-21.92zm-205.19 -216.06l5.24 -9.24 205.46 93.55c14.52,6.61 26.09,8.77 34.72,6.46 8.62,-2.3 15.53,-9.17 20.74,-20.61 0.39,-0.84 1.41,-0.87 3.09,-0.11 1.68,0.76 2.32,1.56 1.94,2.4 -3.18,6.98 -5.73,12.21 -7.66,15.71l-9.95 20.74 -9.3 21.53c-1.5,4.03 -3.96,9.81 -7.39,17.35 -0.26,0.55 -1.22,0.45 -2.9,-0.31 -1.66,-0.76 -2.37,-1.42 -2.12,-1.98 5.46,-12 6.2,-21.93 2.21,-29.82 -3.99,-7.88 -13.25,-15.12 -27.75,-21.73l-206.33 -93.94zm352.99 -93.92c0.56,0.26 0.66,1.13 0.31,2.67 -0.36,1.51 -0.93,2.42 -1.75,2.74l-320.75 86.37c-14.96,3.96 -26.26,8.67 -33.95,14.09 -7.69,5.43 -13.2,11.76 -16.5,19.02 -0.38,0.84 -1.41,0.87 -3.09,0.11 -1.66,-0.76 -2.32,-1.56 -1.93,-2.4l7.47 -15.29c1.8,-3.22 4.04,-7.76 6.71,-13.62 2.79,-6.13 4.93,-11.22 6.44,-15.25 1.49,-4.03 2.75,-7.18 3.76,-9.4 0.9,-1.96 2.12,-3.34 3.66,-4.15 1.55,-0.81 4.24,-1.35 8.08,-1.64 6.54,-1.06 12.87,-2.38 18.98,-3.98l281.7 -73.83 40.86 14.56zm0 0l-17.35 3.72 -207.57 -94.51c-14.5,-6.61 -26.08,-8.93 -34.72,-6.96 -8.64,1.94 -15.57,8.66 -20.77,20.09 -0.26,0.56 -1.22,0.46 -2.9,-0.3 -1.67,-0.77 -2.39,-1.43 -2.14,-1.98l7.86 -16.14c4.37,-8.11 7.77,-14.82 10.17,-20.12 2.3,-5.03 5.18,-12.13 8.69,-21.3l7.39 -17.35c0.39,-0.85 1.42,-0.88 3.09,-0.13 1.68,0.77 2.32,1.57 1.94,2.41 -5.33,11.71 -6,21.69 -1.99,29.91 4,8.22 13.25,15.64 27.76,22.25l220.54 100.41zm-114.16 -408.4c10.06,-16.49 19.71,-29.63 28.92,-39.46 9.22,-9.81 20.15,-18.58 32.77,-26.32 2.17,-1.19 3.72,-1.68 4.67,-1.46 0.94,0.22 3.14,1.02 6.61,2.42l49.58 23.79c0.79,0.48 0.8,1.48 0.05,3 -0.74,1.52 -1.59,2.17 -2.54,1.96 -51.04,-14.64 -89.34,-1.03 -114.89,40.83 -13.42,21.98 -20.44,44.36 -21.06,67.15 -0.62,22.78 5.24,44.24 17.57,64.33 12.34,20.11 30.41,37.42 54.21,51.94 22.77,13.91 46.75,21.55 71.95,22.92 25.21,1.37 48.53,-3.16 69.97,-13.59 21.45,-10.43 38.34,-25.72 50.63,-45.86 13.1,-21.46 18.48,-42.05 16.17,-61.78 -2.33,-19.74 -12.06,-39.68 -29.2,-59.85 -0.52,-0.31 -0.39,-1.14 0.41,-2.45 1.12,-1.82 2.07,-2.5 2.86,-2.02l40.77 30.28c2.98,2.17 4.71,3.77 5.17,4.77 0.46,1 0.75,2.6 0.83,4.82 -1.77,17.59 -4.97,33.15 -9.62,46.65 -4.65,13.51 -11.68,27.97 -21.1,43.41 -16.78,27.48 -37.19,48.68 -61.23,63.65 -24.02,14.96 -49.53,22.46 -76.5,22.52 -26.97,0.06 -53.15,-7.65 -78.53,-23.15 -24.59,-15.01 -42.63,-34.45 -54.09,-58.34 -11.47,-23.87 -15.83,-49.8 -13.12,-77.77 2.7,-27.98 12.28,-55.44 28.74,-82.39zm360.33 -14.31c-0.39,0.47 -1.3,0.13 -2.72,-1.03 -1.42,-1.16 -1.94,-1.98 -1.56,-2.45 7.36,-9.04 12.13,-16.11 14.33,-21.24 2.21,-5.13 2.21,-9.87 0.02,-14.23 -2.18,-4.34 -6.84,-9.43 -13.97,-15.23l-165.06 -134.47c-7.14,-5.81 -13,-9.29 -17.58,-10.46 -4.59,-1.17 -9.23,-0.21 -13.92,2.9 -4.7,3.09 -10.72,9.16 -18.09,18.18 -0.37,0.47 -1.28,0.14 -2.72,-1.03 -1.42,-1.16 -1.94,-1.98 -1.55,-2.45l116.74 -143.32c1.75,-2.14 3.69,-2.34 5.83,-0.59l44.44 35c0.71,0.58 0.59,1.57 -0.36,2.98 -0.94,1.4 -1.78,1.81 -2.48,1.24 -13.19,-9.56 -26.08,-13.74 -38.71,-12.55 -12.63,1.18 -23.58,7.46 -32.88,18.87l-17.71 21.75c-6.78,8.32 -11.17,15.03 -13.15,20.14 -1.98,5.1 -2.06,9.69 -0.23,13.75 1.83,4.06 6.08,8.81 12.73,14.23l161.85 131.84c6.43,5.23 11.87,8.38 16.33,9.45 4.47,1.07 8.85,0.19 13.14,-2.65 4.28,-2.83 9.72,-8.29 16.29,-16.38l23.24 -28.52c9.3,-11.4 13,-24.2 11.11,-38.39 -1.88,-14.19 -8.9,-28.39 -21.02,-42.63 -0.47,-0.38 -0.32,-1.06 0.44,-2 0.59,-0.72 1.3,-1.23 2.14,-1.53 0.85,-0.3 1.37,-0.36 1.62,-0.16 13.24,14.33 28.03,28.18 44.44,41.54 1.91,1.54 2.94,3.08 3.09,4.59 0.16,1.51 -0.64,3.33 -2.38,5.47l-121.69 149.38zm22.35 -197.08c-10.45,-8.51 -20.02,-12.07 -28.7,-10.64 -8.68,1.44 -17.85,8.09 -27.53,19.98l-43.57 53.48 -7.49 -6.11 44.43 -54.54c9.3,-11.41 14.04,-21.11 14.19,-29.08 0.18,-7.96 -4.27,-15.62 -13.29,-22.98 -0.47,-0.38 -0.14,-1.29 1.03,-2.73 1.15,-1.41 1.98,-1.94 2.46,-1.55l28.58 23.89c6.9,5.6 12.22,9.75 15.98,12.41l17.4 13.59c0.48,0.38 0.13,1.29 -1.03,2.72 -1.16,1.41 -1.98,1.95 -2.46,1.56zm195.48 -104.37c5.95,6.62 10.93,10.8 14.97,12.53 4.02,1.74 8.33,1.48 12.9,-0.76 4.56,-2.26 10.95,-7.08 19.17,-14.46l37.28 -33.48c13.01,-11.67 19.81,-24.98 20.4,-39.94 0.57,-14.94 -4.22,-30.61 -14.42,-47.01 -0.61,-0.67 -0.25,-1.53 1.12,-2.54 1.35,-1.02 2.34,-1.18 2.96,-0.5 14.94,20.78 27.95,37.33 39.01,49.65 1.63,1.82 2.47,3.45 2.51,4.85 0.03,1.41 -0.98,3.05 -3.03,4.88l-158.07 141.95c-0.44,0.41 -1.3,-0.06 -2.53,-1.44 -1.22,-1.36 -1.6,-2.25 -1.15,-2.66 8.67,-7.78 14.48,-14.04 17.45,-18.76 2.97,-4.73 3.65,-9.36 2.04,-13.9 -1.59,-4.54 -5.47,-10.23 -11.62,-17.07l-142.25 -158.39c-6.15,-6.85 -11.32,-11.25 -15.57,-13.21 -4.24,-1.97 -8.92,-1.79 -14.02,0.55 -5.13,2.32 -12.02,7.38 -20.69,15.16 -0.45,0.41 -1.29,-0.06 -2.52,-1.44 -1.23,-1.36 -1.62,-2.26 -1.17,-2.66l17.08 -14.71c9.99,-8.16 17.95,-14.89 23.88,-20.22 6.37,-5.73 14.16,-13.13 23.34,-22.18l16.1 -15.09c0.69,-0.63 1.65,-0.24 2.88,1.12 1.23,1.38 1.5,2.37 0.81,2.98 -8.44,7.58 -14.15,13.84 -17.12,18.78 -2.99,4.94 -3.67,9.68 -2.06,14.22 1.59,4.54 5.47,10.22 11.62,17.07l140.7 156.68zm203.54 -282.35l107.73 -56.95 7.15 6.63 -114.64 60.6 -0.24 -10.28zm262.06 8.68c1.08,-0.58 2.05,-0.06 2.9,1.57 0.87,1.63 0.75,2.73 -0.33,3.29 -5.15,2.73 -13.29,6.69 -24.42,11.87 -11.12,5.19 -19.12,9.08 -24,11.66 -5.96,3.15 -13.41,7.44 -22.34,12.84 -8.38,5.13 -14.88,8.91 -19.49,11.35 -1.08,0.58 -2.05,0.04 -2.91,-1.59 -0.86,-1.62 -0.76,-2.71 0.34,-3.28 10.29,-5.45 17.18,-10.31 20.65,-14.56 3.46,-4.27 3.91,-8.84 1.34,-13.72 -2.16,-4.06 -6.8,-8.89 -13.92,-14.49l-191.03 -142.95 3.49 -17.98 19.78 228.29c1.08,11.21 3.19,19.81 6.35,25.77 8.45,16 25.97,16.97 52.51,2.93 1.36,-0.72 2.47,-0.26 3.33,1.35 0.86,1.64 0.61,2.81 -0.74,3.53 -4.88,2.57 -12.07,6.03 -21.58,10.36 -10.58,4.89 -19.67,9.36 -27.25,13.37 -7.04,3.73 -15.04,8.29 -23.97,13.71 -7.83,4.84 -14.47,8.69 -19.89,11.55 -1.36,0.72 -2.46,0.26 -3.31,-1.37 -0.87,-1.62 -0.62,-2.79 0.74,-3.5 7.58,-4.01 13.26,-8.85 17.04,-14.48 3.79,-5.64 6.15,-13.31 7.1,-22.99 0.94,-9.7 0.68,-22.82 -0.8,-39.38l-21.24 -247.79c0.1,-1.1 0.84,-2 2.2,-2.72 1.35,-0.72 2.39,-0.74 3.08,-0.08l202.74 151.33c19.83,15.19 34.82,24.5 44.97,27.98 10.16,3.47 19.72,2.85 28.66,-1.87zm302.77 -73.23c-7.53,1.5 -24.43,-8.52 -50.73,-30.02 -26.31,-21.5 -58.81,-51.83 -97.54,-91.04l23.74 -12.68c33.62,32.4 61.3,57.3 83.04,74.7 21.74,17.41 40.3,29.43 55.68,36.07 15.37,6.64 29.54,8.67 42.47,6.1 0.89,-0.18 1.53,0.63 1.88,2.43 0.36,1.81 0.09,2.8 -0.81,2.97l-57.73 11.47zm-169.9 -260.68c23.76,-4.72 43.18,-2.94 58.26,5.31 15.07,8.27 24.41,21.41 27.99,39.45 3.16,15.94 1.38,31.37 -5.35,46.29 -6.72,14.94 -17.22,27.8 -31.47,38.61 -14.28,10.8 -30.42,17.99 -48.46,21.57 -1.82,0.36 -8.67,1.25 -20.57,2.68l20.32 102.38c1.85,9.33 4.09,15.91 6.74,19.76 2.64,3.84 6.74,6.01 12.3,6.47 5.56,0.45 14.06,-0.45 25.49,-2.72 0.89,-0.18 1.52,0.64 1.87,2.44 0.37,1.8 0.1,2.79 -0.8,2.97 -9.33,1.85 -16.72,3.17 -22.2,3.94l-31.21 5.73 -30.57 6.53c-5.36,1.38 -13,3.06 -22.92,5.03 -0.59,0.11 -1.08,-0.73 -1.44,-2.54 -0.35,-1.8 -0.23,-2.76 0.37,-2.87 11.42,-2.27 19.68,-4.78 24.76,-7.51 5.08,-2.73 8.25,-6.4 9.52,-11.03 1.27,-4.62 1.01,-11.46 -0.78,-20.47l-41.44 -208.82c-1.8,-9.03 -4.08,-15.45 -6.88,-19.27 -2.8,-3.83 -6.99,-6.05 -12.57,-6.64 -5.59,-0.61 -14.1,0.22 -25.52,2.48 -0.91,0.18 -1.53,-0.62 -1.9,-2.44 -0.35,-1.8 -0.08,-2.8 0.82,-2.98l22.2 -3.93c12.74,-1.9 23.02,-3.63 30.84,-5.19 6.62,-1.31 12.74,-2.69 18.4,-4.11 5.66,-1.44 10.41,-2.69 14.26,-3.78 11.24,-3.16 21.23,-5.61 29.94,-7.34zm58.17 63.92c-4.66,-23.45 -13.18,-39.26 -25.58,-47.43 -12.42,-8.16 -28.54,-10.26 -48.38,-6.33 -11.72,2.33 -19.42,6.05 -23.1,11.16 -3.67,5.11 -4.23,14.12 -1.66,27.04l18.8 94.72c7.45,-0.24 16.44,-1.39 26.96,-3.48 23.46,-4.66 39.21,-13.1 47.25,-25.31 8.06,-12.23 9.95,-29.01 5.71,-50.37zm313.06 153.12c-0.38,9.51 0.27,16.44 1.94,20.79 1.66,4.36 5.15,7.41 10.45,9.15 5.3,1.75 13.76,2.86 25.41,3.32 0.91,0.03 1.35,0.97 1.28,2.8 -0.08,1.84 -0.59,2.74 -1.5,2.7 -9.19,-0.36 -16.53,-0.8 -22.03,-1.32l-32.61 -1.76 -31.73 -0.79c-5.52,0.09 -13.02,-0.05 -22.53,-0.42 -0.91,-0.05 -1.34,-0.97 -1.27,-2.82 0.08,-1.83 0.58,-2.73 1.49,-2.7 11.64,0.46 20.18,0.03 25.6,-1.29 5.41,-1.32 9.21,-4.16 11.38,-8.52 2.17,-4.37 3.43,-11.14 3.78,-20.34l8.41 -212.73c0.35,-9.19 -0.36,-15.96 -2.19,-20.34 -1.82,-4.37 -5.39,-7.49 -10.67,-9.39 -5.29,-1.9 -13.76,-3.07 -25.4,-3.53 -0.91,-0.04 -1.35,-0.97 -1.28,-2.82 0.07,-1.83 0.59,-2.74 1.5,-2.7l22.49 1.36c12.84,1.11 23.4,1.83 31.66,2.17 9.2,0.35 20.24,0.48 33.12,0.38l21.62 0.39c0.91,0.03 1.35,0.98 1.28,2.81 -0.08,1.85 -0.58,2.74 -1.49,2.71 -11.34,-0.45 -19.79,0.14 -25.39,1.76 -5.59,1.62 -9.38,4.61 -11.4,8.98 -2.01,4.37 -3.19,11.15 -3.55,20.34l-8.37 211.81zm241.67 -66.28l117.37 32.74 0.64 9.73 -124.91 -34.84 6.9 -7.63zm184.29 186.51c1.18,0.33 1.52,1.38 1.03,3.14 -0.5,1.78 -1.33,2.5 -2.51,2.17 -5.61,-1.57 -14.24,-4.29 -25.89,-8.17 -11.64,-3.89 -20.12,-6.57 -25.45,-8.05 -6.49,-1.81 -14.84,-3.82 -25.04,-6.03 -9.62,-2.04 -16.93,-3.77 -21.96,-5.17 -1.18,-0.33 -1.52,-1.38 -1.02,-3.16 0.49,-1.76 1.32,-2.48 2.5,-2.16 11.23,3.14 19.57,4.35 25.01,3.64 5.45,-0.71 8.92,-3.73 10.4,-9.03 1.23,-4.44 1.19,-11.13 -0.13,-20.1l-40.39 -235.15 14.9 -10.64 -142.63 179.34c-6.93,8.88 -11.31,16.58 -13.12,23.07 -4.86,17.42 7.19,30.17 36.12,38.25 1.47,0.4 1.97,1.5 1.48,3.26 -0.5,1.78 -1.49,2.46 -2.96,2.04 -5.31,-1.48 -12.91,-3.91 -22.78,-7.31 -11.06,-3.72 -20.73,-6.73 -28.99,-9.03 -7.68,-2.14 -16.62,-4.33 -26.83,-6.52 -9.01,-1.88 -16.48,-3.65 -22.39,-5.3 -1.47,-0.42 -1.96,-1.5 -1.46,-3.28 0.49,-1.76 1.47,-2.44 2.94,-2.03 8.27,2.31 15.71,2.71 22.34,1.21 6.63,-1.49 13.61,-5.43 20.96,-11.81 7.35,-6.39 16.18,-16.1 26.5,-29.14l154.99 -194.51c0.82,-0.72 1.98,-0.88 3.46,-0.46 1.47,0.4 2.24,1.1 2.29,2.06l43.13 249.29c3.95,24.66 8.42,41.73 13.4,51.24 5,9.51 12.35,15.62 22.1,18.34zm282.82 138.32c-6.14,7.66 -9.58,14.04 -10.3,19.14 -0.76,5.1 1.24,10.71 5.95,16.85 4.72,6.12 13.42,14.27 26.1,24.42 0.72,0.57 0.5,1.57 -0.64,3.01 -1.15,1.44 -2.09,1.86 -2.8,1.29 -9.81,-7.85 -17.38,-14.11 -22.7,-18.75l-30.95 -25.34 -24.34 -18.9c-4.74,-3.39 -10.94,-8.16 -18.6,-14.28 -0.48,-0.39 -0.15,-1.3 1.01,-2.73 1.14,-1.44 1.95,-1.96 2.43,-1.58 9.09,7.28 16.22,11.99 21.37,14.14 5.15,2.16 9.83,2.08 14.04,-0.26 4.22,-2.31 9.2,-7.06 14.94,-14.24l133 -166.24c5.75,-7.18 9.24,-13.02 10.48,-17.53 1.25,-4.49 0.3,-9.09 -2.83,-13.75 -3.14,-4.67 -9.26,-10.64 -18.35,-17.92 -0.48,-0.39 -0.14,-1.28 1.01,-2.73 1.14,-1.43 1.96,-1.96 2.44,-1.59l17.66 14.74c9.68,8.51 17.5,15.17 23.49,19.97 5.98,4.78 12.97,9.78 20.97,15 2.87,2.3 7.56,5.76 14.07,10.37 6.51,4.63 12.04,8.76 16.59,12.39 22.02,17.63 35.75,36.66 41.18,57.09 5.44,20.45 0.11,40.73 -15.98,60.84 -12.64,15.79 -27.16,25.97 -43.56,30.5 -16.39,4.56 -32.8,4.59 -49.23,0.09 -16.41,-4.5 -31.09,-11.92 -44.02,-22.26 -6.94,-5.56 -12.2,-10.76 -15.79,-15.59 -0.71,-0.58 -0.6,-1.47 0.36,-2.67 0.57,-0.71 1.32,-1.28 2.26,-1.71 0.94,-0.44 1.54,-0.34 1.84,0.28 3.06,4.02 6.98,7.95 11.76,11.78 15.81,12.64 33.28,18.17 52.4,16.59 19.12,-1.57 36.44,-12.06 51.95,-31.45 15.13,-18.92 21.92,-37.93 20.33,-57.05 -1.58,-19.13 -10.39,-35.11 -26.43,-47.94 -8.61,-6.9 -15.22,-11.4 -19.81,-13.5 -4.6,-2.11 -9.13,-2.1 -13.58,0.04 -4.45,2.12 -9.94,7.26 -16.44,15.4l-131.28 164.08zm314.32 354.89c-5.13,-5.7 -5.18,-25.34 -0.16,-58.94 5.02,-33.61 14.45,-77.06 28.33,-130.38l23.03 13.9c-10.63,45.46 -17.86,81.98 -21.7,109.57 -3.83,27.59 -4.67,49.68 -2.5,66.29 2.16,16.61 7.66,29.82 16.48,39.61 0.61,0.69 0.24,1.64 -1.13,2.87 -1.36,1.23 -2.35,1.51 -2.97,0.82l-39.38 -43.74zm137.07 -279.34c16.21,18 24.62,35.6 25.24,52.77 0.61,17.18 -5.91,31.93 -19.57,44.23 -12.09,10.88 -26.25,17.24 -42.52,19.09 -16.28,1.87 -32.7,-0.57 -49.27,-7.29 -16.58,-6.74 -31.03,-16.94 -43.33,-30.61 -1.23,-1.36 -5.51,-6.8 -12.82,-16.3l-77.58 69.84c-7.06,6.36 -11.58,11.66 -13.53,15.91 -1.95,4.22 -1.71,8.86 0.74,13.87 2.45,5.01 7.57,11.85 15.37,20.51 0.61,0.68 0.24,1.63 -1.13,2.86 -1.37,1.23 -2.35,1.5 -2.97,0.83 -6.36,-7.07 -11.27,-12.76 -14.73,-17.05l-20.9 -23.9 -21.26 -22.93c-3.92,-3.89 -9.26,-9.6 -16.04,-17.12 -0.4,-0.45 0.08,-1.29 1.44,-2.53 1.37,-1.23 2.26,-1.6 2.66,-1.16 7.79,8.66 14.17,14.48 19.11,17.45 4.95,2.97 9.73,3.81 14.36,2.53 4.63,-1.27 10.36,-4.99 17.19,-11.14l158.22 -142.45c6.84,-6.16 11.19,-11.4 13.04,-15.77 1.86,-4.34 1.62,-9.08 -0.72,-14.19 -2.33,-5.11 -7.4,-12 -15.19,-20.65 -0.62,-0.69 -0.24,-1.65 1.12,-2.88 1.37,-1.23 2.36,-1.51 2.98,-0.82l14.73 17.06c8.16,9.97 14.9,17.92 20.24,23.85 4.51,5.01 8.83,9.58 12.95,13.7 4.14,4.12 7.64,7.57 10.54,10.32 8.48,8.04 15.68,15.36 21.63,21.97zm-25.18 82.68c17.77,-15.99 27,-31.41 27.67,-46.25 0.67,-14.83 -5.77,-29.76 -19.3,-44.8 -8,-8.88 -15.14,-13.6 -21.4,-14.14 -6.27,-0.54 -14.3,3.58 -24.1,12.41l-71.76 64.61c4.01,6.29 9.61,13.42 16.79,21.39 16,17.77 31.31,26.99 45.92,27.65 14.62,0.65 30.01,-6.3 46.18,-20.87zm119.3 285.09l67.93 101.16 -5.84 7.8 -72.29 -107.65 10.2 -1.31zm18.85 261.52c0.69,1.01 0.26,2.03 -1.26,3.05 -1.53,1.04 -2.64,1.04 -3.32,0.02 -3.24,-4.83 -8.03,-12.51 -14.36,-23.04 -6.32,-10.51 -11.03,-18.07 -14.11,-22.65 -3.76,-5.6 -8.79,-12.56 -15.12,-20.87 -5.97,-7.79 -10.41,-13.87 -13.32,-18.19 -0.69,-1.02 -0.26,-2.03 1.27,-3.07 1.53,-1.02 2.63,-1.03 3.31,-0.01 6.5,9.67 12.04,16.02 16.65,19.02 4.6,2.99 9.19,2.96 13.77,-0.11 3.82,-2.57 8.14,-7.68 12.96,-15.35l122.13 -204.98 18.25 1.6 -224.96 43.61c-11.04,2.24 -19.37,5.24 -24.97,9 -15.01,10.09 -14.15,27.61 2.6,52.54 0.85,1.27 0.52,2.42 -1,3.45 -1.54,1.03 -2.72,0.89 -3.58,-0.38 -3.07,-4.57 -7.27,-11.36 -12.57,-20.35 -5.98,-10.02 -11.38,-18.59 -16.15,-25.71 -4.45,-6.62 -9.83,-14.09 -16.15,-22.4 -5.63,-7.28 -10.16,-13.48 -13.57,-18.57 -0.86,-1.28 -0.52,-2.42 1.01,-3.45 1.52,-1.02 2.71,-0.89 3.56,0.38 4.79,7.13 10.19,12.26 16.19,15.43 6.01,3.17 13.88,4.72 23.61,4.65 9.74,-0.08 22.76,-1.72 39.07,-4.92l244.21 -47.1c1.1,-0.01 2.08,0.62 2.93,1.89 0.86,1.27 0.99,2.3 0.4,3.06l-129.24 217.5c-13.02,21.3 -20.72,37.18 -23.11,47.65 -2.39,10.46 -0.77,19.9 4.87,28.3zm71.82 169.92c-1.25,0.24 -2.5,-1.05 -3.76,-3.84 -1.02,-2.24 -1.17,-4.02 -0.44,-5.37l178.98 -207.27c8.88,-10.1 14.34,-18.66 16.37,-25.64 2.04,-6.99 1.09,-14.81 -2.85,-23.46 -0.37,-0.83 0.28,-1.63 1.95,-2.39 1.67,-0.76 2.7,-0.73 3.09,0.1l6.8 16.1c3.01,8.06 5.59,14.47 7.75,19.21 4.56,10.04 9.8,20.8 15.69,32.26l8.23 16.97c0.39,0.83 -0.27,1.63 -1.93,2.39 -1.68,0.78 -2.71,0.73 -3.09,-0.1 -3.81,-8.38 -7.62,-14.13 -11.41,-17.3 -3.79,-3.15 -8.07,-3.65 -12.81,-1.48 -4.18,1.9 -8.56,5.59 -13.15,11.04l-157.34 183.78 -26.94 -5.92 161.8 -7.47 -6.36 10.47 -160.58 7.92zm371.65 123.86c0.26,0.56 -0.46,1.22 -2.13,1.98 -1.68,0.76 -2.65,0.86 -2.9,0.3 -4.31,-9.48 -10.57,-16.57 -18.77,-21.26 -8.2,-4.69 -19.44,-6.82 -33.73,-6.38l-263.64 12.4c-1.25,0.23 -2.49,-1.05 -3.76,-3.83 -1.02,-2.24 -1.17,-4.02 -0.43,-5.37l179.17 -206.86c8.59,-9.97 13.98,-18.49 16.16,-25.54 2.18,-7.06 1.43,-14.63 -2.26,-22.72 -0.38,-0.84 0.27,-1.63 1.95,-2.4 1.66,-0.76 2.7,-0.73 3.08,0.11l6.82 16.11c2.75,7.5 5.19,13.62 7.34,18.37 3.57,7.8 7.53,15.77 11.9,23.88l5.57 11.11c0.38,0.84 -0.28,1.64 -1.95,2.4 -1.68,0.77 -2.7,0.73 -3.08,-0.1 -2.28,-5.03 -4.42,-8.43 -6.42,-10.23 -1.99,-1.78 -4.24,-2.1 -6.76,-0.97 -3.35,1.54 -9.31,7.28 -17.91,17.26l-157.14 184.2 -26.95 -5.92 255.81 -11.86c6.87,-0.44 11.98,-1.42 15.33,-2.94 6.14,-2.79 9.43,-7.42 9.87,-13.84 0.44,-6.43 -1.82,-15.09 -6.78,-25.97 -0.37,-0.83 0.27,-1.64 1.95,-2.4 1.67,-0.76 2.7,-0.73 3.08,0.11l7.57 17.77c3.78,9.74 7.36,18.38 10.79,25.91 2.54,5.58 5.75,11.87 9.6,18.88l8.62 17.8zm-108.93 -144.93c9.06,-0.09 15.96,-1.2 20.7,-3.36 8.1,-3.69 9.41,-11.53 3.95,-23.53 -0.38,-0.83 0.26,-1.64 1.95,-2.4 1.67,-0.76 2.7,-0.73 3.07,0.11l3.96 9.83c1.99,5.83 4.38,11.81 7.17,17.95 2.55,5.59 5.74,11.87 9.6,18.87l8.23 16.97c0.26,0.55 -0.45,1.22 -2.13,1.98 -1.68,0.76 -2.64,0.87 -2.89,0.3 -4.32,-9.48 -10.41,-16.39 -18.28,-20.73 -7.87,-4.32 -19.08,-6.22 -33.65,-5.64l-102.86 4.89 6.35 -10.47 94.83 -4.77z"/>
   <path class="fil1" d="M6385.87 4369.69l2.06 10.42 -216.87 62.76c-15.32,4.43 -25.5,10.33 -30.56,17.7 -5.05,7.36 -5.82,17.08 -2.33,29.15 0.26,0.89 -0.5,1.59 -2.26,2.1 -1.77,0.51 -2.79,0.32 -3.04,-0.56 -2.13,-7.36 -3.6,-13.01 -4.41,-16.92l-5.96 -22.22 -6.96 -22.39c-1.48,-4.04 -3.37,-10.04 -5.68,-17.98 -0.17,-0.59 0.63,-1.13 2.4,-1.65 1.76,-0.5 2.73,-0.47 2.9,0.12 3.67,12.66 9.58,20.68 17.74,24.06 8.15,3.39 19.9,2.86 35.21,-1.57l217.76 -63.02zm-206.78 301.1c-0.59,0.17 -1.24,-0.43 -1.97,-1.82 -0.72,-1.38 -0.87,-2.46 -0.46,-3.22l187.23 -274.38c8.77,-12.75 14.29,-23.69 16.61,-32.81 2.3,-9.13 2.34,-17.52 0.13,-25.18 -0.26,-0.87 0.5,-1.57 2.27,-2.08 1.76,-0.51 2.77,-0.32 3.04,0.55l4.28 16.48c0.73,3.61 1.98,8.51 3.77,14.7 1.88,6.48 3.55,11.74 5.04,15.77 1.49,4.04 2.59,7.24 3.27,9.6 0.59,2.05 0.56,3.9 -0.09,5.52 -0.64,1.63 -2.33,3.78 -5.06,6.49 -4.27,5.07 -8.21,10.2 -11.82,15.4l-165.75 239.44 -40.49 15.54zm0 0l10.75 -14.11 219.08 -63.4c15.31,-4.44 25.62,-10.21 30.89,-17.33 5.3,-7.11 6.18,-16.7 2.69,-28.77 -0.18,-0.6 0.63,-1.14 2.4,-1.66 1.76,-0.5 2.73,-0.47 2.91,0.11l4.53 17.37c1.97,8.99 3.76,16.3 5.38,21.89 1.54,5.31 3.97,12.58 7.27,21.83l5.69 17.98c0.26,0.9 -0.5,1.6 -2.26,2.1 -1.77,0.52 -2.78,0.33 -3.04,-0.57 -3.58,-12.36 -9.56,-20.36 -17.96,-23.99 -8.39,-3.63 -20.25,-3.25 -35.56,1.19l-232.77 67.36zm185.43 163.57l21.8 119.89 -8.48 4.82 -23.19 -127.59 9.87 2.88zm-87.32 247.23c0.22,1.2 -0.57,1.97 -2.38,2.3 -1.82,0.33 -2.83,-0.11 -3.05,-1.32 -1.04,-5.72 -2.36,-14.68 -3.95,-26.85 -1.58,-12.18 -2.88,-20.97 -3.87,-26.41 -1.21,-6.63 -3.04,-15.03 -5.51,-25.17 -2.35,-9.53 -4,-16.88 -4.93,-22 -0.22,-1.22 0.57,-1.97 2.39,-2.3 1.8,-0.33 2.81,0.1 3.03,1.31 2.08,11.47 4.64,19.49 7.66,24.09 3.01,4.58 7.24,6.38 12.66,5.4 4.54,-0.82 10.53,-3.79 18.02,-8.88l193.92 -139.01 16.09 8.75 -223.62 -50.01c-11.02,-2.36 -19.85,-2.93 -26.49,-1.73 -17.8,3.24 -24.01,19.64 -18.63,49.19 0.27,1.51 -0.49,2.43 -2.3,2.76 -1.81,0.33 -2.85,-0.26 -3.13,-1.77 -0.98,-5.42 -2.11,-13.32 -3.37,-23.69 -1.48,-11.57 -2.99,-21.58 -4.53,-30.02 -1.43,-7.84 -3.37,-16.85 -5.84,-26.99 -2.25,-8.93 -3.92,-16.42 -5.01,-22.45 -0.27,-1.5 0.49,-2.42 2.3,-2.76 1.8,-0.32 2.85,0.26 3.12,1.78 1.54,8.44 4.43,15.3 8.67,20.62 4.23,5.3 10.83,9.87 19.78,13.7 8.95,3.82 21.54,7.53 37.78,11.11l242.66 54.51c1.01,0.43 1.65,1.4 1.92,2.91 0.27,1.51 -0.01,2.51 -0.85,2.96l-205.45 147.65c-20.45,14.32 -33.87,25.8 -40.23,34.44 -6.38,8.63 -8.67,17.93 -6.86,27.88z"/>
   <path class="fil1" d="M6485.99 6490.2c8.99,1.95 15.78,2.48 20.36,1.58 4.59,-0.88 8.28,-3.77 11.05,-8.66 2.78,-4.87 5.42,-13.02 7.88,-24.4 0.13,-0.6 1.09,-0.71 2.9,-0.31 1.79,0.38 2.63,0.88 2.5,1.47l-5.33 22.38c-3.31,12.45 -5.79,22.43 -7.42,29.92 -1.88,8.68 -3.88,19.38 -6.01,32.1l-4.13 21.22c-0.19,0.9 -1.2,1.15 -2.99,0.77 -1.8,-0.4 -2.59,-1.05 -2.41,-1.94 2.41,-11.09 3.29,-19.44 2.62,-25.08 -0.66,-5.63 -2.96,-9.9 -6.88,-12.78 -3.92,-2.89 -10.37,-5.31 -19.36,-7.26l-207.18 -44.88c-9.28,-2.01 -16.22,-2.59 -20.81,-1.69 -4.57,0.89 -8.19,3.79 -10.83,8.71 -2.62,4.92 -5.18,13.07 -7.65,24.46 -0.19,0.9 -1.18,1.15 -2.98,0.76 -1.8,-0.39 -2.6,-1.03 -2.4,-1.93 1.94,-8.99 3.65,-16.15 5.11,-21.47l7.27 -31.36 6.18 -30.66c0.87,-5.46 2.34,-12.98 4.42,-22.57 0.12,-0.6 1.09,-0.7 2.89,-0.32 1.79,0.39 2.62,0.89 2.49,1.48 -2.47,11.39 -3.51,19.87 -3.15,25.43 0.36,5.58 2.51,9.8 6.44,12.69 3.91,2.88 10.36,5.31 19.35,7.26l208.07 45.08zm-98.38 21.96l13.1 26.37 -97.8 47.5c-33.2,15.71 -56.9,28.06 -71.07,37.06 -14.19,9.01 -23.02,16.43 -26.48,22.26 -3.46,5.84 -6.49,14.75 -9.08,26.73 -0.2,0.91 -1.19,1.16 -2.98,0.77 -1.81,-0.39 -2.61,-1.03 -2.41,-1.93l10.9 -50.33c0.52,-2.41 1.38,-6.69 2.55,-12.86 1.18,-6.18 10.69,-13.14 28.52,-20.87 17.83,-7.74 34.29,-15.32 49.38,-22.71l105.37 -51.99zm71.21 103.43c7.76,12.02 14.02,18.56 18.82,19.6 5.98,1.29 10.9,-6.9 14.73,-24.58 0.13,-0.59 1.09,-0.7 2.9,-0.31 1.79,0.39 2.62,0.89 2.5,1.49l-4.65 19.22c-3.18,11.85 -5.86,22.72 -8.01,32.61 -2.13,9.88 -4.07,20.29 -5.81,31.2l-3.15 16.73c-0.2,0.9 -1.2,1.16 -2.99,0.76 -1.8,-0.39 -2.6,-1.03 -2.41,-1.93 2.66,-12.27 2.79,-25.91 0.39,-40.85 -2.42,-14.94 -8.16,-29.68 -17.25,-44.2l-87.87 -139.48 2.44 -11.23 90.36 140.97zm-177.32 239.53l-33.89 117.05 -9.73 0.54 36.06 -124.56 7.56 6.97zm-188.3 182.46c-0.34,1.17 -1.4,1.5 -3.16,0.99 -1.77,-0.51 -2.48,-1.35 -2.14,-2.52 1.62,-5.6 4.42,-14.21 8.43,-25.82 4,-11.59 6.76,-20.06 8.29,-25.36 1.88,-6.47 3.97,-14.81 6.29,-24.99 2.13,-9.59 3.92,-16.89 5.37,-21.9 0.35,-1.17 1.4,-1.51 3.17,-0.99 1.76,0.5 2.47,1.35 2.14,2.53 -3.24,11.19 -4.54,19.51 -3.88,24.97 0.66,5.45 3.64,8.95 8.93,10.48 4.42,1.28 11.11,1.3 20.09,0.07l235.54 -38.09 10.5 15.01 -177.93 -144.38c-8.82,-7.02 -16.47,-11.47 -22.95,-13.35 -17.37,-5.02 -30.24,6.89 -38.6,35.75 -0.42,1.47 -1.51,1.95 -3.28,1.44 -1.77,-0.52 -2.44,-1.51 -2.01,-2.99 1.53,-5.29 4.04,-12.86 7.53,-22.7 3.82,-11.02 6.93,-20.66 9.32,-28.89 2.22,-7.66 4.48,-16.58 6.79,-26.76 1.96,-9.01 3.81,-16.46 5.51,-22.35 0.43,-1.47 1.52,-1.95 3.29,-1.42 1.77,0.51 2.44,1.49 2.01,2.96 -2.39,8.25 -2.86,15.68 -1.43,22.33 1.43,6.64 5.29,13.66 11.6,21.07 6.33,7.41 15.94,16.34 28.88,26.78l192.98 156.89c0.72,0.83 0.85,1.99 0.43,3.47 -0.43,1.47 -1.13,2.23 -2.09,2.26l-249.7 40.69c-24.69,3.71 -41.81,8.01 -51.37,12.9 -9.55,4.9 -15.74,12.2 -18.55,21.92zm205.19 216.05l-5.24 9.25 -205.46 -93.55c-14.52,-6.61 -26.09,-8.77 -34.72,-6.46 -8.62,2.3 -15.53,9.17 -20.74,20.61 -0.39,0.84 -1.41,0.87 -3.09,0.11 -1.68,-0.76 -2.32,-1.56 -1.94,-2.4 3.18,-6.98 5.73,-12.21 7.66,-15.71l9.95 -20.74 9.3 -21.53c1.5,-4.03 3.96,-9.81 7.39,-17.35 0.26,-0.55 1.22,-0.45 2.9,0.31 1.66,0.76 2.37,1.42 2.12,1.98 -5.46,12 -6.2,21.93 -2.21,29.82 3.99,7.88 13.25,15.12 27.75,21.73l206.33 93.93zm-353 93.93c-0.55,-0.26 -0.65,-1.13 -0.3,-2.67 0.36,-1.51 0.93,-2.42 1.75,-2.74l320.75 -86.37c14.96,-3.96 26.26,-8.67 33.95,-14.09 7.69,-5.43 13.2,-11.76 16.5,-19.02 0.38,-0.84 1.41,-0.87 3.08,-0.11 1.67,0.76 2.33,1.56 1.94,2.4l-7.47 15.29c-1.8,3.22 -4.04,7.76 -6.71,13.62 -2.79,6.13 -4.93,11.22 -6.44,15.25 -1.49,4.03 -2.75,7.18 -3.76,9.4 -0.9,1.96 -2.12,3.34 -3.66,4.15 -1.55,0.81 -4.24,1.35 -8.08,1.63 -6.54,1.07 -12.87,2.39 -18.98,3.99l-281.7 73.83 -40.87 -14.56zm0 0l17.36 -3.72 207.57 94.51c14.5,6.61 26.08,8.93 34.72,6.96 8.64,-1.94 15.57,-8.66 20.77,-20.09 0.26,-0.56 1.22,-0.46 2.9,0.3 1.67,0.76 2.39,1.43 2.13,1.98l-7.85 16.14c-4.37,8.11 -7.77,14.82 -10.17,20.12 -2.3,5.03 -5.18,12.13 -8.7,21.3l-7.38 17.35c-0.39,0.85 -1.42,0.88 -3.09,0.13 -1.68,-0.77 -2.32,-1.57 -1.94,-2.41 5.33,-11.71 6,-21.69 1.99,-29.91 -4,-8.22 -13.25,-15.64 -27.76,-22.25l-220.55 -100.41zm114.17 408.4c-10.06,16.49 -19.71,29.63 -28.92,39.46 -9.22,9.8 -20.15,18.58 -32.77,26.32 -2.17,1.19 -3.72,1.68 -4.67,1.46 -0.94,-0.22 -3.14,-1.02 -6.61,-2.42l-49.58 -23.79c-0.79,-0.48 -0.8,-1.48 -0.05,-3 0.74,-1.52 1.59,-2.17 2.54,-1.96 51.04,14.64 89.34,1.03 114.89,-40.83 13.42,-21.98 20.44,-44.36 21.06,-67.15 0.62,-22.79 -5.24,-44.24 -17.57,-64.34 -12.34,-20.1 -30.41,-37.41 -54.21,-51.93 -22.77,-13.91 -46.75,-21.55 -71.95,-22.92 -25.21,-1.37 -48.53,3.16 -69.97,13.59 -21.45,10.43 -38.34,25.72 -50.63,45.86 -13.1,21.46 -18.48,42.05 -16.17,61.78 2.33,19.74 12.06,39.68 29.2,59.85 0.52,0.31 0.39,1.14 -0.41,2.45 -1.12,1.82 -2.07,2.5 -2.86,2.02l-40.77 -30.28c-2.98,-2.17 -4.71,-3.77 -5.17,-4.77 -0.47,-1 -0.75,-2.6 -0.83,-4.82 1.77,-17.59 4.97,-33.15 9.62,-46.65 4.65,-13.51 11.68,-27.97 21.1,-43.41 16.78,-27.48 37.19,-48.68 61.23,-63.65 24.02,-14.96 49.53,-22.46 76.5,-22.52 26.97,-0.06 53.15,7.65 78.52,23.15 24.6,15.01 42.64,34.45 54.1,58.34 11.47,23.87 15.83,49.8 13.12,77.77 -2.7,27.98 -12.28,55.44 -28.74,82.39zm-360.33 14.31c0.39,-0.47 1.29,-0.13 2.72,1.03 1.42,1.16 1.94,1.98 1.56,2.45 -7.36,9.04 -12.13,16.11 -14.33,21.24 -2.21,5.13 -2.21,9.87 -0.02,14.23 2.18,4.34 6.84,9.43 13.97,15.23l165.06 134.47c7.14,5.81 13,9.29 17.58,10.46 4.59,1.17 9.23,0.21 13.92,-2.9 4.7,-3.09 10.72,-9.16 18.09,-18.18 0.37,-0.47 1.28,-0.14 2.72,1.03 1.42,1.16 1.94,1.98 1.55,2.45l-116.74 143.32c-1.75,2.14 -3.69,2.34 -5.83,0.59l-44.44 -35c-0.71,-0.58 -0.6,-1.57 0.36,-2.98 0.94,-1.4 1.78,-1.81 2.48,-1.24 13.19,9.56 26.08,13.74 38.71,12.55 12.63,-1.18 23.58,-7.46 32.88,-18.87l17.71 -21.75c6.78,-8.32 11.17,-15.03 13.15,-20.14 1.98,-5.1 2.06,-9.69 0.22,-13.75 -1.82,-4.06 -6.07,-8.81 -12.72,-14.23l-161.85 -131.84c-6.43,-5.23 -11.87,-8.38 -16.33,-9.45 -4.47,-1.07 -8.85,-0.19 -13.14,2.65 -4.28,2.83 -9.72,8.29 -16.29,16.38l-23.24 28.52c-9.3,11.4 -13,24.2 -11.11,38.39 1.88,14.19 8.9,28.39 21.02,42.63 0.47,0.38 0.32,1.06 -0.44,2 -0.59,0.72 -1.3,1.23 -2.14,1.53 -0.85,0.3 -1.37,0.35 -1.62,0.16 -13.24,-14.33 -28.04,-28.18 -44.44,-41.54 -1.91,-1.55 -2.94,-3.08 -3.09,-4.59 -0.16,-1.51 0.64,-3.33 2.38,-5.47l121.69 -149.38zm-22.35 197.08c10.45,8.51 20.02,12.07 28.7,10.64 8.68,-1.44 17.85,-8.09 27.53,-19.98l43.57 -53.48 7.49 6.11 -44.43 54.54c-9.3,11.41 -14.04,21.1 -14.19,29.08 -0.18,7.96 4.27,15.62 13.29,22.98 0.47,0.38 0.14,1.29 -1.03,2.73 -1.15,1.41 -1.98,1.93 -2.46,1.55l-28.58 -23.89c-6.9,-5.6 -12.22,-9.75 -15.98,-12.41l-17.4 -13.59c-0.48,-0.38 -0.13,-1.29 1.03,-2.72 1.16,-1.41 1.98,-1.95 2.46,-1.56zm-195.48 104.37c-5.95,-6.62 -10.93,-10.8 -14.97,-12.53 -4.02,-1.74 -8.33,-1.48 -12.9,0.76 -4.57,2.26 -10.95,7.08 -19.17,14.46l-37.28 33.48c-13.01,11.67 -19.81,24.98 -20.4,39.94 -0.57,14.94 4.22,30.61 14.42,47.01 0.61,0.67 0.25,1.53 -1.12,2.54 -1.35,1.02 -2.34,1.18 -2.96,0.5 -14.94,-20.78 -27.95,-37.33 -39.01,-49.65 -1.63,-1.82 -2.47,-3.45 -2.51,-4.85 -0.03,-1.41 0.98,-3.05 3.03,-4.88l158.06 -141.95c0.45,-0.41 1.31,0.06 2.54,1.44 1.22,1.36 1.6,2.25 1.15,2.66 -8.67,7.78 -14.48,14.04 -17.45,18.76 -2.97,4.72 -3.65,9.36 -2.04,13.9 1.59,4.54 5.47,10.23 11.62,17.07l142.25 158.39c6.14,6.85 11.32,11.25 15.57,13.21 4.24,1.97 8.92,1.79 14.02,-0.55 5.13,-2.32 12.02,-7.38 20.69,-15.16 0.45,-0.41 1.29,0.06 2.52,1.44 1.23,1.36 1.62,2.26 1.17,2.66l-17.08 14.71c-9.99,8.16 -17.95,14.89 -23.88,20.22 -6.38,5.73 -14.16,13.13 -23.34,22.18l-16.1 15.09c-0.69,0.63 -1.65,0.24 -2.88,-1.12 -1.23,-1.38 -1.5,-2.37 -0.81,-2.98 8.44,-7.58 14.15,-13.84 17.12,-18.78 2.99,-4.94 3.67,-9.68 2.06,-14.22 -1.59,-4.54 -5.47,-10.22 -11.62,-17.07l-140.7 -156.68zm-203.54 282.35l-107.73 56.95 -7.15 -6.63 114.64 -60.6 0.24 10.28zm-262.06 -8.68c-1.08,0.58 -2.05,0.05 -2.9,-1.57 -0.87,-1.63 -0.76,-2.73 0.33,-3.29 5.15,-2.73 13.29,-6.69 24.42,-11.87 11.12,-5.19 19.12,-9.08 24,-11.67 5.96,-3.14 13.41,-7.43 22.34,-12.83 8.38,-5.13 14.88,-8.91 19.49,-11.35 1.08,-0.58 2.05,-0.04 2.9,1.59 0.87,1.62 0.77,2.71 -0.33,3.28 -10.29,5.45 -17.18,10.31 -20.65,14.56 -3.46,4.26 -3.91,8.84 -1.34,13.72 2.16,4.06 6.8,8.89 13.91,14.49l191.04 142.95 -3.49 17.98 -19.78 -228.29c-1.08,-11.21 -3.19,-19.81 -6.35,-25.77 -8.45,-16 -25.97,-16.97 -52.51,-2.93 -1.36,0.72 -2.47,0.26 -3.33,-1.36 -0.86,-1.63 -0.61,-2.8 0.74,-3.52 4.88,-2.57 12.07,-6.03 21.58,-10.36 10.58,-4.89 19.67,-9.37 27.25,-13.37 7.04,-3.73 15.03,-8.29 23.97,-13.71 7.83,-4.84 14.47,-8.69 19.89,-11.55 1.36,-0.72 2.46,-0.26 3.31,1.37 0.87,1.62 0.62,2.79 -0.74,3.5 -7.58,4.01 -13.26,8.85 -17.04,14.48 -3.79,5.64 -6.15,13.31 -7.1,22.99 -0.94,9.7 -0.68,22.82 0.8,39.38l21.24 247.79c-0.1,1.1 -0.84,2 -2.2,2.72 -1.35,0.72 -2.39,0.74 -3.08,0.08l-202.74 -151.33c-19.83,-15.19 -34.82,-24.5 -44.97,-27.98 -10.16,-3.47 -19.72,-2.85 -28.66,1.87zm-302.77 73.23c7.53,-1.5 24.43,8.52 50.73,30.02 26.31,21.5 58.81,51.83 97.54,91.04l-23.74 12.68c-33.62,-32.4 -61.3,-57.3 -83.04,-74.7 -21.74,-17.41 -40.3,-29.43 -55.68,-36.07 -15.37,-6.64 -29.54,-8.67 -42.47,-6.1 -0.89,0.18 -1.53,-0.63 -1.88,-2.43 -0.36,-1.81 -0.09,-2.8 0.81,-2.97l57.73 -11.47zm169.9 260.68c-23.76,4.72 -43.19,2.94 -58.26,-5.31 -15.07,-8.27 -24.41,-21.41 -27.99,-39.45 -3.16,-15.94 -1.38,-31.37 5.35,-46.29 6.72,-14.94 17.22,-27.8 31.47,-38.61 14.28,-10.8 30.42,-17.99 48.46,-21.57 1.81,-0.36 8.67,-1.25 20.57,-2.68l-20.32 -102.38c-1.85,-9.33 -4.09,-15.91 -6.74,-19.76 -2.64,-3.84 -6.74,-6.01 -12.3,-6.47 -5.56,-0.45 -14.06,0.45 -25.49,2.72 -0.89,0.18 -1.52,-0.64 -1.87,-2.44 -0.37,-1.8 -0.1,-2.79 0.8,-2.97 9.33,-1.85 16.72,-3.17 22.2,-3.94l31.21 -5.73 30.57 -6.53c5.36,-1.38 13,-3.06 22.92,-5.03 0.59,-0.11 1.08,0.73 1.44,2.54 0.35,1.8 0.23,2.76 -0.37,2.87 -11.42,2.27 -19.68,4.78 -24.76,7.51 -5.08,2.73 -8.25,6.4 -9.52,11.03 -1.27,4.62 -1.01,11.45 0.78,20.47l41.44 208.82c1.8,9.03 4.08,15.45 6.88,19.27 2.8,3.83 6.98,6.04 12.57,6.64 5.59,0.61 14.1,-0.22 25.52,-2.48 0.91,-0.18 1.53,0.62 1.9,2.44 0.35,1.8 0.08,2.8 -0.82,2.98l-22.2 3.93c-12.74,1.9 -23.02,3.63 -30.84,5.19 -6.62,1.31 -12.74,2.68 -18.4,4.11 -5.66,1.44 -10.41,2.69 -14.26,3.78 -11.24,3.16 -21.23,5.61 -29.94,7.34zm-58.17 -63.92c4.66,23.45 13.18,39.25 25.58,47.43 12.42,8.16 28.54,10.26 48.38,6.33 11.72,-2.33 19.42,-6.05 23.1,-11.16 3.67,-5.11 4.23,-14.12 1.66,-27.04l-18.8 -94.72c-7.45,0.24 -16.44,1.39 -26.96,3.48 -23.46,4.66 -39.22,13.1 -47.25,25.31 -8.06,12.23 -9.95,29.01 -5.71,50.37zm-313.06 -153.12c0.38,-9.51 -0.27,-16.44 -1.94,-20.79 -1.66,-4.36 -5.15,-7.41 -10.45,-9.15 -5.3,-1.75 -13.76,-2.86 -25.41,-3.32 -0.91,-0.03 -1.35,-0.97 -1.28,-2.8 0.08,-1.84 0.59,-2.74 1.5,-2.7 9.18,0.35 16.53,0.8 22.03,1.32l32.61 1.75 31.72 0.8c5.53,-0.09 13.03,0.05 22.54,0.42 0.91,0.05 1.34,0.97 1.27,2.82 -0.08,1.83 -0.58,2.73 -1.49,2.7 -11.64,-0.46 -20.18,-0.03 -25.6,1.29 -5.41,1.32 -9.21,4.16 -11.38,8.52 -2.17,4.37 -3.43,11.14 -3.78,20.34l-8.41 212.73c-0.36,9.19 0.36,15.96 2.19,20.34 1.82,4.37 5.39,7.49 10.67,9.39 5.29,1.89 13.76,3.07 25.4,3.53 0.91,0.04 1.35,0.97 1.28,2.81 -0.08,1.84 -0.59,2.75 -1.5,2.71l-22.49 -1.36c-12.84,-1.11 -23.4,-1.83 -31.66,-2.17 -9.2,-0.35 -20.24,-0.48 -33.12,-0.38l-21.63 -0.39c-0.9,-0.03 -1.34,-0.98 -1.27,-2.81 0.08,-1.85 0.58,-2.74 1.49,-2.71 11.34,0.45 19.79,-0.14 25.39,-1.76 5.59,-1.62 9.38,-4.61 11.4,-8.98 2.01,-4.37 3.19,-11.15 3.55,-20.34l8.37 -211.81zm-241.67 66.28l-117.37 -32.74 -0.64 -9.73 124.91 34.84 -6.9 7.63zm-184.29 -186.51c-1.18,-0.33 -1.52,-1.38 -1.03,-3.14 0.5,-1.78 1.33,-2.5 2.51,-2.17 5.61,1.57 14.24,4.29 25.89,8.17 11.64,3.89 20.12,6.57 25.45,8.05 6.49,1.81 14.84,3.82 25.04,6.03 9.62,2.04 16.93,3.77 21.96,5.17 1.17,0.33 1.52,1.38 1.02,3.16 -0.49,1.76 -1.33,2.48 -2.5,2.16 -11.23,-3.14 -19.57,-4.35 -25.01,-3.64 -5.45,0.71 -8.92,3.73 -10.4,9.03 -1.23,4.44 -1.19,11.13 0.13,20.1l40.39 235.15 -14.9 10.64 142.63 -179.34c6.93,-8.88 11.3,-16.58 13.12,-23.07 4.85,-17.42 -7.19,-30.17 -36.12,-38.25 -1.47,-0.4 -1.97,-1.5 -1.48,-3.26 0.5,-1.78 1.49,-2.46 2.96,-2.04 5.31,1.48 12.91,3.91 22.78,7.3 11.06,3.73 20.73,6.74 28.99,9.04 7.68,2.14 16.62,4.32 26.83,6.52 9.01,1.88 16.48,3.65 22.39,5.3 1.47,0.41 1.96,1.5 1.46,3.28 -0.49,1.76 -1.47,2.44 -2.94,2.03 -8.27,-2.31 -15.71,-2.71 -22.34,-1.21 -6.63,1.49 -13.61,5.43 -20.96,11.81 -7.35,6.39 -16.18,16.1 -26.5,29.14l-154.99 194.51c-0.82,0.72 -1.98,0.88 -3.46,0.46 -1.47,-0.4 -2.24,-1.1 -2.29,-2.06l-43.13 -249.29c-3.95,-24.66 -8.42,-41.73 -13.41,-51.24 -4.99,-9.51 -12.34,-15.62 -22.09,-18.34zm-282.82 -138.33c6.14,-7.66 9.57,-14.03 10.3,-19.13 0.75,-5.11 -1.24,-10.71 -5.95,-16.85 -4.72,-6.12 -13.42,-14.27 -26.1,-24.42 -0.72,-0.57 -0.5,-1.57 0.64,-3.01 1.15,-1.44 2.09,-1.86 2.8,-1.29 9.81,7.85 17.38,14.11 22.69,18.75l30.96 25.34 24.34 18.9c4.74,3.39 10.94,8.15 18.6,14.28 0.48,0.39 0.15,1.29 -1.01,2.73 -1.14,1.44 -1.95,1.96 -2.43,1.58 -9.09,-7.28 -16.22,-11.99 -21.37,-14.15 -5.15,-2.15 -9.83,-2.07 -14.04,0.27 -4.22,2.31 -9.2,7.06 -14.94,14.24l-133 166.24c-5.75,7.18 -9.24,13.02 -10.48,17.53 -1.25,4.49 -0.31,9.09 2.83,13.75 3.14,4.67 9.26,10.64 18.35,17.92 0.48,0.39 0.14,1.28 -1.01,2.73 -1.14,1.43 -1.96,1.96 -2.44,1.59l-17.66 -14.74c-9.68,-8.51 -17.5,-15.17 -23.49,-19.97 -5.98,-4.78 -12.97,-9.78 -20.97,-15 -2.87,-2.3 -7.56,-5.76 -14.07,-10.37 -6.51,-4.63 -12.04,-8.76 -16.59,-12.39 -22.02,-17.63 -35.75,-36.66 -41.18,-57.09 -5.44,-20.45 -0.11,-40.73 15.98,-60.84 12.63,-15.79 27.16,-25.97 43.55,-30.5 16.4,-4.56 32.81,-4.59 49.24,-0.09 16.41,4.5 31.09,11.92 44.01,22.26 6.95,5.56 12.21,10.76 15.8,15.59 0.71,0.58 0.6,1.47 -0.36,2.67 -0.57,0.71 -1.32,1.28 -2.26,1.71 -0.94,0.44 -1.54,0.34 -1.84,-0.28 -3.06,-4.03 -6.98,-7.95 -11.76,-11.78 -15.81,-12.64 -33.28,-18.17 -52.4,-16.59 -19.12,1.57 -36.44,12.06 -51.95,31.45 -15.13,18.92 -21.92,37.93 -20.33,57.05 1.58,19.13 10.39,35.11 26.43,47.94 8.61,6.9 15.22,11.4 19.81,13.5 4.6,2.11 9.13,2.1 13.58,-0.04 4.45,-2.13 9.94,-7.26 16.44,-15.4l131.28 -164.09zm-314.32 -354.88c5.13,5.7 5.18,25.34 0.16,58.94 -5.02,33.61 -14.45,77.06 -28.33,130.38l-23.03 -13.9c10.63,-45.46 17.86,-81.99 21.7,-109.57 3.83,-27.59 4.67,-49.68 2.5,-66.29 -2.16,-16.61 -7.66,-29.82 -16.48,-39.61 -0.61,-0.69 -0.24,-1.64 1.13,-2.87 1.36,-1.23 2.35,-1.51 2.97,-0.82l39.38 43.74zm-137.07 279.34c-16.21,-18 -24.62,-35.6 -25.24,-52.77 -0.61,-17.18 5.91,-31.93 19.57,-44.23 12.09,-10.88 26.25,-17.24 42.52,-19.09 16.28,-1.87 32.7,0.57 49.27,7.29 16.58,6.74 31.02,16.94 43.33,30.61 1.23,1.36 5.5,6.8 12.82,16.3l77.58 -69.85c7.06,-6.35 11.57,-11.65 13.53,-15.9 1.95,-4.22 1.71,-8.86 -0.74,-13.87 -2.46,-5.01 -7.57,-11.85 -15.37,-20.51 -0.61,-0.68 -0.24,-1.63 1.13,-2.86 1.37,-1.23 2.35,-1.5 2.97,-0.83 6.36,7.07 11.27,12.76 14.73,17.05l20.9 23.9 21.26 22.92c3.92,3.9 9.26,9.61 16.04,17.13 0.4,0.45 -0.08,1.29 -1.44,2.53 -1.37,1.23 -2.26,1.6 -2.66,1.16 -7.79,-8.66 -14.17,-14.48 -19.11,-17.45 -4.95,-2.97 -9.74,-3.81 -14.36,-2.53 -4.63,1.27 -10.36,4.99 -17.19,11.14l-158.22 142.45c-6.84,6.16 -11.19,11.4 -13.04,15.77 -1.86,4.34 -1.62,9.08 0.72,14.19 2.33,5.11 7.4,12 15.19,20.65 0.62,0.69 0.24,1.65 -1.12,2.88 -1.37,1.23 -2.36,1.51 -2.98,0.82l-14.73 -17.06c-8.16,-9.97 -14.9,-17.92 -20.24,-23.85 -4.51,-5.01 -8.83,-9.58 -12.95,-13.7 -4.14,-4.12 -7.64,-7.57 -10.54,-10.32 -8.48,-8.04 -15.68,-15.36 -21.63,-21.97zm25.18 -82.68c-17.77,15.99 -27.01,31.41 -27.67,46.25 -0.67,14.83 5.77,29.76 19.3,44.8 8,8.88 15.14,13.6 21.4,14.14 6.27,0.54 14.3,-3.58 24.1,-12.41l71.76 -64.61c-4.01,-6.29 -9.61,-13.42 -16.79,-21.39 -16,-17.77 -31.31,-26.99 -45.92,-27.65 -14.62,-0.65 -30.01,6.3 -46.18,20.87zm-119.3 -285.09l-67.93 -101.16 5.84 -7.8 72.29 107.65 -10.2 1.31zm-18.85 -261.52c-0.69,-1.01 -0.26,-2.03 1.26,-3.05 1.53,-1.04 2.64,-1.04 3.32,-0.03 3.24,4.84 8.03,12.52 14.36,23.05 6.32,10.51 11.03,18.07 14.11,22.65 3.76,5.6 8.79,12.56 15.12,20.87 5.97,7.79 10.41,13.87 13.32,18.19 0.69,1.02 0.26,2.03 -1.27,3.07 -1.53,1.02 -2.63,1.03 -3.31,0.01 -6.5,-9.68 -12.04,-16.02 -16.65,-19.02 -4.6,-2.99 -9.19,-2.96 -13.77,0.11 -3.82,2.57 -8.14,7.68 -12.96,15.35l-122.13 204.98 -18.25 -1.6 224.96 -43.61c11.04,-2.24 19.37,-5.24 24.97,-9 15.01,-10.09 14.15,-27.61 -2.6,-52.54 -0.85,-1.27 -0.52,-2.42 1,-3.45 1.53,-1.03 2.72,-0.89 3.58,0.38 3.07,4.57 7.27,11.36 12.57,20.35 5.98,10.02 11.38,18.59 16.15,25.71 4.45,6.62 9.83,14.09 16.15,22.4 5.63,7.28 10.16,13.48 13.57,18.57 0.85,1.28 0.52,2.42 -1.01,3.45 -1.52,1.02 -2.71,0.89 -3.56,-0.38 -4.79,-7.13 -10.19,-12.26 -16.19,-15.43 -6.01,-3.17 -13.88,-4.72 -23.61,-4.65 -9.74,0.08 -22.76,1.72 -39.07,4.92l-244.21 47.1c-1.1,0.01 -2.08,-0.62 -2.93,-1.89 -0.86,-1.27 -0.99,-2.3 -0.4,-3.06l129.24 -217.5c13.02,-21.3 20.72,-37.18 23.11,-47.65 2.38,-10.46 0.77,-19.9 -4.87,-28.3zm-71.82 -169.92c1.25,-0.24 2.5,1.05 3.76,3.83 1.02,2.25 1.17,4.03 0.44,5.38l-178.98 207.27c-8.88,10.1 -14.34,18.66 -16.37,25.64 -2.04,6.99 -1.09,14.81 2.84,23.46 0.38,0.83 -0.27,1.63 -1.94,2.39 -1.67,0.76 -2.7,0.73 -3.09,-0.1l-6.8 -16.1c-3.02,-8.06 -5.59,-14.47 -7.75,-19.21 -4.56,-10.04 -9.8,-20.8 -15.69,-32.26l-8.23 -16.97c-0.39,-0.83 0.27,-1.63 1.93,-2.4 1.68,-0.77 2.71,-0.72 3.09,0.11 3.81,8.38 7.62,14.13 11.41,17.3 3.79,3.15 8.07,3.65 12.81,1.48 4.18,-1.9 8.56,-5.59 13.15,-11.04l157.34 -183.78 26.94 5.92 -161.8 7.47 6.36 -10.47 160.58 -7.92zm-371.65 -123.86c-0.26,-0.56 0.46,-1.22 2.13,-1.98 1.68,-0.76 2.65,-0.86 2.9,-0.3 4.31,9.48 10.57,16.57 18.76,21.26 8.21,4.69 19.45,6.82 33.74,6.38l263.64 -12.4c1.25,-0.23 2.49,1.05 3.76,3.83 1.02,2.24 1.17,4.02 0.43,5.37l-179.17 206.86c-8.59,9.97 -13.98,18.49 -16.16,25.54 -2.18,7.06 -1.43,14.62 2.26,22.72 0.38,0.84 -0.27,1.63 -1.95,2.4 -1.67,0.76 -2.7,0.73 -3.08,-0.12l-6.82 -16.1c-2.75,-7.5 -5.19,-13.62 -7.35,-18.37 -3.56,-7.8 -7.52,-15.77 -11.89,-23.88l-5.57 -11.11c-0.38,-0.84 0.28,-1.64 1.95,-2.4 1.68,-0.77 2.7,-0.73 3.08,0.1 2.28,5.03 4.42,8.43 6.42,10.23 1.99,1.78 4.24,2.1 6.75,0.97 3.36,-1.54 9.32,-7.28 17.92,-17.26l157.14 -184.2 26.95 5.92 -255.81 11.86c-6.87,0.44 -11.98,1.42 -15.33,2.94 -6.14,2.79 -9.43,7.42 -9.87,13.84 -0.44,6.43 1.82,15.09 6.77,25.97 0.38,0.83 -0.26,1.63 -1.94,2.4 -1.67,0.76 -2.7,0.72 -3.08,-0.11l-7.57 -17.77c-3.78,-9.74 -7.36,-18.38 -10.79,-25.92 -2.54,-5.57 -5.75,-11.86 -9.6,-18.87l-8.62 -17.8zm108.93 144.93c-9.06,0.08 -15.96,1.2 -20.7,3.36 -8.1,3.69 -9.41,11.53 -3.95,23.53 0.38,0.83 -0.26,1.63 -1.95,2.4 -1.67,0.76 -2.7,0.72 -3.07,-0.11l-3.96 -9.83c-1.99,-5.83 -4.38,-11.81 -7.17,-17.95 -2.55,-5.59 -5.75,-11.87 -9.6,-18.87l-8.23 -16.97c-0.26,-0.55 0.45,-1.22 2.13,-1.98 1.68,-0.76 2.64,-0.87 2.89,-0.3 4.32,9.48 10.41,16.39 18.28,20.72 7.87,4.33 19.08,6.23 33.65,5.65l102.86 -4.89 -6.35 10.47 -94.83 4.77z"/>
   <path class="fil1" d="M2758.1 7060.28l-2.06 -10.42 216.87 -62.76c15.32,-4.43 25.5,-10.33 30.56,-17.7 5.05,-7.36 5.82,-17.08 2.33,-29.15 -0.26,-0.89 0.5,-1.59 2.26,-2.1 1.77,-0.51 2.79,-0.32 3.04,0.56 2.13,7.36 3.6,13.01 4.41,16.92l5.95 22.22 6.97 22.39c1.48,4.04 3.37,10.04 5.68,17.98 0.17,0.59 -0.63,1.13 -2.4,1.65 -1.76,0.5 -2.73,0.47 -2.9,-0.12 -3.67,-12.66 -9.58,-20.68 -17.74,-24.06 -8.16,-3.39 -19.9,-2.86 -35.21,1.57l-217.76 63.02zm206.78 -301.11c0.59,-0.16 1.24,0.44 1.97,1.83 0.72,1.38 0.87,2.46 0.46,3.22l-187.23 274.38c-8.77,12.75 -14.29,23.69 -16.61,32.81 -2.3,9.13 -2.34,17.52 -0.13,25.18 0.26,0.87 -0.5,1.57 -2.27,2.08 -1.76,0.51 -2.77,0.32 -3.04,-0.55l-4.28 -16.48c-0.73,-3.61 -1.98,-8.51 -3.77,-14.7 -1.88,-6.49 -3.55,-11.74 -5.05,-15.77 -1.49,-4.04 -2.58,-7.24 -3.26,-9.6 -0.59,-2.05 -0.56,-3.9 0.09,-5.52 0.64,-1.63 2.33,-3.78 5.06,-6.49 4.27,-5.07 8.21,-10.2 11.82,-15.4l165.75 -239.44 40.49 -15.55zm0 0l-10.75 14.12 -219.08 63.4c-15.31,4.44 -25.62,10.21 -30.89,17.33 -5.3,7.11 -6.18,16.7 -2.69,28.77 0.17,0.6 -0.63,1.14 -2.4,1.66 -1.76,0.5 -2.73,0.47 -2.91,-0.12l-4.53 -17.36c-1.97,-8.99 -3.76,-16.3 -5.38,-21.89 -1.54,-5.31 -3.97,-12.58 -7.27,-21.84l-5.69 -17.97c-0.26,-0.9 0.5,-1.6 2.26,-2.1 1.77,-0.52 2.78,-0.33 3.04,0.57 3.58,12.36 9.56,20.36 17.96,23.99 8.39,3.63 20.25,3.25 35.56,-1.19l232.77 -67.37zm-185.43 -163.56l-21.8 -119.9 8.48 -4.81 23.19 127.59 -9.87 -2.88zm87.32 -247.23c-0.22,-1.2 0.57,-1.97 2.38,-2.3 1.82,-0.33 2.83,0.11 3.05,1.32 1.04,5.72 2.36,14.68 3.95,26.85 1.58,12.17 2.88,20.97 3.87,26.41 1.2,6.63 3.04,15.03 5.51,25.17 2.35,9.53 4,16.88 4.93,22 0.22,1.22 -0.57,1.97 -2.39,2.3 -1.8,0.33 -2.81,-0.1 -3.03,-1.31 -2.09,-11.47 -4.64,-19.49 -7.66,-24.09 -3.01,-4.58 -7.24,-6.38 -12.66,-5.4 -4.54,0.82 -10.53,3.79 -18.02,8.88l-193.92 139.01 -16.09 -8.75 223.62 50.01c11.01,2.36 19.85,2.93 26.49,1.73 17.8,-3.24 24.01,-19.64 18.63,-49.19 -0.27,-1.51 0.49,-2.43 2.3,-2.76 1.81,-0.33 2.85,0.26 3.13,1.77 0.98,5.42 2.11,13.32 3.37,23.69 1.48,11.57 2.99,21.58 4.53,30.01 1.43,7.85 3.37,16.86 5.84,27 2.25,8.93 3.92,16.42 5.01,22.45 0.27,1.5 -0.49,2.42 -2.3,2.76 -1.8,0.32 -2.85,-0.27 -3.12,-1.78 -1.54,-8.44 -4.43,-15.31 -8.67,-20.62 -4.23,-5.3 -10.83,-9.87 -19.78,-13.7 -8.95,-3.82 -21.54,-7.53 -37.78,-11.11l-242.66 -54.51c-1.01,-0.43 -1.65,-1.4 -1.92,-2.91 -0.27,-1.51 0.01,-2.51 0.85,-2.96l205.45 -147.65c20.45,-14.32 33.87,-25.8 40.23,-34.44 6.38,-8.64 8.67,-17.93 6.86,-27.88z"/>
   <path class="fil1" d="M3636.7 6957.87l288.94 0 568.88 0 288.91 0c392.89,0 795.61,-229.23 795.61,-691.27 0,-433.4 -396.17,-662.64 -762.87,-655.47l13.09 -10.75c284.86,-42.98 579.52,-257.88 579.52,-562.34 0,-397.57 -376.51,-562.33 -697.37,-565.91l-287.36 0 -1.56 -0.03 -785.79 0c-19.64,0 -16.36,25.07 0,25.07l153.89 0c16.38,0 22.92,7.18 22.92,25.07l0 1364.33c43.99,-15.77 93.84,-15.37 137.51,1.29l0 -1365.62c0,-17.34 6.14,-24.61 21.41,-25.05l107.08 0c16.38,0 22.92,7.17 22.92,25.08l0 2385.45c0,17.91 -9.82,25.08 -22.92,25.08l-105.57 0c-16.38,0 -22.92,-7.17 -22.92,-25.08l0 -1133.59c-43.67,16.36 -93.52,17.88 -137.51,3.13l0 1130.46c0,17.91 -9.83,25.08 -22.92,25.08l-153.89 0c-19.64,0 -19.64,25.07 0,25.07zm1080.84 -25.07c308.84,-70.88 572.58,-292.29 572.58,-666.21 0,-372.81 -293.14,-594.55 -608.5,-644.71 433.91,0.62 746.8,137.25 746.8,644.72 0,476.36 -291.39,666.2 -644.99,666.2l-65.89 0zm-155.89 -1336c278.05,-50.21 558.2,-261.9 558.2,-558.78 0,-312.65 -232.82,-481.3 -488.32,-540.83l70.05 0c291.4,0 569.69,132.53 569.69,540.85 0,397.58 -242.28,558.76 -625.35,558.76l-84.27 0zm-146.25 -1099.61c290.4,0.83 566.95,133.79 566.95,540.83 0,397.59 -242.28,558.76 -625.35,558.76l-95.64 0c-15.27,-0.44 -21.42,-7.7 -21.42,-25.05l0 -1049.46c0,-17.91 6.55,-25.08 22.93,-25.08l152.53 0zm-21.6 1124.68c433.34,0.85 745.71,137.69 745.71,644.72 0,476.38 -291.39,666.21 -644.99,666.21l-231.65 0c-16.38,0 -22.93,-7.17 -22.93,-25.08l0 -1260.77c0,-17.91 6.55,-25.08 22.93,-25.08l130.93 0z"/>
  </g>
 </g>
</svg>
