<?xml version="1.0" encoding="UTF-8"?>
<!DOCTYPE svg PUBLIC "-//W3C//DTD SVG 1.1//EN" "http://www.w3.org/Graphics/SVG/1.1/DTD/svg11.dtd">
<!-- Creator: CorelDRAW -->
<svg xmlns="http://www.w3.org/2000/svg" xml:space="preserve" width="91.4398mm" height="114.3mm" version="1.1" style="shape-rendering:geometricPrecision; text-rendering:geometricPrecision; image-rendering:optimizeQuality; fill-rule:evenodd; clip-rule:evenodd"
viewBox="0 0 9143.98 11429.98"
 xmlns:xlink="http://www.w3.org/1999/xlink"
 xmlns:xodm="http://www.corel.com/coreldraw/odm/2003">
 <defs>
  <style type="text/css">
   <![CDATA[
    .fil0 {fill:#DFE4EB}
    .fil1 {fill:#DFE4EB;fill-rule:nonzero}
   ]]>
  </style>
 </defs>
 <g id="Warstwa_x0020_1">
  <metadata id="CorelCorpID_0Corel-Layer"/>
  <g id="_1978245413184">
   <rect class="fil0" transform="matrix(0.66452 -0.66452 0.66452 0.66452 2559.3 5714.99)" width="172.94" height="172.94"/>
   <rect class="fil0" transform="matrix(0.66452 -0.66452 0.66452 0.66452 6354.83 5714.99)" width="172.94" height="172.94"/>
   <path class="fil1" d="M2783.64 4754.89c3.76,-17.33 10.39,-32.01 19.87,-44.04 9.49,-12.02 20.78,-20.45 33.88,-25.28 13.09,-4.82 26.82,-5.69 41.16,-2.58 15.84,3.43 29.34,10.43 40.51,20.99 11.17,10.55 18.94,23.42 23.32,38.61 4.37,15.18 4.74,31.14 1.12,47.88 -2.14,9.86 -4.91,20.53 -8.34,31.98 -1.21,4.12 -2.57,8.99 -4.1,14.61 -1.53,5.61 -3.04,11.85 -4.53,18.73l-6.16 30.58c-0.86,5.44 -2.36,13.1 -4.5,22.97 -0.13,0.59 -1.1,0.69 -2.88,0.3 -1.8,-0.39 -2.63,-0.87 -2.5,-1.47 2.46,-11.36 3.45,-19.91 2.97,-25.64 -0.48,-5.74 -2.58,-10.11 -6.31,-13.1 -3.73,-3 -10.08,-5.47 -19.05,-7.42l-207.56 -44.97c-8.98,-1.95 -15.76,-2.4 -20.37,-1.37 -4.6,1.04 -8.31,4.07 -11.12,9.1 -2.8,5.02 -5.41,13.05 -7.81,24.12 -0.2,0.9 -1.18,1.14 -2.98,0.75 -1.79,-0.38 -2.59,-1.02 -2.4,-1.92l5.21 -21.87c3.32,-12.42 5.82,-22.52 7.51,-30.29 1.16,-5.38 2.09,-10.42 2.8,-15.12 0.7,-4.69 1.27,-8.72 1.68,-12.08 1.17,-9.75 2.6,-18.51 4.28,-26.28 5.44,-25.11 14.98,-42.76 28.61,-52.95 13.63,-10.18 29.26,-13.37 46.89,-9.55 16.74,3.62 29.86,12.81 39.33,27.53 9.49,14.73 14.6,32.65 15.34,53.78l-3.87 -6zm-121.71 -1.5c-1.75,8.08 -2.4,14.03 -1.99,17.88 0.42,3.84 2.68,7.15 6.77,9.92 4.09,2.76 11.07,5.21 20.93,7.35l87.87 19.04 -6.69 13.57c3.68,-12.66 6.63,-24.08 8.83,-34.23 4.72,-21.82 2.62,-39.17 -6.32,-52.06 -8.94,-12.9 -22.68,-21.35 -41.22,-25.36 -16.73,-3.63 -31.24,-2 -43.53,4.88 -12.28,6.88 -20.5,19.89 -24.65,39.01zm272.05 42.06c4.72,-21.82 2.63,-39.25 -6.27,-52.28 -8.91,-13.05 -23.83,-21.84 -44.76,-26.37 -22.71,-4.92 -42.53,-2.26 -59.46,8 -16.93,10.26 -28.07,27.01 -33.42,50.26 -4.29,16.91 -6.93,32.76 -7.95,47.56l-2.12 -14.07 114.32 24.77c7.77,1.68 13.99,1.86 18.66,0.52 4.67,-1.33 8.68,-5 12.01,-11 3.33,-6.01 6.33,-15.15 8.99,-27.39zm39.42 -265.92c9.11,2.63 15.97,3.67 20.6,3.1 4.62,-0.57 8.41,-3.22 11.36,-7.94 2.96,-4.71 6.06,-12.65 9.29,-23.81 0.25,-0.88 1.25,-1.07 3.02,-0.56 1.76,0.51 2.51,1.21 2.26,2.08 -2.55,8.82 -4.73,15.83 -6.56,21.03l-9.5 31.16 -8.35 30.53c-1.23,5.38 -3.17,12.61 -5.81,21.72 -0.25,0.88 -1.26,1.07 -3.02,0.56 -1.77,-0.51 -2.52,-1.21 -2.26,-2.09 3.23,-11.16 4.85,-19.53 4.87,-25.1 0.01,-5.56 -1.83,-9.91 -5.53,-13.06 -3.71,-3.14 -9.97,-5.98 -18.79,-8.53l-204.01 -59.04c-8.82,-2.55 -15.56,-3.47 -20.22,-2.75 -4.67,0.73 -8.55,3.42 -11.65,8.1 -3.1,4.67 -6.28,12.59 -9.51,23.75 -0.25,0.88 -1.25,1.07 -3.02,0.56 -1.76,-0.51 -2.52,-1.21 -2.26,-2.09l6.69 -21.47c4.16,-12.16 7.39,-22.21 9.68,-30.14 2.55,-8.81 5.31,-19.47 8.3,-31.99l5.55 -20.84c0.25,-0.87 1.26,-1.06 3.02,-0.55 1.77,0.51 2.52,1.21 2.26,2.08 -3.14,10.88 -4.6,19.21 -4.36,25.01 0.23,5.8 2.22,10.2 5.97,13.18 3.75,3.01 10.03,5.77 18.84,8.32l203.14 58.78zm-52.09 -432.87c-27.73,-11.38 -46.65,-4.76 -56.75,19.85 -0.35,0.85 -1.36,0.93 -3.07,0.23 -1.69,-0.7 -2.37,-1.47 -2.02,-2.32l7.92 -18.07c4.74,-9.95 8.34,-17.9 10.78,-23.84 1.97,-4.81 4.53,-11.86 7.68,-21.15l6.89 -17.99c0.24,-0.57 1.2,-0.5 2.89,0.19 1.71,0.7 2.43,1.32 2.2,1.9 -9.29,22.63 -0.07,39.63 27.66,51.01l120.52 49.47c32.53,13.35 54.21,32.83 65.03,58.43 10.81,25.59 9.94,53.67 -2.6,84.22 -8.59,20.94 -20.21,37.57 -34.86,49.91 -14.65,12.33 -31.31,19.71 -49.98,22.12 -18.68,2.42 -38.21,-0.55 -58.58,-8.91l-135.79 -55.74c-8.5,-3.48 -15.07,-5.2 -19.73,-5.12 -4.65,0.07 -8.77,2.26 -12.36,6.58 -3.59,4.31 -7.6,11.84 -12.01,22.59 -0.23,0.56 -1.19,0.49 -2.89,-0.2 -1.69,-0.7 -2.43,-1.33 -2.2,-1.89l8.97 -20.62c5.44,-11.65 9.67,-21.15 12.69,-28.51 3.14,-7.64 6.97,-17.8 11.52,-30.48l7.58 -19.69c0.35,-0.85 1.38,-0.93 3.07,-0.23 1.7,0.7 2.37,1.47 2.02,2.32 -4.29,10.46 -6.61,18.53 -6.94,24.17 -0.34,5.65 1.2,10.16 4.6,13.55 3.42,3.37 9.36,6.81 17.84,10.29l120.1 49.3c33.38,13.7 61.92,16.66 85.61,8.86 23.7,-7.8 41.18,-25.42 52.44,-52.86 10.45,-25.46 10.59,-48.54 0.41,-69.25 -10.17,-20.7 -29.4,-36.87 -57.7,-48.48l-120.94 -49.64zm385.15 -235.56c-3.7,6.69 -22.22,13.12 -55.54,19.3 -33.33,6.17 -77.38,11.37 -132.18,15.6l5.63 -26.25c46.34,-4.72 83.14,-9.76 110.4,-15.1 27.26,-5.33 48.37,-11.73 63.35,-19.16 14.96,-7.43 25.63,-16.91 32.01,-28.41 0.44,-0.79 1.46,-0.75 3.07,0.14 1.6,0.89 2.18,1.74 1.74,2.53l-28.48 51.35zm-307.99 -38.61c11.71,-21.13 25.58,-34.77 41.59,-40.93 16,-6.16 32.03,-4.79 48.07,4.1 14.17,7.86 24.78,19.17 31.82,33.91 7.03,14.74 10.06,31.02 9.1,48.84 -0.97,17.83 -5.9,34.76 -14.8,50.81 -0.88,1.6 -4.62,7.4 -11.21,17.38l91.06 50.5c8.29,4.6 14.76,7.13 19.4,7.61 4.63,0.47 8.91,-1.27 12.84,-5.2 3.93,-3.94 8.72,-10.99 14.36,-21.15 0.44,-0.81 1.46,-0.77 3.07,0.12 1.6,0.89 2.18,1.74 1.74,2.54 -4.6,8.3 -8.36,14.77 -11.31,19.44l-15.75 27.46 -14.72 27.5c-2.4,4.96 -6.05,11.85 -10.95,20.68 -0.29,0.54 -1.24,0.35 -2.84,-0.53 -1.61,-0.9 -2.26,-1.6 -1.97,-2.13 5.64,-10.17 9.05,-18.07 10.25,-23.7 1.2,-5.63 0.45,-10.42 -2.26,-14.36 -2.7,-3.95 -8.07,-8.15 -16.1,-12.6l-185.73 -103c-8.03,-4.45 -14.39,-6.85 -19.1,-7.18 -4.71,-0.34 -9.1,1.43 -13.16,5.29 -4.06,3.86 -8.92,10.88 -14.56,21.04 -0.45,0.8 -1.46,0.75 -3.07,-0.14 -1.6,-0.88 -2.19,-1.72 -1.74,-2.53l11.3 -19.44c6.77,-10.93 12.08,-19.87 15.94,-26.83 3.26,-5.88 6.16,-11.44 8.72,-16.67 2.54,-5.23 4.65,-9.65 6.31,-13.28 4.83,-10.61 9.39,-19.79 13.7,-27.55zm86.17 -3.09c-20.87,-11.58 -38.4,-15.26 -52.61,-11.08 -14.21,4.18 -26.21,15.1 -36,32.75 -5.78,10.43 -7.91,18.69 -6.39,24.78 1.52,6.09 8.02,12.32 19.52,18.7l84.25 46.71c4.63,-5.82 9.54,-13.41 14.73,-22.77 11.57,-20.87 15.29,-38.3 11.16,-52.3 -4.11,-14 -15.67,-26.27 -34.66,-36.79zm369.58 -165.38c-16.91,22.87 -37.3,39.27 -61.17,49.19 -23.88,9.92 -48.57,12.96 -74.07,9.14 -25.5,-3.83 -49.07,-13.74 -70.71,-29.74 -25.33,-18.72 -42.31,-41.16 -50.93,-67.3 -8.63,-26.15 -10.08,-52.61 -4.36,-79.38 5.71,-26.77 16.29,-50.6 31.74,-71.51 17.27,-23.36 37.92,-39.85 61.95,-49.46 24.04,-9.62 48.52,-12.54 73.48,-8.73 24.95,3.79 47.5,13.15 67.67,28.06 22.38,16.54 38.55,37.62 48.51,63.24 9.97,25.62 13.06,52.32 9.24,80.12 -3.81,27.8 -14.27,53.25 -31.35,76.37zm1.8 -18.64c12.35,-16.72 19.43,-34.78 21.22,-54.19 1.8,-19.4 -2.25,-38.74 -12.14,-58.03 -9.9,-19.29 -25.78,-37.03 -47.67,-53.2 -23.12,-17.09 -46.83,-27.97 -71.15,-32.62 -24.32,-4.67 -47.28,-2.92 -68.91,5.25 -21.63,8.16 -40.17,22.69 -55.62,43.6 -19.99,27.05 -26.89,54.65 -20.7,82.8 6.19,28.16 24.53,53.5 55.02,76.04 23.12,17.09 47.39,28.37 72.81,33.85 25.43,5.49 49.33,4.53 71.73,-2.88 22.4,-7.41 40.86,-20.94 55.41,-40.62zm463.69 -432.23c-6.24,4.41 -25.72,2.16 -58.41,-6.77 -32.7,-8.92 -74.63,-23.4 -125.83,-43.4l16.49 -21.19c43.78,15.89 79.11,27.35 105.98,34.39 26.88,7.05 48.67,10.46 65.38,10.28 16.71,-0.19 30.44,-4.08 41.18,-11.67 0.75,-0.52 1.65,-0.05 2.71,1.46 1.05,1.49 1.21,2.51 0.47,3.03l-47.97 33.87zm-260.59 -168.65c19.73,-13.94 38.15,-20.2 55.25,-18.79 17.09,1.41 30.92,9.61 41.5,24.59 9.35,13.24 13.99,28.04 13.92,44.37 -0.07,16.33 -4.42,32.32 -13.03,47.94 -8.62,15.64 -20.43,28.75 -35.42,39.33 -1.49,1.06 -7.38,4.65 -17.65,10.78l60.06 85.06c5.47,7.75 10.19,12.83 14.16,15.28 3.97,2.44 8.57,2.74 13.83,0.9 5.25,-1.83 12.63,-6.1 22.12,-12.8 0.75,-0.54 1.65,-0.06 2.71,1.45 1.06,1.49 1.21,2.51 0.46,3.04 -7.74,5.47 -13.95,9.66 -18.63,12.59l-26.12 17.88 -25.21 18.36c-4.31,3.43 -10.6,8.05 -18.85,13.88 -0.5,0.35 -1.27,-0.23 -2.33,-1.73 -1.06,-1.5 -1.34,-2.42 -0.84,-2.77 9.5,-6.71 16,-12.34 19.52,-16.88 3.54,-4.55 4.94,-9.19 4.22,-13.92 -0.72,-4.73 -3.73,-10.85 -9.03,-18.34l-122.49 -173.5c-5.3,-7.5 -9.99,-12.42 -14.08,-14.77 -4.1,-2.35 -8.81,-2.67 -14.15,-0.95 -5.34,1.71 -12.77,5.91 -22.26,12.61 -0.75,0.53 -1.64,0.05 -2.71,-1.45 -1.05,-1.5 -1.21,-2.51 -0.46,-3.04l18.63 -12.59c10.84,-6.91 19.51,-12.65 26.01,-17.24 5.49,-3.88 10.52,-7.63 15.1,-11.22 4.56,-3.61 8.39,-6.67 11.46,-9.22 8.96,-7.46 17.06,-13.74 24.31,-18.85zm78.95 34.67c-13.76,-19.5 -27.95,-30.44 -42.57,-32.85 -14.62,-2.41 -30.16,2.2 -46.66,13.85 -9.73,6.88 -15.24,13.4 -16.52,19.54 -1.28,6.14 1.87,14.58 9.46,25.32l55.56 78.69c6.7,-3.23 14.42,-7.93 23.16,-14.1 19.5,-13.76 30.42,-27.85 32.79,-42.25 2.38,-14.4 -2.7,-30.47 -15.22,-48.2zm313.26 -89.93l114.35 -41.23 6.13 7.54 -121.69 43.87 1.21 -10.18zm257.64 45.11c1.15,-0.41 2.03,0.23 2.65,1.97 0.62,1.72 0.36,2.79 -0.79,3.2 -5.47,1.98 -14.06,4.74 -25.77,8.32 -11.72,3.57 -20.16,6.3 -25.34,8.17 -6.33,2.28 -14.29,5.47 -23.86,9.56 -9,3.9 -15.94,6.73 -20.83,8.49 -1.15,0.42 -2.04,-0.24 -2.66,-1.96 -0.63,-1.73 -0.35,-2.8 0.79,-3.21 10.94,-3.94 18.41,-7.77 22.43,-11.51 4.02,-3.72 5.1,-8.17 3.23,-13.35 -1.55,-4.31 -5.46,-9.73 -11.71,-16.25l-168.77 -167.85 5.97 -17.27 -12.31 228.25c-0.5,11.24 0.39,20.02 2.67,26.35 6.12,16.97 23.28,20.38 51.48,10.22 1.44,-0.52 2.46,0.07 3.08,1.81 0.63,1.72 0.22,2.84 -1.22,3.36 -5.18,1.87 -12.76,4.27 -22.75,7.23 -11.14,3.36 -20.74,6.5 -28.79,9.41 -7.48,2.69 -16.01,6.09 -25.59,10.19 -8.42,3.69 -15.51,6.57 -21.26,8.64 -1.44,0.52 -2.46,-0.08 -3.08,-1.81 -0.63,-1.73 -0.22,-2.84 1.22,-3.36 8.05,-2.9 14.33,-6.88 18.86,-11.92 4.52,-5.05 7.92,-12.29 10.21,-21.72 2.28,-9.45 3.85,-22.45 4.71,-39.01l13.57 -247.73c0.26,-1.07 1.11,-1.86 2.55,-2.38 1.44,-0.52 2.46,-0.41 3.06,0.36l179.17 177.75c17.46,17.76 30.96,29.06 40.51,33.91 9.55,4.85 19.07,5.56 28.57,2.14zm228.37 -308.6c19.26,-0.76 35.51,-0.02 48.76,2.21 13.25,2.23 26.57,6.44 39.98,12.65 2.19,1.14 3.45,2.17 3.79,3.06 0.34,0.91 0.89,3.18 1.64,6.82l7.66 54.33c0.04,0.92 -0.78,1.5 -2.45,1.71 -1.69,0.22 -2.69,-0.12 -3.04,-1.03 -16.06,-50.48 -48.54,-74.75 -97.43,-72.83 -25.67,1.02 -48.14,7.57 -67.4,19.66 -19.27,12.08 -33.83,28.79 -43.7,50.15 -9.87,21.35 -14.26,45.94 -13.16,73.74 1.05,26.58 7.96,50.72 20.76,72.4 12.79,21.69 29.45,38.55 49.97,50.6 20.52,12.04 42.55,17.6 66.07,16.67 25.06,-0.99 45.14,-7.89 60.24,-20.73 15.1,-12.85 26.29,-31.95 33.55,-57.34 -0.03,-0.61 0.73,-0.95 2.26,-1.01 2.14,-0.08 3.22,0.34 3.26,1.26l-2.6 50.6c-0.15,3.68 -0.52,5.98 -1.1,6.93 -0.58,0.94 -1.76,2.06 -3.54,3.35 -15.59,8.27 -30.28,14.2 -44.06,17.81 -13.78,3.59 -29.69,5.75 -47.72,6.46 -32.09,1.27 -60.98,-3.93 -86.69,-15.62 -25.72,-11.69 -46.04,-28.72 -61.01,-51.08 -14.96,-22.36 -23.02,-48.37 -24.19,-78 -1.13,-28.73 5.04,-54.45 18.53,-77.17 13.49,-22.72 32.6,-40.69 57.32,-53.91 24.73,-13.22 52.84,-20.45 84.3,-21.69zm512.07 123.18c2.46,-8.83 3.34,-15.65 2.61,-20.46 -0.73,-4.8 -3.49,-8.83 -8.3,-12.07 -4.81,-3.25 -12.96,-6.48 -24.45,-9.69 -0.88,-0.24 -1.07,-1.24 -0.58,-3.01 0.49,-1.76 1.17,-2.53 2.06,-2.28l21.09 6.36c12.8,4.2 23.47,7.5 32.01,9.88 7.95,2.22 18.19,4.75 30.73,7.62l21.78 5.59c0.88,0.25 1.07,1.26 0.58,3.02 -0.49,1.77 -1.18,2.53 -2.06,2.28 -11.2,-3.12 -19.67,-4.6 -25.42,-4.46 -5.76,0.13 -10.17,2 -13.23,5.59 -3.07,3.59 -5.83,9.8 -8.3,18.65l-57.06 204.57c-2.46,8.84 -3.34,15.65 -2.61,20.47 0.72,4.8 3.53,8.67 8.42,11.63 4.89,2.95 12.93,5.99 24.13,9.11 0.88,0.25 1.08,1.25 0.58,3.02 -0.49,1.76 -1.18,2.53 -2.06,2.28 -9.13,-2.54 -16.31,-4.7 -21.53,-6.48l-30.36 -8.95 -32.38 -8.55c-5.38,-1.18 -12.49,-3.01 -21.34,-5.47 -0.88,-0.25 -1.07,-1.26 -0.58,-3.02 0.5,-1.77 1.18,-2.53 2.06,-2.28 11.49,3.2 20.09,4.8 25.81,4.81 5.71,0 10.12,-1.86 13.23,-5.59 3.11,-3.75 5.89,-10.03 8.35,-18.87l56.82 -203.7zm-210.52 39.39l197.5 55.09 -2.59 9.27 -197.5 -55.08 2.59 -9.28zm12.81 -95.48c2.47,-8.84 3.32,-15.59 2.55,-20.25 -0.76,-4.65 -3.57,-8.53 -8.42,-11.63 -4.85,-3.09 -12.87,-6.21 -24.07,-9.34 -0.59,-0.16 -0.63,-1.12 -0.14,-2.89 0.5,-1.76 1.03,-2.57 1.62,-2.4l22.42 6.73c12.2,4.03 21.99,7.09 29.35,9.14 8.54,2.38 19.38,5.08 32.5,8.11l21.34 5.47c0.59,0.17 0.64,1.14 0.15,2.9 -0.5,1.77 -1.04,2.57 -1.63,2.4 -11.19,-3.12 -19.76,-4.56 -25.71,-4.3 -5.94,0.24 -10.46,2.24 -13.57,5.97 -3.11,3.74 -5.89,10.02 -8.36,18.86l-56.81 203.69c-2.47,8.85 -3.34,15.66 -2.62,20.47 0.73,4.8 3.54,8.68 8.43,11.63 4.9,2.96 13.08,6.04 24.57,9.24 0.59,0.17 0.64,1.13 0.15,2.9 -0.49,1.76 -1.04,2.57 -1.63,2.4 -9.13,-2.54 -16.3,-4.7 -21.53,-6.48l-31.69 -9.32 -30.61 -8.06c-5.38,-1.18 -12.79,-3.09 -22.21,-5.72 -0.6,-0.16 -0.64,-1.13 -0.15,-2.89 0.5,-1.77 1.03,-2.57 1.63,-2.4 11.19,3.12 19.72,4.7 25.57,4.74 5.87,0.05 10.35,-1.79 13.45,-5.53 3.11,-3.74 5.89,-10.02 8.36,-18.87l57.06 -204.57zm615.65 302.76c17.29,-24.48 15.06,-44.4 -6.67,-59.75 -0.75,-0.53 -0.6,-1.54 0.46,-3.04 1.06,-1.49 1.96,-1.98 2.71,-1.45l15.85 11.75c8.64,6.85 15.58,12.13 20.83,15.84 4.24,3 10.54,7.06 18.89,12.21l16 10.74c0.51,0.35 0.22,1.28 -0.84,2.77 -1.06,1.51 -1.83,2.08 -2.33,1.72 -19.98,-14.11 -38.62,-8.92 -55.91,15.56l-75.15 106.42c-20.28,28.72 -44.11,45.5 -71.48,50.33 -27.36,4.82 -54.53,-2.3 -81.51,-21.35 -18.49,-13.06 -32.11,-28.1 -40.86,-45.14 -8.74,-17.03 -12.21,-34.92 -10.39,-53.66 1.82,-18.74 9.07,-37.11 21.77,-55.1l84.68 -119.91c5.29,-7.5 8.43,-13.52 9.4,-18.08 0.97,-4.55 -0.25,-9.06 -3.65,-13.52 -3.4,-4.46 -9.85,-10.05 -19.34,-16.75 -0.5,-0.35 -0.22,-1.27 0.84,-2.77 1.06,-1.5 1.83,-2.07 2.33,-1.72l18.1 13.34c10.14,7.91 18.45,14.16 24.95,18.74 6.74,4.77 15.79,10.78 27.13,18.04l17.5 11.79c0.76,0.54 0.6,1.55 -0.45,3.05 -1.07,1.5 -1.97,1.98 -2.72,1.45 -9.24,-6.53 -16.58,-10.59 -22.01,-12.17 -5.43,-1.59 -10.17,-1.1 -14.23,1.46 -4.06,2.57 -8.73,7.6 -14.02,15.09l-74.88 106.04c-20.82,29.48 -30.08,56.64 -27.78,81.47 2.31,24.84 15.58,45.82 39.81,62.93 22.48,15.87 44.95,21.16 67.41,15.87 22.45,-5.29 42.5,-20.42 60.15,-45.41l75.41 -106.79zm186.55 105.05l6.81 8.11 -159.37 159.16c-11.25,11.24 -17.3,21.29 -18.18,30.15 -0.87,8.87 3.12,17.74 11.98,26.62 0.65,0.64 0.33,1.61 -0.98,2.91 -1.29,1.29 -2.27,1.62 -2.91,0.97 -5.41,-5.41 -9.4,-9.63 -11.99,-12.66l-15.89 -16.55 -16.85 -16.23c-3.25,-2.81 -7.79,-7.14 -13.62,-12.98 -0.43,-0.43 0,-1.3 1.3,-2.6 1.3,-1.3 2.16,-1.72 2.59,-1.29 9.3,9.31 18.32,13.46 27.09,12.5 8.75,-0.97 18.76,-7.07 30.01,-18.3l160.01 -159.81zm-35.91 362.61c-0.44,0.44 -1.29,0.22 -2.59,-0.65 -1.3,-0.86 -1.95,-1.73 -1.95,-2.59l31.67 -329.86c1.53,-15.35 1.1,-27.58 -1.27,-36.66 -2.37,-9.08 -6.36,-16.44 -11.98,-22.06 -0.65,-0.65 -0.33,-1.62 0.97,-2.92 1.29,-1.3 2.27,-1.62 2.92,-0.97l11.67 12.33c2.38,2.81 5.83,6.5 10.37,11.04 4.75,4.76 8.75,8.54 11.99,11.36 3.25,2.81 5.73,5.09 7.46,6.81 1.51,1.52 2.37,3.14 2.59,4.88 0.22,1.73 -0.22,4.42 -1.3,8.11 -1.3,6.48 -2.28,12.86 -2.93,19.12l-29.7 288.99 -27.92 33.07zm0 0l2.61 -17.52 160.98 -160.77c11.25,-11.24 17.47,-21.24 18.67,-29.99 1.2,-8.76 -2.63,-17.58 -11.49,-26.45 -0.43,-0.43 -0.01,-1.29 1.29,-2.59 1.3,-1.3 2.17,-1.73 2.6,-1.3l12.32 12.99c6.05,6.92 11.12,12.43 15.23,16.55 3.89,3.89 9.51,9.09 16.86,15.58l13.61 12.98c0.65,0.65 0.33,1.63 -0.97,2.92 -1.3,1.3 -2.27,1.62 -2.92,0.97 -9.08,-9.09 -18.15,-13.2 -27.24,-12.34 -9.08,0.86 -19.25,6.91 -30.5,18.14l-171.05 170.83zm304.24 -16.47c7.62,-5.12 12.7,-9.63 15.23,-13.54 2.53,-3.91 3,-8.56 1.41,-13.94 -1.59,-5.38 -5.62,-12.9 -12.1,-22.55 -0.34,-0.5 0.25,-1.26 1.78,-2.28 1.52,-1.02 2.45,-1.29 2.79,-0.78l12.41 19.3c6.65,11 12.11,19.68 16.36,26.02 4.95,7.37 11.26,16.21 18.93,26.53l12.4 17.64c0.51,0.77 0,1.66 -1.52,2.68 -1.52,1.03 -2.54,1.15 -3.05,0.39 -6.3,-9.39 -11.72,-15.8 -16.23,-19.22 -4.5,-3.42 -9.15,-4.71 -13.94,-3.9 -4.79,0.83 -10.99,3.8 -18.61,8.91l-175.56 117.89c-7.87,5.28 -13.07,9.88 -15.61,13.79 -2.52,3.91 -2.93,8.51 -1.22,13.81 1.72,5.3 5.81,12.77 12.29,22.42 0.51,0.76 0.01,1.65 -1.52,2.67 -1.52,1.02 -2.54,1.16 -3.05,0.39 -5.11,-7.61 -9.08,-13.79 -11.89,-18.54l-17.52 -26.91 -17.77 -25.64c-3.33,-4.39 -7.71,-10.66 -13.17,-18.78 -0.34,-0.51 0.25,-1.27 1.77,-2.29 1.53,-1.03 2.45,-1.29 2.8,-0.77 6.48,9.64 11.84,16.25 16.1,19.84 4.25,3.6 8.77,4.99 13.56,4.16 4.79,-0.82 10.99,-3.78 18.62,-8.9l176.31 -118.4zm-52.25 85.92l28.01 8.81 -33.49 103.17c-11.68,34.73 -19.19,60.31 -22.52,76.72 -3.34,16.43 -4.1,27.91 -2.3,34.43 1.79,6.53 6.11,14.87 12.93,25.02 0.51,0.77 0.01,1.66 -1.52,2.68 -1.52,1.02 -2.54,1.15 -3.05,0.39l-28.64 -42.66c-1.36,-2.02 -3.86,-5.6 -7.48,-10.72 -3.62,-5.12 -2.04,-16.76 4.72,-34.94 6.76,-18.17 12.7,-35.24 17.82,-51.2l35.52 -111.7zm123.6 20.33c14.01,2.75 23.04,2.76 27.1,0.04 5.08,-3.41 2.59,-12.62 -7.47,-27.59 -0.34,-0.51 0.24,-1.27 1.77,-2.3 1.52,-1.02 2.46,-1.28 2.8,-0.77l10.61 16.64c6.32,10.49 12.28,19.93 17.9,28.3 5.63,8.38 11.77,16.97 18.41,25.77l9.85 13.84c0.51,0.75 0,1.65 -1.52,2.67 -1.53,1.02 -2.54,1.15 -3.05,0.39 -6.99,-10.41 -16.69,-19.91 -29.1,-28.52 -12.42,-8.61 -26.98,-14.68 -43.7,-18.18l-161.06 -33.3 -6.39 -9.52 163.85 32.53zm-54.01 419.77c-12.78,-25.4 -18.22,-51 -16.3,-76.78 1.92,-25.79 10.35,-49.19 25.27,-70.22 14.92,-21.03 34.41,-37.59 58.45,-49.69 28.14,-14.15 55.82,-19.18 83.04,-15.08 27.23,4.1 51.5,14.75 72.8,31.93 21.31,17.17 37.81,37.37 49.5,60.6 13.05,25.95 18.44,51.82 16.18,77.61 -2.26,25.78 -10.71,48.95 -25.37,69.5 -14.64,20.56 -33.17,36.46 -55.58,47.73 -24.86,12.51 -50.96,17.43 -78.32,14.76 -27.37,-2.67 -52.59,-11.97 -75.67,-27.92 -23.09,-15.94 -41.08,-36.75 -54,-62.44zm15.82 10.02c9.34,18.57 22.26,33.04 38.78,43.39 16.5,10.36 35.59,15.48 57.26,15.35 21.68,-0.12 44.68,-6.3 69,-18.53 25.67,-12.91 46.08,-29.17 61.21,-48.77 15.14,-19.59 23.94,-40.88 26.41,-63.87 2.48,-22.98 -2.13,-46.08 -13.81,-69.3 -15.12,-30.05 -36.64,-48.67 -64.55,-55.85 -27.93,-7.17 -58.82,-2.25 -92.69,14.8 -25.68,12.92 -46.7,29.48 -63.06,49.7 -16.37,20.21 -26.3,41.98 -29.8,65.31 -3.5,23.33 0.25,45.91 11.25,67.77zm140.28 346.19c-1.25,0.08 -2.37,-1.32 -3.32,-4.23 -0.76,-2.32 -0.7,-4.11 0.18,-5.37l200.22 -185.86c9.9,-9.04 16.25,-16.92 19.04,-23.63 2.79,-6.71 2.71,-14.56 -0.24,-23.57 -0.29,-0.88 0.43,-1.59 2.18,-2.16 1.74,-0.57 2.76,-0.43 3.04,0.44l5 16.71c2.09,8.33 3.94,14.97 5.56,19.91 3.42,10.45 7.44,21.69 12.02,33.71l6.3 17.72c0.28,0.87 -0.45,1.6 -2.19,2.17 -1.75,0.57 -2.75,0.42 -3.04,-0.46 -2.86,-8.71 -6,-14.85 -9.42,-18.39 -3.41,-3.54 -7.59,-4.5 -12.52,-2.89 -4.37,1.43 -9.13,4.6 -14.27,9.51l-176.19 164.95 -26.06 -8.83 161.25 10.36 -7.44 9.68 -160.1 -9.77zm354.9 163.61c0.19,0.58 -0.59,1.16 -2.33,1.73 -1.75,0.57 -2.71,0.56 -2.9,-0.02 -3.24,-9.87 -8.68,-17.59 -16.28,-23.14 -7.62,-5.55 -18.52,-8.89 -32.74,-10.03l-262.77 -16.64c-1.25,0.08 -2.37,-1.32 -3.32,-4.23 -0.76,-2.33 -0.7,-4.12 0.18,-5.37l200.36 -185.43c9.61,-8.94 15.89,-16.8 18.83,-23.55 2.93,-6.76 3.02,-14.34 0.26,-22.77 -0.29,-0.88 0.43,-1.6 2.18,-2.17 1.74,-0.57 2.75,-0.42 3.04,0.45l5 16.71c1.89,7.74 3.65,14.09 5.27,19.02 2.67,8.15 5.73,16.48 9.16,25l4.3 11.63c0.28,0.87 -0.45,1.59 -2.19,2.16 -1.74,0.57 -2.75,0.42 -3.04,-0.44 -1.71,-5.24 -3.46,-8.84 -5.24,-10.84 -1.78,-1.99 -3.98,-2.56 -6.59,-1.7 -3.49,1.14 -10.04,6.19 -19.66,15.14l-176.04 165.38 -26.07 -8.83 254.94 16.32c6.86,0.33 12.04,-0.08 15.53,-1.23 6.39,-2.09 10.16,-6.31 11.3,-12.63 1.15,-6.33 -0.14,-15.16 -3.85,-26.49 -0.29,-0.88 0.43,-1.6 2.18,-2.17 1.74,-0.57 2.75,-0.42 3.04,0.45l5.57 18.46c2.66,10.06 5.27,19.02 7.84,26.87 1.91,5.8 4.4,12.4 7.45,19.76l6.59 18.6zm-92.08 -155.66c8.99,0.91 15.94,0.56 20.88,-1.06 8.43,-2.77 10.6,-10.39 6.51,-22.89 -0.29,-0.87 0.43,-1.59 2.18,-2.17 1.74,-0.57 2.76,-0.42 3.04,0.46l2.85 10.17c1.33,5.99 3.03,12.19 5.13,18.58 1.91,5.82 4.39,12.4 7.45,19.77l6.3 17.73c0.19,0.58 -0.59,1.16 -2.33,1.73 -1.75,0.57 -2.71,0.56 -2.9,-0.02 -3.24,-9.88 -8.52,-17.4 -15.85,-22.56 -7.32,-5.16 -18.24,-8.26 -32.73,-9.3l-102.54 -6.45 7.45 -9.68 94.56 5.69z"/>
   <path class="fil1" d="M6191.97 4742.57c-0.12,-0.59 0.71,-1.08 2.5,-1.47 1.8,-0.39 2.75,-0.29 2.88,0.31 2.46,11.37 5.01,19.49 7.64,24.39 2.63,4.92 6.32,7.88 11.07,8.87 4.76,1.01 11.61,0.54 20.58,-1.41l207.57 -44.96c8.97,-1.94 15.34,-4.33 19.1,-7.18 3.77,-2.85 5.9,-7.06 6.41,-12.66 0.51,-5.58 -0.46,-14.05 -2.92,-25.42 -0.13,-0.59 0.7,-1.08 2.5,-1.47 1.78,-0.39 2.75,-0.29 2.88,0.31l39.04 180.23c0.58,2.69 -0.48,4.33 -3.17,4.91l-54.94 12.84c-0.9,0.2 -1.6,-0.51 -2.11,-2.13 -0.5,-1.61 -0.31,-2.51 0.59,-2.7 15.65,-4.34 26.94,-11.78 33.87,-22.36 6.95,-10.58 8.87,-23.04 5.76,-37.39l-5.92 -27.34c-2.27,-10.47 -4.78,-18.06 -7.53,-22.79 -2.74,-4.71 -6.27,-7.63 -10.57,-8.74 -4.31,-1.09 -10.65,-0.74 -19.01,1.07l-203.54 44.09c-8.07,1.75 -13.91,4.04 -17.53,6.85 -3.62,2.81 -5.64,6.77 -6.1,11.89 -0.46,5.1 0.4,12.73 2.61,22.89l7.76 35.87c3.11,14.35 10.78,25.2 23.02,32.57 12.23,7.35 27.67,10.74 46.32,10.14 0.59,-0.13 1.03,0.4 1.29,1.61 0.19,0.88 0.14,1.76 -0.14,2.6 -0.29,0.84 -0.58,1.31 -0.89,1.37 -19.4,1.38 -39.43,4.32 -60.05,8.78 -2.39,0.52 -4.22,0.37 -5.49,-0.45 -1.27,-0.82 -2.2,-2.58 -2.78,-5.26l-40.7 -187.86zm139.71 140.12c13.16,-2.85 21.87,-8.1 26.16,-15.75 4.29,-7.66 4.82,-18.96 1.58,-33.9l-14.57 -67.25 9.42 -2.04 14.85 68.6c3.11,14.33 7.72,24.06 13.83,29.15 6.11,5.09 14.84,6.4 26.2,3.94 0.59,-0.13 1.09,0.71 1.48,2.5 0.39,1.79 0.28,2.76 -0.32,2.89l-36.41 7.41c-8.66,1.88 -15.21,3.45 -19.63,4.73l-21.42 5.1c-0.6,0.13 -1.09,-0.7 -1.48,-2.49 -0.39,-1.79 -0.28,-2.76 0.31,-2.89z"/>
   <path class="fil1" d="M6360.33 6675.03c-3.76,17.33 -10.38,32.01 -19.86,44.04 -9.5,12.02 -20.79,20.45 -33.88,25.28 -13.09,4.83 -26.82,5.69 -41.16,2.59 -15.84,-3.43 -29.34,-10.43 -40.51,-20.98 -11.17,-10.56 -18.94,-23.43 -23.33,-38.62 -4.37,-15.18 -4.74,-31.14 -1.11,-47.88 2.13,-9.86 4.9,-20.53 8.32,-31.98 1.21,-4.12 2.58,-8.99 4.11,-14.6 1.52,-5.62 3.04,-11.86 4.53,-18.74l6.15 -30.58c0.86,-5.44 2.37,-13.1 4.51,-22.97 0.12,-0.59 1.09,-0.69 2.88,-0.3 1.79,0.39 2.62,0.87 2.49,1.47 -2.46,11.36 -3.44,19.91 -2.97,25.64 0.48,5.74 2.58,10.11 6.31,13.1 3.73,3 10.08,5.47 19.06,7.41l207.56 44.97c8.98,1.94 15.76,2.4 20.37,1.36 4.6,-1.04 8.31,-4.07 11.11,-9.1 2.81,-5.02 5.42,-13.05 7.82,-24.12 0.19,-0.9 1.18,-1.14 2.97,-0.76 1.79,0.39 2.6,1.03 2.4,1.93l-5.21 21.87c-3.31,12.42 -5.81,22.52 -7.5,30.29 -1.16,5.38 -2.09,10.42 -2.8,15.12 -0.7,4.69 -1.27,8.72 -1.68,12.08 -1.17,9.75 -2.6,18.51 -4.28,26.28 -5.44,25.11 -14.97,42.76 -28.61,52.95 -13.62,10.19 -29.25,13.38 -46.88,9.56 -16.74,-3.63 -29.86,-12.81 -39.34,-27.53 -9.48,-14.73 -14.6,-32.65 -15.34,-53.78l3.87 6zm121.71 1.49c1.75,-8.08 2.41,-14.03 1.99,-17.88 -0.41,-3.84 -2.68,-7.15 -6.77,-9.92 -4.09,-2.75 -11.07,-5.21 -20.93,-7.34l-87.87 -19.04 6.69 -13.57c-3.68,12.66 -6.63,24.08 -8.83,34.23 -4.72,21.82 -2.62,39.17 6.33,52.06 8.94,12.89 22.67,21.34 41.21,25.36 16.74,3.62 31.25,2 43.53,-4.89 12.29,-6.88 20.51,-19.89 24.65,-39.01zm-272.05 -42.04c-4.72,21.83 -2.62,39.26 6.28,52.29 8.91,13.04 23.83,21.82 44.75,26.36 22.72,4.92 42.54,2.25 59.46,-8.01 16.93,-10.26 28.07,-27.01 33.42,-50.26 4.29,-16.91 6.93,-32.76 7.95,-47.56l2.12 14.07 -114.32 -24.76c-7.77,-1.68 -13.99,-1.86 -18.66,-0.52 -4.67,1.33 -8.68,5 -12.01,11 -3.33,6.01 -6.33,15.15 -8.99,27.39zm-39.43 265.92c-9.1,-2.63 -15.96,-3.67 -20.6,-3.1 -4.62,0.57 -8.4,3.22 -11.36,7.94 -2.96,4.71 -6.06,12.65 -9.29,23.81 -0.25,0.88 -1.25,1.07 -3.02,0.55 -1.76,-0.5 -2.51,-1.2 -2.26,-2.08 2.55,-8.81 4.74,-15.82 6.56,-21.02l9.5 -31.16 8.36 -30.53c1.23,-5.38 3.17,-12.61 5.81,-21.72 0.25,-0.88 1.26,-1.07 3.02,-0.56 1.77,0.51 2.51,1.21 2.26,2.09 -3.23,11.16 -4.85,19.53 -4.87,25.09 -0.02,5.57 1.82,9.92 5.53,13.07 3.71,3.14 9.96,5.98 18.78,8.54l204.01 59.04c8.82,2.56 15.56,3.48 20.22,2.75 4.67,-0.72 8.55,-3.41 11.65,-8.09 3.1,-4.67 6.28,-12.59 9.51,-23.75 0.25,-0.88 1.26,-1.07 3.02,-0.56 1.76,0.51 2.52,1.21 2.26,2.09l-6.69 21.47c-4.16,12.16 -7.39,22.21 -9.68,30.14 -2.55,8.81 -5.32,19.47 -8.3,31.99l-5.56 20.83c-0.25,0.88 -1.26,1.06 -3.02,0.56 -1.77,-0.52 -2.51,-1.21 -2.26,-2.08 3.15,-10.88 4.6,-19.21 4.36,-25.01 -0.22,-5.8 -2.22,-10.2 -5.96,-13.19 -3.76,-3 -10.04,-5.76 -18.84,-8.31l-203.14 -58.8zm52.1 432.88c27.73,11.38 46.65,4.76 56.75,-19.85 0.35,-0.85 1.36,-0.93 3.07,-0.23 1.69,0.7 2.37,1.47 2.02,2.32l-7.92 18.07c-4.74,9.95 -8.34,17.9 -10.78,23.84 -1.97,4.81 -4.53,11.86 -7.68,21.15l-6.89 17.99c-0.24,0.57 -1.2,0.5 -2.89,-0.19 -1.71,-0.7 -2.43,-1.32 -2.2,-1.9 9.29,-22.63 0.07,-39.63 -27.66,-51.01l-120.52 -49.47c-32.53,-13.35 -54.21,-32.83 -65.03,-58.43 -10.81,-25.59 -9.94,-53.67 2.6,-84.22 8.59,-20.94 20.21,-37.57 34.86,-49.91 14.65,-12.33 31.31,-19.71 49.98,-22.12 18.68,-2.42 38.21,0.55 58.58,8.91l135.79 55.74c8.5,3.48 15.07,5.2 19.73,5.12 4.65,-0.07 8.77,-2.26 12.36,-6.58 3.59,-4.31 7.6,-11.84 12.01,-22.59 0.23,-0.56 1.19,-0.49 2.89,0.2 1.69,0.7 2.43,1.33 2.2,1.89l-8.97 20.62c-5.44,11.65 -9.67,21.15 -12.69,28.51 -3.14,7.64 -6.97,17.8 -11.52,30.48l-7.58 19.69c-0.35,0.85 -1.38,0.93 -3.07,0.23 -1.7,-0.7 -2.37,-1.47 -2.02,-2.32 4.29,-10.46 6.61,-18.53 6.94,-24.17 0.34,-5.65 -1.2,-10.16 -4.6,-13.55 -3.42,-3.37 -9.36,-6.81 -17.84,-10.29l-120.1 -49.3c-33.38,-13.7 -61.92,-16.66 -85.61,-8.86 -23.7,7.8 -41.18,25.42 -52.44,52.86 -10.45,25.46 -10.59,48.54 -0.41,69.25 10.17,20.7 29.4,36.87 57.7,48.48l120.94 49.64zm-385.15 235.55c3.7,-6.69 22.22,-13.12 55.55,-19.29 33.32,-6.17 77.38,-11.37 132.18,-15.6l-5.64 26.25c-46.33,4.72 -83.13,9.75 -110.39,15.09 -27.27,5.33 -48.38,11.73 -63.36,19.16 -14.96,7.43 -25.63,16.9 -32.01,28.4 -0.44,0.8 -1.46,0.76 -3.07,-0.13 -1.6,-0.89 -2.18,-1.74 -1.74,-2.53l28.48 -51.35zm307.99 38.63c-11.71,21.13 -25.58,34.78 -41.59,40.93 -16.01,6.16 -32.03,4.79 -48.07,-4.11 -14.17,-7.86 -24.78,-19.16 -31.82,-33.9 -7.03,-14.74 -10.06,-31.03 -9.1,-48.85 0.97,-17.83 5.9,-34.76 14.8,-50.81 0.89,-1.6 4.63,-7.39 11.22,-17.38l-91.06 -50.5c-8.29,-4.6 -14.75,-7.13 -19.39,-7.61 -4.64,-0.47 -8.91,1.26 -12.85,5.2 -3.93,3.94 -8.72,10.99 -14.36,21.15 -0.44,0.8 -1.46,0.76 -3.07,-0.13 -1.6,-0.89 -2.18,-1.74 -1.74,-2.54 4.6,-8.29 8.36,-14.77 11.31,-19.44l15.75 -27.45 14.73 -27.5c2.39,-4.96 6.05,-11.85 10.95,-20.68 0.29,-0.54 1.24,-0.35 2.84,0.53 1.61,0.9 2.26,1.6 1.96,2.13 -5.64,10.17 -9.04,18.07 -10.24,23.7 -1.21,5.63 -0.45,10.42 2.25,14.36 2.71,3.95 8.07,8.15 16.1,12.6l185.73 103.01c8.02,4.46 14.39,6.85 19.1,7.19 4.71,0.34 9.09,-1.43 13.16,-5.29 4.06,-3.87 8.92,-10.88 14.56,-21.04 0.44,-0.8 1.46,-0.76 3.07,0.14 1.6,0.88 2.18,1.72 1.74,2.53l-11.31 19.43c-6.76,10.94 -12.08,19.88 -15.93,26.83 -3.27,5.89 -6.17,11.45 -8.72,16.68 -2.55,5.23 -4.66,9.65 -6.32,13.28 -4.83,10.61 -9.39,19.78 -13.7,27.54zm-86.17 3.09c20.87,11.58 38.4,15.26 52.61,11.08 14.21,-4.18 26.21,-15.09 36,-32.75 5.78,-10.42 7.91,-18.69 6.39,-24.78 -1.51,-6.09 -8.02,-12.31 -19.52,-18.69l-84.24 -46.73c-4.64,5.83 -9.54,13.42 -14.73,22.78 -11.58,20.86 -15.3,38.29 -11.17,52.29 4.11,14.01 15.67,26.27 34.66,36.8zm-369.57 165.38c16.91,-22.87 37.3,-39.27 61.17,-49.2 23.87,-9.92 48.56,-12.96 74.06,-9.14 25.5,3.82 49.08,13.74 70.72,29.73 25.33,18.72 42.31,41.16 50.93,67.3 8.63,26.15 10.09,52.61 4.37,79.37 -5.7,26.77 -16.28,50.61 -31.74,71.52 -17.26,23.37 -37.91,39.85 -61.94,49.47 -24.04,9.62 -48.53,12.54 -73.48,8.73 -24.95,-3.79 -47.5,-13.15 -67.67,-28.05 -22.39,-16.54 -38.56,-37.62 -48.52,-63.24 -9.97,-25.62 -13.06,-52.32 -9.24,-80.12 3.8,-27.8 14.26,-53.25 31.34,-76.37zm-1.8 18.64c-12.35,16.72 -19.43,34.78 -21.22,54.19 -1.79,19.4 2.26,38.74 12.15,58.03 9.9,19.29 25.79,37.02 47.68,53.2 23.11,17.08 46.83,27.96 71.15,32.61 24.31,4.67 47.28,2.91 68.91,-5.25 21.63,-8.17 40.17,-22.7 55.61,-43.6 20,-27.06 26.89,-54.66 20.7,-82.82 -6.2,-28.15 -24.54,-53.49 -55.03,-76.03 -23.12,-17.09 -47.39,-28.37 -72.82,-33.84 -25.42,-5.49 -49.33,-4.52 -71.72,2.88 -22.4,7.41 -40.86,20.95 -55.41,40.63zm-463.69 432.22c6.24,-4.41 25.72,-2.16 58.41,6.77 32.7,8.92 74.63,23.39 125.83,43.39l-16.49 21.19c-43.78,-15.88 -79.11,-27.34 -105.98,-34.38 -26.88,-7.05 -48.67,-10.46 -65.38,-10.28 -16.71,0.2 -30.44,4.09 -41.18,11.68 -0.75,0.52 -1.65,0.04 -2.71,-1.46 -1.05,-1.5 -1.21,-2.51 -0.47,-3.04l47.97 -33.87zm260.6 168.64c-19.73,13.94 -38.15,20.2 -55.24,18.79 -17.1,-1.41 -30.93,-9.61 -41.51,-24.59 -9.35,-13.24 -13.99,-28.03 -13.92,-44.37 0.07,-16.33 4.42,-32.31 13.03,-47.94 8.62,-15.64 20.42,-28.74 35.41,-39.33 1.49,-1.05 7.38,-4.65 17.65,-10.78l-60.06 -85.06c-5.47,-7.74 -10.19,-12.83 -14.16,-15.28 -3.97,-2.43 -8.58,-2.73 -13.83,-0.9 -5.25,1.84 -12.63,6.11 -22.13,12.81 -0.75,0.53 -1.65,0.05 -2.71,-1.45 -1.05,-1.49 -1.21,-2.51 -0.46,-3.04 7.75,-5.47 13.95,-9.67 18.63,-12.59l26.12 -17.88 25.21 -18.37c4.32,-3.43 10.6,-8.05 18.85,-13.87 0.5,-0.36 1.28,0.22 2.33,1.72 1.06,1.5 1.34,2.42 0.84,2.77 -9.5,6.71 -16,12.34 -19.52,16.88 -3.53,4.55 -4.93,9.19 -4.21,13.92 0.72,4.73 3.72,10.85 9.02,18.35l122.51 173.48c5.29,7.5 9.98,12.43 14.08,14.78 4.09,2.34 8.81,2.66 14.15,0.95 5.34,-1.72 12.76,-5.92 22.26,-12.62 0.75,-0.53 1.64,-0.05 2.7,1.45 1.06,1.5 1.22,2.51 0.47,3.04l-18.63 12.59c-10.84,6.91 -19.51,12.66 -26.01,17.24 -5.5,3.88 -10.53,7.63 -15.1,11.23 -4.57,3.6 -8.39,6.67 -11.46,9.22 -8.96,7.45 -17.06,13.73 -24.31,18.85zm-78.95 -34.66c13.76,19.49 27.95,30.43 42.57,32.84 14.61,2.4 30.16,-2.21 46.65,-13.85 9.74,-6.88 15.25,-13.4 16.53,-19.54 1.28,-6.15 -1.87,-14.58 -9.46,-25.33l-55.57 -78.68c-6.7,3.23 -14.42,7.93 -23.16,14.1 -19.49,13.77 -30.42,27.85 -32.79,42.25 -2.38,14.4 2.71,30.47 15.23,48.21zm-313.25 89.94l-114.35 41.23 -6.13 -7.53 121.69 -43.88 -1.21 10.18zm-257.64 -45.1c-1.15,0.42 -2.03,-0.23 -2.66,-1.96 -0.62,-1.73 -0.36,-2.8 0.79,-3.21 5.48,-1.98 14.07,-4.74 25.78,-8.32 11.71,-3.57 20.16,-6.3 25.33,-8.17 6.33,-2.28 14.29,-5.47 23.86,-9.57 9,-3.89 15.94,-6.72 20.83,-8.49 1.15,-0.41 2.05,0.24 2.67,1.97 0.62,1.73 0.35,2.79 -0.8,3.21 -10.93,3.94 -18.41,7.77 -22.43,11.51 -4.02,3.72 -5.1,8.17 -3.23,13.34 1.56,4.32 5.47,9.74 11.72,16.26l168.77 167.85 -5.97 17.26 12.31 -228.25c0.49,-11.24 -0.4,-20.02 -2.68,-26.35 -6.12,-16.97 -23.28,-20.38 -51.48,-10.21 -1.44,0.52 -2.46,-0.08 -3.08,-1.81 -0.62,-1.72 -0.22,-2.85 1.22,-3.37 5.18,-1.86 12.77,-4.27 22.76,-7.22 11.13,-3.37 20.73,-6.51 28.78,-9.42 7.48,-2.69 16.01,-6.09 25.59,-10.19 8.42,-3.68 15.51,-6.57 21.26,-8.64 1.44,-0.52 2.46,0.08 3.08,1.81 0.63,1.73 0.22,2.84 -1.22,3.36 -8.05,2.9 -14.33,6.88 -18.86,11.93 -4.52,5.04 -7.92,12.28 -10.21,21.72 -2.28,9.44 -3.85,22.44 -4.7,39.01l-13.57 247.72c-0.26,1.08 -1.11,1.86 -2.55,2.38 -1.44,0.52 -2.46,0.41 -3.05,-0.35l-179.18 -177.75c-17.46,-17.76 -30.96,-29.06 -40.51,-33.91 -9.56,-4.85 -19.07,-5.56 -28.57,-2.14zm-228.42 308.61c-19.25,0.76 -35.5,0.02 -48.75,-2.21 -13.25,-2.23 -26.58,-6.45 -39.98,-12.66 -2.19,-1.14 -3.45,-2.17 -3.79,-3.06 -0.34,-0.91 -0.89,-3.18 -1.64,-6.82l-7.66 -54.34c-0.03,-0.91 0.79,-1.49 2.46,-1.7 1.68,-0.22 2.69,0.12 3.03,1.03 16.06,50.48 48.54,74.76 97.43,72.84 25.67,-1.01 48.14,-7.56 67.4,-19.65 19.27,-12.08 33.84,-28.79 43.7,-50.14 9.88,-21.36 14.27,-45.94 13.18,-73.75 -1.05,-26.58 -7.96,-50.72 -20.76,-72.4 -12.79,-21.69 -29.44,-38.55 -49.96,-50.61 -20.52,-12.04 -42.55,-17.6 -66.07,-16.67 -25.06,0.98 -45.14,7.89 -60.24,20.72 -15.11,12.85 -26.3,31.95 -33.55,57.34 0.02,0.6 -0.74,0.94 -2.27,1 -2.14,0.09 -3.22,-0.33 -3.26,-1.25l2.6 -50.6c0.16,-3.68 0.53,-5.98 1.1,-6.93 0.59,-0.94 1.76,-2.06 3.54,-3.35 15.6,-8.27 30.29,-14.2 44.07,-17.81 13.78,-3.59 29.69,-5.75 47.72,-6.46 32.09,-1.26 60.98,3.95 86.69,15.64 25.71,11.69 46.04,28.72 61,51.08 14.96,22.37 23.02,48.37 24.18,78.01 1.13,28.73 -5.04,54.45 -18.54,77.17 -13.49,22.72 -32.6,40.68 -57.32,53.9 -24.73,13.22 -52.84,20.45 -84.31,21.68zm-512.03 -123.19c-2.47,8.83 -3.34,15.65 -2.62,20.46 0.73,4.8 3.5,8.83 8.3,12.07 4.82,3.25 12.96,6.48 24.45,9.69 0.89,0.24 1.08,1.24 0.58,3.01 -0.49,1.77 -1.17,2.53 -2.06,2.28l-21.08 -6.36c-12.81,-4.2 -23.47,-7.5 -32.02,-9.88 -7.94,-2.22 -18.19,-4.75 -30.73,-7.62l-21.78 -5.6c-0.87,-0.24 -1.07,-1.25 -0.58,-3.01 0.5,-1.78 1.19,-2.53 2.06,-2.28 11.2,3.12 19.68,4.6 25.43,4.46 5.76,-0.14 10.16,-2 13.23,-5.59 3.06,-3.59 5.83,-9.8 8.29,-18.65l57.07 -204.57c2.46,-8.84 3.34,-15.65 2.61,-20.47 -0.72,-4.8 -3.52,-8.67 -8.42,-11.63 -4.89,-2.95 -12.93,-5.99 -24.13,-9.11 -0.87,-0.25 -1.07,-1.25 -0.58,-3.02 0.49,-1.76 1.18,-2.53 2.06,-2.28 9.13,2.54 16.32,4.7 21.53,6.48l30.36 8.95 32.38 8.55c5.39,1.18 12.5,3.01 21.34,5.48 0.88,0.24 1.07,1.25 0.58,3.01 -0.5,1.78 -1.17,2.53 -2.06,2.29 -11.49,-3.21 -20.09,-4.81 -25.81,-4.82 -5.71,0 -10.12,1.86 -13.23,5.6 -3.1,3.74 -5.89,10.02 -8.35,18.86l-56.82 203.7zm210.52 -39.38l-197.5 -55.1 2.59 -9.27 197.5 55.09 -2.59 9.28zm-12.82 95.47c-2.46,8.85 -3.32,15.59 -2.55,20.25 0.77,4.66 3.57,8.53 8.42,11.63 4.85,3.1 12.88,6.22 24.07,9.34 0.59,0.17 0.63,1.12 0.14,2.9 -0.49,1.76 -1.03,2.56 -1.62,2.4l-22.41 -6.73c-12.21,-4.04 -22,-7.09 -29.36,-9.14 -8.54,-2.39 -19.37,-5.09 -32.5,-8.12l-21.34 -5.47c-0.58,-0.16 -0.64,-1.13 -0.14,-2.9 0.49,-1.77 1.03,-2.56 1.62,-2.4 11.19,3.12 19.76,4.56 25.71,4.31 5.94,-0.24 10.47,-2.24 13.57,-5.97 3.11,-3.75 5.89,-10.03 8.36,-18.86l56.82 -203.7c2.47,-8.84 3.34,-15.65 2.62,-20.47 -0.73,-4.8 -3.54,-8.67 -8.43,-11.63 -4.89,-2.95 -13.08,-6.03 -24.57,-9.24 -0.59,-0.16 -0.64,-1.12 -0.15,-2.89 0.5,-1.77 1.04,-2.57 1.63,-2.41 9.13,2.55 16.3,4.71 21.53,6.49l31.69 9.32 30.61 8.06c5.38,1.18 12.79,3.09 22.21,5.71 0.6,0.17 0.64,1.14 0.15,2.9 -0.5,1.77 -1.03,2.57 -1.63,2.4 -11.19,-3.12 -19.72,-4.7 -25.57,-4.74 -5.87,-0.05 -10.35,1.79 -13.45,5.53 -3.11,3.74 -5.89,10.02 -8.36,18.86l-57.07 204.57zm-615.62 -302.74c-17.29,24.48 -15.06,44.41 6.67,59.75 0.75,0.53 0.6,1.54 -0.46,3.04 -1.06,1.5 -1.97,1.98 -2.72,1.45l-15.84 -11.75c-8.64,-6.85 -15.59,-12.13 -20.83,-15.83 -4.25,-3 -10.55,-7.07 -18.9,-12.22l-16 -10.73c-0.5,-0.36 -0.22,-1.28 0.84,-2.78 1.06,-1.5 1.83,-2.07 2.34,-1.71 19.98,14.1 38.61,8.91 55.9,-15.57l75.14 -106.42c20.28,-28.73 44.11,-45.5 71.48,-50.33 27.36,-4.82 54.53,2.29 81.52,21.34 18.48,13.05 32.1,28.09 40.86,45.13 8.74,17.04 12.21,34.92 10.39,53.66 -1.82,18.75 -9.07,37.12 -21.77,55.11l-84.67 119.91c-5.29,7.5 -8.43,13.52 -9.39,18.08 -0.98,4.55 0.24,9.06 3.64,13.52 3.41,4.46 9.85,10.05 19.34,16.75 0.5,0.35 0.22,1.27 -0.84,2.77 -1.05,1.5 -1.83,2.08 -2.33,1.72l-18.1 -13.34c-10.13,-7.9 -18.45,-14.15 -24.95,-18.74 -6.74,-4.76 -15.79,-10.77 -27.13,-18.03l-17.5 -11.8c-0.76,-0.53 -0.6,-1.55 0.45,-3.04 1.07,-1.5 1.97,-1.98 2.72,-1.45 9.24,6.52 16.58,10.58 22.01,12.16 5.43,1.59 10.17,1.1 14.23,-1.46 4.06,-2.57 8.73,-7.59 14.02,-15.08l74.88 -106.05c20.81,-29.49 30.07,-56.64 27.76,-81.48 -2.3,-24.83 -15.57,-45.81 -39.8,-62.92 -22.48,-15.87 -44.96,-21.16 -67.42,-15.87 -22.45,5.29 -42.5,20.43 -60.14,45.42l-75.4 106.79zm-186.58 -105.05l-6.81 -8.11 159.37 -159.16c11.25,-11.24 17.3,-21.29 18.18,-30.15 0.87,-8.87 -3.12,-17.74 -11.98,-26.62 -0.65,-0.64 -0.33,-1.61 0.98,-2.91 1.29,-1.29 2.27,-1.62 2.91,-0.97 5.41,5.41 9.4,9.63 11.99,12.66l15.89 16.55 16.85 16.23c3.25,2.81 7.79,7.14 13.62,12.98 0.43,0.43 0,1.3 -1.3,2.6 -1.3,1.3 -2.16,1.72 -2.59,1.29 -9.3,-9.31 -18.32,-13.46 -27.09,-12.5 -8.75,0.97 -18.76,7.07 -30.01,18.3l-160.01 159.81zm35.91 -362.61c0.44,-0.44 1.29,-0.22 2.59,0.65 1.3,0.86 1.95,1.73 1.95,2.59l-31.67 329.86c-1.53,15.35 -1.1,27.58 1.27,36.66 2.37,9.08 6.36,16.44 11.98,22.06 0.65,0.65 0.33,1.62 -0.97,2.92 -1.29,1.3 -2.27,1.62 -2.92,0.97l-11.67 -12.33c-2.38,-2.81 -5.83,-6.5 -10.37,-11.04 -4.75,-4.76 -8.75,-8.54 -11.99,-11.36 -3.25,-2.81 -5.73,-5.09 -7.46,-6.81 -1.51,-1.52 -2.37,-3.14 -2.59,-4.88 -0.22,-1.73 0.22,-4.42 1.3,-8.11 1.3,-6.48 2.28,-12.86 2.93,-19.12l29.7 -288.99 27.92 -33.07zm0 0l-2.61 17.52 -160.98 160.77c-11.25,11.24 -17.47,21.24 -18.67,29.99 -1.2,8.76 2.63,17.58 11.49,26.45 0.43,0.43 0.01,1.29 -1.29,2.59 -1.3,1.3 -2.17,1.73 -2.6,1.3l-12.32 -12.99c-6.05,-6.92 -11.12,-12.43 -15.23,-16.55 -3.89,-3.89 -9.51,-9.09 -16.86,-15.58l-13.61 -12.98c-0.65,-0.65 -0.33,-1.63 0.97,-2.92 1.3,-1.3 2.27,-1.62 2.92,-0.97 9.08,9.09 18.15,13.2 27.24,12.34 9.08,-0.86 19.25,-6.91 30.5,-18.14l171.05 -170.83zm-304.24 16.48c-7.62,5.12 -12.7,9.63 -15.23,13.54 -2.53,3.91 -3,8.56 -1.41,13.94 1.59,5.38 5.62,12.9 12.1,22.55 0.34,0.5 -0.25,1.26 -1.78,2.28 -1.52,1.02 -2.45,1.29 -2.79,0.78l-12.41 -19.3c-6.65,-11 -12.11,-19.68 -16.36,-26.02 -4.95,-7.37 -11.26,-16.21 -18.93,-26.53l-12.4 -17.64c-0.51,-0.77 0,-1.66 1.52,-2.68 1.52,-1.03 2.54,-1.15 3.05,-0.39 6.3,9.39 11.72,15.8 16.23,19.22 4.5,3.42 9.15,4.71 13.94,3.9 4.79,-0.83 10.99,-3.8 18.61,-8.91l175.56 -117.89c7.87,-5.28 13.07,-9.88 15.61,-13.79 2.52,-3.91 2.93,-8.51 1.22,-13.81 -1.72,-5.3 -5.81,-12.77 -12.29,-22.42 -0.51,-0.76 -0.01,-1.65 1.52,-2.67 1.52,-1.02 2.54,-1.16 3.05,-0.39 5.11,7.61 9.08,13.79 11.89,18.54l17.52 26.91 17.77 25.64c3.33,4.39 7.71,10.66 13.17,18.78 0.34,0.51 -0.25,1.27 -1.77,2.29 -1.53,1.03 -2.45,1.29 -2.8,0.77 -6.48,-9.64 -11.84,-16.25 -16.1,-19.84 -4.25,-3.6 -8.77,-4.99 -13.56,-4.16 -4.79,0.82 -10.99,3.78 -18.62,8.9l-176.31 118.4zm52.25 -85.92l-28.01 -8.81 33.49 -103.17c11.68,-34.73 19.19,-60.31 22.52,-76.72 3.34,-16.43 4.1,-27.91 2.3,-34.43 -1.79,-6.53 -6.11,-14.87 -12.93,-25.02 -0.51,-0.77 -0.01,-1.66 1.52,-2.68 1.52,-1.02 2.54,-1.15 3.05,-0.39l28.64 42.66c1.36,2.02 3.86,5.6 7.48,10.72 3.62,5.12 2.04,16.76 -4.72,34.94 -6.76,18.17 -12.7,35.24 -17.82,51.2l-35.52 111.7zm-123.6 -20.33c-14.01,-2.75 -23.04,-2.76 -27.1,-0.04 -5.08,3.41 -2.59,12.62 7.47,27.59 0.34,0.51 -0.24,1.27 -1.77,2.3 -1.52,1.02 -2.46,1.28 -2.8,0.77l-10.61 -16.64c-6.32,-10.49 -12.28,-19.93 -17.9,-28.3 -5.63,-8.38 -11.77,-16.97 -18.41,-25.77l-9.85 -13.84c-0.51,-0.75 0,-1.65 1.52,-2.67 1.53,-1.02 2.54,-1.15 3.05,-0.39 6.99,10.41 16.69,19.91 29.1,28.52 12.42,8.61 26.98,14.68 43.7,18.18l161.06 33.3 6.39 9.52 -163.85 -32.53zm54.01 -419.78c12.78,25.4 18.22,51 16.3,76.78 -1.92,25.79 -10.35,49.19 -25.27,70.22 -14.92,21.03 -34.41,37.59 -58.45,49.69 -28.14,14.15 -55.82,19.18 -83.04,15.08 -27.23,-4.1 -51.5,-14.75 -72.8,-31.93 -21.31,-17.17 -37.81,-37.37 -49.5,-60.6 -13.05,-25.95 -18.44,-51.82 -16.18,-77.61 2.26,-25.78 10.71,-48.95 25.37,-69.5 14.64,-20.56 33.17,-36.46 55.58,-47.73 24.86,-12.51 50.96,-17.43 78.32,-14.76 27.37,2.67 52.59,11.97 75.67,27.92 23.09,15.94 41.08,36.75 54,62.44zm-15.82 -10.02c-9.34,-18.57 -22.26,-33.04 -38.78,-43.39 -16.5,-10.36 -35.59,-15.48 -57.26,-15.35 -21.68,0.12 -44.68,6.3 -69,18.53 -25.67,12.91 -46.08,29.17 -61.21,48.77 -15.14,19.59 -23.94,40.88 -26.41,63.87 -2.48,22.98 2.13,46.08 13.81,69.3 15.12,30.05 36.64,48.67 64.55,55.85 27.93,7.17 58.82,2.25 92.69,-14.8 25.68,-12.92 46.7,-29.48 63.06,-49.7 16.37,-20.21 26.3,-41.98 29.8,-65.31 3.5,-23.33 -0.25,-45.91 -11.25,-67.77zm-140.29 -346.19c1.25,-0.08 2.37,1.32 3.32,4.23 0.76,2.32 0.7,4.11 -0.18,5.37l-200.22 185.86c-9.9,9.04 -16.25,16.92 -19.04,23.63 -2.79,6.71 -2.71,14.56 0.24,23.57 0.29,0.88 -0.43,1.59 -2.18,2.16 -1.74,0.57 -2.76,0.43 -3.04,-0.44l-5 -16.71c-2.09,-8.33 -3.94,-14.97 -5.56,-19.91 -3.42,-10.45 -7.44,-21.69 -12.02,-33.71l-6.3 -17.72c-0.28,-0.87 0.45,-1.6 2.19,-2.17 1.75,-0.57 2.75,-0.42 3.04,0.46 2.86,8.71 6,14.85 9.42,18.39 3.41,3.54 7.59,4.5 12.52,2.89 4.37,-1.43 9.13,-4.6 14.27,-9.51l176.19 -164.95 26.06 8.83 -161.25 -10.36 7.44 -9.68 160.1 9.77zm-354.9 -163.61c-0.19,-0.58 0.59,-1.16 2.33,-1.73 1.75,-0.57 2.71,-0.56 2.9,0.02 3.24,9.87 8.68,17.59 16.28,23.14 7.62,5.55 18.52,8.89 32.74,10.03l262.77 16.64c1.25,-0.08 2.37,1.32 3.32,4.23 0.76,2.33 0.7,4.12 -0.18,5.37l-200.36 185.43c-9.61,8.94 -15.89,16.8 -18.83,23.55 -2.93,6.76 -3.02,14.34 -0.26,22.77 0.29,0.88 -0.43,1.6 -2.18,2.17 -1.74,0.57 -2.75,0.42 -3.04,-0.45l-5 -16.71c-1.89,-7.74 -3.65,-14.09 -5.27,-19.02 -2.67,-8.15 -5.73,-16.48 -9.16,-25l-4.3 -11.63c-0.28,-0.87 0.45,-1.59 2.19,-2.16 1.74,-0.57 2.75,-0.42 3.04,0.44 1.71,5.24 3.46,8.84 5.24,10.84 1.78,1.99 3.98,2.56 6.59,1.7 3.49,-1.14 10.04,-6.19 19.66,-15.14l176.04 -165.38 26.07 8.83 -254.94 -16.32c-6.86,-0.33 -12.04,0.08 -15.53,1.23 -6.39,2.09 -10.16,6.31 -11.3,12.63 -1.15,6.33 0.14,15.16 3.85,26.49 0.29,0.88 -0.43,1.6 -2.18,2.17 -1.74,0.57 -2.75,0.42 -3.04,-0.45l-5.57 -18.46c-2.66,-10.06 -5.27,-19.02 -7.84,-26.87 -1.91,-5.8 -4.4,-12.4 -7.45,-19.76l-6.59 -18.6zm92.08 155.66c-8.99,-0.91 -15.94,-0.56 -20.88,1.06 -8.43,2.77 -10.6,10.39 -6.51,22.89 0.29,0.87 -0.43,1.59 -2.18,2.17 -1.74,0.57 -2.76,0.42 -3.04,-0.46l-2.85 -10.17c-1.33,-5.99 -3.03,-12.19 -5.13,-18.58 -1.91,-5.82 -4.39,-12.4 -7.45,-19.77l-6.3 -17.73c-0.19,-0.58 0.59,-1.16 2.33,-1.73 1.75,-0.57 2.71,-0.56 2.9,0.02 3.24,9.88 8.52,17.4 15.85,22.56 7.32,5.16 18.24,8.26 32.73,9.3l102.54 6.45 -7.45 9.68 -94.56 -5.69z"/>
   <path class="fil1" d="M2952.01 6687.41c0.13,0.59 -0.7,1.08 -2.49,1.47 -1.8,0.39 -2.75,0.29 -2.88,-0.31 -2.46,-11.36 -5.01,-19.49 -7.64,-24.39 -2.63,-4.92 -6.32,-7.87 -11.07,-8.87 -4.76,-1.01 -11.62,-0.53 -20.59,1.41l-207.56 44.98c-8.97,1.94 -15.34,4.33 -19.1,7.19 -3.77,2.84 -5.9,7.05 -6.41,12.65 -0.51,5.58 0.46,14.05 2.92,25.42 0.13,0.59 -0.69,1.08 -2.49,1.47 -1.79,0.39 -2.75,0.29 -2.88,-0.31l-39.06 -180.23c-0.58,-2.68 0.48,-4.32 3.17,-4.91l54.94 -12.84c0.9,-0.2 1.6,0.51 2.11,2.13 0.5,1.61 0.31,2.51 -0.59,2.7 -15.65,4.34 -26.94,11.79 -33.87,22.37 -6.95,10.58 -8.87,23.03 -5.76,37.38l5.93 27.35c2.27,10.46 4.77,18.06 7.52,22.78 2.75,4.72 6.27,7.64 10.58,8.74 4.3,1.09 10.64,0.74 19.01,-1.07l203.54 -44.11c8.07,-1.74 13.91,-4.03 17.52,-6.84 3.62,-2.82 5.65,-6.78 6.1,-11.89 0.46,-5.11 -0.4,-12.74 -2.6,-22.9l-7.78 -35.87c-3.11,-14.35 -10.78,-25.2 -23.01,-32.56 -12.24,-7.36 -27.68,-10.75 -46.32,-10.14 -0.6,0.13 -1.03,-0.4 -1.29,-1.61 -0.19,-0.89 -0.15,-1.77 0.14,-2.61 0.29,-0.84 0.58,-1.3 0.88,-1.36 19.41,-1.38 39.43,-4.32 60.05,-8.79 2.4,-0.52 4.22,-0.36 5.49,0.46 1.27,0.82 2.21,2.57 2.79,5.26l40.7 187.85zm-139.72 -140.11c-13.15,2.85 -21.87,8.1 -26.15,15.75 -4.29,7.67 -4.82,18.96 -1.58,33.91l14.57 67.25 -9.41 2.04 -14.86 -68.6c-3.11,-14.34 -7.72,-24.06 -13.83,-29.15 -6.11,-5.1 -14.84,-6.41 -26.2,-3.95 -0.6,0.13 -1.09,-0.7 -1.48,-2.49 -0.39,-1.8 -0.28,-2.76 0.31,-2.89l36.42 -7.42c8.66,-1.88 15.2,-3.45 19.62,-4.72l21.43 -5.11c0.6,-0.13 1.09,0.7 1.48,2.5 0.39,1.78 0.28,2.75 -0.32,2.88z"/>
   <path class="fil1" d="M3608.18 6957.87l288.94 0 568.88 0 288.91 0c392.89,0 795.61,-229.23 795.61,-691.27 0,-433.4 -396.17,-662.64 -762.87,-655.47l13.09 -10.75c284.86,-42.98 579.52,-257.88 579.52,-562.34 0,-397.57 -376.51,-562.33 -697.37,-565.91l-287.36 0 -1.56 -0.03 -785.79 0c-19.64,0 -16.36,25.07 0,25.07l153.89 0c16.38,0 22.92,7.18 22.92,25.07l0 1364.33c43.99,-15.77 93.84,-15.37 137.51,1.29l0 -1365.62c0,-17.34 6.14,-24.61 21.41,-25.05l107.08 0c16.38,0 22.92,7.17 22.92,25.08l0 2385.45c0,17.91 -9.82,25.08 -22.92,25.08l-105.57 0c-16.38,0 -22.92,-7.17 -22.92,-25.08l0 -1133.59c-43.67,16.36 -93.52,17.88 -137.51,3.13l0 1130.46c0,17.91 -9.83,25.08 -22.92,25.08l-153.89 0c-19.64,0 -19.64,25.07 0,25.07zm1080.84 -25.07c308.84,-70.88 572.58,-292.29 572.58,-666.21 0,-372.81 -293.14,-594.55 -608.5,-644.71 433.91,0.62 746.8,137.25 746.8,644.72 0,476.36 -291.39,666.2 -644.99,666.2l-65.89 0zm-155.89 -1336c278.05,-50.21 558.2,-261.9 558.2,-558.78 0,-312.65 -232.82,-481.3 -488.32,-540.83l70.05 0c291.4,0 569.69,132.53 569.69,540.85 0,397.58 -242.28,558.76 -625.35,558.76l-84.27 0zm-146.25 -1099.61c290.4,0.83 566.95,133.79 566.95,540.83 0,397.59 -242.28,558.76 -625.35,558.76l-95.64 0c-15.27,-0.44 -21.42,-7.7 -21.42,-25.05l0 -1049.46c0,-17.91 6.55,-25.08 22.93,-25.08l152.53 0zm-21.6 1124.68c433.34,0.85 745.71,137.69 745.71,644.72 0,476.38 -291.39,666.21 -644.99,666.21l-231.65 0c-16.38,0 -22.93,-7.17 -22.93,-25.08l0 -1260.77c0,-17.91 6.55,-25.08 22.93,-25.08l130.93 0z"/>
  </g>
 </g>
</svg>
