<?xml version="1.0" encoding="UTF-8"?>
<!DOCTYPE svg PUBLIC "-//W3C//DTD SVG 1.1//EN" "http://www.w3.org/Graphics/SVG/1.1/DTD/svg11.dtd">
<!-- Creator: CorelDRAW -->
<svg xmlns="http://www.w3.org/2000/svg" xml:space="preserve" width="101.6mm" height="76.1998mm" version="1.1" style="shape-rendering:geometricPrecision; text-rendering:geometricPrecision; image-rendering:optimizeQuality; fill-rule:evenodd; clip-rule:evenodd"
viewBox="0 0 10159.98 7619.98"
 xmlns:xlink="http://www.w3.org/1999/xlink"
 xmlns:xodm="http://www.corel.com/coreldraw/odm/2003">
 <defs>
  <style type="text/css">
   <![CDATA[
    .fil0 {fill:#E3D9CF;fill-rule:nonzero}
   ]]>
  </style>
 </defs>
 <g id="Warstwa_x0020_1">
  <metadata id="CorelCorpID_0Corel-Layer"/>
  <path class="fil0" d="M4172.9 4301.11c0,-6.37 -0.63,-11.04 -1.91,-14.01 -1.27,-2.98 -3.76,-5.05 -7.48,-6.21 -3.72,-1.17 -9.61,-1.76 -17.68,-1.76 -0.42,0 -0.64,-0.63 -0.64,-1.91 0,-1.27 0.22,-1.91 0.64,-1.91l15.93 0.32c8.91,0.42 16.03,0.64 21.34,0.64 6.16,0 13.69,-0.22 22.61,-0.64l14.97 -0.32c0.64,0 0.96,0.64 0.96,1.91 0,1.28 -0.32,1.91 -0.96,1.91 -7.85,0 -13.64,0.64 -17.36,1.92 -3.71,1.27 -6.26,3.44 -7.64,6.53 -1.38,3.07 -2.07,7.8 -2.07,14.17l0 146.83c0,6.59 0.63,11.36 1.91,14.34 1.27,2.96 3.77,4.98 7.48,6.05 3.72,1.06 9.61,1.59 17.68,1.59 0.64,0 0.96,0.64 0.96,1.91 0,1.27 -0.32,1.91 -0.96,1.91 -6.37,0 -11.47,-0.11 -15.29,-0.32l-22.29 -0.32 -21.66 0.32c-3.83,0.21 -9.13,0.32 -15.93,0.32 -0.42,0 -0.63,-0.64 -0.63,-1.91 0,-1.27 0.21,-1.91 0.63,-1.91 8.07,0 13.96,-0.53 17.68,-1.59 3.72,-1.07 6.27,-3.14 7.64,-6.21 1.38,-3.08 2.07,-7.81 2.07,-14.18l0 -147.47zm-1468.72 -1592.38c189.91,0 361.18,124.52 484.55,325.84 121.79,198.74 197.12,472.92 197.12,775.43 0,302.49 -75.33,576.67 -197.13,775.41 -123.36,201.32 -294.63,325.84 -484.54,325.84 -189.9,0 -361.17,-124.52 -484.54,-325.84 -121.79,-198.74 -197.12,-472.92 -197.12,-775.41 0,-302.51 75.33,-576.69 197.12,-775.43 123.37,-201.32 294.64,-325.84 484.54,-325.84zm-331.07 1057.66l45.21 -45.21 45.21 45.21 -45.21 45.22 -45.21 -45.22zm64.43 534.68l338.92 0c155.23,0 314.35,-90.57 314.35,-273.13 0,-171.24 -156.53,-261.81 -301.41,-258.99l5.17 -4.24c112.55,-16.98 228.97,-101.89 228.97,-222.19 0,-157.09 -148.76,-222.18 -275.54,-223.6l-113.7 0 -0.45 -0.01 -310.48 0c-7.76,0 -6.46,9.91 0,9.91l60.8 0c6.47,0 9.06,2.83 9.06,9.9l0 361.12c17.38,-6.23 37.08,-6.08 54.34,0.51l0 -361.63c0,-6.85 2.42,-9.72 8.45,-9.89l42.31 0c6.47,0 9.06,2.82 9.06,9.9l0 942.53c0,6.96 -3.76,9.81 -8.82,9.9l-41.95 0 -0.3 0c-6.25,-0.09 -8.75,-2.94 -8.75,-9.9l0 -447.9c-17.26,6.46 -36.96,7.06 -54.34,1.24l0 446.66c0,7.07 -3.88,9.9 -9.06,9.9l-60.8 0c-7.76,0 -7.76,9.91 0,9.91l113.99 0 0.18 0zm298.68 -527.87c171.45,0.25 295.08,54.23 295.08,254.74 0,188.22 -115.13,263.22 -254.84,263.22l-26.04 0c122.03,-28 226.24,-115.48 226.24,-263.23 0,-147.3 -115.84,-234.92 -240.44,-254.73zm-165.74 517.96c-6.25,-0.09 -8.76,-2.94 -8.76,-9.9l0 -498.15c0,-7.08 2.59,-9.91 9.06,-9.91l51.91 0c171.13,0.37 294.46,54.47 294.46,254.73 0,188.23 -115.13,263.23 -254.84,263.23l-91.83 0zm398.73 -748.64c0,157.09 -95.73,220.77 -247.08,220.77l-33.28 0c109.86,-19.84 220.53,-103.49 220.53,-220.77 0,-123.53 -91.98,-190.17 -192.94,-213.69l27.68 0c115.13,0 225.09,52.36 225.09,213.69zm-399.03 220.77c-6.03,-0.18 -8.46,-3.05 -8.46,-9.9l0 -414.66c0,-7.08 2.59,-9.9 9.06,-9.9l60.38 0c114.7,0.36 223.89,52.91 223.89,213.69 0,157.09 -95.72,220.77 -247.08,220.77l-37.79 0zm134 -1138.64c210.5,0 400.89,133 538.55,348.02 137.24,214.37 222.13,510.42 222.13,837.33 0,326.9 -84.89,622.95 -222.14,837.31 -137.65,215.02 -328.04,348.02 -538.54,348.02 -210.48,0 -400.89,-133 -538.54,-348.02 -137.24,-214.37 -222.13,-510.41 -222.13,-837.31 0,-326.91 84.89,-622.96 222.13,-837.33 137.65,-215.02 328.06,-348.02 538.54,-348.02zm530.13 353.43c-135.83,-212.18 -323.28,-343.4 -530.13,-343.4 -206.84,0 -394.29,131.23 -530.12,343.4 -136.25,212.81 -220.53,506.94 -220.53,831.92 0,324.96 84.28,619.09 220.53,831.91 135.83,212.16 323.28,343.4 530.12,343.4 206.86,0 394.3,-131.24 530.13,-343.4 136.25,-212.81 220.53,-506.95 220.53,-831.91 0,-324.98 -84.28,-619.11 -220.53,-831.92zm-75.45 74.71c-116.98,-190.9 -277.8,-308.98 -454.68,-308.98 -176.87,0 -337.69,118.08 -454.67,308.98 -118.57,193.49 -191.91,461.19 -191.91,757.21 0,296.01 73.34,563.7 191.91,757.19 116.98,190.9 277.8,308.98 454.67,308.98 176.88,0 337.69,-118.08 454.68,-308.98 118.57,-193.49 191.92,-461.18 191.92,-757.19 0,-296.02 -73.35,-563.72 -191.92,-757.21zm4518.61 1229.85l7.33 0.63 0 156.39c0,11.04 1.97,18.95 5.89,23.73 3.93,4.78 10.25,7.17 18.96,7.17 0.63,0 0.95,0.64 0.95,1.91 0,1.27 -0.32,1.91 -0.95,1.91 -5.32,0 -9.35,-0.11 -12.11,-0.32l-15.92 -0.32 -16.25 0.32c-2.97,0.21 -7.32,0.32 -13.06,0.32 -0.42,0 -0.63,-0.64 -0.63,-1.91 0,-1.27 0.21,-1.91 0.63,-1.91 9.13,0 15.61,-2.39 19.43,-7.17 3.82,-4.78 5.73,-12.69 5.73,-23.73l0 -157.02zm-3278.97 -776.18c47.91,0 90.25,9.41 127.05,28.23 73.26,37.49 116.78,104.56 116.78,187.37 0,141.19 -106.86,242.55 -245.12,242.55 -29.08,0 -59.89,-1.28 -92.4,-3.85 -32.58,-2.32 -64.85,-3.85 -97.53,-3.85l-84.7 1.29c-15.4,0.86 -36.79,1.28 -64.17,1.28 -3.58,0 -3.58,-15.41 0,-15.41 34.22,0 59.24,-2.13 75.08,-6.41 15.83,-4.27 26.73,-12.62 32.72,-25.03 5.99,-12.4 8.99,-31.44 8.99,-57.1l0 -594.19c0,-25.66 -2.79,-44.49 -8.35,-56.46 -5.56,-11.99 -16.25,-20.33 -32.08,-25.03 -15.83,-4.71 -40.43,-7.06 -73.8,-7.06 -2.56,0 -3.84,-2.57 -3.84,-7.7 0,-5.14 1.28,-7.7 3.84,-7.7l61.61 1.28c42.47,2.13 85.84,3.96 128.33,1.28 35.51,-2.22 70.93,-6.41 106.52,-6.41 71.01,0 123.41,16.04 157.21,48.12 33.8,32.09 50.7,72.94 50.7,122.56 0,105.05 -86.99,169.93 -180.96,193.79l14.12 -11.55zm3154.62 177.57l386.02 -0.95 -211.63 -455.11 24.38 -21.81 -198.77 477.87zm395.13 18.64l-403.31 1 -40.74 97.96c-16.49,40.04 -35.4,99.64 12.84,125.77 20.53,11.12 52.61,16.67 96.25,16.67 4.27,0 6.41,2.58 6.41,7.71 0,5.13 -2.14,7.7 -6.41,7.7 -15.4,0 -37.65,-0.85 -66.74,-2.57 -32.51,-1.71 -60.74,-2.57 -84.7,-2.57 -21.39,0 -46.63,0.86 -75.71,2.57 -25.67,1.72 -46.63,2.57 -62.88,2.57 -4.28,0 -6.43,-2.57 -6.43,-7.7 0,-5.13 2.15,-7.71 6.43,-7.71 50.65,0 80.31,-17.23 108.43,-59.02 14.98,-22.25 31.02,-53.9 48.13,-94.98l268.22 -645.52c3.18,-4.78 13.5,-5.68 15.4,0l297.74 639.11c19.81,43.93 55.39,121.28 98.17,146.94 14.98,8.98 32.3,13.47 51.98,13.47 3.42,0 5.13,2.58 5.13,7.71 0,5.13 -1.71,7.7 -5.13,7.7 -48.75,0 -97.6,-5.14 -146.3,-5.14 -17.97,0 -41.5,0.86 -70.58,2.57 -27.38,1.72 -47.92,2.57 -61.61,2.57 -3.42,0 -5.13,-2.57 -5.13,-7.7 0,-5.13 1.71,-7.71 5.13,-7.71 35.08,0 60.32,-3.19 75.72,-9.62 15.4,-6.41 23.1,-17.32 23.1,-32.72 0,-11.98 -4.71,-28.66 -14.12,-50.05l-69.29 -149.01zm-3620.34 -532.45c-23.96,0 -41.49,1.71 -52.62,5.14 -11.12,3.42 -19.46,11.55 -25.02,24.38 -5.57,12.83 -8.35,34.22 -8.35,64.17l0 251.53 -38.5 -10.26c36.79,2.56 69.74,3.84 98.83,3.84 67.59,0 116.78,-16.04 147.58,-48.12 30.8,-32.09 46.2,-74.65 46.2,-127.69 0,-47.92 -13.47,-87.05 -40.43,-117.43 -26.95,-30.37 -69.51,-45.56 -127.69,-45.56zm51.33 773.85c63.32,0 110.58,-16.46 141.82,-49.4 31.22,-32.93 46.84,-79.78 46.84,-140.53 0,-65.02 -19.89,-117.85 -59.68,-158.49 -39.78,-40.63 -93.47,-61.39 -161.06,-62.24 -52.18,-1.71 -98.82,0.42 -139.88,6.42l34.64 -14.12 0 329.82c0,23.1 3.64,40.85 10.91,53.25 7.28,12.41 20.75,21.4 40.43,26.96 19.68,5.56 48.34,8.33 85.98,8.33zm878.59 -659.63c18.82,-30.8 28.23,-54.33 28.23,-70.58 0,-27.38 -23.1,-41.07 -69.3,-41.07 -3.58,0 -3.58,-15.4 0,-15.4l57.76 1.28c32.5,1.71 61.16,2.57 85.97,2.57 14.54,0 32.09,-0.86 52.62,-2.57l47.48 -1.28c3.59,0 3.59,15.4 0,15.4 -74.72,0 -134.8,56.45 -173.25,115.5l-209.18 316.98 -20.53 -17.96 200.2 -302.87zm-438.91 -20.53c-22.25,-33.37 -44.06,-56.9 -65.44,-70.59 -21.4,-13.69 -47.92,-20.53 -79.58,-20.53 -2.56,0 -3.84,-2.57 -3.84,-7.7 0,-5.14 1.28,-7.7 3.84,-7.7l47.49 1.28c20.54,1.71 35.93,2.57 46.2,2.57 28.23,0 62.88,-0.86 103.95,-2.57l66.73 -1.28c3.58,0 3.58,15.4 0,15.4 -25.67,0 -44.27,1.93 -55.82,5.78 -11.56,3.85 -17.33,10.05 -17.33,18.6 0,5.14 4.28,14.11 12.83,26.96l228.44 328.53 -47.48 59.04 -239.99 -347.79zm287.47 286.19l0 305.43c0,26.52 2.57,45.77 7.7,57.75 5.13,11.98 15.4,20.11 30.8,24.38 15.4,4.28 40.21,6.41 74.44,6.41 2.57,0 3.85,2.58 3.85,7.71 0,5.13 -1.28,7.7 -3.85,7.7 -25.67,0 -45.78,-0.42 -60.32,-1.28l-87.27 -1.29 -87.27 1.29c-15.4,0.86 -35.93,1.28 -61.6,1.28 -2.56,0 -3.85,-2.57 -3.85,-7.7 0,-5.13 1.29,-7.71 3.85,-7.71 33.37,0 57.96,-2.13 73.8,-6.41 15.83,-4.27 26.73,-12.62 32.72,-25.03 5.99,-12.4 8.99,-31.44 8.99,-57.1l0 -293.89 68.01 -11.54zm547.48 300.3c0,24.81 2.79,42.99 8.34,54.54 5.56,11.55 15.83,19.46 30.8,23.74 14.98,4.28 38.72,6.42 71.23,6.42l164.27 0c84.7,0 134.75,-54.33 150.15,-162.99 0,-5.37 14.11,-4.05 14.11,1.29 -7.69,67.58 -11.54,123.2 -11.54,166.83 0,14.46 -4.78,19.25 -19.25,19.25l-590.34 0c-3.58,0 -3.58,-15.41 0,-15.41 33.36,0 57.96,-2.13 73.78,-6.41 15.84,-4.27 26.53,-12.62 32.09,-25.03 5.56,-12.4 8.34,-31.44 8.34,-57.1l0 -594.19c0,-25.66 -2.78,-44.49 -8.34,-56.46 -5.56,-11.99 -16.25,-20.33 -32.09,-25.03 -15.82,-4.71 -40.42,-7.06 -73.78,-7.06 -3.58,0 -3.58,-15.4 0,-15.4l62.88 1.28c35.93,1.71 64.17,2.57 84.7,2.57 23.1,0 52.62,-0.86 88.55,-2.57l60.32 -1.28c3.58,0 3.58,15.4 0,15.4 -33.37,0 -57.96,2.35 -73.79,7.06 -15.83,4.7 -26.53,13.25 -32.09,25.67 -5.55,12.4 -8.34,31.43 -8.34,57.11l0 587.77zm668.11 5.13c0,26.52 2.78,45.77 8.34,57.75 5.56,11.98 16.04,20.11 31.44,24.38 15.41,4.28 40.22,6.41 74.43,6.41 3.59,0 3.59,15.41 0,15.41 -25.66,0 -45.76,-0.42 -60.31,-1.28l-89.84 -1.29 -85.98 1.29c-15.4,0.86 -36.36,1.28 -62.88,1.28 -2.57,0 -3.85,-2.57 -3.85,-7.7 0,-5.13 1.28,-7.71 3.85,-7.71 33.37,0 57.96,-2.13 73.79,-6.41 15.83,-4.27 26.73,-12.62 32.72,-25.03 6,-12.4 8.99,-31.44 8.99,-57.1l0 -594.19c0,-25.66 -2.99,-44.49 -8.99,-56.46 -5.99,-11.99 -16.89,-20.33 -32.72,-25.03 -15.83,-4.71 -40.42,-7.06 -73.79,-7.06 -2.57,0 -3.85,-2.57 -3.85,-7.7 0,-5.14 1.28,-7.7 3.85,-7.7l62.88 1.28c35.94,1.71 64.6,2.57 85.98,2.57 23.96,0 53.91,-0.86 89.84,-2.57l60.31 -1.28c3.59,0 3.59,15.4 0,15.4 -33.35,0 -57.96,2.57 -73.79,7.7 -15.82,5.13 -26.52,13.9 -32.08,26.31 -5.56,12.4 -8.34,31.43 -8.34,57.11l0 591.62zm669.39 -712.26c56.47,0 102.68,4.07 138.61,12.19 35.93,8.13 74.01,22.46 114.22,42.99 5.13,3.43 8.34,6.21 9.62,8.35 1.29,2.14 2.35,8.77 3.21,19.89l15.4 146.3c0,5.33 -13.63,6.6 -15.4,1.29 -36.62,-138.17 -120.07,-213.04 -265.66,-213.04 -139.29,0 -263.23,56.71 -330.45,182.88 -31.23,58.6 -46.84,126.83 -46.84,204.69 0,72.73 17.31,140.52 51.97,203.41 66.25,120.23 187.96,205.98 327.89,205.98 142.03,0 232.72,-69.73 272.07,-209.19 0,-3.84 15.4,-3.76 15.4,1.28l-10.26 136.04c-1.29,15.47 -1.21,19.62 -14.12,28.23 -44.49,23.1 -86.2,39.15 -125.13,48.13 -38.93,8.98 -85.34,13.47 -139.24,13.47 -88.98,0 -168.33,-17.75 -238.06,-53.25 -69.73,-35.5 -124.27,-85.56 -163.62,-150.16 -39.36,-64.59 -59.04,-138.81 -59.04,-222.65 0,-80.43 19.68,-151.44 59.04,-213.04 39.35,-61.6 93.89,-109.3 163.62,-143.09 69.73,-33.8 148.65,-50.7 236.77,-50.7zm846.63 1334.93c0,0.43 -0.53,0.75 -1.59,0.96 -1.06,0.21 -1.8,0.1 -2.23,-0.32l-146.51 -177.41c-6.8,-8.28 -13.01,-14.07 -18.64,-17.36 -5.62,-3.29 -11.19,-4.94 -16.72,-4.94 -0.63,0 -0.95,-0.63 -0.95,-1.91 0,-1.27 0.32,-1.91 0.95,-1.91l11.79 0.32c2.55,0.21 6.05,0.32 10.51,0.32 4.67,0 8.49,-0.11 11.47,-0.32 2.97,-0.21 5.3,-0.32 7,-0.32 1.49,0 2.71,0.37 3.66,1.11 0.96,0.75 2.07,2.29 3.35,4.63 2.55,3.81 5.2,7.43 7.96,10.82l127.4 156.39 2.55 29.94zm0 0l-7.32 -9.87 0 -157.98c0,-11.05 -1.86,-19.01 -5.57,-23.89 -3.72,-4.88 -9.93,-7.33 -18.64,-7.33 -0.42,0 -0.64,-0.63 -0.64,-1.91 0,-1.27 0.22,-1.91 0.64,-1.91l12.42 0.32c6.38,0.42 11.58,0.64 15.61,0.64 3.82,0 9.13,-0.22 15.92,-0.64l13.06 -0.32c0.64,0 0.96,0.64 0.96,1.91 0,1.28 -0.32,1.91 -0.96,1.91 -8.91,0 -15.39,2.45 -19.43,7.33 -4.03,4.88 -6.05,12.84 -6.05,23.89l0 167.85zm135.06 -97.78l84.4 0 2.23 6.37 -89.82 0 3.19 -6.37zm157.66 90.14c0.85,0 1.27,0.64 1.27,1.91 0,1.27 -0.42,1.91 -1.27,1.91 -4.03,0 -10.3,-0.21 -18.79,-0.64 -8.5,-0.42 -14.65,-0.64 -18.48,-0.64 -4.67,0 -10.61,0.22 -17.83,0.64 -6.8,0.43 -12,0.64 -15.61,0.64 -0.85,0 -1.28,-0.64 -1.28,-1.91 0,-1.27 0.43,-1.91 1.28,-1.91 8.07,0 13.85,-0.74 17.36,-2.23 3.5,-1.49 5.25,-4.14 5.25,-7.96 0,-3.19 -1.27,-7.65 -3.82,-13.38l-70.71 -149.38 7.96 -9.87 -61.79 146.19c-2.97,7.22 -4.46,13.17 -4.46,17.83 0,12.53 10.41,18.8 31.22,18.8 1.06,0 1.59,0.64 1.59,1.91 0,1.27 -0.53,1.91 -1.59,1.91 -3.82,0 -9.35,-0.21 -16.57,-0.64 -8.07,-0.42 -15.07,-0.64 -21.02,-0.64 -5.52,0 -11.89,0.22 -19.11,0.64 -6.37,0.43 -11.68,0.64 -15.92,0.64 -1.06,0 -1.6,-0.64 -1.6,-1.91 0,-1.27 0.54,-1.91 1.6,-1.91 5.94,0 10.99,-1.11 15.13,-3.35 4.14,-2.23 8.07,-6.15 11.78,-11.78 3.72,-5.63 7.8,-13.75 12.26,-24.37l67.21 -158.61c0.42,-0.64 1.17,-0.96 2.23,-0.96 1.06,0 1.7,0.32 1.91,0.96l75.17 158.29c7.22,15.72 13.38,26.28 18.47,31.7 5.1,5.41 11.15,8.12 18.16,8.12zm-3928.51 -106.07l15.92 -12.74 46.51 59.25c15.5,20.17 27.34,34.4 35.51,42.68 8.17,8.28 14.49,13.16 18.95,14.65 4.46,1.49 10.94,2.23 19.43,2.23 0.64,0 0.95,0.64 0.95,1.91 0,1.27 -0.31,1.91 -0.95,1.91l-35.68 0c-1.69,0 -4.72,0.05 -9.07,0.16 -4.35,0.11 -10.46,-5.31 -18.32,-16.25 -7.85,-10.93 -15.39,-20.96 -22.61,-30.09l-50.64 -63.71zm59.56 -63.38c7.01,-7.01 10.51,-12.21 10.51,-15.61 0,-4.24 -6.27,-6.37 -18.79,-6.37 -0.43,0 -0.64,-0.63 -0.64,-1.91 0,-1.27 0.21,-1.91 0.64,-1.91l13.69 0.32c8.5,0.42 16.25,0.64 23.26,0.64 7,0 14.33,-0.22 21.97,-0.64l11.79 -0.32c0.63,0 0.95,0.64 0.95,1.91 0,1.28 -0.32,1.91 -0.95,1.91 -8.71,0 -17.94,1.92 -27.71,5.73 -9.77,3.83 -18.9,9.88 -27.39,18.16l-81.55 79.95 -7.96 0 82.18 -81.86zm181.87 79.31l84.41 0 2.23 6.37 -89.82 0 3.18 -6.37zm157.67 90.14c0.84,0 1.27,0.64 1.27,1.91 0,1.27 -0.43,1.91 -1.27,1.91 -4.04,0 -10.31,-0.21 -18.8,-0.64 -8.49,-0.42 -14.65,-0.64 -18.47,-0.64 -4.67,0 -10.62,0.22 -17.84,0.64 -6.8,0.43 -12,0.64 -15.61,0.64 -0.84,0 -1.27,-0.64 -1.27,-1.91 0,-1.27 0.43,-1.91 1.27,-1.91 8.07,0 13.86,-0.74 17.36,-2.23 3.51,-1.49 5.26,-4.14 5.26,-7.96 0,-3.19 -1.27,-7.65 -3.82,-13.38l-70.71 -149.38 7.96 -9.87 -61.79 146.19c-2.97,7.22 -4.46,13.17 -4.46,17.83 0,12.53 10.4,18.8 31.21,18.8 1.06,0 1.59,0.64 1.59,1.91 0,1.27 -0.53,1.91 -1.59,1.91 -3.82,0 -9.34,-0.21 -16.56,-0.64 -8.07,-0.42 -15.07,-0.64 -21.02,-0.64 -5.52,0 -11.89,0.22 -19.11,0.64 -6.37,0.43 -11.68,0.64 -15.93,0.64 -1.06,0 -1.59,-0.64 -1.59,-1.91 0,-1.27 0.53,-1.91 1.59,-1.91 5.95,0 10.99,-1.11 15.13,-3.35 4.15,-2.23 8.07,-6.15 11.79,-11.78 3.71,-5.63 7.8,-13.75 12.26,-24.37l67.21 -158.61c0.42,-0.64 1.16,-0.96 2.22,-0.96 1.07,0 1.7,0.32 1.91,0.96l75.18 158.29c7.22,15.72 13.37,26.28 18.47,31.7 5.1,5.41 11.15,8.12 18.16,8.12zm76.43 -187.92l7.33 0.63 0 156.39c0,11.04 1.97,18.95 5.89,23.73 3.93,4.78 10.25,7.17 18.96,7.17 0.63,0 0.95,0.64 0.95,1.91 0,1.27 -0.32,1.91 -0.95,1.91 -5.31,0 -9.35,-0.11 -12.11,-0.32l-15.92 -0.32 -16.25 0.32c-2.97,0.21 -7.32,0.32 -13.05,0.32 -0.43,0 -0.64,-0.64 -0.64,-1.91 0,-1.27 0.21,-1.91 0.64,-1.91 9.12,0 15.6,-2.39 19.42,-7.17 3.83,-4.78 5.73,-12.69 5.73,-23.73l0 -157.02zm160.53 195.56c0,0.43 -0.53,0.75 -1.59,0.96 -1.06,0.21 -1.8,0.1 -2.23,-0.32l-146.51 -177.41c-6.79,-8.28 -13.01,-14.07 -18.64,-17.36 -5.62,-3.29 -11.19,-4.94 -16.71,-4.94 -0.64,0 -0.96,-0.63 -0.96,-1.91 0,-1.27 0.32,-1.91 0.96,-1.91l11.78 0.32c2.55,0.21 6.05,0.32 10.51,0.32 4.67,0 8.49,-0.11 11.47,-0.32 2.97,-0.21 5.3,-0.32 7,-0.32 1.49,0 2.71,0.37 3.67,1.11 0.95,0.75 2.06,2.29 3.34,4.63 2.55,3.81 5.2,7.43 7.96,10.82l127.41 156.39 2.54 29.94zm0 0l-7.32 -9.87 0 -157.98c0,-11.05 -1.86,-19.01 -5.57,-23.89 -3.72,-4.88 -9.93,-7.33 -18.64,-7.33 -0.42,0 -0.63,-0.63 -0.63,-1.91 0,-1.27 0.21,-1.91 0.63,-1.91l12.43 0.32c6.37,0.42 11.57,0.64 15.6,0.64 3.82,0 9.13,-0.22 15.93,-0.64l13.06 -0.32c0.63,0 0.95,0.64 0.95,1.91 0,1.28 -0.32,1.91 -0.95,1.91 -8.92,0 -15.4,2.45 -19.43,7.33 -4.04,4.88 -6.06,12.84 -6.06,23.89l0 167.85zm200.98 -206.39c13.38,0 24.63,0.95 33.77,2.86 9.13,1.91 18.26,5.21 27.39,9.88 1.49,0.85 2.34,1.59 2.55,2.23 0.21,0.64 0.53,2.23 0.95,4.77l3.82 37.91c0,0.64 -0.58,1.01 -1.75,1.11 -1.17,0.11 -1.85,-0.16 -2.07,-0.79 -9.77,-35.46 -31.64,-53.2 -65.61,-53.2 -17.84,0 -33.61,3.94 -47.3,11.79 -13.69,7.86 -24.26,19.06 -31.69,33.6 -7.43,14.55 -11.15,31.48 -11.15,50.8 0,18.48 4.15,35.41 12.43,50.81 8.28,15.39 19.37,27.55 33.28,36.47 13.91,8.92 29.04,13.37 45.38,13.37 17.41,0 31.53,-4.24 42.37,-12.73 10.82,-8.5 19.11,-21.45 24.84,-38.87 0,-0.42 0.53,-0.63 1.59,-0.63 1.49,0 2.23,0.32 2.23,0.95l-3.19 35.04c-0.21,2.55 -0.53,4.14 -0.95,4.78 -0.42,0.64 -1.27,1.38 -2.55,2.23 -11.04,5.31 -21.39,9.02 -31.05,11.15 -9.66,2.12 -20.76,3.18 -33.29,3.18 -22.29,0 -42.2,-4.41 -59.71,-13.22 -17.52,-8.81 -31.16,-21.18 -40.93,-37.1 -9.77,-15.93 -14.65,-34.19 -14.65,-54.79 0,-19.96 4.99,-37.64 14.97,-53.03 9.98,-15.4 23.73,-27.34 41.24,-35.83 17.52,-8.5 37.21,-12.74 59.08,-12.74zm138.56 202.57c-0.43,0 -0.64,-0.64 -0.64,-1.91 0,-1.27 0.21,-1.91 0.64,-1.91 8.06,0 13.96,-0.53 17.68,-1.59 3.71,-1.07 6.26,-3.14 7.64,-6.21 1.38,-3.08 2.07,-7.81 2.07,-14.18l0 -147.47c0,-6.37 -0.69,-11.04 -2.07,-14.01 -1.38,-2.98 -3.93,-5.05 -7.64,-6.21 -3.72,-1.17 -9.62,-1.76 -17.68,-1.76 -0.43,0 -0.64,-0.63 -0.64,-1.91 0,-1.27 0.21,-1.91 0.64,-1.91l128.04 0c1.91,0 2.86,0.96 2.86,2.87l0.64 39.18c0,0.63 -0.58,1 -1.75,1.11 -1.17,0.11 -1.75,-0.16 -1.75,-0.8 -0.64,-11.25 -4.04,-20.01 -10.19,-26.28 -6.16,-6.26 -14.34,-9.39 -24.53,-9.39l-19.43 0c-7.43,0 -12.95,0.58 -16.56,1.75 -3.61,1.17 -6.11,3.13 -7.49,5.89 -1.37,2.76 -2.06,7.12 -2.06,13.06l0 144.61c0,5.73 0.69,10.03 2.06,12.9 1.38,2.86 3.77,4.83 7.17,5.89 3.4,1.06 8.7,1.59 15.92,1.59l25.49 0c10.19,0 18.68,-3.61 25.48,-10.83 6.79,-7.22 11.36,-17.2 13.69,-29.94 0,-0.42 0.43,-0.63 1.28,-0.63 0.63,0 1.22,0.16 1.75,0.47 0.53,0.32 0.8,0.59 0.8,0.8 -1.92,13.38 -2.87,27.39 -2.87,42.04 0,1.7 -0.37,2.92 -1.12,3.66 -0.74,0.75 -2.06,1.12 -3.98,1.12l-133.45 0zm115.62 -74.21c0,-9.35 -2.28,-16.03 -6.85,-20.07 -4.57,-4.03 -12.16,-6.05 -22.78,-6.05l-47.77 0 0 -6.69 48.73 0c10.19,0 17.47,-1.7 21.82,-5.1 4.35,-3.39 6.53,-9.12 6.53,-17.19 0,-0.43 0.63,-0.64 1.91,-0.64 1.27,0 1.91,0.21 1.91,0.64l-0.32 25.79c0,6.16 0.11,10.84 0.32,14.02l0.32 15.29c0,0.42 -0.64,0.63 -1.91,0.63 -1.28,0 -1.91,-0.21 -1.91,-0.63zm137.92 47.14c0,6.16 0.63,10.61 1.91,13.38 1.27,2.76 3.6,4.61 7,5.57 3.4,0.95 8.92,1.43 16.57,1.43l34.71 0c12.11,0 21.77,-3.71 28.99,-11.15 7.22,-7.43 12,-17.73 14.33,-30.89 0,-0.64 0.59,-0.9 1.75,-0.8 1.17,0.11 1.75,0.48 1.75,1.12 -1.91,17.62 -2.86,32.16 -2.86,43.63 0,1.7 -0.32,2.92 -0.96,3.66 -0.63,0.75 -1.91,1.12 -3.82,1.12l-147.15 0c-0.43,0 -0.64,-0.64 -0.64,-1.91 0,-1.27 0.21,-1.91 0.64,-1.91 8.07,0 13.96,-0.53 17.67,-1.59 3.72,-1.07 6.21,-3.14 7.49,-6.21 1.28,-3.08 1.91,-7.81 1.91,-14.18l0 -147.47c0,-6.37 -0.63,-11.04 -1.91,-14.01 -1.28,-2.98 -3.77,-5.05 -7.49,-6.21 -3.71,-1.17 -9.6,-1.76 -17.67,-1.76 -0.43,0 -0.64,-0.63 -0.64,-1.91 0,-1.27 0.21,-1.91 0.64,-1.91l15.6 0.32c8.92,0.42 16.14,0.64 21.66,0.64 5.95,0 13.38,-0.22 22.3,-0.64l15.29 -0.32c0.63,0 0.95,0.64 0.95,1.91 0,1.28 -0.32,1.91 -0.95,1.91 -7.86,0 -13.7,0.59 -17.52,1.76 -3.82,1.16 -6.37,3.28 -7.64,6.37 -1.28,3.07 -1.91,7.8 -1.91,14.17l0 145.88zm213.08 -66.89l84.41 0 2.22 6.37 -89.81 0 3.18 -6.37zm157.66 90.14c0.85,0 1.28,0.64 1.28,1.91 0,1.27 -0.43,1.91 -1.28,1.91 -4.03,0 -10.3,-0.21 -18.79,-0.64 -8.49,-0.42 -14.65,-0.64 -18.47,-0.64 -4.68,0 -10.62,0.22 -17.84,0.64 -6.8,0.43 -12,0.64 -15.61,0.64 -0.85,0 -1.27,-0.64 -1.27,-1.91 0,-1.27 0.42,-1.91 1.27,-1.91 8.07,0 13.86,-0.74 17.36,-2.23 3.51,-1.49 5.26,-4.14 5.26,-7.96 0,-3.19 -1.28,-7.65 -3.82,-13.38l-70.71 -149.38 7.96 -9.87 -61.79 146.19c-2.98,7.22 -4.46,13.17 -4.46,17.83 0,12.53 10.4,18.8 31.21,18.8 1.06,0 1.59,0.64 1.59,1.91 0,1.27 -0.53,1.91 -1.59,1.91 -3.82,0 -9.34,-0.21 -16.56,-0.64 -8.07,-0.42 -15.07,-0.64 -21.02,-0.64 -5.52,0 -11.89,0.22 -19.11,0.64 -6.37,0.43 -11.68,0.64 -15.93,0.64 -1.06,0 -1.59,-0.64 -1.59,-1.91 0,-1.27 0.53,-1.91 1.59,-1.91 5.95,0 10.99,-1.11 15.13,-3.35 4.14,-2.23 8.07,-6.15 11.79,-11.78 3.71,-5.63 7.8,-13.75 12.26,-24.37l67.21 -158.61c0.42,-0.64 1.16,-0.96 2.22,-0.96 1.06,0 1.7,0.32 1.91,0.96l75.18 158.29c7.21,15.72 13.37,26.28 18.47,31.7 5.09,5.41 11.15,8.12 18.15,8.12zm214.68 3.82c-5.31,0 -15.45,-9.08 -30.42,-27.23 -14.97,-18.16 -32.96,-43.16 -53.99,-75.01l17.84 -5.42c18.47,26.54 33.92,47.2 46.34,61.95 12.42,14.76 23.41,25.43 32.97,32.02 9.55,6.58 18.9,9.87 28.03,9.87 0.63,0 0.95,0.64 0.95,1.91 0,1.27 -0.32,1.91 -0.95,1.91l-40.77 0zm-80.27 -200.02c16.78,0 29.73,3.82 38.86,11.46 9.13,7.65 13.7,17.84 13.7,30.58 0,11.25 -3.29,21.5 -9.88,30.74 -6.58,9.23 -15.44,16.56 -26.59,21.97 -11.15,5.42 -23.09,8.12 -35.83,8.12 -1.28,0 -6.05,-0.31 -14.33,-0.95l0 72.3c0,6.59 0.63,11.36 1.9,14.34 1.28,2.96 3.77,4.98 7.49,6.05 3.72,1.06 9.61,1.59 17.68,1.59 0.63,0 0.95,0.64 0.95,1.91 0,1.27 -0.32,1.91 -0.95,1.91 -6.59,0 -11.79,-0.11 -15.61,-0.32l-21.98 -0.32 -21.66 0.32c-3.82,0.21 -9.23,0.32 -16.24,0.32 -0.42,0 -0.64,-0.64 -0.64,-1.91 0,-1.27 0.22,-1.91 0.64,-1.91 8.07,0 14.01,-0.58 17.84,-1.75 3.82,-1.17 6.47,-3.24 7.96,-6.21 1.49,-2.98 2.23,-7.65 2.23,-14.02l0 -147.47c0,-6.37 -0.69,-11.04 -2.07,-14.01 -1.38,-2.98 -3.93,-5.05 -7.65,-6.21 -3.71,-1.17 -9.61,-1.76 -17.67,-1.76 -0.64,0 -0.96,-0.63 -0.96,-1.91 0,-1.27 0.32,-1.91 0.96,-1.91l15.6 0.32c8.92,0.42 16.14,0.64 21.66,0.64 4.67,0 9.03,-0.11 13.06,-0.32 4.04,-0.21 7.43,-0.43 10.19,-0.64 8.07,-0.64 15.19,-0.95 21.34,-0.95zm30.9 51.28c0,-16.57 -3.66,-28.46 -10.99,-35.68 -7.33,-7.22 -17.99,-10.83 -32.01,-10.83 -8.28,0 -14.01,1.49 -17.2,4.46 -3.18,2.98 -4.77,9.03 -4.77,18.16l0 66.89c5.09,0.84 11.35,1.27 18.78,1.27 16.57,0 28.4,-3.61 35.52,-10.83 7.11,-7.22 10.67,-18.37 10.67,-33.44zm187.92 122.94c0,6.59 0.64,11.36 1.91,14.34 1.28,2.96 3.77,4.98 7.49,6.05 3.71,1.06 9.6,1.59 17.67,1.59 0.64,0 0.96,0.64 0.96,1.91 0,1.27 -0.32,1.91 -0.96,1.91 -6.37,0 -11.46,-0.11 -15.29,-0.32l-22.61 -0.32 -21.98 0.32c-3.82,0.21 -9.02,0.32 -15.6,0.32 -0.64,0 -0.96,-0.64 -0.96,-1.91 0,-1.27 0.32,-1.91 0.96,-1.91 8.07,0 13.96,-0.53 17.67,-1.59 3.72,-1.07 6.27,-3.14 7.65,-6.21 1.38,-3.08 2.07,-7.81 2.07,-14.18l0 -147.47c0,-6.37 -0.69,-11.04 -2.07,-14.01 -1.38,-2.98 -3.93,-5.05 -7.65,-6.21 -3.71,-1.17 -9.6,-1.76 -17.67,-1.76 -0.64,0 -0.96,-0.63 -0.96,-1.91 0,-1.27 0.32,-1.91 0.96,-1.91l15.6 0.32c8.92,0.42 16.25,0.64 21.98,0.64 6.37,0 14.02,-0.22 22.93,-0.64l14.97 -0.32c0.64,0 0.96,0.64 0.96,1.91 0,1.28 -0.32,1.91 -0.96,1.91 -7.85,0 -13.69,0.64 -17.51,1.92 -3.83,1.27 -6.37,3.44 -7.65,6.53 -1.27,3.07 -1.91,7.8 -1.91,14.17l0 146.83zm144.61 -68.16l84.4 0 2.23 6.37 -89.82 0 3.19 -6.37zm157.66 90.14c0.85,0 1.27,0.64 1.27,1.91 0,1.27 -0.42,1.91 -1.27,1.91 -4.03,0 -10.3,-0.21 -18.79,-0.64 -8.5,-0.42 -14.65,-0.64 -18.48,-0.64 -4.67,0 -10.61,0.22 -17.83,0.64 -6.8,0.43 -12,0.64 -15.61,0.64 -0.85,0 -1.28,-0.64 -1.28,-1.91 0,-1.27 0.43,-1.91 1.28,-1.91 8.07,0 13.85,-0.74 17.36,-2.23 3.5,-1.49 5.25,-4.14 5.25,-7.96 0,-3.19 -1.27,-7.65 -3.82,-13.38l-70.71 -149.38 7.96 -9.87 -61.79 146.19c-2.97,7.22 -4.46,13.17 -4.46,17.83 0,12.53 10.41,18.8 31.22,18.8 1.06,0 1.59,0.64 1.59,1.91 0,1.27 -0.53,1.91 -1.59,1.91 -3.83,0 -9.35,-0.21 -16.57,-0.64 -8.07,-0.42 -15.07,-0.64 -21.02,-0.64 -5.52,0 -11.89,0.22 -19.11,0.64 -6.37,0.43 -11.68,0.64 -15.92,0.64 -1.06,0 -1.6,-0.64 -1.6,-1.91 0,-1.27 0.54,-1.91 1.6,-1.91 5.94,0 10.98,-1.11 15.13,-3.35 4.14,-2.23 8.07,-6.15 11.78,-11.78 3.72,-5.63 7.8,-13.75 12.26,-24.37l67.21 -158.61c0.42,-0.64 1.17,-0.96 2.23,-0.96 1.06,0 1.7,0.32 1.91,0.96l75.17 158.29c7.22,15.72 13.38,26.28 18.47,31.7 5.1,5.41 11.15,8.12 18.16,8.12zm211.17 -23.25c0,6.79 0.9,11.73 2.7,14.81 1.81,3.08 5.31,5.25 10.51,6.53 5.2,1.27 13.43,1.91 24.69,1.91 0.63,0 0.95,0.64 0.95,1.91 0,1.27 -0.32,1.91 -0.95,1.91 -8.71,0 -15.5,-0.11 -20.39,-0.32l-27.71 -0.32 -21.34 0.32c-4.03,0.21 -9.45,0.32 -16.24,0.32 -0.43,0 -0.64,-0.64 -0.64,-1.91 0,-1.27 0.21,-1.91 0.64,-1.91 8.07,0 13.96,-0.53 17.68,-1.59 3.71,-1.07 6.21,-3.14 7.48,-6.21 1.28,-3.08 1.91,-7.81 1.91,-14.18l0 -147.47c0,-6.37 -0.63,-11.04 -1.91,-14.01 -1.27,-2.98 -3.77,-5.05 -7.48,-6.21 -3.72,-1.17 -9.61,-1.76 -17.68,-1.76 -0.43,0 -0.64,-0.63 -0.64,-1.91 0,-1.27 0.21,-1.91 0.64,-1.91l15.92 0.32c8.92,0.42 16.04,0.64 21.34,0.64 5.31,0 11.26,-0.32 17.84,-0.96 2.55,0 6.59,-0.16 12.1,-0.48 5.52,-0.31 10.3,-0.47 14.34,-0.47 19.53,0 35.19,4.35 46.98,13.06 11.78,8.7 17.67,21.97 17.67,39.81 0,14.01 -3.44,25.8 -10.35,35.35 -6.9,9.56 -15.76,16.67 -26.59,21.34 -10.83,4.68 -21.98,7.01 -33.44,7.01 -6.16,0 -11.26,-0.53 -15.29,-1.59 -0.64,0 -0.96,-0.53 -0.96,-1.59 0,-0.64 0.16,-1.28 0.48,-1.92 0.32,-0.63 0.69,-0.85 1.11,-0.63 3.4,0.84 7.22,1.27 11.47,1.27 14.01,0 25.85,-4.56 35.51,-13.7 9.66,-9.13 14.49,-22.29 14.49,-39.49 0,-16.77 -4.56,-29.99 -13.69,-39.65 -9.13,-9.67 -20.81,-14.5 -35.04,-14.5 -7.64,0 -13.16,0.43 -16.56,1.28 -3.4,0.85 -5.84,2.81 -7.33,5.89 -1.48,3.08 -2.22,8.23 -2.22,15.45l0 145.56zm325.52 27.07c-5.31,0 -15.45,-9.08 -30.42,-27.23 -14.97,-18.16 -32.97,-43.16 -53.99,-75.01l17.84 -5.42c18.47,26.54 33.92,47.2 46.34,61.95 12.42,14.76 23.41,25.43 32.97,32.02 9.55,6.58 18.89,9.87 28.02,9.87 0.64,0 0.96,0.64 0.96,1.91 0,1.27 -0.32,1.91 -0.96,1.91l-40.76 0zm-80.27 -200.02c16.77,0 29.73,3.82 38.86,11.46 9.13,7.65 13.69,17.84 13.69,30.58 0,11.25 -3.29,21.5 -9.87,30.74 -6.58,9.23 -15.45,16.56 -26.6,21.97 -11.14,5.42 -23.09,8.12 -35.83,8.12 -1.27,0 -6.05,-0.31 -14.33,-0.95l0 72.3c0,6.59 0.64,11.36 1.91,14.34 1.27,2.96 3.77,4.98 7.48,6.05 3.72,1.06 9.62,1.59 17.68,1.59 0.64,0 0.96,0.64 0.96,1.91 0,1.27 -0.32,1.91 -0.96,1.91 -6.58,0 -11.78,-0.11 -15.6,-0.32l-21.98 -0.32 -21.66 0.32c-3.82,0.21 -9.24,0.32 -16.25,0.32 -0.42,0 -0.63,-0.64 -0.63,-1.91 0,-1.27 0.21,-1.91 0.63,-1.91 8.07,0 14.02,-0.58 17.84,-1.75 3.82,-1.17 6.48,-3.24 7.97,-6.21 1.48,-2.98 2.22,-7.65 2.22,-14.02l0 -147.47c0,-6.37 -0.69,-11.04 -2.07,-14.01 -1.37,-2.98 -3.92,-5.05 -7.64,-6.21 -3.72,-1.17 -9.61,-1.76 -17.68,-1.76 -0.64,0 -0.95,-0.63 -0.95,-1.91 0,-1.27 0.31,-1.91 0.95,-1.91l15.61 0.32c8.92,0.42 16.14,0.64 21.66,0.64 4.67,0 9.02,-0.11 13.06,-0.32 4.03,-0.21 7.43,-0.43 10.19,-0.64 8.07,-0.64 15.18,-0.95 21.34,-0.95zm30.9 51.28c0,-16.57 -3.67,-28.46 -10.99,-35.68 -7.33,-7.22 -18,-10.83 -32.01,-10.83 -8.28,0 -14.02,1.49 -17.2,4.46 -3.19,2.98 -4.78,9.03 -4.78,18.16l0 66.89c5.1,0.84 11.36,1.27 18.79,1.27 16.56,0 28.4,-3.61 35.52,-10.83 7.11,-7.22 10.67,-18.37 10.67,-33.44zm189.51 54.78l84.41 0 2.22 6.37 -89.81 0 3.18 -6.37zm157.66 90.14c0.85,0 1.28,0.64 1.28,1.91 0,1.27 -0.43,1.91 -1.28,1.91 -4.03,0 -10.3,-0.21 -18.79,-0.64 -8.49,-0.42 -14.65,-0.64 -18.47,-0.64 -4.68,0 -10.62,0.22 -17.84,0.64 -6.8,0.43 -12,0.64 -15.61,0.64 -0.85,0 -1.27,-0.64 -1.27,-1.91 0,-1.27 0.42,-1.91 1.27,-1.91 8.07,0 13.86,-0.74 17.36,-2.23 3.5,-1.49 5.25,-4.14 5.25,-7.96 0,-3.19 -1.27,-7.65 -3.81,-13.38l-70.71 -149.38 7.96 -9.87 -61.79 146.19c-2.98,7.22 -4.46,13.17 -4.46,17.83 0,12.53 10.4,18.8 31.21,18.8 1.06,0 1.59,0.64 1.59,1.91 0,1.27 -0.53,1.91 -1.59,1.91 -3.82,0 -9.34,-0.21 -16.56,-0.64 -8.07,-0.42 -15.08,-0.64 -21.02,-0.64 -5.53,0 -11.89,0.22 -19.11,0.64 -6.37,0.43 -11.68,0.64 -15.93,0.64 -1.06,0 -1.59,-0.64 -1.59,-1.91 0,-1.27 0.53,-1.91 1.59,-1.91 5.95,0 10.99,-1.11 15.13,-3.35 4.14,-2.23 8.07,-6.15 11.79,-11.78 3.71,-5.63 7.8,-13.75 12.26,-24.37l67.2 -158.61c0.43,-0.64 1.17,-0.96 2.23,-0.96 1.06,0 1.7,0.32 1.91,0.96l75.17 158.29c7.22,15.72 13.38,26.28 18.48,31.7 5.09,5.41 11.15,8.12 18.15,8.12zm126.45 3.5c-0.22,0.85 -1.38,1.28 -3.51,1.28 -1.7,0 -2.86,-0.43 -3.5,-1.28l-79.31 -172.31c-3.82,-8.5 -7.64,-14.39 -11.46,-17.68 -3.83,-3.29 -9.03,-4.94 -15.61,-4.94 -0.64,0 -0.96,-0.63 -0.96,-1.91 0,-1.27 0.32,-1.91 0.96,-1.91l12.1 0.32c5.95,0.42 10.73,0.64 14.33,0.64 7.65,0 15.93,-0.22 24.85,-0.64l13.06 -0.32c0.64,0 0.96,0.64 0.96,1.91 0,1.28 -0.32,1.91 -0.96,1.91 -6.37,0 -11.1,0.75 -14.17,2.23 -3.08,1.49 -4.62,4.04 -4.62,7.65 0,3.18 1.06,7.01 3.18,11.46l70.71 151.93 -11.47 15.29 41.73 -104.15 4.77 7 -41.08 103.52zm184.73 -198.75c0.42,0 0.64,0.64 0.64,1.91 0,1.28 -0.22,1.91 -0.64,1.91 -7.22,0 -13.48,1.92 -18.79,5.73 -5.31,3.83 -9.88,10.31 -13.69,19.44l-67.85 169.76c-0.21,0.85 -1.38,1.28 -3.5,1.28 -1.7,0 -2.87,-0.43 -3.51,-1.28l-78.99 -172.31c-3.82,-8.28 -7.64,-14.12 -11.46,-17.52 -3.83,-3.4 -8.81,-5.1 -14.97,-5.1 -0.64,0 -0.96,-0.63 -0.96,-1.91 0,-1.27 0.32,-1.91 0.96,-1.91l12.1 0.32c5.52,0.42 10.09,0.64 13.69,0.64 5.95,0 12.11,-0.22 18.48,-0.64l8.6 -0.32c0.63,0 0.95,0.64 0.95,1.91 0,1.28 -0.32,1.91 -0.95,1.91 -3.82,0 -6.58,0.38 -8.28,1.12 -1.7,0.74 -2.55,2.07 -2.55,3.98 0,2.55 1.91,7.96 5.73,16.24l71.03 151.93 -11.46 15.29 65.93 -164.67c1.7,-4.46 2.54,-7.96 2.54,-10.51 0,-4.67 -1.96,-8.07 -5.89,-10.19 -3.92,-2.12 -10.03,-3.19 -18.31,-3.19 -0.64,0 -0.96,-0.63 -0.96,-1.91 0,-1.27 0.32,-1.91 0.96,-1.91l13.38 0.32c7.22,0.42 13.69,0.64 19.42,0.64 4.25,0 9.13,-0.22 14.65,-0.64l13.7 -0.32zm-122.63 27.08c2.55,-5.74 3.83,-10.41 3.83,-14.02 0,-6.16 -4.57,-9.24 -13.7,-9.24 -0.63,0 -0.95,-0.63 -0.95,-1.91 0,-1.27 0.32,-1.91 0.95,-1.91l7.33 0.32c4.24,0.42 8.7,0.64 13.38,0.64 4.24,0 9.13,-0.22 14.65,-0.64l13.06 -0.32c0.42,0 0.63,0.64 0.63,1.91 0,1.28 -0.21,1.91 -0.63,1.91 -7.22,0 -13.33,1.86 -18.32,5.58 -4.99,3.71 -9.39,10.24 -13.22,19.59l-26.43 66.24 -4.78 -7 24.2 -61.15z"/>
 </g>
</svg>
