<?xml version="1.0" encoding="UTF-8" standalone="no"?><!DOCTYPE svg PUBLIC "-//W3C//DTD SVG 1.1//EN" "http://www.w3.org/Graphics/SVG/1.1/DTD/svg11.dtd"><svg width="100%" height="100%" viewBox="0 0 178 68" version="1.1" xmlns="http://www.w3.org/2000/svg" xmlns:xlink="http://www.w3.org/1999/xlink" xml:space="preserve" xmlns:serif="http://www.serif.com/" style="fill-rule:evenodd;clip-rule:evenodd;stroke-linejoin:round;stroke-miterlimit:2;"><g id="Warstwa_x0020_1"><g id="_1978446499840"><path d="M65.025,49.226c0.367,0 0.693,0.07 0.978,0.209c0.284,0.139 0.504,0.331 0.659,0.575c0.155,0.243 0.233,0.517 0.233,0.82c-0,0.336 -0.083,0.64 -0.247,0.912c-0.165,0.272 -0.391,0.485 -0.679,0.64c-0.287,0.155 -0.608,0.233 -0.963,0.233c-0.209,0 -0.436,-0.009 -0.683,-0.028c-0.089,-0.007 -0.193,-0.013 -0.313,-0.019c-0.121,-0.007 -0.253,-0.01 -0.399,-0.01l-0.645,0.01c-0.114,0.006 -0.275,0.009 -0.484,0.009c-0.013,0 -0.019,-0.019 -0.019,-0.057c-0,-0.038 0.006,-0.057 0.019,-0.057c0.24,0 0.417,-0.017 0.531,-0.052c0.114,-0.035 0.193,-0.097 0.238,-0.185c0.044,-0.089 0.066,-0.228 0.066,-0.418l-0,-4.394c-0,-0.19 -0.021,-0.33 -0.062,-0.418c-0.041,-0.089 -0.118,-0.151 -0.232,-0.185c-0.114,-0.035 -0.288,-0.053 -0.522,-0.053c-0.019,0 -0.029,-0.019 -0.029,-0.057c0,-0.037 0.01,-0.056 0.029,-0.056l0.465,0.009c0.266,0.013 0.481,0.019 0.645,0.019c0.114,-0 0.22,-0.003 0.318,-0.009c0.098,-0.007 0.182,-0.013 0.251,-0.019c0.203,-0.019 0.386,-0.029 0.551,-0.029c0.531,0 0.93,0.116 1.196,0.347c0.266,0.231 0.398,0.533 0.398,0.906c0,0.354 -0.128,0.66 -0.384,0.916c-0.256,0.256 -0.596,0.438 -1.02,0.546l0.104,-0.105Zm4.553,-24.381c1.358,-0 2.559,0.266 3.601,0.8c2.076,1.063 3.31,2.964 3.31,5.311c-0,4.003 -3.029,6.876 -6.947,6.876c-0.824,-0 -1.697,-0.037 -2.619,-0.11c-0.923,-0.065 -1.838,-0.109 -2.764,-0.109l-2.4,0.037c-0.437,0.024 -1.043,0.036 -1.819,0.036c-0.101,0 -0.101,-0.437 0,-0.437c0.97,0 1.679,-0.06 2.128,-0.181c0.449,-0.121 0.758,-0.358 0.927,-0.71c0.17,-0.351 0.255,-0.891 0.255,-1.618l-0,-16.843c-0,-0.728 -0.079,-1.262 -0.237,-1.601c-0.157,-0.34 -0.46,-0.576 -0.909,-0.71c-0.448,-0.133 -1.146,-0.2 -2.091,-0.2c-0.073,0 -0.109,-0.072 -0.109,-0.218c-0,-0.145 0.036,-0.218 0.109,-0.218l1.746,0.036c1.203,0.061 2.433,0.112 3.637,0.037c1.006,-0.063 2.01,-0.182 3.019,-0.182c2.012,-0 3.497,0.455 4.455,1.364c0.958,0.909 1.437,2.067 1.437,3.474c-0,2.978 -2.465,4.817 -5.129,5.493l0.4,-0.327Zm89.404,5.033l10.94,-0.027l-5.997,-12.9l0.691,-0.619l-5.634,13.546Zm11.199,0.529l-11.43,0.028l-1.155,2.777c-0.467,1.135 -1.003,2.824 0.364,3.565c0.582,0.315 1.491,0.472 2.728,0.472c0.121,0 0.182,0.073 0.182,0.219c-0,0.145 -0.061,0.218 -0.182,0.218c-0.437,0 -1.067,-0.024 -1.892,-0.073c-0.921,-0.048 -1.721,-0.072 -2.4,-0.072c-0.606,-0 -1.322,0.024 -2.146,0.072c-0.728,0.049 -1.322,0.073 -1.782,0.073c-0.121,0 -0.182,-0.073 -0.182,-0.218c-0,-0.146 0.061,-0.219 0.182,-0.219c1.436,0 2.276,-0.488 3.073,-1.673c0.424,-0.63 0.879,-1.528 1.364,-2.692l7.601,-18.298c0.091,-0.136 0.383,-0.161 0.437,-0l8.438,18.117c0.562,1.245 1.57,3.437 2.782,4.165c0.425,0.254 0.916,0.381 1.473,0.381c0.097,0 0.146,0.073 0.146,0.219c0,0.145 -0.049,0.218 -0.146,0.218c-1.381,0 -2.766,-0.145 -4.146,-0.145c-0.509,-0 -1.176,0.024 -2,0.072c-0.776,0.049 -1.358,0.073 -1.746,0.073c-0.097,0 -0.146,-0.073 -0.146,-0.218c0,-0.146 0.049,-0.219 0.146,-0.219c0.994,0 1.709,-0.09 2.146,-0.272c0.436,-0.182 0.654,-0.491 0.654,-0.928c0,-0.339 -0.133,-0.812 -0.4,-1.419l-1.963,-4.223Zm-102.603,-15.093c-0.679,-0 -1.176,0.048 -1.491,0.145c-0.316,0.097 -0.552,0.327 -0.709,0.691c-0.158,0.364 -0.237,0.97 -0.237,1.819l0,7.13l-1.091,-0.291c1.043,0.073 1.976,0.109 2.801,0.109c1.915,0 3.309,-0.455 4.182,-1.364c0.873,-0.909 1.31,-2.116 1.31,-3.619c-0,-1.359 -0.382,-2.468 -1.146,-3.329c-0.764,-0.861 -1.97,-1.291 -3.619,-1.291Zm1.455,21.935c1.794,0 3.134,-0.466 4.019,-1.4c0.885,-0.933 1.327,-2.261 1.327,-3.983c0,-1.844 -0.563,-3.341 -1.691,-4.493c-1.127,-1.152 -2.649,-1.74 -4.564,-1.764c-1.479,-0.049 -2.801,0.012 -3.965,0.182l0.982,-0.401l0,9.35c0,0.654 0.103,1.158 0.309,1.509c0.206,0.352 0.588,0.607 1.146,0.764c0.558,0.158 1.37,0.236 2.437,0.236Zm24.899,-18.698c0.534,-0.873 0.801,-1.54 0.801,-2.001c-0,-0.775 -0.655,-1.164 -1.965,-1.164c-0.101,0 -0.101,-0.436 0,-0.436l1.637,0.036c0.922,0.049 1.734,0.073 2.437,0.073c0.412,-0 0.909,-0.024 1.491,-0.073l1.346,-0.036c0.101,-0 0.101,0.436 -0,0.436c-2.118,0 -3.821,1.601 -4.91,3.275l-5.928,8.985l-0.583,-0.51l5.674,-8.585Zm-12.438,-0.582c-0.631,-0.946 -1.249,-1.613 -1.855,-2.001c-0.607,-0.388 -1.358,-0.582 -2.255,-0.582c-0.073,0 -0.109,-0.072 -0.109,-0.218c-0,-0.145 0.036,-0.218 0.109,-0.218l1.345,0.036c0.582,0.049 1.019,0.073 1.31,0.073c0.8,-0 1.782,-0.024 2.946,-0.073l1.891,-0.036c0.101,-0 0.101,0.436 -0,0.436c-0.728,0 -1.255,0.055 -1.582,0.164c-0.328,0.109 -0.491,0.285 -0.491,0.527c-0,0.146 0.121,0.401 0.363,0.765l6.475,9.312l-1.346,1.674l-6.801,-9.859Zm8.147,8.113l-0,8.658c-0,0.751 0.072,1.297 0.218,1.637c0.145,0.339 0.436,0.57 0.873,0.691c0.436,0.121 1.139,0.181 2.109,0.181c0.073,0 0.109,0.073 0.109,0.219c0,0.145 -0.036,0.218 -0.109,0.218c-0.727,0 -1.297,-0.012 -1.709,-0.036l-2.473,-0.037l-2.474,0.037c-0.436,0.024 -1.018,0.036 -1.745,0.036c-0.073,0 -0.11,-0.073 -0.11,-0.218c0,-0.146 0.037,-0.219 0.11,-0.219c0.945,0 1.642,-0.06 2.091,-0.181c0.448,-0.121 0.758,-0.358 0.927,-0.71c0.17,-0.351 0.255,-0.891 0.255,-1.618l0,-8.331l1.928,-0.327Zm15.516,8.512c-0,0.703 0.078,1.219 0.236,1.546c0.158,0.328 0.448,0.552 0.873,0.673c0.424,0.121 1.097,0.182 2.018,0.182l4.656,0c2.4,0 3.819,-1.54 4.255,-4.62c0,-0.152 0.4,-0.115 0.4,0.036c-0.218,1.916 -0.327,3.493 -0.327,4.729c0,0.41 -0.135,0.546 -0.545,0.546l-16.731,0c-0.102,0 -0.102,-0.437 -0,-0.437c0.946,0 1.643,-0.06 2.091,-0.181c0.449,-0.121 0.752,-0.358 0.91,-0.71c0.157,-0.351 0.236,-0.891 0.236,-1.618l-0,-16.843c-0,-0.728 -0.079,-1.262 -0.236,-1.601c-0.158,-0.34 -0.461,-0.576 -0.91,-0.71c-0.448,-0.133 -1.145,-0.2 -2.091,-0.2c-0.102,0 -0.102,-0.436 -0,-0.436l1.782,0.036c1.018,0.049 1.819,0.073 2.401,0.073c0.654,-0 1.491,-0.024 2.509,-0.073l1.709,-0.036c0.102,-0 0.102,0.436 0,0.436c-0.945,0 -1.642,0.067 -2.091,0.2c-0.448,0.134 -0.751,0.376 -0.909,0.728c-0.158,0.352 -0.236,0.891 -0.236,1.619l-0,16.661Zm18.934,0.146c0,0.751 0.079,1.297 0.236,1.637c0.158,0.339 0.455,0.57 0.892,0.691c0.436,0.121 1.139,0.181 2.109,0.181c0.102,0 0.102,0.437 -0,0.437c-0.727,0 -1.297,-0.012 -1.709,-0.036l-2.546,-0.037l-2.437,0.037c-0.437,0.024 -1.03,0.036 -1.782,0.036c-0.073,0 -0.109,-0.073 -0.109,-0.218c-0,-0.146 0.036,-0.219 0.109,-0.219c0.945,0 1.642,-0.06 2.091,-0.181c0.449,-0.121 0.758,-0.358 0.928,-0.71c0.169,-0.351 0.254,-0.891 0.254,-1.618l0,-16.843c0,-0.728 -0.085,-1.262 -0.254,-1.601c-0.17,-0.34 -0.479,-0.576 -0.928,-0.71c-0.449,-0.133 -1.146,-0.2 -2.091,-0.2c-0.073,0 -0.109,-0.072 -0.109,-0.218c-0,-0.145 0.036,-0.218 0.109,-0.218l1.782,0.036c1.018,0.049 1.831,0.073 2.437,0.073c0.679,-0 1.527,-0.024 2.546,-0.073l1.709,-0.036c0.102,-0 0.102,0.436 -0,0.436c-0.945,0 -1.643,0.073 -2.091,0.218c-0.449,0.146 -0.752,0.395 -0.91,0.746c-0.157,0.352 -0.236,0.891 -0.236,1.619l0,16.771Zm18.971,-20.19c1.601,-0 2.91,0.115 3.928,0.345c1.019,0.23 2.098,0.637 3.238,1.219c0.145,0.097 0.236,0.176 0.272,0.236c0.036,0.061 0.067,0.249 0.091,0.564l0.436,4.147c0,0.151 -0.386,0.187 -0.436,0.037c-1.038,-3.917 -3.403,-6.039 -7.529,-6.039c-3.947,-0 -7.46,1.608 -9.365,5.184c-0.885,1.661 -1.328,3.595 -1.328,5.802c0,2.062 0.491,3.984 1.473,5.766c1.878,3.408 5.327,5.839 9.293,5.839c4.025,-0 6.595,-1.977 7.711,-5.93c-0,-0.109 0.436,-0.107 0.436,0.037l-0.291,3.856c-0.036,0.438 -0.034,0.556 -0.4,0.8c-1.261,0.655 -2.443,1.11 -3.546,1.364c-1.103,0.255 -2.419,0.382 -3.946,0.382c-2.522,-0 -4.771,-0.503 -6.747,-1.509c-1.976,-1.007 -3.522,-2.426 -4.637,-4.257c-1.116,-1.831 -1.673,-3.935 -1.673,-6.311c-0,-2.28 0.557,-4.293 1.673,-6.039c1.115,-1.746 2.661,-3.099 4.637,-4.056c1.976,-0.958 4.213,-1.437 6.71,-1.437Zm28.472,38.027c-0.013,0 -0.019,-0.019 -0.019,-0.057c-0,-0.038 0.006,-0.057 0.019,-0.057c0.24,0 0.416,-0.016 0.526,-0.047c0.111,-0.032 0.187,-0.094 0.228,-0.186c0.041,-0.091 0.062,-0.232 0.062,-0.422l-0,-4.394c-0,-0.19 -0.021,-0.33 -0.062,-0.418c-0.041,-0.089 -0.117,-0.151 -0.228,-0.185c-0.11,-0.035 -0.286,-0.053 -0.526,-0.053c-0.013,0 -0.019,-0.019 -0.019,-0.057c-0,-0.037 0.006,-0.056 0.019,-0.056l3.815,-0c0.057,-0 0.085,0.028 0.085,0.085l0.019,1.167c0,0.019 -0.017,0.03 -0.052,0.034c-0.035,0.003 -0.052,-0.005 -0.052,-0.024c-0.019,-0.335 -0.121,-0.596 -0.304,-0.783c-0.184,-0.187 -0.427,-0.28 -0.731,-0.28l-0.579,-0c-0.221,-0 -0.386,0.017 -0.493,0.052c-0.108,0.035 -0.182,0.093 -0.223,0.176c-0.041,0.082 -0.062,0.212 -0.062,0.389l0,4.309c0,0.171 0.021,0.299 0.062,0.385c0.041,0.085 0.112,0.144 0.213,0.175c0.102,0.032 0.26,0.048 0.475,0.048l0.759,-0c0.304,-0 0.557,-0.108 0.759,-0.323c0.203,-0.215 0.339,-0.512 0.408,-0.892c0,-0.013 0.013,-0.019 0.038,-0.019c0.019,-0 0.037,0.004 0.052,0.014c0.016,0.009 0.024,0.017 0.024,0.024c-0.057,0.398 -0.085,0.816 -0.085,1.253c-0,0.05 -0.011,0.087 -0.033,0.109c-0.023,0.022 -0.062,0.033 -0.119,0.033l-3.976,0Zm3.444,-2.211c0,-0.279 -0.068,-0.478 -0.204,-0.599c-0.136,-0.12 -0.362,-0.18 -0.678,-0.18l-1.424,0l0,-0.199l1.452,-0c0.304,-0 0.521,-0.051 0.65,-0.152c0.13,-0.102 0.195,-0.272 0.195,-0.513c0,-0.012 0.019,-0.019 0.057,-0.019c0.038,0 0.057,0.007 0.057,0.019l-0.01,0.769c0,0.184 0.003,0.323 0.01,0.418l0.009,0.456c0,0.012 -0.019,0.018 -0.057,0.018c-0.038,0 -0.057,-0.006 -0.057,-0.018Zm-110.456,-3.608c-0.171,0 -0.294,0.013 -0.37,0.038c-0.076,0.026 -0.133,0.086 -0.171,0.181c-0.038,0.095 -0.057,0.247 -0.057,0.455l0,1.861l-0.303,-0.076c0.272,0.019 0.515,0.028 0.73,0.028c0.462,0 0.804,-0.118 1.025,-0.356c0.222,-0.237 0.333,-0.552 0.333,-0.944c-0,-0.354 -0.097,-0.641 -0.29,-0.859c-0.193,-0.218 -0.492,-0.328 -0.897,-0.328Zm0.342,5.686c0.462,0 0.805,-0.119 1.029,-0.356c0.225,-0.237 0.337,-0.577 0.337,-1.02c0,-0.481 -0.14,-0.87 -0.422,-1.168c-0.281,-0.297 -0.669,-0.449 -1.163,-0.455c-0.36,-0.013 -0.692,0.003 -0.996,0.047l0.275,-0.104l0,2.42c0,0.165 0.024,0.291 0.071,0.38c0.048,0.088 0.14,0.153 0.276,0.194c0.136,0.042 0.333,0.062 0.593,0.062Zm5.504,-0.636c0,0.196 0.019,0.339 0.057,0.427c0.038,0.089 0.112,0.149 0.223,0.181c0.111,0.031 0.286,0.047 0.527,0.047c0.019,0 0.028,0.019 0.028,0.057c0,0.038 -0.009,0.057 -0.028,0.057c-0.19,0 -0.342,-0.003 -0.456,-0.009l-0.673,-0.01l-0.655,0.01c-0.114,0.006 -0.269,0.009 -0.465,0.009c-0.019,0 -0.029,-0.019 -0.029,-0.057c0,-0.038 0.01,-0.057 0.029,-0.057c0.24,0 0.416,-0.016 0.526,-0.047c0.111,-0.032 0.187,-0.094 0.228,-0.186c0.041,-0.091 0.062,-0.232 0.062,-0.422l0,-4.394c0,-0.19 -0.021,-0.33 -0.062,-0.418c-0.041,-0.089 -0.117,-0.151 -0.228,-0.185c-0.11,-0.035 -0.286,-0.053 -0.526,-0.053c-0.019,0 -0.029,-0.019 -0.029,-0.057c0,-0.037 0.01,-0.056 0.029,-0.056l0.465,0.009c0.265,0.013 0.484,0.019 0.655,0.019c0.189,-0 0.417,-0.006 0.683,-0.019l0.446,-0.009c0.019,-0 0.028,0.019 0.028,0.056c0,0.038 -0.009,0.057 -0.028,0.057c-0.234,0 -0.408,0.019 -0.522,0.057c-0.114,0.038 -0.19,0.103 -0.228,0.195c-0.038,0.092 -0.057,0.233 -0.057,0.422l0,4.376Zm7.801,-4.119c0,-0.62 -0.275,-0.931 -0.825,-0.931c-0.02,0 -0.029,-0.019 -0.029,-0.057c-0,-0.037 0.009,-0.056 0.029,-0.056l0.407,0.009c0.228,0.013 0.409,0.019 0.541,0.019c0.108,-0 0.263,-0.006 0.466,-0.019l0.398,-0.009c0.013,-0 0.019,0.019 0.019,0.056c-0,0.038 -0.006,0.057 -0.019,0.057c-0.506,0 -0.759,0.311 -0.759,0.931l-0,2.695c-0,0.728 -0.203,1.296 -0.608,1.704c-0.405,0.408 -0.948,0.612 -1.632,0.612c-0.468,0 -0.878,-0.091 -1.229,-0.275c-0.351,-0.183 -0.623,-0.444 -0.816,-0.783c-0.193,-0.338 -0.289,-0.736 -0.289,-1.191l-0,-3.037c-0,-0.19 -0.019,-0.33 -0.057,-0.418c-0.038,-0.089 -0.113,-0.151 -0.223,-0.185c-0.111,-0.035 -0.287,-0.053 -0.527,-0.053c-0.013,0 -0.019,-0.019 -0.019,-0.057c-0,-0.037 0.006,-0.056 0.019,-0.056l0.465,0.009c0.266,0.013 0.481,0.019 0.645,0.019c0.171,-0 0.396,-0.006 0.674,-0.019l0.437,-0.009c0.018,-0 0.028,0.019 0.028,0.056c0,0.038 -0.01,0.057 -0.028,0.057c-0.234,0 -0.407,0.019 -0.517,0.057c-0.111,0.038 -0.186,0.103 -0.224,0.195c-0.038,0.092 -0.056,0.233 -0.056,0.422l-0,2.687c-0,0.746 0.167,1.316 0.503,1.708c0.335,0.393 0.809,0.589 1.423,0.589c0.569,-0 1.012,-0.179 1.328,-0.536c0.317,-0.358 0.475,-0.853 0.475,-1.486l0,-2.705Zm7.564,4.888c-0.158,0 -0.461,-0.271 -0.907,-0.811c-0.446,-0.542 -0.982,-1.287 -1.608,-2.236l0.531,-0.161c0.551,0.791 1.011,1.406 1.381,1.846c0.37,0.44 0.698,0.758 0.982,0.954c0.285,0.196 0.563,0.294 0.835,0.294c0.019,0 0.029,0.019 0.029,0.057c0,0.038 -0.01,0.057 -0.029,0.057l-1.214,0Zm-2.392,-5.961c0.5,0 0.886,0.114 1.158,0.342c0.272,0.228 0.408,0.531 0.408,0.911c0,0.335 -0.098,0.641 -0.294,0.916c-0.196,0.275 -0.46,0.493 -0.792,0.655c-0.333,0.161 -0.689,0.242 -1.068,0.242c-0.038,-0 -0.181,-0.01 -0.427,-0.029l-0,2.155c-0,0.196 0.019,0.339 0.057,0.427c0.038,0.089 0.112,0.149 0.223,0.181c0.11,0.031 0.286,0.047 0.526,0.047c0.019,0 0.029,0.019 0.029,0.057c-0,0.038 -0.01,0.057 -0.029,0.057c-0.196,0 -0.351,-0.003 -0.465,-0.009l-0.655,-0.01l-0.645,0.01c-0.114,0.006 -0.275,0.009 -0.484,0.009c-0.012,0 -0.019,-0.019 -0.019,-0.057c0,-0.038 0.007,-0.057 0.019,-0.057c0.241,0 0.418,-0.017 0.532,-0.052c0.114,-0.035 0.193,-0.097 0.237,-0.185c0.044,-0.089 0.066,-0.228 0.066,-0.418l0,-4.394c0,-0.19 -0.02,-0.33 -0.061,-0.418c-0.041,-0.089 -0.117,-0.151 -0.228,-0.185c-0.111,-0.035 -0.286,-0.053 -0.527,-0.053c-0.019,0 -0.028,-0.019 -0.028,-0.057c-0,-0.037 0.009,-0.056 0.028,-0.056l0.465,0.009c0.266,0.013 0.481,0.019 0.645,0.019c0.14,-0 0.27,-0.003 0.39,-0.009c0.12,-0.007 0.221,-0.013 0.303,-0.019c0.241,-0.019 0.453,-0.029 0.636,-0.029Zm0.921,1.528c-0,-0.493 -0.109,-0.848 -0.328,-1.063c-0.218,-0.215 -0.536,-0.323 -0.953,-0.323c-0.247,0 -0.418,0.045 -0.513,0.133c-0.095,0.089 -0.142,0.269 -0.142,0.541l-0,1.994c0.152,0.025 0.338,0.038 0.56,0.038c0.493,-0 0.846,-0.108 1.058,-0.323c0.212,-0.215 0.318,-0.547 0.318,-0.997Zm6.738,4.547c-0.588,-0 -1.112,-0.138 -1.571,-0.413c-0.458,-0.275 -0.813,-0.648 -1.063,-1.12c-0.25,-0.472 -0.375,-0.985 -0.375,-1.542c0,-0.652 0.165,-1.211 0.494,-1.676c0.329,-0.465 0.751,-0.814 1.267,-1.049c0.516,-0.234 1.042,-0.351 1.58,-0.351c0.601,0 1.129,0.141 1.585,0.423c0.455,0.281 0.805,0.653 1.048,1.115c0.244,0.462 0.366,0.952 0.366,1.471c-0,0.576 -0.152,1.104 -0.456,1.585c-0.303,0.481 -0.71,0.861 -1.219,1.139c-0.509,0.279 -1.062,0.418 -1.656,0.418Zm0.332,-0.199c0.43,-0 0.818,-0.105 1.163,-0.314c0.344,-0.208 0.616,-0.514 0.816,-0.916c0.199,-0.402 0.299,-0.884 0.299,-1.447c-0,-0.595 -0.111,-1.123 -0.332,-1.585c-0.222,-0.462 -0.533,-0.823 -0.935,-1.082c-0.402,-0.26 -0.872,-0.39 -1.409,-0.39c-0.697,0 -1.241,0.225 -1.633,0.674c-0.392,0.45 -0.588,1.067 -0.588,1.851c-0,0.595 0.11,1.138 0.332,1.628c0.221,0.491 0.531,0.877 0.93,1.158c0.399,0.282 0.851,0.423 1.357,0.423Zm13.163,0.085c-0.158,0 -0.46,-0.271 -0.906,-0.811c-0.447,-0.542 -0.983,-1.287 -1.609,-2.236l0.531,-0.161c0.551,0.791 1.011,1.406 1.381,1.846c0.37,0.44 0.698,0.758 0.982,0.954c0.285,0.196 0.564,0.294 0.836,0.294c0.019,0 0.028,0.019 0.028,0.057c-0,0.038 -0.009,0.057 -0.028,0.057l-1.215,0Zm-2.392,-5.961c0.5,0 0.886,0.114 1.158,0.342c0.272,0.228 0.408,0.531 0.408,0.911c0,0.335 -0.098,0.641 -0.294,0.916c-0.196,0.275 -0.46,0.493 -0.793,0.655c-0.332,0.161 -0.687,0.242 -1.067,0.242c-0.038,-0 -0.18,-0.01 -0.427,-0.029l-0,2.155c-0,0.196 0.019,0.339 0.057,0.427c0.038,0.089 0.112,0.149 0.223,0.181c0.111,0.031 0.286,0.047 0.527,0.047c0.019,0 0.028,0.019 0.028,0.057c-0,0.038 -0.009,0.057 -0.028,0.057c-0.196,0 -0.352,-0.003 -0.465,-0.009l-0.655,-0.01l-0.646,0.01c-0.114,0.006 -0.275,0.009 -0.483,0.009c-0.013,0 -0.02,-0.019 -0.02,-0.057c0,-0.038 0.007,-0.057 0.02,-0.057c0.24,0 0.417,-0.017 0.531,-0.052c0.114,-0.035 0.193,-0.097 0.237,-0.185c0.044,-0.089 0.066,-0.228 0.066,-0.418l0,-4.394c0,-0.19 -0.02,-0.33 -0.061,-0.418c-0.041,-0.089 -0.117,-0.151 -0.228,-0.185c-0.111,-0.035 -0.286,-0.053 -0.527,-0.053c-0.018,0 -0.028,-0.019 -0.028,-0.057c-0,-0.037 0.01,-0.056 0.028,-0.056l0.465,0.009c0.266,0.013 0.481,0.019 0.646,0.019c0.139,-0 0.269,-0.003 0.389,-0.009c0.12,-0.007 0.221,-0.013 0.304,-0.019c0.24,-0.019 0.452,-0.029 0.635,-0.029Zm0.921,1.528c0,-0.493 -0.109,-0.848 -0.328,-1.063c-0.218,-0.215 -0.536,-0.323 -0.953,-0.323c-0.247,0 -0.418,0.045 -0.513,0.133c-0.095,0.089 -0.142,0.269 -0.142,0.541l-0,1.994c0.152,0.025 0.338,0.038 0.56,0.038c0.493,-0 0.846,-0.108 1.058,-0.323c0.212,-0.215 0.318,-0.547 0.318,-0.997Zm5.647,1.633l2.515,-0l0.066,0.19l-2.676,-0l0.095,-0.19Zm4.697,2.686c0.025,0 0.038,0.019 0.038,0.057c0,0.038 -0.013,0.057 -0.038,0.057c-0.12,0 -0.307,-0.006 -0.56,-0.019c-0.253,-0.013 -0.436,-0.019 -0.55,-0.019c-0.139,0 -0.317,0.006 -0.532,0.019c-0.202,0.013 -0.357,0.019 -0.465,0.019c-0.025,0 -0.038,-0.019 -0.038,-0.057c0,-0.038 0.013,-0.057 0.038,-0.057c0.241,0 0.413,-0.022 0.517,-0.066c0.105,-0.045 0.157,-0.124 0.157,-0.238c0,-0.094 -0.038,-0.227 -0.114,-0.398l-2.107,-4.452l0.238,-0.294l-1.841,4.357c-0.089,0.215 -0.133,0.392 -0.133,0.531c-0,0.373 0.31,0.56 0.93,0.56c0.032,0 0.047,0.019 0.047,0.057c0,0.038 -0.015,0.057 -0.047,0.057c-0.114,0 -0.278,-0.006 -0.494,-0.019c-0.24,-0.013 -0.449,-0.019 -0.626,-0.019c-0.165,0 -0.354,0.006 -0.57,0.019c-0.189,0.013 -0.347,0.019 -0.474,0.019c-0.031,0 -0.047,-0.019 -0.047,-0.057c-0,-0.038 0.016,-0.057 0.047,-0.057c0.177,0 0.327,-0.033 0.451,-0.1c0.123,-0.066 0.24,-0.183 0.351,-0.351c0.111,-0.167 0.232,-0.409 0.365,-0.726l2.003,-4.727c0.012,-0.019 0.035,-0.028 0.066,-0.028c0.032,-0 0.051,0.009 0.057,0.028l2.24,4.718c0.215,0.468 0.398,0.783 0.55,0.944c0.152,0.161 0.333,0.242 0.541,0.242Zm4.925,-5.923c0.399,0 0.734,0.029 1.007,0.086c0.272,0.056 0.544,0.155 0.816,0.294c0.044,0.025 0.069,0.047 0.075,0.066c0.007,0.019 0.016,0.067 0.029,0.143l0.114,1.129c-0,0.019 -0.018,0.03 -0.052,0.033c-0.035,0.004 -0.056,-0.004 -0.062,-0.023c-0.291,-1.057 -0.943,-1.586 -1.955,-1.586c-0.532,0 -1.001,0.118 -1.409,0.352c-0.408,0.234 -0.723,0.568 -0.944,1.001c-0.222,0.434 -0.332,0.938 -0.332,1.514c-0,0.551 0.123,1.055 0.37,1.514c0.246,0.459 0.577,0.821 0.991,1.087c0.415,0.266 0.865,0.399 1.352,0.399c0.519,-0 0.94,-0.127 1.263,-0.38c0.322,-0.253 0.569,-0.639 0.74,-1.158c0,-0.013 0.016,-0.019 0.047,-0.019c0.045,0 0.067,0.009 0.067,0.028l-0.095,1.045c-0.006,0.075 -0.016,0.123 -0.029,0.142c-0.012,0.019 -0.038,0.041 -0.076,0.066c-0.328,0.158 -0.637,0.269 -0.925,0.333c-0.288,0.063 -0.618,0.094 -0.992,0.094c-0.664,0 -1.257,-0.131 -1.779,-0.394c-0.522,-0.262 -0.928,-0.631 -1.219,-1.105c-0.291,-0.475 -0.437,-1.019 -0.437,-1.633c0,-0.595 0.149,-1.122 0.446,-1.58c0.298,-0.459 0.707,-0.815 1.229,-1.068c0.522,-0.253 1.109,-0.38 1.76,-0.38Zm9.14,0.892c-0,-0.189 -0.021,-0.33 -0.062,-0.422c-0.041,-0.092 -0.119,-0.157 -0.233,-0.195c-0.114,-0.038 -0.294,-0.057 -0.541,-0.057c-0.018,0 -0.028,-0.019 -0.028,-0.057c-0,-0.037 0.01,-0.056 0.028,-0.056l0.456,0.009c0.278,0.013 0.509,0.019 0.693,0.019c0.171,-0 0.389,-0.006 0.655,-0.019l0.465,-0.009c0.019,-0 0.028,0.019 0.028,0.056c0,0.038 -0.009,0.057 -0.028,0.057c-0.241,0 -0.418,0.018 -0.532,0.053c-0.114,0.034 -0.191,0.096 -0.232,0.185c-0.041,0.088 -0.062,0.228 -0.062,0.418l-0,4.394c-0,0.19 0.021,0.331 0.062,0.422c0.041,0.092 0.118,0.154 0.232,0.186c0.114,0.031 0.291,0.047 0.532,0.047c0.019,0 0.028,0.019 0.028,0.057c0,0.038 -0.009,0.057 -0.028,0.057c-0.197,0 -0.351,-0.003 -0.465,-0.009l-0.655,-0.01l-0.693,0.01c-0.114,0.006 -0.266,0.009 -0.456,0.009c-0.018,0 -0.028,-0.019 -0.028,-0.057c-0,-0.038 0.01,-0.057 0.028,-0.057c0.247,0 0.427,-0.016 0.541,-0.047c0.114,-0.032 0.192,-0.094 0.233,-0.186c0.041,-0.091 0.062,-0.232 0.062,-0.422l-0,-4.376Zm-3.977,1.956l4.242,-0l0,0.199l-4.242,0l0,-0.199Zm-0.275,-1.974c0,-0.19 -0.021,-0.33 -0.062,-0.418c-0.041,-0.089 -0.118,-0.151 -0.232,-0.185c-0.114,-0.035 -0.291,-0.053 -0.532,-0.053c-0.012,0 -0.019,-0.019 -0.019,-0.057c0,-0.037 0.007,-0.056 0.019,-0.056l0.484,0.009c0.266,0.013 0.478,0.019 0.636,0.019c0.184,-0 0.415,-0.006 0.693,-0.019l0.455,-0.009c0.013,-0 0.02,0.019 0.02,0.056c-0,0.038 -0.007,0.057 -0.02,0.057c-0.24,0 -0.419,0.019 -0.536,0.057c-0.117,0.038 -0.196,0.103 -0.237,0.195c-0.041,0.092 -0.062,0.233 -0.062,0.422l0,4.376c0,0.19 0.021,0.331 0.062,0.422c0.041,0.092 0.119,0.154 0.233,0.186c0.113,0.031 0.294,0.047 0.54,0.047c0.013,0 0.02,0.019 0.02,0.057c-0,0.038 -0.007,0.057 -0.02,0.057c-0.195,0 -0.35,-0.003 -0.465,-0.009l-0.683,-0.01l-0.655,0.01c-0.114,0.006 -0.272,0.009 -0.474,0.009c-0.013,0 -0.019,-0.019 -0.019,-0.057c-0,-0.038 0.006,-0.057 0.019,-0.057c0.24,0 0.419,-0.016 0.536,-0.047c0.117,-0.032 0.196,-0.094 0.237,-0.186c0.041,-0.091 0.062,-0.232 0.062,-0.422l0,-4.394Zm12.575,0.275c-0,-0.62 -0.276,-0.931 -0.826,-0.931c-0.019,0 -0.029,-0.019 -0.029,-0.057c0,-0.037 0.01,-0.056 0.029,-0.056l0.408,0.009c0.228,0.013 0.408,0.019 0.541,0.019c0.107,-0 0.262,-0.006 0.465,-0.019l0.398,-0.009c0.013,-0 0.019,0.019 0.019,0.056c0,0.038 -0.006,0.057 -0.019,0.057c-0.506,0 -0.759,0.311 -0.759,0.931l0,2.695c0,0.728 -0.202,1.296 -0.607,1.704c-0.405,0.408 -0.949,0.612 -1.632,0.612c-0.469,0 -0.878,-0.091 -1.229,-0.275c-0.352,-0.183 -0.624,-0.444 -0.817,-0.783c-0.193,-0.338 -0.289,-0.736 -0.289,-1.191l-0,-3.037c-0,-0.19 -0.019,-0.33 -0.057,-0.418c-0.038,-0.089 -0.112,-0.151 -0.223,-0.185c-0.111,-0.035 -0.286,-0.053 -0.527,-0.053c-0.012,0 -0.019,-0.019 -0.019,-0.057c0,-0.037 0.007,-0.056 0.019,-0.056l0.465,0.009c0.266,0.013 0.481,0.019 0.646,0.019c0.17,-0 0.395,-0.006 0.673,-0.019l0.437,-0.009c0.019,-0 0.029,0.019 0.029,0.056c-0,0.038 -0.01,0.057 -0.029,0.057c-0.234,0 -0.406,0.019 -0.517,0.057c-0.111,0.038 -0.185,0.103 -0.223,0.195c-0.038,0.092 -0.057,0.233 -0.057,0.422l-0,2.687c-0,0.746 0.167,1.316 0.503,1.708c0.335,0.393 0.81,0.589 1.423,0.589c0.57,-0 1.013,-0.179 1.329,-0.536c0.316,-0.358 0.475,-0.853 0.475,-1.486l-0,-2.705Zm3.444,-0.826l0.219,0.019l-0,4.661c-0,0.329 0.058,0.564 0.175,0.707c0.117,0.142 0.306,0.213 0.565,0.213c0.019,0 0.028,0.019 0.028,0.057c0,0.038 -0.009,0.057 -0.028,0.057c-0.158,0 -0.278,-0.003 -0.361,-0.009l-0.474,-0.01l-0.484,0.01c-0.089,0.006 -0.219,0.009 -0.389,0.009c-0.013,0 -0.019,-0.019 -0.019,-0.057c-0,-0.038 0.006,-0.057 0.019,-0.057c0.272,0 0.465,-0.071 0.579,-0.213c0.113,-0.143 0.17,-0.378 0.17,-0.707l0,-4.68Zm4.784,5.828c-0,0.013 -0.016,0.022 -0.048,0.028c-0.032,0.007 -0.054,0.004 -0.066,-0.009l-4.366,-5.287c-0.202,-0.247 -0.387,-0.419 -0.555,-0.517c-0.168,-0.098 -0.334,-0.148 -0.498,-0.148c-0.019,0 -0.029,-0.019 -0.029,-0.057c0,-0.037 0.01,-0.056 0.029,-0.056l0.351,0.009c0.076,0.006 0.18,0.01 0.313,0.01c0.139,-0 0.253,-0.004 0.342,-0.01c0.088,-0.006 0.158,-0.009 0.209,-0.009c0.044,-0 0.08,0.011 0.109,0.033c0.028,0.022 0.061,0.068 0.099,0.137c0.076,0.114 0.155,0.222 0.238,0.323l3.796,4.661l0.076,0.892Zm-0,-0l-0.219,-0.294l0,-4.708c0,-0.33 -0.055,-0.567 -0.166,-0.712c-0.111,-0.146 -0.296,-0.219 -0.555,-0.219c-0.013,0 -0.019,-0.019 -0.019,-0.057c0,-0.037 0.006,-0.056 0.019,-0.056l0.37,0.009c0.19,0.013 0.345,0.019 0.465,0.019c0.114,-0 0.272,-0.006 0.475,-0.019l0.388,-0.009c0.02,-0 0.029,0.019 0.029,0.056c0,0.038 -0.009,0.057 -0.029,0.057c-0.265,0 -0.458,0.073 -0.578,0.219c-0.12,0.145 -0.18,0.382 -0.18,0.712l-0,5.002Zm3.235,-5.277c0,-0.19 -0.018,-0.33 -0.056,-0.418c-0.038,-0.089 -0.113,-0.151 -0.224,-0.185c-0.11,-0.035 -0.286,-0.053 -0.526,-0.053c-0.013,0 -0.019,-0.019 -0.019,-0.057c-0,-0.037 0.006,-0.056 0.019,-0.056l0.474,0.009c0.266,0.013 0.478,0.019 0.636,0.019c0.184,-0 0.408,-0.006 0.674,-0.019l0.446,-0.009c0.019,-0 0.029,0.019 0.029,0.056c-0,0.038 -0.01,0.057 -0.029,0.057c-0.234,0 -0.406,0.019 -0.517,0.057c-0.111,0.038 -0.187,0.103 -0.228,0.195c-0.041,0.092 -0.062,0.233 -0.062,0.422l0,4.376c0,0.196 0.019,0.339 0.057,0.427c0.038,0.089 0.113,0.149 0.223,0.181c0.111,0.031 0.287,0.047 0.527,0.047c0.019,0 0.029,0.019 0.029,0.057c-0,0.038 -0.01,0.057 -0.029,0.057c-0.19,0 -0.341,-0.003 -0.455,-0.009l-0.665,-0.01l-0.645,0.01c-0.114,0.006 -0.272,0.009 -0.474,0.009c-0.013,0 -0.019,-0.019 -0.019,-0.057c-0,-0.038 0.006,-0.057 0.019,-0.057c0.24,0 0.415,-0.016 0.526,-0.047c0.111,-0.032 0.187,-0.094 0.228,-0.186c0.041,-0.091 0.061,-0.232 0.061,-0.422l0,-4.394Zm0.874,1.888l0.474,-0.379l1.386,1.765c0.462,0.601 0.814,1.025 1.058,1.272c0.244,0.247 0.432,0.392 0.564,0.437c0.133,0.044 0.326,0.066 0.579,0.066c0.019,0 0.029,0.019 0.029,0.057c0,0.038 -0.01,0.057 -0.029,0.057l-1.062,0c-0.051,0 -0.141,0.002 -0.271,0.005c-0.13,0.003 -0.311,-0.158 -0.546,-0.484c-0.234,-0.326 -0.458,-0.625 -0.673,-0.897l-1.509,-1.899Zm1.774,-1.888c0.209,-0.209 0.314,-0.364 0.314,-0.466c-0,-0.126 -0.187,-0.19 -0.561,-0.19c-0.012,0 -0.018,-0.019 -0.018,-0.057c-0,-0.037 0.006,-0.056 0.018,-0.056l0.409,0.009c0.253,0.013 0.484,0.019 0.693,0.019c0.208,-0 0.427,-0.006 0.654,-0.019l0.351,-0.009c0.019,-0 0.029,0.019 0.029,0.056c-0,0.038 -0.01,0.057 -0.029,0.057c-0.259,0 -0.534,0.057 -0.825,0.171c-0.291,0.114 -0.563,0.295 -0.816,0.541l-2.43,2.383l-0.237,-0l2.448,-2.439Zm6.624,5.277c-0.588,-0 -1.111,-0.138 -1.57,-0.413c-0.459,-0.275 -0.813,-0.648 -1.063,-1.12c-0.25,-0.472 -0.375,-0.985 -0.375,-1.542c0,-0.652 0.165,-1.211 0.493,-1.676c0.33,-0.465 0.752,-0.814 1.268,-1.049c0.515,-0.234 1.042,-0.351 1.58,-0.351c0.601,0 1.129,0.141 1.585,0.423c0.455,0.281 0.805,0.653 1.048,1.115c0.244,0.462 0.366,0.952 0.366,1.471c-0,0.576 -0.152,1.104 -0.456,1.585c-0.304,0.481 -0.71,0.861 -1.22,1.139c-0.509,0.279 -1.061,0.418 -1.656,0.418Zm0.333,-0.199c0.43,-0 0.818,-0.105 1.162,-0.314c0.345,-0.208 0.617,-0.514 0.816,-0.916c0.2,-0.402 0.299,-0.884 0.299,-1.447c0,-0.595 -0.11,-1.123 -0.332,-1.585c-0.221,-0.462 -0.533,-0.823 -0.934,-1.082c-0.402,-0.26 -0.872,-0.39 -1.41,-0.39c-0.696,0 -1.24,0.225 -1.632,0.674c-0.393,0.45 -0.589,1.067 -0.589,1.851c0,0.595 0.111,1.138 0.332,1.628c0.222,0.491 0.532,0.877 0.931,1.158c0.398,0.282 0.851,0.423 1.357,0.423Zm7.725,0.076c-0.007,0.025 -0.041,0.038 -0.105,0.038c-0.05,-0 -0.085,-0.013 -0.104,-0.038l-2.363,-5.136c-0.114,-0.253 -0.228,-0.428 -0.342,-0.526c-0.114,-0.098 -0.269,-0.148 -0.465,-0.148c-0.019,0 -0.028,-0.019 -0.028,-0.057c-0,-0.037 0.009,-0.056 0.028,-0.056l0.361,0.009c0.177,0.013 0.319,0.019 0.427,0.019c0.228,-0 0.475,-0.006 0.74,-0.019l0.389,-0.009c0.019,-0 0.029,0.019 0.029,0.056c-0,0.038 -0.01,0.057 -0.029,0.057c-0.189,0 -0.33,0.023 -0.422,0.067c-0.092,0.044 -0.138,0.12 -0.138,0.228c0,0.095 0.032,0.209 0.095,0.341l2.107,4.528l-0.342,0.456l1.243,-3.104l0.143,0.209l-1.224,3.085Zm5.504,-5.923c0.013,-0 0.019,0.019 0.019,0.056c0,0.038 -0.006,0.057 -0.019,0.057c-0.215,0 -0.402,0.057 -0.56,0.171c-0.158,0.114 -0.294,0.307 -0.408,0.579l-2.021,5.06c-0.007,0.025 -0.041,0.038 -0.105,0.038c-0.05,-0 -0.085,-0.013 -0.104,-0.038l-2.354,-5.136c-0.114,-0.246 -0.227,-0.42 -0.341,-0.522c-0.114,-0.101 -0.263,-0.152 -0.446,-0.152c-0.019,0 -0.029,-0.019 -0.029,-0.057c0,-0.037 0.01,-0.056 0.029,-0.056l0.36,0.009c0.165,0.013 0.301,0.019 0.408,0.019c0.178,-0 0.361,-0.006 0.55,-0.019l0.257,-0.009c0.019,-0 0.028,0.019 0.028,0.056c0,0.038 -0.009,0.057 -0.028,0.057c-0.114,0 -0.196,0.012 -0.247,0.034c-0.05,0.022 -0.076,0.061 -0.076,0.118c0,0.076 0.057,0.238 0.171,0.484l2.116,4.528l-0.341,0.456l1.964,-4.908c0.051,-0.133 0.076,-0.237 0.076,-0.313c0,-0.139 -0.058,-0.24 -0.175,-0.304c-0.117,-0.063 -0.299,-0.095 -0.546,-0.095c-0.019,0 -0.029,-0.019 -0.029,-0.057c0,-0.037 0.01,-0.056 0.029,-0.056l0.399,0.009c0.215,0.013 0.408,0.019 0.578,0.019c0.127,-0 0.272,-0.006 0.437,-0.019l0.408,-0.009Zm-3.654,0.806c0.076,-0.17 0.114,-0.31 0.114,-0.417c0,-0.184 -0.136,-0.276 -0.408,-0.276c-0.019,0 -0.028,-0.019 -0.028,-0.057c-0,-0.037 0.009,-0.056 0.028,-0.056l0.218,0.009c0.127,0.013 0.26,0.019 0.399,0.019c0.127,-0 0.272,-0.006 0.436,-0.019l0.39,-0.009c0.012,-0 0.018,0.019 0.018,0.056c0,0.038 -0.006,0.057 -0.018,0.057c-0.216,0 -0.397,0.056 -0.546,0.167c-0.149,0.11 -0.28,0.305 -0.394,0.583l-0.788,1.975l-0.142,-0.209l0.721,-1.823Z" style="fill:#152c3a;fill-rule:nonzero;"/><path d="M21.56,2.383c5.383,0 10.237,3.53 13.733,9.237c3.451,5.633 5.586,13.405 5.586,21.98c0,8.575 -2.135,16.347 -5.586,21.98c-3.496,5.707 -8.35,9.237 -13.733,9.237c-5.381,-0 -10.235,-3.53 -13.732,-9.237c-3.451,-5.633 -5.586,-13.405 -5.586,-21.98c-0,-8.575 2.135,-16.347 5.586,-21.98c3.497,-5.707 8.351,-9.237 13.732,-9.237Zm-9.382,29.981l1.281,-1.281l1.281,1.281l-1.281,1.282l-1.281,-1.282Zm1.826,15.156l9.605,0c4.399,0 8.909,-2.567 8.909,-7.742c-0,-4.854 -4.436,-7.422 -8.542,-7.341l0.146,-0.121c3.19,-0.481 6.489,-2.888 6.489,-6.298c0,-4.453 -4.216,-6.298 -7.809,-6.338l-3.222,-0l-0.013,-0l-8.799,-0c-0.22,-0 -0.183,0.28 0,0.28l1.723,0c0.184,0 0.257,0.081 0.257,0.281l-0,10.237c0.493,-0.177 1.051,-0.173 1.54,0.014l-0,-10.251c-0,-0.194 0.068,-0.275 0.24,-0.28l1.198,-0c0.184,-0 0.257,0.08 0.257,0.28l0,26.718c0,0.197 -0.106,0.278 -0.249,0.281l-1.198,-0c-0.177,-0.003 -0.248,-0.084 -0.248,-0.281l-0,-12.697c-0.489,0.184 -1.047,0.201 -1.54,0.035l-0,12.662c-0,0.2 -0.11,0.281 -0.257,0.281l-1.723,-0c-0.22,-0 -0.22,0.28 0,0.28l3.231,0l0.005,0Zm8.464,-14.963c4.859,0.007 8.363,1.537 8.363,7.221c0,5.335 -3.263,7.462 -7.222,7.462l-0.738,-0c3.458,-0.794 6.412,-3.274 6.412,-7.462c-0,-4.176 -3.283,-6.659 -6.815,-7.221Zm-4.697,14.683c-0.177,-0.003 -0.248,-0.084 -0.248,-0.281l0,-14.121c0,-0.201 0.073,-0.281 0.257,-0.281l1.471,0c4.85,0.011 8.345,1.544 8.345,7.221c0,5.335 -3.263,7.462 -7.222,7.462l-2.603,-0Zm11.301,-21.222c-0,4.453 -2.713,6.258 -7.003,6.258l-0.943,0c3.113,-0.562 6.25,-2.933 6.25,-6.258c-0,-3.501 -2.607,-5.391 -5.468,-6.057l0.784,-0c3.263,-0 6.38,1.484 6.38,6.057Zm-11.309,6.258c-0.171,-0.005 -0.24,-0.086 -0.24,-0.28l0,-11.755c0,-0.2 0.073,-0.28 0.257,-0.28l1.711,-0c3.251,0.01 6.345,1.5 6.345,6.057c0,4.453 -2.713,6.258 -7.002,6.258l-1.071,-0Zm3.797,-32.276c5.966,0 11.362,3.77 15.263,9.865c3.89,6.077 6.296,14.469 6.296,23.735c-0,9.266 -2.406,17.658 -6.296,23.735c-3.901,6.095 -9.297,9.865 -15.263,9.865c-5.965,-0 -11.361,-3.77 -15.262,-9.865c-3.889,-6.077 -6.296,-14.469 -6.296,-23.735c0,-9.266 2.407,-17.658 6.296,-23.735c3.901,-6.095 9.297,-9.865 15.262,-9.865Zm15.025,10.018c-3.85,-6.014 -9.162,-9.734 -15.025,-9.734c-5.862,0 -11.174,3.72 -15.024,9.734c-3.861,6.033 -6.249,14.37 -6.249,23.582c-0,9.212 2.388,17.549 6.249,23.582c3.85,6.014 9.162,9.734 15.024,9.734c5.863,-0 11.175,-3.72 15.024,-9.734c3.862,-6.033 6.251,-14.37 6.251,-23.582c-0,-9.212 -2.389,-17.549 -6.25,-23.582Zm-2.139,2.118c-3.315,-5.411 -7.873,-8.759 -12.886,-8.759c-5.012,0 -9.57,3.348 -12.885,8.759c-3.361,5.485 -5.439,13.073 -5.439,21.464c-0,8.391 2.078,15.979 5.439,21.464c3.315,5.411 7.873,8.758 12.885,8.758c5.013,0 9.571,-3.347 12.886,-8.758c3.361,-5.485 5.439,-13.073 5.439,-21.464c0,-8.391 -2.078,-15.979 -5.439,-21.464Z" style="fill:#152c3a;fill-rule:nonzero;"/></g></g></svg>