<?xml version="1.0" encoding="UTF-8" standalone="no"?><!DOCTYPE svg PUBLIC "-//W3C//DTD SVG 1.1//EN" "http://www.w3.org/Graphics/SVG/1.1/DTD/svg11.dtd"><svg width="100%" height="100%" viewBox="0 0 746 284" version="1.1" xmlns="http://www.w3.org/2000/svg" xmlns:xlink="http://www.w3.org/1999/xlink" xml:space="preserve" xmlns:serif="http://www.serif.com/" style="fill-rule:evenodd;clip-rule:evenodd;stroke-linejoin:round;stroke-miterlimit:2;"><path d="M265.494,199.432c-0,-0.752 -0.075,-1.303 -0.226,-1.654c-0.15,-0.352 -0.444,-0.597 -0.883,-0.734c-0.44,-0.138 -1.135,-0.208 -2.089,-0.208c-0.049,0 -0.075,-0.074 -0.075,-0.225c-0,-0.15 0.026,-0.226 0.075,-0.226l1.882,0.038c1.052,0.05 1.893,0.076 2.52,0.076c0.728,-0 1.617,-0.026 2.671,-0.076l1.768,-0.038c0.076,0 0.113,0.076 0.113,0.226c0,0.151 -0.037,0.225 -0.113,0.225c-0.927,0 -1.611,0.076 -2.05,0.227c-0.439,0.15 -0.74,0.406 -0.903,0.771c-0.163,0.363 -0.244,0.922 -0.244,1.674l-0,17.342c-0,0.779 0.074,1.342 0.225,1.694c0.15,0.349 0.446,0.588 0.884,0.714c0.439,0.126 1.135,0.188 2.088,0.188c0.076,0 0.113,0.076 0.113,0.226c0,0.15 -0.037,0.225 -0.113,0.225c-0.752,0 -1.355,-0.013 -1.806,-0.037l-2.633,-0.038l-2.558,0.038c-0.452,0.024 -1.078,0.037 -1.881,0.037c-0.05,0 -0.075,-0.075 -0.075,-0.225c0,-0.15 0.025,-0.226 0.075,-0.226c0.953,0 1.648,-0.062 2.088,-0.188c0.439,-0.126 0.74,-0.37 0.902,-0.733c0.163,-0.364 0.245,-0.922 0.245,-1.675l-0,-17.418Zm-173.471,-188.076c22.43,0 42.659,14.707 57.23,38.485c14.385,23.473 23.282,55.857 23.282,91.586c-0,35.728 -8.897,68.111 -23.283,91.584c-14.57,23.778 -34.799,38.485 -57.229,38.485c-22.429,0 -42.658,-14.707 -57.229,-38.485c-14.385,-23.473 -23.282,-55.856 -23.282,-91.584c-0,-35.729 8.897,-68.113 23.282,-91.586c14.571,-23.778 34.8,-38.485 57.229,-38.485Zm-39.103,124.921l5.34,-5.34l5.34,5.34l-5.34,5.341l-5.34,-5.341Zm-5.875,63.151l53.515,-0c18.334,-0 37.128,-10.697 37.128,-32.26c-0,-20.225 -18.488,-30.922 -35.6,-30.589l0.611,-0.501c13.293,-2.005 27.043,-12.034 27.043,-26.243c0,-18.554 -17.57,-26.242 -32.544,-26.409l-13.429,-0l-0.053,-0.001l-36.671,-0c-0.916,-0 -0.763,1.17 0,1.17l7.181,0c0.764,0 1.07,0.334 1.07,1.169l0,42.652c2.053,-0.735 4.38,-0.718 6.418,0.061l0,-42.713c0,-0.809 0.286,-1.148 0.999,-1.168l4.997,0c0.764,0 1.07,0.333 1.07,1.17l-0,111.322c-0,0.822 -0.444,1.159 -1.042,1.169l-4.99,0c-0.738,-0.01 -1.034,-0.347 -1.034,-1.169l0,-52.902c-2.038,0.763 -4.365,0.834 -6.418,0.147l0,52.755c0,0.835 -0.458,1.169 -1.07,1.169l-7.181,0c-0.916,0 -0.916,1.171 0,1.171Zm48.762,-62.347c20.25,0.029 34.852,6.405 34.852,30.087c-0,22.231 -13.598,31.089 -30.099,31.089l-3.076,0c14.413,-3.307 26.721,-13.639 26.721,-31.09c0,-17.398 -13.681,-27.746 -28.398,-30.086Zm-19.576,61.176c-0.738,-0.01 -1.034,-0.347 -1.034,-1.169l-0,-58.837c-0,-0.836 0.306,-1.17 1.07,-1.17l6.131,-0c20.212,0.044 34.779,6.433 34.779,30.086c-0,22.232 -13.598,31.09 -30.1,31.09l-10.846,0Zm47.095,-88.422c-0,18.554 -11.307,26.075 -29.183,26.075l-3.931,0c12.976,-2.343 26.047,-12.223 26.047,-26.075c-0,-14.59 -10.864,-22.461 -22.788,-25.239l3.269,0c13.598,0 26.586,6.185 26.586,25.239Zm-47.13,26.075c-0.712,-0.021 -0.999,-0.36 -0.999,-1.169l-0,-48.975c-0,-0.837 0.306,-1.17 1.07,-1.17l7.131,0c13.548,0.043 26.444,6.249 26.444,25.239c0,18.554 -11.305,26.075 -29.183,26.075l-4.463,0Zm15.827,-134.485c24.862,0 47.349,15.709 63.608,41.105c16.209,25.319 26.236,60.286 26.236,98.897c-0,38.611 -10.027,73.577 -26.237,98.895c-16.258,25.396 -38.745,41.105 -63.607,41.105c-24.86,-0 -47.349,-15.709 -63.607,-41.105c-16.21,-25.319 -26.236,-60.284 -26.236,-98.895c-0,-38.611 10.026,-73.578 26.236,-98.897c16.258,-25.396 38.747,-41.105 63.607,-41.105Zm62.614,41.744c-16.043,-25.061 -38.183,-40.559 -62.614,-40.559c-24.43,0 -46.57,15.5 -62.613,40.559c-16.092,25.135 -26.047,59.875 -26.047,98.258c0,38.381 9.955,73.121 26.047,98.257c16.043,25.059 38.183,40.559 62.613,40.559c24.432,0 46.571,-15.5 62.614,-40.559c16.092,-25.135 26.046,-59.876 26.046,-98.257c0,-38.383 -9.954,-73.123 -26.046,-98.258Zm-8.912,8.824c-13.816,-22.547 -32.811,-36.494 -53.702,-36.494c-20.89,0 -39.885,13.947 -53.701,36.494c-14.005,22.853 -22.667,54.471 -22.667,89.434c0,34.962 8.662,66.579 22.667,89.432c13.816,22.547 32.811,36.494 53.701,36.494c20.891,-0 39.884,-13.947 53.702,-36.494c14.004,-22.853 22.668,-54.47 22.668,-89.432c-0,-34.963 -8.664,-66.581 -22.668,-89.434Zm533.694,145.258l0.866,0.074l-0,18.472c-0,1.304 0.233,2.238 0.696,2.802c0.464,0.565 1.21,0.847 2.239,0.847c0.074,0 0.112,0.076 0.112,0.226c0,0.15 -0.038,0.225 -0.112,0.225c-0.628,0 -1.104,-0.013 -1.43,-0.037l-1.881,-0.038l-1.919,0.038c-0.351,0.024 -0.864,0.037 -1.542,0.037c-0.05,0 -0.075,-0.075 -0.075,-0.225c0,-0.15 0.025,-0.226 0.075,-0.226c1.078,0 1.843,-0.282 2.294,-0.847c0.452,-0.564 0.677,-1.498 0.677,-2.802l0,-18.546Zm-387.28,-91.675c5.659,0 10.66,1.112 15.006,3.334c8.653,4.428 13.793,12.35 13.793,22.131c0,16.676 -12.621,28.647 -28.951,28.647c-3.435,0 -7.074,-0.151 -10.913,-0.454c-3.848,-0.274 -7.66,-0.455 -11.52,-0.455l-10.004,0.152c-1.819,0.102 -4.345,0.151 -7.579,0.151c-0.423,0 -0.423,-1.82 0,-1.82c4.042,0 6.997,-0.251 8.868,-0.757c1.87,-0.504 3.157,-1.49 3.864,-2.956c0.708,-1.465 1.062,-3.713 1.062,-6.744l0,-70.18c0,-3.031 -0.329,-5.255 -0.986,-6.669c-0.657,-1.416 -1.919,-2.401 -3.789,-2.956c-1.87,-0.556 -4.775,-0.834 -8.716,-0.834c-0.303,0 -0.454,-0.303 -0.454,-0.909c0,-0.607 0.151,-0.91 0.454,-0.91l7.276,0.152c5.016,0.251 10.139,0.467 15.157,0.151c4.194,-0.262 8.378,-0.757 12.582,-0.757c8.387,-0 14.575,1.894 18.568,5.683c3.992,3.79 5.988,8.615 5.988,14.476c-0,12.407 -10.275,20.07 -21.373,22.888l1.667,-1.364Zm372.593,20.973l45.593,-0.112l-24.996,-53.753l2.88,-2.576l-23.477,56.441Zm46.669,2.202l-47.635,0.118l-4.812,11.57c-1.947,4.729 -4.181,11.768 1.517,14.854c2.425,1.314 6.214,1.969 11.368,1.969c0.504,0 0.757,0.305 0.757,0.911c-0,0.606 -0.253,0.909 -0.757,0.909c-1.819,0 -4.447,-0.1 -7.883,-0.303c-3.84,-0.202 -7.174,-0.304 -10.004,-0.304c-2.526,0 -5.507,0.102 -8.942,0.304c-3.032,0.203 -5.507,0.303 -7.427,0.303c-0.505,0 -0.759,-0.303 -0.759,-0.909c-0,-0.606 0.254,-0.911 0.759,-0.911c5.983,0 9.486,-2.035 12.807,-6.97c1.769,-2.628 3.664,-6.367 5.685,-11.219l31.679,-76.242c0.376,-0.565 1.595,-0.671 1.819,-0l35.166,75.485c2.34,5.189 6.542,14.325 11.595,17.355c1.769,1.061 3.815,1.591 6.14,1.591c0.403,0 0.605,0.305 0.605,0.911c0,0.606 -0.202,0.909 -0.605,0.909c-5.758,0 -11.528,-0.607 -17.28,-0.607c-2.122,0 -4.902,0.102 -8.336,0.304c-3.234,0.203 -5.66,0.303 -7.277,0.303c-0.404,0 -0.606,-0.303 -0.606,-0.909c0,-0.606 0.202,-0.911 0.606,-0.911c4.143,0 7.124,-0.376 8.943,-1.136c1.819,-0.757 2.729,-2.045 2.729,-3.864c-0,-1.415 -0.557,-3.385 -1.668,-5.912l-8.184,-17.599Zm-427.599,-62.888c-2.83,-0 -4.901,0.202 -6.215,0.607c-1.313,0.404 -2.298,1.364 -2.955,2.879c-0.658,1.516 -0.986,4.042 -0.986,7.58l-0,29.708l-4.548,-1.212c4.346,0.302 8.237,0.454 11.673,0.454c7.983,-0 13.793,-1.895 17.431,-5.684c3.638,-3.79 5.457,-8.817 5.457,-15.081c-0,-5.66 -1.591,-10.282 -4.776,-13.87c-3.183,-3.587 -8.209,-5.381 -15.081,-5.381Zm6.062,91.399c7.479,0 13.061,-1.944 16.751,-5.834c3.687,-3.89 5.532,-9.423 5.532,-16.598c0,-7.68 -2.349,-13.92 -7.049,-18.72c-4.698,-4.798 -11.039,-7.25 -19.022,-7.351c-6.163,-0.202 -11.672,0.05 -16.522,0.759l4.092,-1.668l-0,38.955c-0,2.728 0.43,4.825 1.288,6.289c0.86,1.466 2.451,2.528 4.775,3.185c2.325,0.656 5.71,0.983 10.155,0.983Zm103.771,-77.909c2.223,-3.637 3.334,-6.417 3.334,-8.336c0,-3.234 -2.728,-4.851 -8.185,-4.851c-0.423,0 -0.423,-1.819 0,-1.819l6.822,0.152c3.839,0.202 7.224,0.303 10.154,0.303c1.717,0 3.79,-0.101 6.215,-0.303l5.608,-0.152c0.424,0 0.424,1.819 -0,1.819c-8.825,0 -15.921,6.668 -20.463,13.642l-24.706,37.439l-2.425,-2.122l23.646,-35.772Zm-51.84,-2.424c-2.628,-3.942 -5.204,-6.721 -7.729,-8.338c-2.527,-1.617 -5.66,-2.425 -9.399,-2.425c-0.303,0 -0.454,-0.303 -0.454,-0.909c0,-0.607 0.151,-0.91 0.454,-0.91l5.609,0.152c2.426,0.202 4.244,0.303 5.457,0.303c3.334,0 7.426,-0.101 12.277,-0.303l7.882,-0.152c0.422,0 0.422,1.819 -0,1.819c-3.032,0 -5.229,0.228 -6.593,0.683c-1.366,0.455 -2.047,1.187 -2.047,2.197c-0,0.607 0.505,1.666 1.515,3.184l26.981,38.803l-5.608,6.973l-28.345,-41.077Zm33.953,33.802l0,36.074c0,3.132 0.304,5.406 0.91,6.821c0.606,1.415 1.819,2.375 3.638,2.879c1.818,0.506 4.749,0.757 8.792,0.757c0.303,0 0.454,0.305 0.454,0.911c0,0.606 -0.151,0.909 -0.454,0.909c-3.032,0 -5.407,-0.049 -7.125,-0.151l-10.307,-0.152l-10.308,0.152c-1.819,0.102 -4.243,0.151 -7.275,0.151c-0.303,0 -0.455,-0.303 -0.455,-0.909c0,-0.606 0.152,-0.911 0.455,-0.911c3.941,0 6.845,-0.251 8.716,-0.757c1.87,-0.504 3.157,-1.49 3.865,-2.956c0.707,-1.465 1.062,-3.713 1.062,-6.744l-0,-34.712l8.032,-1.362Zm64.663,35.468c0,2.93 0.33,5.078 0.985,6.442c0.657,1.364 1.87,2.298 3.638,2.804c1.769,0.505 4.573,0.758 8.413,0.758l19.402,-0c10.004,-0 15.915,-6.417 17.734,-19.251c0,-0.634 1.667,-0.478 1.667,0.153c-0.908,7.981 -1.363,14.551 -1.363,19.704c-0,1.708 -0.565,2.273 -2.274,2.273l-69.725,0c-0.423,0 -0.423,-1.82 0,-1.82c3.94,0 6.846,-0.251 8.714,-0.757c1.871,-0.504 3.134,-1.49 3.79,-2.956c0.657,-1.465 0.985,-3.713 0.985,-6.744l0,-70.18c0,-3.031 -0.328,-5.255 -0.985,-6.669c-0.656,-1.416 -1.919,-2.401 -3.79,-2.956c-1.868,-0.556 -4.774,-0.834 -8.714,-0.834c-0.423,0 -0.423,-1.819 0,-1.819l7.427,0.152c4.244,0.202 7.579,0.303 10.004,0.303c2.728,0 6.215,-0.101 10.458,-0.303l7.125,-0.152c0.423,0 0.423,1.819 -0,1.819c-3.941,0 -6.846,0.278 -8.715,0.834c-1.87,0.555 -3.134,1.565 -3.791,3.032c-0.655,1.465 -0.985,3.712 -0.985,6.745l0,69.422Zm78.911,0.606c-0,3.132 0.328,5.406 0.985,6.821c0.657,1.415 1.894,2.375 3.713,2.879c1.82,0.506 4.751,0.757 8.791,0.757c0.424,0 0.424,1.82 0,1.82c-3.03,0 -5.404,-0.049 -7.123,-0.151l-10.611,-0.152l-10.155,0.152c-1.819,0.102 -4.295,0.151 -7.427,0.151c-0.303,0 -0.455,-0.303 -0.455,-0.909c0,-0.606 0.152,-0.911 0.455,-0.911c3.942,0 6.846,-0.251 8.716,-0.757c1.869,-0.504 3.157,-1.49 3.864,-2.956c0.709,-1.465 1.062,-3.713 1.062,-6.744l-0,-70.18c-0,-3.031 -0.353,-5.255 -1.062,-6.669c-0.707,-1.416 -1.995,-2.401 -3.864,-2.956c-1.87,-0.556 -4.774,-0.834 -8.716,-0.834c-0.303,0 -0.455,-0.303 -0.455,-0.909c0,-0.607 0.152,-0.91 0.455,-0.91l7.427,0.152c4.245,0.202 7.63,0.303 10.155,0.303c2.83,0 6.367,-0.101 10.611,-0.303l7.123,-0.152c0.424,0 0.424,1.819 0,1.819c-3.939,0 -6.845,0.304 -8.715,0.91c-1.869,0.606 -3.132,1.642 -3.789,3.107c-0.657,1.465 -0.985,3.712 -0.985,6.746l-0,69.876Zm79.062,-84.125c6.669,-0 12.127,0.48 16.371,1.439c4.244,0.961 8.741,2.653 13.491,5.078c0.605,0.405 0.985,0.734 1.136,0.986c0.152,0.253 0.277,1.036 0.379,2.349l1.819,17.28c-0,0.63 -1.61,0.78 -1.819,0.152c-4.325,-16.319 -14.182,-25.162 -31.377,-25.162c-16.452,0 -31.09,6.698 -39.03,21.6c-3.688,6.921 -5.532,14.98 -5.532,24.176c-0,8.59 2.044,16.597 6.138,24.025c7.825,14.2 22.2,24.328 38.727,24.328c16.776,0 27.487,-8.236 32.135,-24.707c-0,-0.454 1.818,-0.444 1.818,0.151l-1.211,16.068c-0.153,1.827 -0.143,2.317 -1.668,3.334c-5.255,2.728 -10.181,4.624 -14.779,5.685c-4.598,1.06 -10.08,1.591 -16.446,1.591c-10.509,-0 -19.881,-2.097 -28.117,-6.29c-8.236,-4.193 -14.678,-10.105 -19.325,-17.735c-4.649,-7.629 -6.974,-16.395 -6.974,-26.297c0,-9.5 2.325,-17.887 6.974,-25.163c4.647,-7.275 11.089,-12.909 19.325,-16.9c8.236,-3.992 17.557,-5.988 27.965,-5.988Zm99.995,157.669c0,0.05 -0.062,0.088 -0.187,0.113c-0.126,0.025 -0.213,0.012 -0.264,-0.038l-17.304,-20.954c-0.803,-0.978 -1.537,-1.662 -2.202,-2.05c-0.663,-0.389 -1.321,-0.584 -1.974,-0.584c-0.075,0 -0.113,-0.074 -0.113,-0.225c0,-0.15 0.038,-0.226 0.113,-0.226l1.392,0.038c0.301,0.025 0.715,0.038 1.241,0.038c0.552,-0 1.003,-0.013 1.355,-0.038c0.351,-0.025 0.626,-0.038 0.827,-0.038c0.176,0 0.32,0.044 0.432,0.131c0.114,0.089 0.245,0.271 0.396,0.547c0.301,0.45 0.614,0.878 0.94,1.278l15.047,18.471l0.301,3.537Zm0,-0l-0.864,-1.166l-0,-18.659c-0,-1.305 -0.22,-2.245 -0.658,-2.822c-0.439,-0.576 -1.173,-0.866 -2.202,-0.866c-0.049,0 -0.075,-0.074 -0.075,-0.225c-0,-0.15 0.026,-0.226 0.075,-0.226l1.467,0.038c0.754,0.05 1.368,0.076 1.844,0.076c0.451,-0 1.078,-0.026 1.88,-0.076l1.543,-0.038c0.075,0 0.113,0.076 0.113,0.226c0,0.151 -0.038,0.225 -0.113,0.225c-1.052,0 -1.818,0.29 -2.295,0.866c-0.476,0.577 -0.715,1.517 -0.715,2.822l0,19.825Zm15.952,-11.549l9.969,-0l0.263,0.752l-10.608,0l0.376,-0.752Zm18.622,10.646c0.1,0 0.15,0.076 0.15,0.226c-0,0.15 -0.05,0.225 -0.15,0.225c-0.476,0 -1.217,-0.024 -2.22,-0.075c-1.004,-0.05 -1.73,-0.076 -2.182,-0.076c-0.552,0 -1.253,0.026 -2.106,0.076c-0.803,0.051 -1.418,0.075 -1.844,0.075c-0.1,0 -0.151,-0.075 -0.151,-0.225c-0,-0.15 0.051,-0.226 0.151,-0.226c0.953,0 1.636,-0.087 2.05,-0.263c0.414,-0.176 0.621,-0.489 0.621,-0.94c-0,-0.377 -0.15,-0.904 -0.452,-1.581l-8.351,-17.643l0.94,-1.166l-7.298,17.267c-0.351,0.853 -0.527,1.555 -0.527,2.106c0,1.48 1.23,2.22 3.688,2.22c0.125,0 0.187,0.076 0.187,0.226c0,0.15 -0.062,0.225 -0.187,0.225c-0.452,0 -1.105,-0.024 -1.958,-0.075c-0.953,-0.05 -1.779,-0.076 -2.482,-0.076c-0.652,0 -1.405,0.026 -2.257,0.076c-0.753,0.051 -1.38,0.075 -1.881,0.075c-0.125,0 -0.189,-0.075 -0.189,-0.225c0,-0.15 0.064,-0.226 0.189,-0.226c0.702,0 1.298,-0.131 1.787,-0.395c0.489,-0.264 0.954,-0.727 1.392,-1.392c0.439,-0.665 0.921,-1.624 1.448,-2.878l7.938,-18.734c0.05,-0.075 0.138,-0.113 0.263,-0.113c0.126,0 0.201,0.038 0.226,0.113l8.878,18.696c0.853,1.857 1.581,3.104 2.182,3.744c0.602,0.639 1.317,0.959 2.145,0.959Zm-463.998,-12.528l1.881,-1.504l5.493,6.998c1.831,2.382 3.229,4.063 4.194,5.041c0.965,0.978 1.712,1.554 2.238,1.73c0.527,0.176 1.292,0.263 2.295,0.263c0.076,0 0.112,0.076 0.112,0.226c0,0.15 -0.036,0.225 -0.112,0.225l-4.214,0c-0.2,0 -0.557,0.006 -1.071,0.019c-0.514,0.013 -1.236,-0.627 -2.164,-1.919c-0.927,-1.291 -1.818,-2.476 -2.67,-3.554l-5.982,-7.525Zm7.035,-7.486c0.828,-0.827 1.241,-1.442 1.241,-1.843c0,-0.501 -0.74,-0.753 -2.219,-0.753c-0.051,0 -0.075,-0.074 -0.075,-0.225c-0,-0.15 0.024,-0.226 0.075,-0.226l1.617,0.038c1.004,0.05 1.919,0.076 2.747,0.076c0.827,-0 1.693,-0.026 2.595,-0.076l1.393,-0.038c0.074,0 0.112,0.076 0.112,0.226c-0,0.151 -0.038,0.225 -0.112,0.225c-1.029,0 -2.119,0.227 -3.273,0.677c-1.154,0.453 -2.232,1.167 -3.235,2.145l-9.632,9.443l-0.94,-0l9.706,-9.669Zm21.481,9.368l9.969,-0l0.264,0.752l-10.609,0l0.376,-0.752Zm18.622,10.646c0.099,0 0.15,0.076 0.15,0.226c0,0.15 -0.051,0.225 -0.15,0.225c-0.477,0 -1.217,-0.024 -2.22,-0.075c-1.003,-0.05 -1.731,-0.076 -2.182,-0.076c-0.551,0 -1.254,0.026 -2.107,0.076c-0.803,0.051 -1.417,0.075 -1.844,0.075c-0.099,0 -0.15,-0.075 -0.15,-0.225c0,-0.15 0.051,-0.226 0.15,-0.226c0.954,0 1.637,-0.087 2.051,-0.263c0.414,-0.176 0.621,-0.489 0.621,-0.94c0,-0.377 -0.15,-0.904 -0.451,-1.581l-8.352,-17.643l0.941,-1.166l-7.299,17.267c-0.35,0.853 -0.526,1.555 -0.526,2.106c-0,1.48 1.228,2.22 3.686,2.22c0.125,0 0.188,0.076 0.188,0.226c-0,0.15 -0.063,0.225 -0.188,0.225c-0.451,0 -1.103,-0.024 -1.956,-0.075c-0.953,-0.05 -1.78,-0.076 -2.483,-0.076c-0.652,0 -1.404,0.026 -2.257,0.076c-0.752,0.051 -1.379,0.075 -1.881,0.075c-0.125,0 -0.188,-0.075 -0.188,-0.225c-0,-0.15 0.063,-0.226 0.188,-0.226c0.703,0 1.298,-0.131 1.787,-0.395c0.49,-0.264 0.953,-0.727 1.392,-1.392c0.438,-0.665 0.922,-1.624 1.448,-2.878l7.939,-18.734c0.049,-0.075 0.137,-0.113 0.262,-0.113c0.126,0 0.201,0.038 0.225,0.113l8.88,18.696c0.853,1.857 1.579,3.104 2.181,3.744c0.603,0.639 1.317,0.959 2.145,0.959Zm9.027,-22.195l0.866,0.074l0,18.472c0,1.304 0.233,2.238 0.696,2.802c0.464,0.565 1.21,0.847 2.239,0.847c0.075,0 0.112,0.076 0.112,0.226c0,0.15 -0.037,0.225 -0.112,0.225c-0.627,0 -1.104,-0.013 -1.43,-0.037l-1.88,-0.038l-1.92,0.038c-0.351,0.024 -0.864,0.037 -1.541,0.037c-0.051,0 -0.076,-0.075 -0.076,-0.225c0,-0.15 0.025,-0.226 0.076,-0.226c1.077,0 1.842,-0.282 2.294,-0.847c0.452,-0.564 0.676,-1.498 0.676,-2.802l0,-18.546Zm18.961,23.098c-0,0.05 -0.063,0.088 -0.188,0.113c-0.125,0.025 -0.213,0.012 -0.264,-0.038l-17.304,-20.954c-0.802,-0.978 -1.536,-1.662 -2.201,-2.05c-0.664,-0.389 -1.322,-0.584 -1.974,-0.584c-0.076,0 -0.113,-0.074 -0.113,-0.225c-0,-0.15 0.037,-0.226 0.113,-0.226l1.391,0.038c0.301,0.025 0.715,0.038 1.242,0.038c0.551,-0 1.002,-0.013 1.354,-0.038c0.351,-0.025 0.626,-0.038 0.827,-0.038c0.176,0 0.32,0.044 0.434,0.131c0.112,0.089 0.243,0.271 0.394,0.547c0.301,0.45 0.614,0.878 0.94,1.278l15.049,18.471l0.3,3.537Zm-0,-0l-0.865,-1.166l0,-18.659c0,-1.305 -0.22,-2.245 -0.658,-2.822c-0.439,-0.576 -1.173,-0.866 -2.201,-0.866c-0.05,0 -0.075,-0.074 -0.075,-0.225c0,-0.15 0.025,-0.226 0.075,-0.226l1.468,0.038c0.752,0.05 1.366,0.076 1.842,0.076c0.451,-0 1.079,-0.026 1.882,-0.076l1.542,-0.038c0.075,0 0.112,0.076 0.112,0.226c0,0.151 -0.037,0.225 -0.112,0.225c-1.053,0 -1.819,0.29 -2.295,0.866c-0.477,0.577 -0.715,1.517 -0.715,2.822l-0,19.825Zm23.737,-24.377c1.581,-0 2.909,0.112 3.989,0.338c1.078,0.225 2.157,0.615 3.235,1.167c0.176,0.1 0.276,0.187 0.301,0.263c0.025,0.076 0.063,0.263 0.112,0.563l0.452,4.478c-0,0.075 -0.069,0.119 -0.207,0.131c-0.138,0.013 -0.219,-0.019 -0.245,-0.093c-1.154,-4.188 -3.737,-6.284 -7.749,-6.284c-2.107,0 -3.969,0.466 -5.586,1.393c-1.617,0.928 -2.866,2.251 -3.743,3.968c-0.878,1.719 -1.317,3.718 -1.317,6c-0,2.183 0.49,4.183 1.468,6.001c0.978,1.818 2.288,3.254 3.931,4.308c1.642,1.053 3.43,1.579 5.359,1.579c2.057,0 3.724,-0.501 5.005,-1.503c1.278,-1.004 2.257,-2.534 2.934,-4.591c-0,-0.05 0.062,-0.075 0.187,-0.075c0.176,0 0.264,0.038 0.264,0.112l-0.377,4.139c-0.025,0.301 -0.063,0.489 -0.112,0.565c-0.05,0.075 -0.15,0.162 -0.301,0.263c-1.304,0.627 -2.527,1.065 -3.668,1.317c-1.141,0.25 -2.452,0.375 -3.932,0.375c-2.632,0 -4.984,-0.52 -7.052,-1.561c-2.069,-1.041 -3.68,-2.502 -4.834,-4.382c-1.154,-1.881 -1.731,-4.038 -1.731,-6.471c0,-2.358 0.59,-4.446 1.769,-6.264c1.178,-1.818 2.802,-3.229 4.87,-4.231c2.07,-1.004 4.395,-1.505 6.978,-1.505Zm16.366,23.925c-0.051,0 -0.076,-0.075 -0.076,-0.225c0,-0.15 0.025,-0.226 0.076,-0.226c0.952,0 1.649,-0.062 2.088,-0.188c0.438,-0.126 0.739,-0.37 0.902,-0.733c0.163,-0.364 0.245,-0.922 0.245,-1.675l-0,-17.418c-0,-0.752 -0.082,-1.303 -0.245,-1.654c-0.163,-0.352 -0.464,-0.597 -0.902,-0.734c-0.439,-0.138 -1.136,-0.208 -2.088,-0.208c-0.051,0 -0.076,-0.074 -0.076,-0.225c0,-0.15 0.025,-0.226 0.076,-0.226l15.123,0c0.225,0 0.337,0.114 0.337,0.339l0.076,4.628c0,0.074 -0.069,0.118 -0.207,0.131c-0.138,0.013 -0.206,-0.019 -0.206,-0.095c-0.076,-1.328 -0.478,-2.363 -1.204,-3.104c-0.727,-0.739 -1.694,-1.109 -2.897,-1.109l-2.295,0c-0.878,0 -1.53,0.069 -1.956,0.207c-0.426,0.138 -0.722,0.37 -0.885,0.696c-0.161,0.326 -0.243,0.841 -0.243,1.542l0,17.08c0,0.677 0.082,1.185 0.243,1.524c0.163,0.338 0.446,0.57 0.847,0.695c0.402,0.126 1.028,0.188 1.881,0.188l3.01,0c1.204,0 2.206,-0.426 3.01,-1.279c0.802,-0.853 1.341,-2.031 1.617,-3.536c-0,-0.05 0.05,-0.074 0.151,-0.074c0.074,-0 0.144,0.018 0.206,0.055c0.063,0.038 0.095,0.07 0.095,0.095c-0.227,1.58 -0.339,3.235 -0.339,4.965c-0,0.201 -0.044,0.345 -0.132,0.432c-0.088,0.089 -0.244,0.132 -0.47,0.132l-15.762,0Zm13.656,-8.765c-0,-1.104 -0.27,-1.893 -0.809,-2.37c-0.54,-0.476 -1.437,-0.715 -2.691,-0.715l-5.642,0l-0,-0.79l5.755,0c1.204,0 2.064,-0.201 2.578,-0.602c0.513,-0.4 0.771,-1.077 0.771,-2.03c-0,-0.051 0.074,-0.076 0.225,-0.076c0.15,0 0.226,0.025 0.226,0.076l-0.038,3.046c0,0.727 0.013,1.28 0.038,1.656l0.038,1.805c-0,0.05 -0.076,0.075 -0.226,0.075c-0.151,-0 -0.225,-0.025 -0.225,-0.075Zm16.289,5.568c0,0.728 0.075,1.253 0.226,1.581c0.15,0.325 0.425,0.544 0.827,0.657c0.401,0.113 1.053,0.169 1.957,0.169l4.1,0c1.43,0 2.571,-0.438 3.424,-1.317c0.852,-0.877 1.417,-2.094 1.692,-3.648c0,-0.076 0.07,-0.106 0.207,-0.095c0.138,0.013 0.206,0.057 0.206,0.133c-0.225,2.081 -0.337,3.798 -0.337,5.153c-0,0.201 -0.038,0.345 -0.114,0.432c-0.074,0.089 -0.225,0.132 -0.451,0.132l-17.38,0c-0.051,0 -0.075,-0.075 -0.075,-0.225c-0,-0.15 0.024,-0.226 0.075,-0.226c0.953,0 1.649,-0.062 2.087,-0.188c0.44,-0.126 0.734,-0.37 0.885,-0.733c0.151,-0.364 0.225,-0.922 0.225,-1.675l0,-17.418c0,-0.752 -0.074,-1.303 -0.225,-1.654c-0.151,-0.352 -0.445,-0.597 -0.885,-0.734c-0.438,-0.138 -1.134,-0.208 -2.087,-0.208c-0.051,0 -0.075,-0.074 -0.075,-0.225c-0,-0.15 0.024,-0.226 0.075,-0.226l1.843,0.038c1.053,0.05 1.906,0.076 2.558,0.076c0.703,-0 1.58,-0.026 2.634,-0.076l1.806,-0.038c0.074,0 0.112,0.076 0.112,0.226c-0,0.151 -0.038,0.225 -0.112,0.225c-0.929,0 -1.618,0.07 -2.07,0.208c-0.451,0.137 -0.752,0.388 -0.902,0.753c-0.151,0.362 -0.226,0.921 -0.226,1.673l0,17.23Zm25.167,-7.9l9.97,-0l0.262,0.752l-10.607,0l0.375,-0.752Zm18.622,10.646c0.1,0 0.151,0.076 0.151,0.226c-0,0.15 -0.051,0.225 -0.151,0.225c-0.476,0 -1.217,-0.024 -2.22,-0.075c-1.002,-0.05 -1.73,-0.076 -2.181,-0.076c-0.553,0 -1.254,0.026 -2.107,0.076c-0.803,0.051 -1.418,0.075 -1.844,0.075c-0.1,0 -0.15,-0.075 -0.15,-0.225c0,-0.15 0.05,-0.226 0.15,-0.226c0.953,0 1.637,-0.087 2.05,-0.263c0.415,-0.176 0.622,-0.489 0.622,-0.94c-0,-0.377 -0.151,-0.904 -0.451,-1.581l-8.352,-17.643l0.94,-1.166l-7.298,17.267c-0.352,0.853 -0.527,1.555 -0.527,2.106c0,1.48 1.229,2.22 3.687,2.22c0.125,0 0.187,0.076 0.187,0.226c0,0.15 -0.062,0.225 -0.187,0.225c-0.452,0 -1.104,-0.024 -1.956,-0.075c-0.954,-0.05 -1.78,-0.076 -2.483,-0.076c-0.652,0 -1.404,0.026 -2.257,0.076c-0.752,0.051 -1.38,0.075 -1.882,0.075c-0.125,0 -0.187,-0.075 -0.187,-0.225c-0,-0.15 0.062,-0.226 0.187,-0.226c0.703,0 1.298,-0.131 1.787,-0.395c0.489,-0.264 0.954,-0.727 1.393,-1.392c0.438,-0.665 0.921,-1.624 1.448,-2.878l7.938,-18.734c0.05,-0.075 0.137,-0.113 0.262,-0.113c0.126,0 0.201,0.038 0.226,0.113l8.879,18.696c0.852,1.857 1.58,3.104 2.182,3.744c0.601,0.639 1.317,0.959 2.144,0.959Zm25.356,0.451c-0.628,0 -1.825,-1.072 -3.593,-3.216c-1.768,-2.145 -3.893,-5.097 -6.377,-8.859l2.107,-0.64c2.181,3.134 4.006,5.574 5.473,7.317c1.467,1.743 2.765,3.003 3.894,3.782c1.128,0.777 2.233,1.165 3.311,1.165c0.074,0 0.112,0.076 0.112,0.226c0,0.15 -0.038,0.225 -0.112,0.225l-4.815,0Zm-9.481,-23.624c1.982,0 3.511,0.451 4.59,1.354c1.078,0.903 1.618,2.107 1.618,3.611c-0,1.329 -0.389,2.54 -1.167,3.631c-0.777,1.09 -1.824,1.956 -3.141,2.595c-1.317,0.64 -2.727,0.959 -4.232,0.959c-0.151,0 -0.714,-0.037 -1.692,-0.112l-0,8.539c-0,0.779 0.074,1.342 0.224,1.694c0.151,0.349 0.446,0.588 0.885,0.714c0.439,0.126 1.135,0.188 2.088,0.188c0.074,0 0.112,0.076 0.112,0.226c0,0.15 -0.038,0.225 -0.112,0.225c-0.778,0 -1.392,-0.013 -1.844,-0.037l-2.596,-0.038l-2.558,0.038c-0.451,0.024 -1.09,0.037 -1.918,0.037c-0.05,0 -0.076,-0.075 -0.076,-0.225c0,-0.15 0.026,-0.226 0.076,-0.226c0.953,0 1.655,-0.068 2.107,-0.206c0.451,-0.139 0.764,-0.383 0.94,-0.734c0.176,-0.352 0.264,-0.903 0.264,-1.656l-0,-17.418c-0,-0.752 -0.082,-1.303 -0.245,-1.654c-0.163,-0.352 -0.464,-0.597 -0.903,-0.734c-0.439,-0.138 -1.136,-0.208 -2.087,-0.208c-0.076,0 -0.114,-0.074 -0.114,-0.225c0,-0.15 0.038,-0.226 0.114,-0.226l1.842,0.038c1.054,0.05 1.906,0.076 2.558,0.076c0.552,-0 1.067,-0.013 1.543,-0.038c0.477,-0.025 0.877,-0.051 1.203,-0.076c0.954,-0.075 1.794,-0.112 2.521,-0.112Zm3.649,6.057c0,-1.957 -0.432,-3.362 -1.298,-4.214c-0.865,-0.853 -2.124,-1.28 -3.78,-1.28c-0.978,0 -1.655,0.176 -2.032,0.527c-0.375,0.352 -0.563,1.067 -0.563,2.145l-0,7.9c0.601,0.1 1.34,0.15 2.218,0.15c1.957,0 3.354,-0.426 4.195,-1.279c0.84,-0.852 1.26,-2.169 1.26,-3.949Zm22.196,14.52c-0,0.779 0.075,1.342 0.225,1.694c0.151,0.349 0.446,0.588 0.885,0.714c0.438,0.126 1.134,0.188 2.087,0.188c0.076,0 0.113,0.076 0.113,0.226c0,0.15 -0.037,0.225 -0.113,0.225c-0.752,0 -1.354,-0.013 -1.806,-0.037l-2.67,-0.038l-2.596,0.038c-0.452,0.024 -1.066,0.037 -1.843,0.037c-0.076,0 -0.113,-0.075 -0.113,-0.225c-0,-0.15 0.037,-0.226 0.113,-0.226c0.953,0 1.649,-0.062 2.087,-0.188c0.439,-0.126 0.741,-0.37 0.904,-0.733c0.163,-0.364 0.244,-0.922 0.244,-1.675l0,-17.418c0,-0.752 -0.081,-1.303 -0.244,-1.654c-0.163,-0.352 -0.465,-0.597 -0.904,-0.734c-0.438,-0.138 -1.134,-0.208 -2.087,-0.208c-0.076,0 -0.113,-0.074 -0.113,-0.225c-0,-0.15 0.037,-0.226 0.113,-0.226l1.843,0.038c1.053,0.05 1.919,0.076 2.596,0.076c0.752,-0 1.655,-0.026 2.708,-0.076l1.768,-0.038c0.076,0 0.113,0.076 0.113,0.226c0,0.151 -0.037,0.225 -0.113,0.225c-0.927,0 -1.617,0.076 -2.068,0.227c-0.453,0.15 -0.753,0.406 -0.904,0.771c-0.15,0.363 -0.225,0.922 -0.225,1.674l-0,17.342Zm17.08,-8.05l9.968,-0l0.264,0.752l-10.609,0l0.377,-0.752Zm18.621,10.646c0.1,0 0.15,0.076 0.15,0.226c-0,0.15 -0.05,0.225 -0.15,0.225c-0.476,0 -1.217,-0.024 -2.219,-0.075c-1.004,-0.05 -1.731,-0.076 -2.183,-0.076c-0.552,0 -1.253,0.026 -2.106,0.076c-0.803,0.051 -1.417,0.075 -1.844,0.075c-0.1,0 -0.151,-0.075 -0.151,-0.225c0,-0.15 0.051,-0.226 0.151,-0.226c0.953,0 1.636,-0.087 2.051,-0.263c0.413,-0.176 0.62,-0.489 0.62,-0.94c-0,-0.377 -0.15,-0.904 -0.451,-1.581l-8.352,-17.643l0.94,-1.166l-7.298,17.267c-0.351,0.853 -0.527,1.555 -0.527,2.106c0,1.48 1.23,2.22 3.688,2.22c0.125,0 0.188,0.076 0.188,0.226c-0,0.15 -0.063,0.225 -0.188,0.225c-0.453,0 -1.105,-0.024 -1.957,-0.075c-0.953,-0.05 -1.78,-0.076 -2.483,-0.076c-0.652,0 -1.404,0.026 -2.257,0.076c-0.752,0.051 -1.38,0.075 -1.88,0.075c-0.126,0 -0.189,-0.075 -0.189,-0.225c-0,-0.15 0.063,-0.226 0.189,-0.226c0.701,0 1.296,-0.131 1.787,-0.395c0.489,-0.264 0.953,-0.727 1.391,-1.392c0.439,-0.665 0.921,-1.624 1.448,-2.878l7.938,-18.734c0.05,-0.075 0.138,-0.113 0.264,-0.113c0.125,0 0.2,0.038 0.225,0.113l8.879,18.696c0.852,1.857 1.58,3.104 2.181,3.744c0.602,0.639 1.317,0.959 2.145,0.959Zm24.941,-2.746c0,0.802 0.107,1.386 0.319,1.749c0.214,0.364 0.627,0.62 1.241,0.772c0.615,0.15 1.587,0.225 2.917,0.225c0.074,0 0.112,0.076 0.112,0.226c-0,0.15 -0.038,0.225 -0.112,0.225c-1.029,0 -1.831,-0.013 -2.409,-0.037l-3.272,-0.038l-2.521,0.038c-0.476,0.024 -1.116,0.037 -1.918,0.037c-0.051,0 -0.076,-0.075 -0.076,-0.225c0,-0.15 0.025,-0.226 0.076,-0.226c0.953,0 1.649,-0.062 2.088,-0.188c0.438,-0.126 0.734,-0.37 0.884,-0.733c0.151,-0.364 0.225,-0.922 0.225,-1.675l0,-17.418c0,-0.752 -0.074,-1.303 -0.225,-1.654c-0.15,-0.352 -0.446,-0.597 -0.884,-0.734c-0.439,-0.138 -1.135,-0.208 -2.088,-0.208c-0.051,0 -0.076,-0.074 -0.076,-0.225c0,-0.15 0.025,-0.226 0.076,-0.226l1.88,0.038c1.054,0.05 1.895,0.076 2.521,0.076c0.627,-0 1.33,-0.038 2.107,-0.114c0.301,0 0.778,-0.019 1.429,-0.056c0.652,-0.037 1.216,-0.056 1.694,-0.056c2.306,0 4.156,0.514 5.548,1.543c1.392,1.027 2.087,2.594 2.087,4.702c0,1.654 -0.406,3.047 -1.222,4.175c-0.815,1.129 -1.861,1.969 -3.141,2.52c-1.279,0.553 -2.596,0.828 -3.949,0.828c-0.728,0 -1.33,-0.062 -1.806,-0.188c-0.076,0 -0.113,-0.062 -0.113,-0.187c-0,-0.076 0.018,-0.152 0.056,-0.227c0.038,-0.075 0.082,-0.101 0.131,-0.075c0.402,0.1 0.853,0.15 1.355,0.15c1.655,0 3.053,-0.538 4.194,-1.618c1.141,-1.078 1.712,-2.632 1.712,-4.664c-0,-1.981 -0.539,-3.542 -1.617,-4.683c-1.079,-1.142 -2.458,-1.713 -4.139,-1.713c-0.902,0 -1.554,0.051 -1.956,0.152c-0.401,0.1 -0.69,0.331 -0.866,0.695c-0.174,0.364 -0.262,0.972 -0.262,1.825l0,17.192Zm38.447,3.197c-0.627,0 -1.824,-1.072 -3.592,-3.216c-1.769,-2.145 -3.895,-5.097 -6.377,-8.859l2.107,-0.64c2.181,3.134 4.006,5.574 5.473,7.317c1.467,1.743 2.765,3.003 3.894,3.782c1.128,0.777 2.231,1.165 3.31,1.165c0.075,0 0.113,0.076 0.113,0.226c0,0.15 -0.038,0.225 -0.113,0.225l-4.815,0Zm-9.48,-23.624c1.98,0 3.511,0.451 4.59,1.354c1.078,0.903 1.616,2.107 1.616,3.611c0,1.329 -0.388,2.54 -1.165,3.631c-0.777,1.09 -1.825,1.956 -3.142,2.595c-1.316,0.64 -2.727,0.959 -4.232,0.959c-0.15,0 -0.714,-0.037 -1.692,-0.112l-0,8.539c-0,0.779 0.075,1.342 0.225,1.694c0.15,0.349 0.445,0.588 0.884,0.714c0.439,0.126 1.136,0.188 2.088,0.188c0.075,0 0.113,0.076 0.113,0.226c0,0.15 -0.038,0.225 -0.113,0.225c-0.777,0 -1.392,-0.013 -1.843,-0.037l-2.596,-0.038l-2.558,0.038c-0.451,0.024 -1.091,0.037 -1.919,0.037c-0.05,0 -0.075,-0.075 -0.075,-0.225c0,-0.15 0.025,-0.226 0.075,-0.226c0.953,0 1.656,-0.068 2.107,-0.206c0.451,-0.139 0.765,-0.383 0.941,-0.734c0.175,-0.352 0.262,-0.903 0.262,-1.656l0,-17.418c0,-0.752 -0.081,-1.303 -0.244,-1.654c-0.162,-0.352 -0.463,-0.597 -0.903,-0.734c-0.439,-0.138 -1.135,-0.208 -2.088,-0.208c-0.075,0 -0.112,-0.074 -0.112,-0.225c0,-0.15 0.037,-0.226 0.112,-0.226l1.844,0.038c1.054,0.05 1.906,0.076 2.558,0.076c0.552,-0 1.066,-0.013 1.543,-0.038c0.476,-0.025 0.877,-0.051 1.203,-0.076c0.953,-0.075 1.793,-0.112 2.521,-0.112Zm3.649,6.057c0,-1.957 -0.433,-3.362 -1.298,-4.214c-0.865,-0.853 -2.126,-1.28 -3.78,-1.28c-0.978,0 -1.656,0.176 -2.032,0.527c-0.377,0.352 -0.564,1.067 -0.564,2.145l-0,7.9c0.602,0.1 1.341,0.15 2.219,0.15c1.956,0 3.354,-0.426 4.195,-1.279c0.84,-0.852 1.26,-2.169 1.26,-3.949Zm22.383,6.47l9.97,-0l0.262,0.752l-10.607,0l0.375,-0.752Zm18.622,10.646c0.1,0 0.151,0.076 0.151,0.226c-0,0.15 -0.051,0.225 -0.151,0.225c-0.476,0 -1.217,-0.024 -2.22,-0.075c-1.002,-0.05 -1.73,-0.076 -2.181,-0.076c-0.553,0 -1.254,0.026 -2.107,0.076c-0.803,0.051 -1.417,0.075 -1.844,0.075c-0.1,0 -0.15,-0.075 -0.15,-0.225c0,-0.15 0.05,-0.226 0.15,-0.226c0.953,0 1.637,-0.087 2.051,-0.263c0.413,-0.176 0.62,-0.489 0.62,-0.94c-0,-0.377 -0.15,-0.904 -0.45,-1.581l-8.352,-17.643l0.94,-1.166l-7.298,17.267c-0.352,0.853 -0.527,1.555 -0.527,2.106c0,1.48 1.229,2.22 3.687,2.22c0.125,0 0.187,0.076 0.187,0.226c0,0.15 -0.062,0.225 -0.187,0.225c-0.452,0 -1.104,-0.024 -1.956,-0.075c-0.953,-0.05 -1.781,-0.076 -2.483,-0.076c-0.653,0 -1.404,0.026 -2.257,0.076c-0.752,0.051 -1.38,0.075 -1.882,0.075c-0.125,0 -0.187,-0.075 -0.187,-0.225c-0,-0.15 0.062,-0.226 0.187,-0.226c0.703,0 1.298,-0.131 1.787,-0.395c0.489,-0.264 0.954,-0.727 1.393,-1.392c0.438,-0.665 0.921,-1.624 1.448,-2.878l7.937,-18.734c0.051,-0.075 0.138,-0.113 0.263,-0.113c0.126,0 0.201,0.038 0.226,0.113l8.878,18.696c0.853,1.857 1.581,3.104 2.183,3.744c0.601,0.639 1.317,0.959 2.144,0.959Zm14.935,0.414c-0.026,0.1 -0.163,0.151 -0.415,0.151c-0.201,-0 -0.338,-0.051 -0.413,-0.151l-9.368,-20.352c-0.451,-1.004 -0.902,-1.7 -1.353,-2.088c-0.452,-0.389 -1.067,-0.584 -1.844,-0.584c-0.075,0 -0.113,-0.074 -0.113,-0.225c-0,-0.15 0.038,-0.226 0.113,-0.226l1.429,0.038c0.703,0.05 1.268,0.076 1.693,0.076c0.903,-0 1.881,-0.026 2.935,-0.076l1.542,-0.038c0.076,0 0.114,0.076 0.114,0.226c-0,0.151 -0.038,0.225 -0.114,0.225c-0.752,0 -1.311,0.089 -1.673,0.264c-0.364,0.176 -0.546,0.477 -0.546,0.903c0,0.376 0.125,0.828 0.376,1.354l8.351,17.944l-1.354,1.806l4.928,-12.301l0.564,0.827l-4.852,12.227Zm21.818,-23.475c0.05,0 0.076,0.076 0.076,0.226c-0,0.151 -0.026,0.225 -0.076,0.225c-0.853,0 -1.592,0.227 -2.219,0.677c-0.627,0.453 -1.167,1.218 -1.617,2.296l-8.014,20.051c-0.025,0.1 -0.163,0.151 -0.413,0.151c-0.201,-0 -0.339,-0.051 -0.415,-0.151l-9.329,-20.352c-0.451,-0.978 -0.903,-1.668 -1.354,-2.069c-0.452,-0.402 -1.04,-0.603 -1.768,-0.603c-0.075,0 -0.113,-0.074 -0.113,-0.225c-0,-0.15 0.038,-0.226 0.113,-0.226l1.429,0.038c0.652,0.05 1.192,0.076 1.617,0.076c0.703,-0 1.43,-0.026 2.183,-0.076l1.016,-0.038c0.074,0 0.112,0.076 0.112,0.226c-0,0.151 -0.038,0.225 -0.112,0.225c-0.452,0 -0.778,0.045 -0.978,0.133c-0.201,0.087 -0.302,0.244 -0.302,0.47c0,0.301 0.226,0.94 0.677,1.918l8.39,17.944l-1.354,1.806l7.787,-19.449c0.201,-0.527 0.3,-0.94 0.3,-1.241c0,-0.552 -0.231,-0.953 -0.696,-1.204c-0.463,-0.25 -1.184,-0.377 -2.162,-0.377c-0.076,0 -0.114,-0.074 -0.114,-0.225c0,-0.15 0.038,-0.226 0.114,-0.226l1.58,0.038c0.853,0.05 1.617,0.076 2.294,0.076c0.502,-0 1.078,-0.026 1.73,-0.076l1.618,-0.038Zm-14.484,3.199c0.302,-0.678 0.453,-1.23 0.453,-1.656c-0,-0.728 -0.54,-1.092 -1.618,-1.092c-0.075,0 -0.113,-0.074 -0.113,-0.225c0,-0.15 0.038,-0.226 0.113,-0.226l0.865,0.038c0.501,0.05 1.028,0.076 1.581,0.076c0.5,-0 1.078,-0.026 1.73,-0.076l1.543,-0.038c0.049,0 0.074,0.076 0.074,0.226c-0,0.151 -0.025,0.225 -0.074,0.225c-0.853,0 -1.575,0.22 -2.164,0.659c-0.59,0.439 -1.109,1.21 -1.562,2.314l-3.121,7.824l-0.565,-0.827l2.858,-7.222Z" style="fill:#351a11;fill-rule:nonzero;"/></svg>