<?xml version="1.0" encoding="UTF-8"?>
<!DOCTYPE svg PUBLIC "-//W3C//DTD SVG 1.1//EN" "http://www.w3.org/Graphics/SVG/1.1/DTD/svg11.dtd">
<!-- Creator: CorelDRAW -->
<svg xmlns="http://www.w3.org/2000/svg" xml:space="preserve" width="91.4398mm" height="114.3mm" version="1.1" style="shape-rendering:geometricPrecision; text-rendering:geometricPrecision; image-rendering:optimizeQuality; fill-rule:evenodd; clip-rule:evenodd"
viewBox="0 0 9143.98 11429.98"
 xmlns:xlink="http://www.w3.org/1999/xlink"
 xmlns:xodm="http://www.corel.com/coreldraw/odm/2003">
 <defs>
  <style type="text/css">
   <![CDATA[
    .fil0 {fill:#E3D9CF;fill-rule:nonzero}
   ]]>
  </style>
 </defs>
 <g id="Warstwa_x0020_1">
  <metadata id="CorelCorpID_0Corel-Layer"/>
  <path class="fil0" d="M4571.98 2961.84c474.78,0 902.95,311.3 1211.38,814.6 304.46,496.84 492.8,1182.3 492.8,1938.55 0,756.25 -188.34,1441.68 -492.81,1938.54 -308.42,503.29 -736.59,814.6 -1211.37,814.6 -474.75,0 -902.92,-311.3 -1211.35,-814.6 -304.46,-496.84 -492.81,-1182.29 -492.81,-1938.54 0,-756.25 188.35,-1441.71 492.81,-1938.55 308.43,-503.3 736.6,-814.6 1211.35,-814.6zm-827.67 2644.15l113.03 -113.03 113.02 113.03 -113.02 113.04 -113.03 -113.04zm722.98 1336.69l285.39 0c388.09,0 785.88,-226.43 785.88,-682.83 0,-428.1 -391.32,-654.53 -753.54,-647.46l12.93 -10.61c281.38,-42.46 572.44,-254.73 572.44,-555.47 0,-392.72 -371.92,-555.46 -688.85,-558.99l-283.6 0 -1.79 -0.04 -776.19 0c-19.4,0 -16.16,24.77 0,24.77l152.02 0c16.17,0 22.63,7.07 22.63,24.77l0 902.79c43.46,-15.6 92.69,-15.19 135.83,1.27l0 -904.06c0,-17.14 6.06,-24.31 21.15,-24.75l105.78 0c16.17,0 22.63,7.08 22.63,24.77l0 2356.31c0,17.41 -9.4,24.54 -22.03,24.76l-0.6 0 -104.29 0 -0.75 0c-15.63,-0.22 -21.89,-7.35 -21.89,-24.76l0 -1119.75c-43.14,16.16 -92.37,17.67 -135.83,3.09l0 1116.66c0,17.69 -9.7,24.76 -22.63,24.76l-152.02 0c-19.4,0 -19.4,24.77 0,24.77l285.41 0 561.92 0zm184.84 -1319.66c428.6,0.61 737.65,135.58 737.65,636.83 0,470.54 -287.82,658.06 -637.1,658.06l-65.1 0c305.07,-70 565.59,-288.71 565.59,-658.07 0,-368.24 -289.54,-587.27 -601.04,-636.82zm-414.4 1294.89c-15.63,-0.22 -21.9,-7.35 -21.9,-24.76l0 -1245.38c0,-17.69 6.48,-24.76 22.65,-24.76l129.78 0c427.82,0.93 736.14,136.17 736.14,636.83 0,470.56 -287.83,658.07 -637.11,658.07l-228.81 0 -0.75 0zm996.82 -1871.6c0,392.72 -239.31,551.93 -617.7,551.93l-83.25 0c274.65,-49.6 551.38,-258.7 551.38,-551.95 0,-308.81 -229.96,-475.4 -482.32,-534.22l69.17 0c287.84,0 562.72,130.91 562.72,534.24zm-997.56 551.91c-15.09,-0.44 -21.16,-7.61 -21.16,-24.75l0 -1036.63c0,-17.69 6.48,-24.77 22.65,-24.77l150.96 0c286.73,0.92 559.72,132.28 559.72,534.22 0,392.73 -239.31,551.93 -617.7,551.93l-94.47 0zm334.99 -2846.57c526.24,0 1002.22,332.49 1346.38,870.04 343.1,535.91 555.32,1276.04 555.32,2093.3 0,817.25 -212.22,1557.39 -555.34,2093.3 -344.13,537.53 -820.12,870.04 -1346.36,870.04 -526.2,0 -1002.21,-332.49 -1346.35,-870.05 -343.1,-535.92 -555.33,-1276.04 -555.33,-2093.29 0,-817.26 212.23,-1557.39 555.33,-2093.3 344.14,-537.55 820.15,-870.04 1346.35,-870.04zm1325.33 883.55c-339.58,-530.43 -808.2,-858.5 -1325.33,-858.5 -517.1,0 -985.73,328.08 -1325.3,858.5 -340.62,532.05 -551.32,1267.35 -551.32,2079.79 0,812.43 210.7,1547.73 551.32,2079.78 339.57,530.42 808.2,858.5 1325.3,858.5 517.14,0 985.75,-328.08 1325.32,-858.48 340.63,-532.05 551.32,-1267.37 551.32,-2079.8 0,-812.44 -210.69,-1547.74 -551.31,-2079.79zm-188.62 186.79c-292.47,-477.25 -694.5,-772.45 -1136.71,-772.45 -442.19,0 -844.21,295.2 -1136.68,772.45 -296.42,483.71 -479.77,1152.96 -479.77,1893 0,740.05 183.35,1409.28 479.77,1892.98 292.47,477.26 694.49,772.47 1136.68,772.47 442.21,0 844.22,-295.21 1136.7,-772.47 296.43,-483.7 479.78,-1152.93 479.78,-1892.98 0,-740.04 -183.35,-1409.29 -479.77,-1893z"/>
 </g>
</svg>
