<?xml version="1.0" encoding="UTF-8"?>
<!DOCTYPE svg PUBLIC "-//W3C//DTD SVG 1.1//EN" "http://www.w3.org/Graphics/SVG/1.1/DTD/svg11.dtd">
<!-- Creator: CorelDRAW -->
<svg xmlns="http://www.w3.org/2000/svg" xml:space="preserve" width="91.4398mm" height="114.3mm" version="1.1" style="shape-rendering:geometricPrecision; text-rendering:geometricPrecision; image-rendering:optimizeQuality; fill-rule:evenodd; clip-rule:evenodd"
viewBox="0 0 9143.98 11429.98"
 xmlns:xlink="http://www.w3.org/1999/xlink"
 xmlns:xodm="http://www.corel.com/coreldraw/odm/2003">
 <defs>
  <style type="text/css">
   <![CDATA[
    .fil0 {fill:#996633;fill-rule:nonzero}
   ]]>
  </style>
 </defs>
 <g id="Warstwa_x0020_1">
  <metadata id="CorelCorpID_0Corel-Layer"/>
  <path class="fil0" d="M2908.05 7984.69c0,-9.38 -0.94,-16.27 -2.82,-20.65 -1.87,-4.38 -5.55,-7.43 -11.03,-9.15 -5.48,-1.72 -14.16,-2.58 -26.05,-2.58 -0.62,0 -0.94,-0.94 -0.94,-2.82 0,-1.88 0.32,-2.82 0.94,-2.82l23.47 0.47c13.15,0.63 23.63,0.94 31.46,0.94 9.07,0 20.18,-0.31 33.32,-0.94l22.07 -0.47c0.94,0 1.41,0.94 1.41,2.82 0,1.88 -0.47,2.82 -1.41,2.82 -11.58,0 -20.11,0.93 -25.59,2.81 -5.47,1.88 -9.23,5.09 -11.26,9.63 -2.03,4.53 -3.05,11.5 -3.05,20.89l0 216.41c0,9.7 0.93,16.74 2.81,21.12 1.88,4.38 5.56,7.36 11.04,8.92 5.47,1.57 14.15,2.35 26.05,2.35 0.94,0 1.41,0.94 1.41,2.82 0,1.87 -0.47,2.81 -1.41,2.81 -9.39,0 -16.9,-0.15 -22.53,-0.46l-32.86 -0.48 -31.93 0.48c-5.63,0.31 -13.45,0.46 -23.47,0.46 -0.62,0 -0.94,-0.94 -0.94,-2.81 0,-1.88 0.32,-2.82 0.94,-2.82 11.89,0 20.58,-0.78 26.06,-2.35 5.47,-1.56 9.22,-4.61 11.26,-9.15 2.04,-4.54 3.05,-11.5 3.05,-20.89l0 -217.36zm1664.01 -5159.9c231.46,0 440.21,151.77 590.57,397.14 148.44,242.22 240.26,576.4 240.26,945.09 0,368.7 -91.82,702.86 -240.26,945.1 -150.36,245.36 -359.11,397.13 -590.57,397.13 -231.46,0 -440.2,-151.76 -590.57,-397.13 -148.43,-242.23 -240.26,-576.4 -240.26,-945.1 0,-368.69 91.83,-702.87 240.26,-945.09 150.37,-245.37 359.11,-397.14 590.57,-397.14zm-403.52 1289.09l55.11 -55.1 55.1 55.1 -55.1 55.11 -55.11 -55.11zm352.48 651.68l139.13 0c189.2,0 383.14,-110.39 383.14,-332.9 0,-208.71 -190.78,-319.1 -367.37,-315.65l6.3 -5.18c137.18,-20.7 279.08,-124.19 279.08,-270.81 0,-191.45 -181.32,-270.8 -335.83,-272.52l-138.27 0 -0.87 -0.02 -378.41 0c-9.46,0 -7.88,12.08 0,12.08l74.11 0c7.89,0 11.04,3.45 11.04,12.07l0 440.14c21.19,-7.6 45.19,-7.41 66.22,0.62l0 -440.76c0,-8.35 2.95,-11.85 10.31,-12.06l51.57 0c7.88,0 11.03,3.45 11.03,12.07l0 1148.77c0,8.48 -4.58,11.96 -10.74,12.07l-0.29 0 -50.85 0 -0.36 0c-7.62,-0.11 -10.67,-3.59 -10.67,-12.07l0 -545.91c-21.03,7.88 -45.03,8.62 -66.22,1.51l0 544.4c0,8.62 -4.73,12.07 -11.04,12.07l-74.11 0c-9.46,0 -9.46,12.08 0,12.08l139.15 0 273.95 0zm90.11 -643.37c208.95,0.29 359.63,66.1 359.63,310.47 0,229.4 -140.33,320.82 -310.61,320.82l-31.74 0c148.73,-34.13 275.74,-140.76 275.74,-320.83 0,-179.52 -141.16,-286.31 -293.02,-310.46zm-202.03 631.29c-7.62,-0.11 -10.68,-3.59 -10.68,-12.07l0 -607.16c0,-8.62 3.16,-12.07 11.04,-12.07l63.28 0c208.57,0.46 358.89,66.39 358.89,310.47 0,229.42 -140.33,320.83 -310.61,320.83l-111.56 0 -0.36 0zm485.98 -912.46c0,191.46 -116.68,269.09 -301.15,269.09l-40.59 0c133.9,-24.19 268.82,-126.13 268.82,-269.1 0,-150.55 -112.12,-231.77 -235.15,-260.44l33.73 0c140.32,0 274.34,63.82 274.34,260.45zm-486.34 269.07c-7.36,-0.21 -10.32,-3.71 -10.32,-12.06l0 -505.39c0,-8.62 3.16,-12.07 11.04,-12.07l73.6 0c139.79,0.45 272.88,64.49 272.88,260.44 0,191.47 -116.67,269.08 -301.14,269.08l-46.06 0zm163.32 -1387.78c256.55,0 488.6,162.1 656.39,424.17 167.27,261.28 270.73,622.11 270.73,1020.54 0,398.43 -103.46,759.27 -270.74,1020.54 -167.77,262.07 -399.83,424.17 -656.38,424.17 -256.54,0 -488.61,-162.1 -656.39,-424.17 -167.27,-261.28 -270.73,-622.11 -270.73,-1020.54 0,-398.43 103.46,-759.26 270.73,-1020.54 167.78,-262.07 399.85,-424.17 656.39,-424.17zm646.13 430.76c-165.56,-258.6 -394.02,-418.54 -646.13,-418.54 -252.11,0 -480.57,159.95 -646.13,418.54 -166.06,259.39 -268.78,617.87 -268.78,1013.95 0,396.08 102.72,754.57 268.78,1013.95 165.56,258.6 394.02,418.54 646.13,418.54 252.12,0 480.57,-159.94 646.13,-418.53 166.06,-259.39 268.78,-617.88 268.78,-1013.96 0,-396.08 -102.72,-754.56 -268.78,-1013.95zm-91.96 91.07c-142.58,-232.68 -338.59,-376.6 -554.17,-376.6 -215.58,0 -411.58,143.92 -554.17,376.6 -144.51,235.82 -233.9,562.09 -233.9,922.88 0,360.8 89.39,687.07 233.9,922.88 142.59,232.68 338.59,376.6 554.17,376.6 215.58,0 411.58,-143.92 554.17,-376.6 144.51,-235.81 233.9,-562.08 233.9,-922.88 0,-360.79 -89.39,-687.06 -233.9,-922.88zm-108.5 5173.71l10.8 0.94 0 230.5c0,16.27 2.89,27.93 8.68,34.97 5.79,7.04 15.1,10.56 27.93,10.56 0.94,0 1.41,0.94 1.41,2.82 0,1.87 -0.47,2.82 -1.41,2.82 -7.82,0 -13.77,-0.16 -17.84,-0.47l-23.47 -0.48 -23.94 0.48c-4.38,0.31 -10.8,0.47 -19.25,0.47 -0.62,0 -0.93,-0.95 -0.93,-2.82 0,-1.88 0.31,-2.82 0.93,-2.82 13.46,0 23.01,-3.52 28.64,-10.56 5.63,-7.04 8.45,-18.7 8.45,-34.97l0 -231.44zm-2485.33 -1705.48c56.23,0 105.95,11.05 149.13,33.14 86,44 137.08,122.73 137.08,219.93 0,165.74 -125.43,284.71 -287.72,284.71 -34.14,0 -70.29,-1.5 -108.46,-4.52 -38.24,-2.73 -76.12,-4.52 -114.48,-4.52l-99.42 1.51c-18.08,1.01 -43.19,1.51 -75.32,1.51 -4.21,0 -4.21,-18.09 0,-18.09 40.17,0 69.53,-2.5 88.12,-7.52 18.58,-5.02 31.38,-14.82 38.41,-29.38 7.03,-14.56 10.55,-36.9 10.55,-67.03l0 -697.46c0,-30.13 -3.27,-52.22 -9.8,-66.28 -6.53,-14.07 -19.07,-23.85 -37.66,-29.38 -18.57,-5.52 -47.45,-8.28 -86.62,-8.28 -3,0 -4.51,-3.02 -4.51,-9.04 0,-6.03 1.51,-9.04 4.51,-9.04l72.32 1.5c49.85,2.51 100.77,4.65 150.64,1.51 41.67,-2.61 83.25,-7.53 125.02,-7.53 83.35,0 144.87,18.83 184.54,56.49 39.67,37.66 59.5,85.61 59.5,143.86 0,123.31 -102.1,199.46 -212.41,227.46l16.58 -13.55zm3702.9 208.43l453.11 -1.12 -248.41 -534.19 28.61 -25.62 -233.31 560.93zm463.81 21.89l-473.4 1.17 -47.83 114.98c-19.35,47 -41.55,116.95 15.07,147.63 24.1,13.05 61.76,19.57 112.97,19.57 5.03,0 7.53,3.02 7.53,9.05 0,6.02 -2.5,9.04 -7.53,9.04 -18.07,0 -44.19,-1.01 -78.33,-3.02 -38.16,-2 -71.3,-3.01 -99.42,-3.01 -25.11,0 -54.73,1.01 -88.87,3.01 -30.13,2.01 -54.74,3.02 -73.82,3.02 -5.02,0 -7.53,-3.02 -7.53,-9.04 0,-6.03 2.51,-9.05 7.53,-9.05 59.46,0 94.28,-20.23 127.29,-69.28 17.58,-26.11 36.4,-63.27 56.49,-111.48l314.84 -757.72c3.73,-5.61 15.85,-6.67 18.07,0l349.49 750.19c23.26,51.56 65.02,142.35 115.23,172.48 17.58,10.54 37.91,15.81 61.02,15.81 4.01,0 6.03,3.02 6.03,9.05 0,6.02 -2.02,9.04 -6.03,9.04 -57.22,0 -114.56,-6.03 -171.73,-6.03 -21.09,0 -48.72,1.01 -82.85,3.01 -32.14,2.01 -56.24,3.02 -72.31,3.02 -4.02,0 -6.03,-3.02 -6.03,-9.04 0,-6.03 2.01,-9.05 6.03,-9.05 41.18,0 70.8,-3.75 88.88,-11.29 18.08,-7.53 27.11,-20.34 27.11,-38.41 0,-14.06 -5.53,-33.64 -16.57,-58.75l-81.33 -174.9zm-4249.57 -625c-28.11,0 -48.7,2.01 -61.76,6.03 -13.05,4.02 -22.85,13.56 -29.36,28.62 -6.54,15.06 -9.8,40.17 -9.8,75.32l0 295.25 -45.19 -12.05c43.18,3.02 81.84,4.52 115.99,4.52 79.34,0 137.08,-18.83 173.24,-56.49 36.15,-37.66 54.22,-87.62 54.22,-149.88 0,-56.24 -15.81,-102.18 -47.44,-137.84 -31.65,-35.65 -81.6,-53.48 -149.9,-53.48zm60.26 908.35c74.32,0 129.8,-19.32 166.46,-57.99 36.65,-38.66 54.98,-93.65 54.98,-164.95 0,-76.32 -23.34,-138.34 -70.05,-186.03 -46.69,-47.71 -109.71,-72.06 -189.04,-73.06 -61.26,-2.01 -116,0.5 -164.2,7.53l40.67 -16.57 0 387.14c0,27.11 4.27,47.95 12.8,62.51 8.54,14.56 24.36,25.11 47.46,31.64 23.09,6.53 56.74,9.78 100.92,9.78zm1031.28 -774.27c22.1,-36.16 33.14,-63.78 33.14,-82.86 0,-32.13 -27.11,-48.2 -81.35,-48.2 -4.19,0 -4.19,-18.08 0,-18.08l67.8 1.5c38.16,2.02 71.8,3.02 100.92,3.02 17.07,0 37.66,-1 61.77,-3.02l55.73 -1.5c4.21,0 4.21,18.08 0,18.08 -87.71,0 -158.23,66.27 -203.36,135.57l-245.54 372.08 -24.1 -21.09 234.99 -355.5zm-515.18 -24.11c-26.12,-39.17 -51.73,-66.79 -76.83,-82.85 -25.11,-16.07 -56.24,-24.1 -93.4,-24.1 -3.01,0 -4.51,-3.02 -4.51,-9.04 0,-6.03 1.5,-9.04 4.51,-9.04l55.73 1.5c24.12,2.02 42.19,3.02 54.24,3.02 33.14,0 73.81,-1 122.02,-3.02l78.33 -1.5c4.21,0 4.21,18.08 0,18.08 -30.13,0 -51.97,2.26 -65.53,6.78 -13.56,4.52 -20.33,11.79 -20.33,21.84 0,6.03 5.02,16.57 15.06,31.63l268.14 385.64 -55.74 69.3 -281.69 -408.24zm337.43 335.93l0 358.52c0,31.13 3.02,53.73 9.04,67.78 6.02,14.07 18.07,23.61 36.15,28.63 18.07,5.02 47.2,7.52 87.37,7.52 3.02,0 4.52,3.02 4.52,9.05 0,6.02 -1.5,9.04 -4.52,9.04 -30.13,0 -53.73,-0.5 -70.8,-1.51l-102.43 -1.51 -102.44 1.51c-18.08,1.01 -42.18,1.51 -72.31,1.51 -3.01,0 -4.52,-3.02 -4.52,-9.04 0,-6.03 1.51,-9.05 4.52,-9.05 39.17,0 68.04,-2.5 86.62,-7.52 18.58,-5.02 31.38,-14.82 38.41,-29.38 7.03,-14.56 10.56,-36.9 10.56,-67.03l0 -344.97 79.83 -13.55zm642.63 352.5c0,29.12 3.26,50.46 9.79,64.02 6.53,13.55 18.58,22.84 36.15,27.86 17.58,5.03 45.45,7.53 83.6,7.53l192.83 0c99.42,0 158.17,-63.76 176.24,-191.31 0,-6.3 16.57,-4.75 16.57,1.51 -9.03,79.33 -13.55,144.61 -13.55,195.83 0,16.97 -5.6,22.6 -22.6,22.6l-692.94 0c-4.2,0 -4.2,-18.09 0,-18.09 39.17,0 68.04,-2.5 86.62,-7.52 18.58,-5.02 31.13,-14.82 37.67,-29.38 6.51,-14.56 9.78,-36.9 9.78,-67.03l0 -697.46c0,-30.13 -3.27,-52.22 -9.78,-66.28 -6.54,-14.07 -19.09,-23.85 -37.67,-29.38 -18.58,-5.52 -47.45,-8.28 -86.62,-8.28 -4.2,0 -4.2,-18.08 0,-18.08l73.82 1.5c42.17,2.02 75.32,3.02 99.42,3.02 27.12,0 61.76,-1 103.93,-3.02l70.8 -1.5c4.21,0 4.21,18.08 0,18.08 -39.16,0 -68.03,2.76 -86.61,8.28 -18.58,5.53 -31.13,15.57 -37.66,30.13 -6.53,14.56 -9.79,36.9 -9.79,67.03l0 689.94zm784.22 6.02c0,31.13 3.27,53.73 9.8,67.78 6.53,14.07 18.83,23.61 36.9,28.63 18.08,5.02 47.21,7.52 87.37,7.52 4.21,0 4.21,18.09 0,18.09 -30.13,0 -53.72,-0.5 -70.79,-1.51l-105.46 -1.51 -100.92 1.51c-18.08,1.01 -42.68,1.51 -73.81,1.51 -3.02,0 -4.52,-3.02 -4.52,-9.04 0,-6.03 1.5,-9.05 4.52,-9.05 39.17,0 68.03,-2.5 86.61,-7.52 18.59,-5.02 31.39,-14.82 38.42,-29.38 7.03,-14.56 10.54,-36.9 10.54,-67.03l0 -697.46c0,-30.13 -3.51,-52.22 -10.54,-66.28 -7.03,-14.07 -19.83,-23.85 -38.42,-29.38 -18.58,-5.52 -47.44,-8.28 -86.61,-8.28 -3.02,0 -4.52,-3.02 -4.52,-9.04 0,-6.03 1.5,-9.04 4.52,-9.04l73.81 1.5c42.18,2.02 75.82,3.02 100.92,3.02 28.13,0 63.28,-1 105.46,-3.02l70.79 -1.5c4.21,0 4.21,18.08 0,18.08 -39.16,0 -68.03,3.01 -86.61,9.03 -18.58,6.03 -31.13,16.32 -37.66,30.88 -6.53,14.56 -9.8,36.91 -9.8,67.04l0 694.45zm785.74 -836.05c66.28,0 120.52,4.77 162.69,14.31 42.18,9.53 86.87,26.36 134.08,50.46 6.02,4.02 9.79,7.29 11.29,9.79 1.51,2.52 2.77,10.3 3.77,23.35l18.07 171.73c0,6.25 -15.99,7.75 -18.07,1.51 -42.99,-162.18 -140.94,-250.06 -311.83,-250.06 -163.49,0 -308.99,66.57 -387.89,214.66 -36.65,68.79 -54.99,148.88 -54.99,240.27 0,85.37 20.34,164.95 61.02,238.76 77.76,141.14 220.62,241.78 384.88,241.78 166.7,0 273.16,-81.84 319.35,-245.54 0,-4.51 18.08,-4.42 18.08,1.5l-12.05 159.68c-1.51,18.16 -1.42,23.04 -16.57,33.14 -52.22,27.12 -101.18,45.95 -146.87,56.5 -45.71,10.54 -100.18,15.81 -163.44,15.81 -104.45,0 -197.6,-20.84 -279.45,-62.51 -81.84,-41.68 -145.86,-100.43 -192.05,-176.26 -46.21,-75.81 -69.31,-162.93 -69.31,-261.35 0,-94.4 23.1,-177.76 69.31,-250.06 46.19,-72.31 110.21,-128.3 192.05,-167.97 81.85,-39.66 174.5,-59.5 277.93,-59.5zm-321.59 2420.03c0,0.62 -0.78,1.1 -2.35,1.41 -1.57,0.31 -2.66,0.15 -3.29,-0.47l-215.94 -261.48c-10.01,-12.2 -19.17,-20.74 -27.46,-25.59 -8.3,-4.85 -16.51,-7.27 -24.65,-7.27 -0.93,0 -1.41,-0.94 -1.41,-2.82 0,-1.88 0.48,-2.82 1.41,-2.82l17.37 0.48c3.76,0.31 8.92,0.46 15.49,0.46 6.89,0 12.52,-0.15 16.9,-0.46 4.38,-0.32 7.83,-0.48 10.33,-0.48 2.19,0 3.99,0.55 5.4,1.65 1.41,1.09 3.05,3.36 4.93,6.8 3.75,5.64 7.67,10.96 11.74,15.97l187.77 230.49 3.76 44.13zm0 0l-10.8 -14.55 0 -232.85c0,-16.27 -2.74,-28.01 -8.22,-35.2 -5.47,-7.2 -14.63,-10.8 -27.46,-10.8 -0.62,0 -0.93,-0.94 -0.93,-2.82 0,-1.88 0.31,-2.82 0.93,-2.82l18.31 0.48c9.39,0.62 17.06,0.93 23,0.93 5.64,0 13.46,-0.31 23.48,-0.93l19.24 -0.48c0.94,0 1.41,0.94 1.41,2.82 0,1.88 -0.47,2.82 -1.41,2.82 -13.14,0 -22.69,3.6 -28.63,10.8 -5.95,7.19 -8.92,18.93 -8.92,35.2l0 247.4zm199.04 -144.12l124.4 0 3.29 9.39 -132.38 0 4.69 -9.39zm232.37 132.85c1.26,0 1.88,0.94 1.88,2.82 0,1.87 -0.62,2.82 -1.88,2.82 -5.94,0 -15.18,-0.32 -27.69,-0.95 -12.52,-0.62 -21.6,-0.93 -27.23,-0.93 -6.88,0 -15.65,0.31 -26.29,0.93 -10.02,0.63 -17.68,0.95 -23,0.95 -1.26,0 -1.88,-0.95 -1.88,-2.82 0,-1.88 0.62,-2.82 1.88,-2.82 11.89,0 20.42,-1.1 25.58,-3.28 5.17,-2.2 7.75,-6.11 7.75,-11.74 0,-4.7 -1.88,-11.27 -5.64,-19.71l-104.21 -220.18 11.74 -14.55 -91.08 215.48c-4.38,10.64 -6.57,19.4 -6.57,26.29 0,18.46 15.34,27.69 46.01,27.69 1.56,0 2.34,0.94 2.34,2.82 0,1.87 -0.78,2.82 -2.34,2.82 -5.64,0 -13.77,-0.32 -24.42,-0.95 -11.89,-0.62 -22.21,-0.93 -30.98,-0.93 -8.13,0 -17.53,0.31 -28.16,0.93 -9.4,0.63 -17.22,0.95 -23.48,0.95 -1.56,0 -2.34,-0.95 -2.34,-2.82 0,-1.88 0.78,-2.82 2.34,-2.82 8.77,0 16.2,-1.64 22.3,-4.93 6.11,-3.28 11.89,-9.07 17.37,-17.36 5.48,-8.3 11.5,-20.27 18.08,-35.92l99.04 -233.78c0.63,-0.94 1.73,-1.41 3.29,-1.41 1.57,0 2.5,0.47 2.82,1.41l110.79 233.31c10.64,23.16 19.71,38.73 27.22,46.71 7.52,7.98 16.44,11.97 26.76,11.97zm-2734.5 -616.7l23.47 -18.78 68.54 87.32c22.85,29.73 40.3,50.69 52.34,62.9 12.05,12.2 21.37,19.4 27.93,21.6 6.58,2.18 16.12,3.28 28.64,3.28 0.94,0 1.41,0.94 1.41,2.82 0,1.87 -0.47,2.81 -1.41,2.81l-52.58 0c-2.5,0 -6.96,0.08 -13.37,0.24 -6.42,0.16 -15.42,-7.83 -27,-23.94 -11.58,-16.12 -22.69,-30.91 -33.32,-44.37l-74.65 -93.88zm87.79 -93.43c10.32,-10.32 15.49,-17.99 15.49,-23 0,-6.25 -9.23,-9.38 -27.7,-9.38 -0.62,0 -0.93,-0.94 -0.93,-2.82 0,-1.88 0.31,-2.82 0.93,-2.82l20.19 0.47c12.51,0.63 23.94,0.94 34.27,0.94 10.33,0 21.12,-0.31 32.39,-0.94l17.37 -0.47c0.94,0 1.41,0.94 1.41,2.82 0,1.88 -0.47,2.82 -1.41,2.82 -12.83,0 -26.45,2.81 -40.84,8.45 -14.4,5.63 -27.86,14.55 -40.38,26.75l-120.17 117.84 -11.74 0 121.12 -120.66zm268.05 116.9l124.4 0 3.28 9.39 -132.38 0 4.7 -9.39zm232.37 132.85c1.25,0 1.88,0.94 1.88,2.82 0,1.87 -0.63,2.81 -1.88,2.81 -5.95,0 -15.18,-0.31 -27.7,-0.94 -12.52,-0.62 -21.59,-0.93 -27.22,-0.93 -6.89,0 -15.65,0.31 -26.29,0.93 -10.02,0.63 -17.69,0.94 -23.01,0.94 -1.25,0 -1.87,-0.94 -1.87,-2.81 0,-1.88 0.62,-2.82 1.87,-2.82 11.9,0 20.42,-1.1 25.59,-3.28 5.16,-2.2 7.75,-6.11 7.75,-11.74 0,-4.7 -1.88,-11.27 -5.64,-19.72l-104.21 -220.17 11.73 -14.55 -91.07 215.47c-4.38,10.65 -6.57,19.41 -6.57,26.3 0,18.46 15.33,27.69 46,27.69 1.57,0 2.35,0.94 2.35,2.82 0,1.87 -0.78,2.81 -2.35,2.81 -5.63,0 -13.77,-0.31 -24.41,-0.94 -11.89,-0.62 -22.22,-0.93 -30.98,-0.93 -8.14,0 -17.53,0.31 -28.17,0.93 -9.39,0.63 -17.21,0.94 -23.47,0.94 -1.56,0 -2.35,-0.94 -2.35,-2.81 0,-1.88 0.79,-2.82 2.35,-2.82 8.76,0 16.2,-1.64 22.3,-4.93 6.1,-3.28 11.89,-9.07 17.37,-17.37 5.48,-8.29 11.5,-20.26 18.07,-35.91l99.05 -233.78c0.63,-0.94 1.73,-1.41 3.29,-1.41 1.56,0 2.5,0.47 2.82,1.41l110.78 233.31c10.65,23.16 19.72,38.73 27.23,46.71 7.51,7.98 16.43,11.97 26.76,11.97zm112.67 -276.97l10.8 0.94 0 230.49c0,16.28 2.89,27.93 8.68,34.98 5.79,7.04 15.1,10.56 27.93,10.56 0.94,0 1.41,0.94 1.41,2.82 0,1.87 -0.47,2.81 -1.41,2.81 -7.82,0 -13.77,-0.15 -17.84,-0.46l-23.47 -0.48 -23.94 0.48c-4.38,0.31 -10.8,0.46 -19.25,0.46 -0.62,0 -0.93,-0.94 -0.93,-2.81 0,-1.88 0.31,-2.82 0.93,-2.82 13.46,0 23.01,-3.52 28.64,-10.56 5.63,-7.05 8.45,-18.7 8.45,-34.98l0 -231.43zm236.6 288.24c0,0.62 -0.78,1.09 -2.35,1.4 -1.57,0.32 -2.66,0.16 -3.29,-0.46l-215.94 -261.48c-10.01,-12.21 -19.17,-20.74 -27.46,-25.59 -8.3,-4.85 -16.51,-7.27 -24.65,-7.27 -0.93,0 -1.41,-0.94 -1.41,-2.82 0,-1.88 0.48,-2.82 1.41,-2.82l17.37 0.47c3.75,0.31 8.92,0.47 15.49,0.47 6.89,0 12.52,-0.16 16.9,-0.47 4.38,-0.31 7.83,-0.47 10.33,-0.47 2.19,0 3.99,0.55 5.4,1.64 1.41,1.1 3.05,3.37 4.93,6.81 3.75,5.64 7.66,10.95 11.74,15.97l187.77 230.49 3.76 44.13zm0 0l-10.8 -14.55 0 -232.85c0,-16.27 -2.74,-28.01 -8.22,-35.21 -5.47,-7.2 -14.63,-10.79 -27.46,-10.79 -0.63,0 -0.94,-0.94 -0.94,-2.82 0,-1.88 0.31,-2.82 0.94,-2.82l18.31 0.47c9.39,0.63 17.06,0.94 23,0.94 5.64,0 13.46,-0.31 23.48,-0.94l19.24 -0.47c0.94,0 1.41,0.94 1.41,2.82 0,1.88 -0.47,2.82 -1.41,2.82 -13.14,0 -22.69,3.59 -28.63,10.79 -5.95,7.2 -8.92,18.94 -8.92,35.21l0 247.4zm296.21 -304.2c19.72,0 36.31,1.41 49.76,4.22 13.46,2.82 26.92,7.67 40.38,14.55 2.19,1.26 3.44,2.36 3.75,3.29 0.31,0.94 0.79,3.29 1.41,7.04l5.63 55.87c0,0.93 -0.86,1.48 -2.58,1.64 -1.72,0.15 -2.74,-0.23 -3.05,-1.17 -14.4,-52.27 -46.63,-78.4 -96.71,-78.4 -26.28,0 -49.52,5.79 -69.71,17.37 -20.18,11.58 -35.75,28.09 -46.71,49.52 -10.95,21.44 -16.43,46.4 -16.43,74.88 0,27.23 6.11,52.19 18.31,74.88 12.21,22.69 28.56,40.6 49.06,53.75 20.5,13.14 42.8,19.71 66.89,19.71 25.66,0 46.48,-6.25 62.44,-18.77 15.96,-12.52 28.17,-31.61 36.62,-57.27 0,-0.63 0.78,-0.95 2.34,-0.95 2.19,0 3.29,0.48 3.29,1.41l-4.7 51.64c-0.31,3.76 -0.78,6.11 -1.4,7.04 -0.63,0.94 -1.88,2.04 -3.76,3.29 -16.27,7.82 -31.53,13.3 -45.77,16.43 -14.24,3.13 -30.59,4.7 -49.06,4.7 -32.86,0 -62.2,-6.5 -88.02,-19.49 -25.82,-12.99 -45.92,-31.21 -60.32,-54.69 -14.4,-23.47 -21.6,-50.38 -21.6,-80.74 0,-29.42 7.36,-55.47 22.07,-78.16 14.71,-22.69 34.97,-40.29 60.79,-52.82 25.82,-12.51 54.85,-18.77 87.08,-18.77zm204.21 298.56c-0.63,0 -0.94,-0.94 -0.94,-2.81 0,-1.88 0.31,-2.82 0.94,-2.82 11.89,0 20.57,-0.78 26.05,-2.35 5.48,-1.56 9.24,-4.61 11.27,-9.15 2.03,-4.54 3.05,-11.5 3.05,-20.89l0 -217.36c0,-9.38 -1.02,-16.27 -3.05,-20.65 -2.03,-4.38 -5.79,-7.43 -11.27,-9.15 -5.48,-1.72 -14.16,-2.58 -26.05,-2.58 -0.63,0 -0.94,-0.94 -0.94,-2.82 0,-1.88 0.31,-2.82 0.94,-2.82l188.71 0c2.82,0 4.23,1.41 4.23,4.23l0.94 57.74c0,0.94 -0.86,1.49 -2.58,1.64 -1.72,0.16 -2.59,-0.23 -2.59,-1.17 -0.93,-16.59 -5.94,-29.5 -15.02,-38.73 -9.07,-9.24 -21.12,-13.85 -36.14,-13.85l-28.64 0c-10.95,0 -19.09,0.86 -24.41,2.58 -5.32,1.72 -9,4.62 -11.04,8.69 -2.03,4.06 -3.04,10.48 -3.04,19.25l0 213.12c0,8.45 1.01,14.79 3.04,19.01 2.04,4.23 5.56,7.12 10.57,8.69 5.01,1.56 12.83,2.34 23.47,2.34l37.56 0c15.02,0 27.53,-5.31 37.55,-15.96 10.01,-10.64 16.75,-25.35 20.19,-44.13 0,-0.62 0.63,-0.93 1.88,-0.93 0.93,0 1.79,0.23 2.58,0.7 0.78,0.47 1.17,0.86 1.17,1.18 -2.82,19.71 -4.23,40.37 -4.23,61.96 0,2.51 -0.54,4.31 -1.63,5.4 -1.1,1.09 -3.06,1.64 -5.88,1.64l-196.69 0zm170.41 -109.38c0,-13.77 -3.37,-23.62 -10.1,-29.57 -6.73,-5.95 -17.91,-8.92 -33.56,-8.92l-70.42 0 0 -9.86 71.83 0c15.02,0 25.74,-2.5 32.15,-7.51 6.42,-5.01 9.63,-13.46 9.63,-25.35 0,-0.63 0.94,-0.94 2.81,-0.94 1.88,0 2.82,0.31 2.82,0.94l-0.47 38.02c0,9.08 0.16,15.97 0.47,20.66l0.47 22.53c0,0.63 -0.94,0.94 -2.82,0.94 -1.88,0 -2.81,-0.31 -2.81,-0.94zm203.27 69.48c0,9.08 0.94,15.65 2.81,19.72 1.88,4.07 5.32,6.8 10.33,8.21 5.01,1.41 13.15,2.11 24.41,2.11l51.17 0c17.84,0 32.08,-5.47 42.72,-16.42 10.64,-10.96 17.69,-26.14 21.12,-45.54 0,-0.94 0.86,-1.33 2.59,-1.17 1.72,0.15 2.58,0.7 2.58,1.64 -2.81,25.97 -4.22,47.41 -4.22,64.31 0,2.51 -0.47,4.31 -1.41,5.4 -0.94,1.09 -2.82,1.64 -5.64,1.64l-216.88 0c-0.62,0 -0.94,-0.94 -0.94,-2.81 0,-1.88 0.32,-2.82 0.94,-2.82 11.89,0 20.58,-0.78 26.06,-2.35 5.47,-1.56 9.15,-4.61 11.03,-9.15 1.87,-4.54 2.81,-11.5 2.81,-20.89l0 -217.36c0,-9.38 -0.94,-16.27 -2.81,-20.65 -1.88,-4.38 -5.56,-7.43 -11.03,-9.15 -5.48,-1.72 -14.17,-2.58 -26.06,-2.58 -0.62,0 -0.94,-0.94 -0.94,-2.82 0,-1.88 0.32,-2.82 0.94,-2.82l23 0.47c13.15,0.63 23.79,0.94 31.92,0.94 8.77,0 19.72,-0.31 32.87,-0.94l22.53 -0.47c0.94,0 1.41,0.94 1.41,2.82 0,1.88 -0.47,2.82 -1.41,2.82 -11.58,0 -20.19,0.86 -25.82,2.58 -5.64,1.72 -9.39,4.85 -11.27,9.39 -1.87,4.54 -2.81,11.5 -2.81,20.89l0 215zm314.06 -98.58l124.4 0 3.29 9.39 -132.39 0 4.7 -9.39zm232.37 132.85c1.25,0 1.88,0.94 1.88,2.82 0,1.87 -0.63,2.81 -1.88,2.81 -5.95,0 -15.18,-0.31 -27.69,-0.94 -12.53,-0.62 -21.6,-0.93 -27.23,-0.93 -6.89,0 -15.65,0.31 -26.29,0.93 -10.02,0.63 -17.68,0.94 -23.01,0.94 -1.25,0 -1.87,-0.94 -1.87,-2.81 0,-1.88 0.62,-2.82 1.87,-2.82 11.9,0 20.42,-1.1 25.59,-3.28 5.16,-2.2 7.75,-6.11 7.75,-11.74 0,-4.7 -1.88,-11.27 -5.64,-19.72l-104.21 -220.17 11.73 -14.55 -91.07 215.47c-4.38,10.65 -6.57,19.41 -6.57,26.3 0,18.46 15.33,27.69 46.01,27.69 1.56,0 2.34,0.94 2.34,2.82 0,1.87 -0.78,2.81 -2.34,2.81 -5.64,0 -13.78,-0.31 -24.42,-0.94 -11.89,-0.62 -22.22,-0.93 -30.98,-0.93 -8.14,0 -17.53,0.31 -28.17,0.93 -9.39,0.63 -17.21,0.94 -23.47,0.94 -1.56,0 -2.35,-0.94 -2.35,-2.81 0,-1.88 0.79,-2.82 2.35,-2.82 8.76,0 16.2,-1.64 22.3,-4.93 6.1,-3.28 11.89,-9.07 17.37,-17.37 5.48,-8.29 11.5,-20.26 18.07,-35.91l99.05 -233.78c0.63,-0.94 1.73,-1.41 3.29,-1.41 1.57,0 2.5,0.47 2.82,1.41l110.78 233.31c10.65,23.16 19.72,38.73 27.23,46.71 7.52,7.98 16.43,11.97 26.76,11.97zm316.41 5.63c-7.83,0 -22.77,-13.38 -44.84,-40.13 -22.06,-26.76 -48.58,-63.61 -79.56,-110.56l26.28 -7.98c27.23,39.12 50,69.56 68.31,91.31 18.31,21.75 34.5,37.47 48.58,47.18 14.09,9.7 27.86,14.55 41.31,14.55 0.95,0 1.41,0.94 1.41,2.82 0,1.87 -0.46,2.81 -1.41,2.81l-60.08 0zm-118.3 -294.8c24.72,0 43.81,5.63 57.27,16.89 13.46,11.27 20.18,26.29 20.18,45.07 0,16.59 -4.85,31.69 -14.55,45.3 -9.7,13.62 -22.76,24.41 -39.2,32.39 -16.42,7.98 -34.03,11.98 -52.81,11.98 -1.88,0 -8.92,-0.48 -21.12,-1.41l0 106.56c0,9.7 0.94,16.74 2.81,21.12 1.88,4.38 5.56,7.36 11.03,8.92 5.48,1.57 14.17,2.35 26.06,2.35 0.94,0 1.41,0.94 1.41,2.82 0,1.87 -0.47,2.81 -1.41,2.81 -9.7,0 -17.37,-0.15 -23,-0.46l-32.4 -0.48 -31.91 0.48c-5.64,0.31 -13.62,0.46 -23.95,0.46 -0.62,0 -0.94,-0.94 -0.94,-2.81 0,-1.88 0.32,-2.82 0.94,-2.82 11.89,0 20.66,-0.86 26.29,-2.58 5.63,-1.72 9.54,-4.77 11.74,-9.16 2.19,-4.38 3.28,-11.26 3.28,-20.65l0 -217.36c0,-9.38 -1.01,-16.27 -3.05,-20.65 -2.03,-4.38 -5.79,-7.43 -11.27,-9.15 -5.47,-1.72 -14.16,-2.58 -26.05,-2.58 -0.94,0 -1.41,-0.94 -1.41,-2.82 0,-1.88 0.47,-2.82 1.41,-2.82l23.01 0.47c13.14,0.63 23.78,0.94 31.91,0.94 6.89,0 13.31,-0.16 19.25,-0.47 5.95,-0.31 10.95,-0.62 15.02,-0.94 11.9,-0.94 22.38,-1.4 31.46,-1.4zm45.53 75.58c0,-24.42 -5.39,-41.95 -16.19,-52.58 -10.8,-10.65 -26.53,-15.96 -47.18,-15.96 -12.21,0 -20.66,2.18 -25.35,6.57 -4.69,4.38 -7.04,13.3 -7.04,26.76l0 98.58c7.51,1.25 16.74,1.87 27.69,1.87 24.42,0 41.86,-5.31 52.35,-15.96 10.48,-10.63 15.72,-27.07 15.72,-49.28zm276.97 181.2c0,9.7 0.95,16.74 2.82,21.12 1.88,4.38 5.56,7.36 11.03,8.92 5.48,1.57 14.17,2.35 26.06,2.35 0.94,0 1.4,0.94 1.4,2.82 0,1.87 -0.46,2.81 -1.4,2.81 -9.39,0 -16.9,-0.15 -22.54,-0.46l-33.33 -0.48 -32.39 0.48c-5.63,0.31 -13.3,0.46 -23,0.46 -0.94,0 -1.41,-0.94 -1.41,-2.81 0,-1.88 0.47,-2.82 1.41,-2.82 11.89,0 20.58,-0.78 26.05,-2.35 5.48,-1.56 9.24,-4.61 11.27,-9.15 2.03,-4.54 3.05,-11.5 3.05,-20.89l0 -217.36c0,-9.38 -1.02,-16.27 -3.05,-20.65 -2.03,-4.38 -5.79,-7.43 -11.27,-9.15 -5.47,-1.72 -14.16,-2.58 -26.05,-2.58 -0.94,0 -1.41,-0.94 -1.41,-2.82 0,-1.88 0.47,-2.82 1.41,-2.82l23 0.47c13.15,0.63 23.94,0.94 32.39,0.94 9.4,0 20.66,-0.31 33.81,-0.94l22.06 -0.47c0.94,0 1.4,0.94 1.4,2.82 0,1.88 -0.46,2.82 -1.4,2.82 -11.58,0 -20.19,0.93 -25.82,2.81 -5.64,1.88 -9.39,5.09 -11.27,9.63 -1.87,4.53 -2.82,11.5 -2.82,20.89l0 216.41zm213.14 -100.46l124.4 0 3.28 9.39 -132.38 0 4.7 -9.39zm232.37 132.85c1.25,0 1.88,0.94 1.88,2.82 0,1.87 -0.63,2.81 -1.88,2.81 -5.95,0 -15.18,-0.31 -27.7,-0.94 -12.52,-0.62 -21.59,-0.93 -27.23,-0.93 -6.88,0 -15.64,0.31 -26.28,0.93 -10.02,0.63 -17.69,0.94 -23.01,0.94 -1.25,0 -1.88,-0.94 -1.88,-2.81 0,-1.88 0.63,-2.82 1.88,-2.82 11.9,0 20.42,-1.1 25.59,-3.28 5.16,-2.2 7.75,-6.11 7.75,-11.74 0,-4.7 -1.88,-11.27 -5.64,-19.72l-104.22 -220.17 11.74 -14.55 -91.07 215.47c-4.39,10.65 -6.57,19.41 -6.57,26.3 0,18.46 15.33,27.69 46,27.69 1.57,0 2.35,0.94 2.35,2.82 0,1.87 -0.78,2.81 -2.35,2.81 -5.63,0 -13.77,-0.31 -24.41,-0.94 -11.89,-0.62 -22.22,-0.93 -30.98,-0.93 -8.14,0 -17.53,0.31 -28.17,0.93 -9.39,0.63 -17.21,0.94 -23.47,0.94 -1.57,0 -2.35,-0.94 -2.35,-2.81 0,-1.88 0.78,-2.82 2.35,-2.82 8.76,0 16.2,-1.64 22.3,-4.93 6.1,-3.28 11.89,-9.07 17.36,-17.37 5.48,-8.29 11.51,-20.26 18.08,-35.91l99.05 -233.78c0.63,-0.94 1.72,-1.41 3.29,-1.41 1.56,0 2.5,0.47 2.81,1.41l110.79 233.31c10.64,23.16 19.72,38.73 27.23,46.71 7.51,7.98 16.43,11.97 26.76,11.97zm-2744.36 426.11c0,10.02 1.33,17.3 3.99,21.83 2.66,4.54 7.82,7.75 15.49,9.63 7.67,1.87 19.8,2.81 36.38,2.81 0.94,0 1.41,0.94 1.41,2.82 0,1.87 -0.47,2.82 -1.41,2.82 -12.83,0 -22.85,-0.16 -30.04,-0.47l-40.84 -0.48 -31.46 0.48c-5.94,0.31 -13.92,0.47 -23.94,0.47 -0.63,0 -0.94,-0.95 -0.94,-2.82 0,-1.88 0.31,-2.82 0.94,-2.82 11.89,0 20.58,-0.78 26.06,-2.35 5.47,-1.56 9.15,-4.61 11.03,-9.15 1.88,-4.54 2.82,-11.5 2.82,-20.89l0 -217.35c0,-9.39 -0.94,-16.27 -2.82,-20.66 -1.88,-4.38 -5.56,-7.43 -11.03,-9.15 -5.48,-1.72 -14.17,-2.58 -26.06,-2.58 -0.63,0 -0.94,-0.94 -0.94,-2.82 0,-1.88 0.31,-2.82 0.94,-2.82l23.47 0.48c13.15,0.62 23.64,0.93 31.45,0.93 7.83,0 16.6,-0.47 26.3,-1.41 3.75,0 9.7,-0.23 17.83,-0.7 8.14,-0.47 15.19,-0.7 21.13,-0.7 28.79,0 51.88,6.41 69.24,19.24 17.37,12.84 26.06,32.4 26.06,58.68 0,20.66 -5.09,38.03 -15.26,52.11 -10.17,14.08 -23.24,24.57 -39.2,31.45 -15.96,6.89 -32.39,10.33 -49.29,10.33 -9.08,0 -16.59,-0.78 -22.54,-2.35 -0.93,0 -1.4,-0.78 -1.4,-2.34 0,-0.94 0.23,-1.88 0.7,-2.82 0.47,-0.94 1.02,-1.25 1.65,-0.94 5,1.26 10.63,1.88 16.9,1.88 20.65,0 38.1,-6.73 52.34,-20.19 14.24,-13.45 21.36,-32.86 21.36,-58.21 0,-24.72 -6.73,-44.2 -20.19,-58.44 -13.45,-14.24 -30.67,-21.36 -51.64,-21.36 -11.27,0 -19.4,0.63 -24.41,1.88 -5.01,1.25 -8.6,4.14 -10.8,8.68 -2.18,4.54 -3.28,12.13 -3.28,22.77l0 214.53zm479.77 39.91c-7.83,0 -22.77,-13.38 -44.84,-40.14 -22.06,-26.76 -48.58,-63.61 -79.56,-110.56l26.28 -7.97c27.23,39.11 50,69.55 68.31,91.3 18.31,21.75 34.5,37.48 48.58,47.18 14.09,9.7 27.86,14.55 41.31,14.55 0.95,0 1.41,0.94 1.41,2.82 0,1.87 -0.46,2.82 -1.41,2.82l-60.08 0zm-118.3 -294.81c24.72,0 43.81,5.63 57.27,16.89 13.46,11.27 20.18,26.3 20.18,45.07 0,16.59 -4.85,31.69 -14.55,45.3 -9.7,13.62 -22.76,24.41 -39.2,32.4 -16.42,7.97 -34.03,11.97 -52.81,11.97 -1.88,0 -8.92,-0.48 -21.12,-1.41l0 106.56c0,9.7 0.94,16.74 2.81,21.13 1.88,4.38 5.56,7.35 11.03,8.91 5.48,1.57 14.17,2.35 26.06,2.35 0.94,0 1.41,0.94 1.41,2.82 0,1.87 -0.47,2.82 -1.41,2.82 -9.7,0 -17.37,-0.16 -23,-0.47l-32.4 -0.48 -31.91 0.48c-5.64,0.31 -13.62,0.47 -23.95,0.47 -0.62,0 -0.94,-0.95 -0.94,-2.82 0,-1.88 0.32,-2.82 0.94,-2.82 11.89,0 20.66,-0.86 26.29,-2.58 5.63,-1.72 9.54,-4.77 11.74,-9.15 2.19,-4.38 3.28,-11.27 3.28,-20.66l0 -217.35c0,-9.39 -1.01,-16.27 -3.05,-20.66 -2.03,-4.38 -5.79,-7.43 -11.27,-9.15 -5.47,-1.72 -14.16,-2.58 -26.05,-2.58 -0.94,0 -1.41,-0.94 -1.41,-2.82 0,-1.88 0.47,-2.82 1.41,-2.82l23.01 0.48c13.14,0.62 23.78,0.93 31.91,0.93 6.89,0 13.31,-0.16 19.25,-0.47 5.95,-0.31 10.95,-0.62 15.02,-0.94 11.9,-0.93 22.38,-1.4 31.46,-1.4zm45.53 75.58c0,-24.42 -5.39,-41.94 -16.19,-52.58 -10.8,-10.64 -26.53,-15.96 -47.18,-15.96 -12.21,0 -20.66,2.19 -25.35,6.57 -4.69,4.38 -7.04,13.3 -7.04,26.76l0 98.58c7.51,1.25 16.74,1.88 27.69,1.88 24.42,0 41.86,-5.32 52.35,-15.96 10.48,-10.64 15.72,-27.07 15.72,-49.29zm279.32 80.74l124.41 0 3.28 9.39 -132.38 0 4.69 -9.39zm232.38 132.85c1.25,0 1.88,0.94 1.88,2.82 0,1.87 -0.63,2.82 -1.88,2.82 -5.95,0 -15.18,-0.32 -27.7,-0.95 -12.52,-0.62 -21.6,-0.93 -27.23,-0.93 -6.88,0 -15.65,0.31 -26.28,0.93 -10.02,0.63 -17.69,0.95 -23.01,0.95 -1.25,0 -1.88,-0.95 -1.88,-2.82 0,-1.88 0.63,-2.82 1.88,-2.82 11.89,0 20.42,-1.1 25.59,-3.28 5.16,-2.2 7.74,-6.11 7.74,-11.74 0,-4.7 -1.87,-11.27 -5.63,-19.71l-104.22 -220.18 11.74 -14.55 -91.07 215.48c-4.39,10.64 -6.57,19.4 -6.57,26.29 0,18.46 15.33,27.69 46,27.69 1.56,0 2.35,0.94 2.35,2.82 0,1.87 -0.79,2.82 -2.35,2.82 -5.64,0 -13.77,-0.32 -24.41,-0.95 -11.89,-0.62 -22.22,-0.93 -30.99,-0.93 -8.13,0 -17.52,0.31 -28.16,0.93 -9.39,0.63 -17.21,0.95 -23.47,0.95 -1.57,0 -2.35,-0.95 -2.35,-2.82 0,-1.88 0.78,-2.82 2.35,-2.82 8.76,0 16.19,-1.64 22.29,-4.93 6.11,-3.28 11.9,-9.07 17.37,-17.36 5.48,-8.3 11.51,-20.27 18.08,-35.92l99.05 -233.78c0.62,-0.94 1.72,-1.41 3.28,-1.41 1.57,0 2.51,0.47 2.82,1.41l110.79 233.31c10.64,23.16 19.72,38.73 27.23,46.71 7.51,7.98 16.43,11.97 26.76,11.97zm186.36 5.17c-0.31,1.25 -2.03,1.88 -5.16,1.88 -2.5,0 -4.23,-0.63 -5.16,-1.88l-116.89 -253.97c-5.64,-12.52 -11.27,-21.21 -16.91,-26.06 -5.63,-4.85 -13.29,-7.27 -23,-7.27 -0.94,0 -1.41,-0.94 -1.41,-2.82 0,-1.88 0.47,-2.82 1.41,-2.82l17.84 0.48c8.77,0.62 15.81,0.93 21.12,0.93 11.27,0 23.48,-0.31 36.62,-0.93l19.25 -0.48c0.94,0 1.41,0.94 1.41,2.82 0,1.88 -0.47,2.82 -1.41,2.82 -9.39,0 -16.35,1.09 -20.89,3.29 -4.54,2.18 -6.81,5.94 -6.81,11.26 0,4.7 1.57,10.33 4.69,16.9l104.22 223.92 -16.9 22.54 61.5 -153.51 7.04 10.33 -60.56 152.57zm272.28 -292.94c0.62,0 0.94,0.94 0.94,2.82 0,1.88 -0.32,2.82 -0.94,2.82 -10.64,0 -19.87,2.81 -27.7,8.45 -7.82,5.63 -14.55,15.18 -20.18,28.63l-100 250.22c-0.31,1.25 -2.03,1.88 -5.16,1.88 -2.5,0 -4.22,-0.63 -5.16,-1.88l-116.42 -253.97c-5.64,-12.21 -11.27,-20.82 -16.9,-25.82 -5.64,-5.01 -12.99,-7.51 -22.07,-7.51 -0.94,0 -1.41,-0.94 -1.41,-2.82 0,-1.88 0.47,-2.82 1.41,-2.82l17.84 0.48c8.14,0.62 14.87,0.93 20.19,0.93 8.76,0 17.83,-0.31 27.23,-0.93l12.67 -0.48c0.94,0 1.41,0.94 1.41,2.82 0,1.88 -0.47,2.82 -1.41,2.82 -5.63,0 -9.7,0.54 -12.21,1.64 -2.5,1.1 -3.75,3.05 -3.75,5.87 0,3.75 2.82,11.74 8.45,23.94l104.69 223.92 -16.9 22.54 97.17 -242.7c2.51,-6.58 3.76,-11.74 3.76,-15.5 0,-6.88 -2.9,-11.89 -8.69,-15.02 -5.79,-3.13 -14.79,-4.69 -26.99,-4.69 -0.94,0 -1.41,-0.94 -1.41,-2.82 0,-1.88 0.47,-2.82 1.41,-2.82l19.71 0.48c10.65,0.62 20.19,0.93 28.64,0.93 6.26,0 13.46,-0.31 21.6,-0.93l20.18 -0.48zm-180.74 39.91c3.76,-8.45 5.64,-15.34 5.64,-20.66 0,-9.07 -6.73,-13.61 -20.19,-13.61 -0.94,0 -1.41,-0.94 -1.41,-2.82 0,-1.88 0.47,-2.82 1.41,-2.82l10.8 0.48c6.26,0.62 12.83,0.93 19.71,0.93 6.27,0 13.47,-0.31 21.6,-0.93l19.25 -0.48c0.62,0 0.94,0.94 0.94,2.82 0,1.88 -0.32,2.82 -0.94,2.82 -10.64,0 -19.64,2.74 -27,8.21 -7.35,5.48 -13.85,15.11 -19.48,28.87l-38.96 97.65 -7.04 -10.33 35.67 -90.13z"/>
 </g>
</svg>
